<svg xml:space="preserve" viewBox="0 0 100 100" y="0" x="0" xmlns="http://www.w3.org/2000/svg" id="圖層_1" version="1.1" style="margin: initial; display: block; shape-rendering: auto; background: transparent;" preserveAspectRatio="xMidYMid" width="200" height="200"><g class="ldl-scale" style="transform-origin: 50% 50%; transform: rotate(0deg) scale(0.8, 0.8);"><g class="ldl-ani"><g class="ldl-layer"><g class="ldl-ani"><g><g class="ldl-layer"><g class="ldl-ani" style="transform-box: view-box; opacity: 1; transform-origin: 50px 50px; transform: matrix3d(1, 0, 0, 0, 0, 1, 0, 0, 0, 0, 1, 0, 0, 0, 0, 1); animation: 10s linear -5.83333s infinite normal forwards running animate;"><path d="M8.808 32.31l55.414-20.035 20.034 55.413-55.414 20.035z" stroke-miterlimit="10" stroke-width="3.5699286" stroke="#333" fill="#fff" style="stroke-width: 3.56993; fill: rgb(255, 255, 255); stroke: rgb(63, 63, 70);"></path></g></g><g class="ldl-layer"><g class="ldl-ani" style="transform-box: view-box; opacity: 1; transform-origin: 50px 50px; transform: matrix3d(1, 0, 0, 0, 0, 1, 0, 0, 0, 0, 1, 0, 0, 0, 0, 1); animation: 10s linear -6.66667s infinite normal forwards running animate;"><path d="M23.881 27.347h45.305v45.305H23.881z" fill="#a0c8d7" transform="rotate(-19.881 46.533 50.005)" style="stroke-width: 1; fill: rgb(129, 140, 248);"></path></g></g></g></g></g><g class="ldl-layer"><g class="ldl-ani"><g><g class="ldl-layer"><g class="ldl-ani" style="transform-box: view-box; opacity: 1; transform-origin: 50px 50px; transform: matrix3d(1, 0, 0, 0, 0, 1, 0, 0, 0, 0, 1, 0, 0, 0, 0, 1); animation: 10s linear -7.5s infinite normal forwards running animate;"><path d="M26.38 20.537h58.926v58.925H26.38z" stroke-miterlimit="10" stroke-width="3.57" stroke="#333" fill="#fff" style="stroke-width: 3.57; fill: rgb(255, 255, 255); stroke: rgb(63, 63, 70);"></path></g></g><g class="ldl-layer"><g class="ldl-ani" style="transform-box: view-box; opacity: 1; transform-origin: 50px 50px; transform: matrix3d(1, 0, 0, 0, 0, 1, 0, 0, 0, 0, 1, 0, 0, 0, 0, 1); animation: 10s linear -8.33333s infinite normal forwards running animate;"><path d="M33.19 27.347h45.305v45.305H33.19z" fill="#abbd81" style="stroke-width: 1; fill: rgb(252, 211, 77);"></path></g></g></g></g></g><g class="ldl-layer"><g class="ldl-ani"><g><g class="ldl-layer"><g class="ldl-ani" style="transform-box: view-box; opacity: 1; transform-origin: 50px 50px; transform: matrix3d(1, 0, 0, 0, 0, 1, 0, 0, 0, 0, 1, 0, 0, 0, 0, 1); animation: 10s linear -9.16667s infinite normal forwards running animate;"><circle stroke-miterlimit="10" stroke-width="4" stroke="#333" fill="#fff" r="14.738" cy="70.285" cx="76.453" style="stroke-width: 4; fill: rgb(255, 255, 255); stroke: rgb(63, 63, 70);"></circle></g></g><g class="ldl-layer"><g class="ldl-ani" style="transform-box: view-box; opacity: 1; transform-origin: 50px 50px; transform: matrix3d(1, 0, 0, 0, 0, 1, 0, 0, 0, 0, 1, 0, 0, 0, 0, 1); animation: 10s linear -10s infinite normal forwards running animate;"><path fill="#849b87" d="M70.845 65.823l-2.03-.626a9.131 9.131 0 0 0-1.362 3.285l1.877.993c-.03.267-.049.536-.049.811s.019.544.049.811l-1.877.993a9.113 9.113 0 0 0 1.362 3.285l2.03-.626a7.21 7.21 0 0 0 1.145 1.145l-.626 2.03a9.113 9.113 0 0 0 3.285 1.362l.993-1.877c.266.03.536.049.811.049s.544-.019.811-.049l.993 1.877a9.113 9.113 0 0 0 3.285-1.362l-.626-2.03a7.21 7.21 0 0 0 1.145-1.145l2.03.626a9.131 9.131 0 0 0 1.362-3.285l-1.877-.993c.03-.267.049-.536.049-.811s-.019-.544-.049-.811l1.877-.993a9.113 9.113 0 0 0-1.362-3.285l-2.03.626a7.21 7.21 0 0 0-1.145-1.145l.626-2.03a9.113 9.113 0 0 0-3.285-1.362l-.993 1.877a7.223 7.223 0 0 0-.811-.049c-.275 0-.544.019-.811.049l-.993-1.877a9.113 9.113 0 0 0-3.285 1.362l.626 2.03a7.21 7.21 0 0 0-1.145 1.145zm5.608-.701a5.163 5.163 0 1 1 0 10.326 5.163 5.163 0 0 1 0-10.326z" style="stroke-width: 1; fill: rgb(101, 163, 13);"></path></g></g></g></g></g><metadata xmlns:d="https://loading.io/stock/"></metadata></g></g><style type="text/css">@keyframes animate { 0.00% {transform: translate(0.00px,0.00px) rotate(0.00deg) scale(1.00, 1.00) skew(0deg, 0.00deg) ;opacity: 1.00;}4.00% {transform: translate(0.38px,2.87px) rotate(2.75deg) ;}6.00% {transform: translate(0.57px,4.30px) rotate(4.13deg) ;}8.00% {animation-timing-function: cubic-bezier(0.69,0.61,0.35,0.28);transform: translate(0.76px,5.74px) rotate(5.51deg) ;}12.00% {transform: translate(1.13px,3.81px) rotate(-1.45deg) ;}14.00% {transform: translate(1.31px,2.62px) rotate(-5.37deg) ;}16.00% {animation-timing-function: cubic-bezier(0.69,0.59,0.36,0.26);transform: translate(1.50px,1.44px) rotate(-9.30deg) ;}20.00% {transform: translate(1.86px,-1.69px) rotate(-0.82deg) ;}22.00% {transform: translate(2.04px,-3.33px) rotate(5.05deg) ;}24.00% {transform: translate(2.22px,-4.97px) rotate(10.92deg) ;}26.00% {transform: translate(2.39px,-5.35px) rotate(10.39deg) ;}30.00% {transform: translate(2.73px,-3.55px) rotate(-3.46deg) ;}32.00% {transform: translate(2.90px,-2.66px) rotate(-10.38deg) ;}34.00% {transform: translate(3.07px,-1.46px) rotate(-12.69deg) ;}36.00% {transform: translate(3.23px,0.34px) rotate(-5.76deg) ;}38.00% {transform: translate(3.38px,2.14px) rotate(1.16deg) ;}40.00% {transform: translate(3.54px,3.93px) rotate(8.09deg) ;}42.00% {transform: translate(3.70px,5.34px) rotate(12.88deg) ;}44.00% {transform: translate(3.84px,4.76px) rotate(7.01deg) ;}46.00% {transform: translate(3.98px,4.17px) rotate(1.13deg) ;}48.00% {animation-timing-function: cubic-bezier(0.33,0.20,0.67,0.40);transform: translate(4.12px,3.59px) rotate(-4.74deg) ;}50.00% {animation-timing-function: cubic-bezier(0.33,0.20,0.67,0.40);transform: translate(NaNpx,NaNpx) rotate(0.00deg) scale(0.00, 0.00) ;}52.00% {transform: translate(4.39px,1.11px) rotate(-6.69deg) scale(1.00, 1.00) ;}54.00% {transform: translate(4.51px,-0.79px) rotate(-2.76deg) ;}56.00% {transform: translate(4.64px,-2.69px) rotate(1.17deg) ;}58.00% {transform: translate(4.76px,-4.59px) rotate(5.10deg) ;}60.00% {transform: translate(4.87px,-4.70px) rotate(4.60deg) ;}62.00% {transform: translate(4.97px,-4.45px) rotate(3.21deg) ;}64.00% {transform: translate(5.08px,-4.20px) rotate(1.83deg) ;}66.00% {animation-timing-function: cubic-bezier(0.67,0.65,0.34,0.31);transform: translate(5.18px,-3.95px) rotate(0.45deg) ;}70.00% {transform: translate(5.35px,-0.63px) rotate(-2.30deg) ;}74.00% {animation-timing-function: cubic-bezier(0.65,0.73,0.31,0.40);transform: translate(5.52px,3.26px) rotate(-5.04deg) ;}78.00% {transform: translate(5.65px,4.37px) rotate(0.15deg) ;}80.00% {transform: translate(5.71px,4.46px) rotate(4.07deg) ;}82.00% {transform: translate(5.77px,4.55px) rotate(7.98deg) ;}84.00% {transform: translate(5.82px,3.97px) rotate(8.64deg) ;}86.00% {transform: translate(5.85px,2.04px) rotate(2.77deg) ;}88.00% {transform: translate(5.89px,0.11px) rotate(-3.09deg) ;}90.00% {transform: translate(5.93px,-1.81px) rotate(-8.96deg) ;}92.00% {transform: translate(5.72px,-3.28px) rotate(-13.30deg) ;}94.00% {transform: translate(4.29px,-2.46px) rotate(-9.97deg) ;}96.00% {transform: translate(2.86px,-1.64px) rotate(-6.65deg) ;}100.00% {transform: translate(NaNpx,NaNpx) rotate(0.00deg) scale(0.00, 0.00) ;} }</style><!-- [ldio] generated by https://loading.io --></svg>
