<svg xml:space="preserve" viewBox="0 0 100 100" y="0" x="0" xmlns="http://www.w3.org/2000/svg" id="圖層_1" version="1.1" style="margin: initial; display: block; shape-rendering: auto; background: transparent;" preserveAspectRatio="xMidYMid" width="200" height="200"><g class="ldl-scale" style="transform-origin: 50% 50%; transform: rotate(0deg) scale(0.8, 0.8);"><g class="ldl-ani"><g class="ldl-layer"><g class="ldl-ani" style="transform-box: view-box; opacity: 1; transform-origin: 50px 50px; transform: matrix3d(0.91, 0, 0, 0, 0, 0.91, 0, 0, 0, 0, 0.91, 0, 0, 0, 0, 1); animation: 1s linear -0.55s infinite normal forwards running animate;"><path fill="#f5e6c8" d="M72.88 12.333H24.442a4.656 4.656 0 0 0-4.642 4.642v64.28a4.656 4.656 0 0 0 4.642 4.642h48.437a4.656 4.656 0 0 0 4.642-4.642V16.974a4.641 4.641 0 0 0-4.641-4.641z" style="stroke-width: 1; fill: rgb(255, 228, 230);"></path></g></g><g class="ldl-layer"><g class="ldl-ani"><g><g class="ldl-layer"><g class="ldl-ani"><g><g class="ldl-layer"><g class="ldl-ani" style="transform-box: view-box; opacity: 1; transform-origin: 50px 50px; transform: matrix3d(0.91, 0, 0, 0, 0, 0.91, 0, 0, 0, 0, 0.91, 0, 0, 0, 0, 1); animation: 1s linear -0.6s infinite normal forwards running animate;"><path fill="#66503a" d="M89.837 35.235l.082-.015a.112.112 0 0 0-.082.015z" style="stroke-width: 1; fill: rgb(225, 29, 72);"></path></g></g><g class="ldl-layer"><g class="ldl-ani" style="transform-box: view-box; opacity: 1; transform-origin: 50px 50px; transform: matrix3d(0.91, 0, 0, 0, 0, 0.91, 0, 0, 0, 0, 0.91, 0, 0, 0, 0, 1); animation: 1s linear -0.65s infinite normal forwards running animate;"><path fill="#66503a" d="M78.448 50.826c2.764-.551 5.562-.63 8.247-.226 1.607-2.686 2.453-5.468 2.553-7.934-2.613.638-5.269 1.759-7.792 3.373a29.849 29.849 0 0 1 7.741-5.09c-.165-3.333.276-5.503.641-5.712-.464.085-3.05.591-6.325 1.929-3.62 1.479-8.074 3.971-11.407 8.028s-4.915 8.909-5.663 12.747c-.748 3.838-.663 6.662-.663 6.662s2.787-.465 6.407-1.943c3.62-1.479 8.074-3.972 11.407-8.028a22.607 22.607 0 0 0 1.83-2.146c-2.101-.939-4.454-1.518-6.976-1.66z" style="stroke-width: 1; fill: rgb(225, 29, 72);"></path></g></g></g></g></g><g class="ldl-layer"><g class="ldl-ani" style="transform-box: view-box; opacity: 1; transform-origin: 50px 50px; transform: matrix3d(0.91, 0, 0, 0, 0, 0.91, 0, 0, 0, 0, 0.91, 0, 0, 0, 0, 1); animation: 1s linear -0.7s infinite normal forwards running animate;"><path fill="#fff" d="M62.863 76.436c.111-3.381.665-6.759 1.703-9.977 1.029-3.22 2.548-6.271 4.374-9.064 3.615-5.606 8.003-10.596 12.471-15.442a.344.344 0 0 1 .513.456c-4.286 4.993-8.46 10.106-11.8 15.718-1.681 2.785-3.017 5.74-3.887 8.835-.876 3.091-1.284 6.298-1.276 9.506a1.05 1.05 0 0 1-2.098.006v-.038z" style="stroke-width: 1; fill: rgb(255, 255, 255);"></path></g></g></g></g></g><g class="ldl-layer"><g class="ldl-ani"><g><g class="ldl-layer"><g class="ldl-ani" style="transform-box: view-box; opacity: 1; transform-origin: 50px 50px; transform: matrix3d(0.91, 0, 0, 0, 0, 0.91, 0, 0, 0, 0, 0.91, 0, 0, 0, 0, 1); animation: 1s linear -0.75s infinite normal forwards running animate;"><path d="M28.55 22.552h40.221" stroke-miterlimit="10" stroke-linejoin="round" stroke-linecap="round" stroke-width="3" stroke="#333" fill="none" style="stroke-width: 3; stroke: rgb(159, 18, 57);"></path></g></g><g class="ldl-layer"><g class="ldl-ani" style="transform-box: view-box; opacity: 1; transform-origin: 50px 50px; transform: matrix3d(0.91, 0, 0, 0, 0, 0.91, 0, 0, 0, 0, 0.91, 0, 0, 0, 0, 1); animation: 1s linear -0.8s infinite normal forwards running animate;"><path d="M28.55 30.933h40.221" stroke-miterlimit="10" stroke-linejoin="round" stroke-linecap="round" stroke-width="3" stroke="#333" fill="none" style="stroke-width: 3; stroke: rgb(159, 18, 57);"></path></g></g><g class="ldl-layer"><g class="ldl-ani" style="transform-box: view-box; opacity: 1; transform-origin: 50px 50px; transform: matrix3d(0.91, 0, 0, 0, 0, 0.91, 0, 0, 0, 0, 0.91, 0, 0, 0, 0, 1); animation: 1s linear -0.85s infinite normal forwards running animate;"><path d="M28.55 39.315h40.221" stroke-miterlimit="10" stroke-linejoin="round" stroke-linecap="round" stroke-width="3" stroke="#333" fill="none" style="stroke-width: 3; stroke: rgb(159, 18, 57);"></path></g></g><g class="ldl-layer"><g class="ldl-ani" style="transform-box: view-box; opacity: 1; transform-origin: 50px 50px; transform: matrix3d(0.91, 0, 0, 0, 0, 0.91, 0, 0, 0, 0, 0.91, 0, 0, 0, 0, 1); animation: 1s linear -0.9s infinite normal forwards running animate;"><path d="M28.55 47.697h26.896" stroke-miterlimit="10" stroke-linejoin="round" stroke-linecap="round" stroke-width="3" stroke="#333" fill="none" style="stroke-width: 3; stroke: rgb(159, 18, 57);"></path></g></g></g></g></g><g class="ldl-layer"><g class="ldl-ani" style="transform-box: view-box; opacity: 1; transform-origin: 50px 50px; transform: matrix3d(0.91, 0, 0, 0, 0, 0.91, 0, 0, 0, 0, 0.91, 0, 0, 0, 0, 1); animation: 1s linear -0.95s infinite normal forwards running animate;"><path stroke-miterlimit="10" stroke-linejoin="round" stroke-linecap="round" stroke-width="2" stroke="#333" fill="none" d="M41.998 80.631c.042-2.493.311-4.983.802-7.428.128-.636.283-1.296.701-1.792.704-.835 2.028-.958 3-.459.972.498 1.612 1.494 1.925 2.541s.339 2.154.363 3.245l.083 3.822c-.245-2.423 1.764-4.858 4.193-5.035.897-.065 1.976.3 2.172 1.178.086.383-.021.78-.055 1.171-.134 1.503.939 3.024 2.4 3.402" style="stroke-width: 2; stroke: rgb(159, 18, 57);"></path></g></g><g class="ldl-layer"><g class="ldl-ani" style="transform-box: view-box; opacity: 1; transform-origin: 50px 50px; transform: matrix3d(0.91, 0, 0, 0, 0, 0.91, 0, 0, 0, 0, 0.91, 0, 0, 0, 0, 1); animation: 1s linear -1s infinite normal forwards running animate;"><circle fill="#333" r="1.866" cy="70.723" cx="55.715" style="stroke-width: 1; fill: rgb(159, 18, 57);"></circle></g></g><metadata xmlns:d="https://loading.io/stock/"></metadata></g></g><style type="text/css">@keyframes animate { 0.00% {transform: translate(0.00px,0.00px) rotate(0.00deg) scale(0.91, 0.91) skew(0deg, 0.00deg) ;opacity: 1.00;}4.00% {transform: translate(0.00px,0.00px) rotate(0.00deg) scale(0.91, 0.91) ;}8.00% {animation-timing-function: cubic-bezier(0.69,0.60,0.35,0.27);transform: translate(0.00px,0.00px) rotate(0.00deg) scale(0.91, 0.91) ;}14.00% {transform: translate(0.00px,0.00px) rotate(0.00deg) scale(0.93, 0.93) ;}18.00% {transform: translate(0.00px,0.00px) rotate(0.00deg) scale(0.94, 0.94) ;}22.00% {animation-timing-function: cubic-bezier(0.67,0.66,0.34,0.33);transform: translate(0.00px,0.00px) rotate(0.00deg) scale(0.96, 0.96) ;}26.00% {transform: translate(0.00px,0.00px) rotate(0.00deg) scale(0.97, 0.97) ;}30.00% {transform: translate(0.00px,0.00px) rotate(0.00deg) scale(0.99, 0.99) ;}34.00% {animation-timing-function: cubic-bezier(0.65,0.71,0.32,0.38);transform: translate(0.00px,0.00px) rotate(0.00deg) scale(1.01, 1.01) ;}40.00% {animation-timing-function: cubic-bezier(0.64,0.74,0.31,0.41);transform: translate(0.00px,0.00px) rotate(0.00deg) scale(1.02, 1.02) ;}46.00% {animation-timing-function: cubic-bezier(0.60,0.91,0.23,0.63);transform: translate(0.00px,0.00px) rotate(0.00deg) scale(1.03, 1.03) ;}50.00% {transform: translate(0.00px,0.00px) rotate(0.00deg) scale(1.03, 1.03) ;}54.00% {transform: translate(0.00px,0.00px) rotate(0.00deg) scale(1.03, 1.03) ;}58.00% {animation-timing-function: cubic-bezier(0.69,0.60,0.35,0.27);transform: translate(0.00px,0.00px) rotate(0.00deg) scale(1.03, 1.03) ;}64.00% {transform: translate(0.00px,0.00px) rotate(0.00deg) scale(1.01, 1.01) ;}68.00% {transform: translate(0.00px,0.00px) rotate(0.00deg) scale(1.00, 1.00) ;}72.00% {animation-timing-function: cubic-bezier(0.67,0.66,0.34,0.33);transform: translate(0.00px,0.00px) rotate(0.00deg) scale(0.98, 0.98) ;}76.00% {animation-timing-function: cubic-bezier(0.66,0.68,0.33,0.35);transform: translate(0.00px,0.00px) rotate(0.00deg) scale(0.97, 0.97) ;}82.00% {animation-timing-function: cubic-bezier(0.65,0.71,0.32,0.38);transform: translate(0.00px,0.00px) rotate(0.00deg) scale(0.94, 0.94) ;}88.00% {animation-timing-function: cubic-bezier(0.65,0.73,0.31,0.40);transform: translate(0.00px,0.00px) rotate(0.00deg) scale(0.92, 0.92) ;}94.00% {animation-timing-function: cubic-bezier(0.63,0.80,0.28,0.48);transform: translate(0.00px,0.00px) rotate(0.00deg) scale(0.91, 0.91) ;}100.00% {animation-timing-function: cubic-bezier(0.63,0.80,0.28,0.48);transform: translate(0.00px,0.00px) rotate(0.00deg) scale(0.91, 0.91) ;} }</style><!-- [ldio] generated by https://loading.io --></svg>
