<svg width="710" height="460" viewBox="0 0 710 460" fill="none" xmlns="http://www.w3.org/2000/svg">
  <g clip-path="url(#clip0_2529_2569)">
    <rect width="710" height="460" fill="white"/>
    <g clip-path="url(#clip1_2529_2569)">
      <g opacity="0.15" filter="url(#filter0_f_2529_2569)">
      </g>
      <g opacity="0.3" filter="url(#filter1_f_2529_2569)">
      </g>
      <g opacity="0.3" filter="url(#filter2_f_2529_2569)">
        <path d="M710.46 26.0061C89.3041 -99.5861 29.476 270.385 6.60053 272.86C6.60053 340.914 -42.6697 588.386 128.016 768.422C298.702 948.459 265.855 427.529 472.321 645.306C678.787 863.081 894.05 466.507 710.46 272.86C526.87 79.2126 1331.62 151.598 710.46 26.0061Z" fill="#F87171"/>
      </g>
    </g>
    <path d="M129.55 126.634H555.074" stroke="white" stroke-width="1.4363" stroke-miterlimit="10"/>
    <path d="M549.517 362.97H135.107C132.037 362.97 129.55 360.473 129.55 357.391V104.205C129.55 101.124 132.037 98.626 135.107 98.626H549.518C552.588 98.626 555.075 101.124 555.075 104.205V357.391C555.074 360.473 552.587 362.97 549.517 362.97Z" stroke="white" stroke-width="1.4363" stroke-miterlimit="10"/>
    <path d="M157.593 112.916C157.593 115.074 155.85 116.824 153.7 116.824C151.551 116.824 149.808 115.075 149.808 112.916C149.808 110.758 151.55 109.008 153.7 109.008C155.85 109.008 157.593 110.757 157.593 112.916Z" stroke="white" stroke-width="1.4363" stroke-miterlimit="10"/>
    <path d="M172.72 112.916C172.72 115.074 170.978 116.824 168.828 116.824C166.678 116.824 164.935 115.075 164.935 112.916C164.935 110.758 166.677 109.008 168.828 109.008C170.978 109.008 172.72 110.757 172.72 112.916Z" stroke="white" stroke-width="1.4363" stroke-miterlimit="10"/>
    <path d="M187.848 112.916C187.848 115.074 186.106 116.824 183.956 116.824C181.806 116.824 180.063 115.075 180.063 112.916C180.063 110.758 181.805 109.008 183.956 109.008C186.105 109.008 187.848 110.757 187.848 112.916Z" stroke="white" stroke-width="1.4363" stroke-miterlimit="10"/>
    <path d="M138.605 278.139H54.7531C52.1418 278.139 50.0244 276.013 50.0244 273.391V225.891C50.0244 223.27 52.1418 221.144 54.7531 221.144H138.605C141.216 221.144 143.334 223.27 143.334 225.891V273.391C143.335 276.013 141.217 278.139 138.605 278.139Z" fill="#FEE2E2"/>
    <path d="M138.605 278.139H54.7531C52.1418 278.139 50.0244 276.013 50.0244 273.391V225.891C50.0244 223.27 52.1418 221.144 54.7531 221.144H138.605C141.216 221.144 143.334 223.27 143.334 225.891V273.391C143.335 276.013 141.217 278.139 138.605 278.139Z" stroke="white" stroke-width="1.4363" stroke-miterlimit="10"/>
    <path d="M632.444 261.235H517.893C515.073 261.235 512.788 258.94 512.788 256.109V175.484C512.788 172.653 515.073 170.358 517.893 170.358H632.443C635.263 170.358 637.548 172.654 637.548 175.484V256.109C637.549 258.939 635.263 261.235 632.444 261.235Z" fill="#FEE2E2"/>
    <path d="M632.444 261.235H517.893C515.073 261.235 512.788 258.94 512.788 256.109V175.484C512.788 172.653 515.073 170.358 517.893 170.358H632.443C635.263 170.358 637.548 172.654 637.548 175.484V256.109C637.549 258.939 635.263 261.235 632.444 261.235Z" stroke="white" stroke-width="1.4363" stroke-miterlimit="10"/>
    <path d="M444.3 164.047H377.04C375.901 164.047 374.978 163.119 374.978 161.976V145.173C374.978 144.029 375.901 143.103 377.04 143.103H444.3C445.439 143.103 446.362 144.029 446.362 145.173V161.976C446.362 163.119 445.439 164.047 444.3 164.047Z" fill="#F87171"/>
    <path d="M384.875 150.565H432.882" stroke="white" stroke-width="0.8101" stroke-miterlimit="10"/>
    <path d="M384.875 155.588H404.729" stroke="white" stroke-width="0.8101" stroke-miterlimit="10"/>
    <path d="M382.893 161.677V169.839L393.116 161.677H382.893Z" fill="#F87171"/>
    <path d="M150.36 74.5054H60.0666C58.2017 74.5054 56.689 72.9875 56.689 71.114C56.689 69.2415 58.2017 67.7227 60.0666 67.7227H150.36C152.225 67.7227 153.738 69.2405 153.738 71.114C153.738 72.9875 152.226 74.5054 150.36 74.5054Z" fill="#FCA5A5"/>
    <path d="M666.622 337.285H595.863C593.998 337.285 592.485 335.766 592.485 333.893C592.485 332.02 593.998 330.502 595.863 330.502H666.622C668.488 330.502 670 332.02 670 333.893C670 335.767 668.488 337.285 666.622 337.285Z" fill="#FEF2F2"/>
    <path d="M357.52 55.0061H349.613C347.536 55.0061 345.852 53.3149 345.852 51.229V43.7771C345.852 41.6912 347.536 40 349.613 40H357.52C359.598 40 361.282 41.6912 361.282 43.7771V51.229C361.282 53.3149 359.598 55.0061 357.52 55.0061Z" fill="#FCA5A5"/>
    <path d="M57.1268 340.796H46.7304C43.9984 340.796 41.7842 338.573 41.7842 335.83V326.032C41.7842 323.289 43.9984 321.065 46.7304 321.065H57.1268C59.8589 321.065 62.0731 323.289 62.0731 326.032V335.83C62.0731 338.572 59.8589 340.796 57.1268 340.796Z" fill="#FEF2F2"/>
    <path d="M600.36 122.589H592.919C590.964 122.589 589.378 120.998 589.378 119.035V112.021C589.378 110.058 590.964 108.467 592.919 108.467H600.36C602.314 108.467 603.9 110.058 603.9 112.021V119.035C603.9 120.997 602.314 122.589 600.36 122.589Z" fill="#FEF2F2"/>
    <path d="M522.988 238.894C523.292 230.483 517.096 223.253 508.767 222.297C499.776 221.266 491.713 227.892 490.951 236.946C490.405 243.428 491.027 254.59 491.808 266.448L524.624 262.48L522.988 238.894Z" fill="#FEF3C7"/>
    <path d="M524.624 262.481L491.808 266.449C492.842 282.146 494.157 291.143 493.427 300.096C492.602 310.193 500.533 318.844 510.622 318.861C519.935 318.877 527.585 311.48 527.923 302.136L524.624 262.481Z" fill="#FECACA"/>
    <path d="M439.624 256.266L515.013 294.136C523.372 298.795 525.727 308.023 521.376 315.02C516.977 322.097 507.541 323.975 500.785 319.118L432.633 269.832L439.624 256.266Z" fill="#FECACA"/>
    <path d="M427.841 274.308C435.579 276.934 443.973 272.763 446.587 264.994C449.203 257.224 445.049 248.796 437.311 246.171C429.572 243.545 421.179 247.714 418.563 255.485C415.949 263.256 420.102 271.683 427.841 274.308Z" fill="#FECACA"/>
    <path d="M429.213 246.619C429.213 246.619 428.467 240.81 435.989 242.73C443.51 244.652 450.237 250.508 446.588 264.995L429.213 246.619Z" fill="#FECACA"/>
    <path d="M440.733 218.496L424.798 214.762C423.911 214.554 423.077 215.171 422.935 216.139L416.813 257.702C416.67 258.67 417.273 259.624 418.16 259.831L434.095 263.565C434.982 263.773 435.816 263.157 435.958 262.188L442.08 220.625C442.223 219.657 441.62 218.704 440.733 218.496Z" fill="#37305E"/>
    <path d="M442.273 218.828L426.338 215.094C425.452 214.886 424.618 215.503 424.475 216.47L418.353 258.033C418.211 259.002 418.813 259.955 419.701 260.162L435.636 263.896C436.522 264.104 437.356 263.488 437.499 262.519L443.621 220.956C443.763 219.989 443.161 219.035 442.273 218.828Z" fill="#261C42"/>
    <path d="M441.397 222.868L427.396 219.588L422.407 253.46L436.408 256.741L441.397 222.868Z" fill="#E7E7E7"/>
    <path d="M427.396 219.588L436.408 256.741L441.398 222.868L427.396 219.588Z" fill="white"/>
    <path d="M440.179 244.322C440.179 244.322 437.106 242.848 433.666 242.42C432.15 242.232 430.689 243.062 430.101 244.478C429.565 245.769 429.876 247.257 430.882 248.225L436.563 253.688C436.563 253.688 435.651 261.783 439.455 265.602L442.879 252.745L440.179 244.322Z" fill="#FECACA"/>
    <path d="M534.617 290.913L499.86 298.585C499.86 298.585 490.595 319.261 475.19 411.547C474.952 412.97 474.718 414.38 474.487 415.781C491.095 416.012 507.703 416.476 524.31 417.038L546.427 308.229L534.617 290.913Z" fill="#8B5CF6"/>
    <path d="M575.31 364.83C574.136 320.174 551.6 296.036 551.6 296.036L508.815 297.376L520.215 416.899C538.656 417.504 557.096 418.239 575.537 418.912C575.693 397.751 575.667 378.391 575.31 364.83Z" fill="#8B5CF6"/>
    <path d="M501.109 336.49L514.239 347.396L520.215 416.899" stroke="#1F2937" stroke-width="1.1396" stroke-miterlimit="10" stroke-linecap="round" stroke-linejoin="round"/>
    <path d="M511.808 219.016L499.677 224.158C497.728 224.995 496.502 226.961 496.601 229.087L499.861 298.582L555.116 297.906L558.378 226.069C558.477 222.238 555.427 217.65 551.622 217.354L529.143 216.946L511.808 219.016Z" fill="#FEF3C7"/>
    <path d="M498.286 244.32C498.286 244.32 492.622 251.54 498.316 265.661" stroke="#1F2937" stroke-width="1.1396" stroke-miterlimit="10" stroke-linecap="round" stroke-linejoin="round"/>
    <path d="M579.947 249.378L550.908 265.229C557.64 279.433 565.084 294.674 567.697 303.265C570.644 312.954 581.195 318.055 590.577 314.331C599.239 310.893 603.629 301.184 600.506 292.375L579.947 249.378Z" fill="#FECACA"/>
    <path d="M569.755 228.063C566.944 220.133 558.528 215.71 550.437 217.91C541.702 220.284 541.926 240.681 544.547 249.378C546.424 255.605 545.823 254.497 550.909 265.229L579.948 249.378L569.755 228.063Z" fill="#FEF3C7"/>
    <path d="M550.625 265.229L544.263 249.378" stroke="#1F2937" stroke-width="1.1396" stroke-miterlimit="10" stroke-linecap="round" stroke-linejoin="round"/>
    <path d="M508.679 284.809L586.001 286.494C594.205 286.923 600.389 294.146 599.579 302.354C598.758 310.656 591.129 316.539 582.929 315.192L509.423 302.449L508.679 284.809Z" fill="#FECACA"/>
    <path d="M509.962 307.175C518.059 306.085 523.742 298.612 522.657 290.484C521.571 282.355 514.128 276.648 506.033 277.738C497.937 278.828 492.253 286.301 493.338 294.429C494.423 302.558 501.866 308.265 509.962 307.175Z" fill="#FECACA"/>
    <path d="M498.97 281.743C498.97 281.743 495.736 276.867 503.327 275.242C510.917 273.617 519.532 275.873 522.656 290.485L498.97 281.743Z" fill="#FECACA"/>
    <path d="M557.049 194.258C557.181 184.506 549.415 176.493 539.704 176.36C529.992 176.227 522.011 184.025 521.879 193.777C521.747 203.529 529.513 211.542 539.225 211.675C548.937 211.807 556.917 204.009 557.049 194.258Z" fill="#1F2937"/>
    <path d="M484.862 150.376C484.862 150.376 513.272 133.577 532.737 151.067C544.593 161.72 540.092 179.141 524.189 189.941C509.041 200.228 503.439 152.192 503.439 152.192L484.862 150.376Z" fill="#1F2937"/>
    <path d="M500.431 146.02C500.431 146.02 472.791 147.513 474.728 168.507C476.014 182.452 497.648 181.996 497.648 181.996L500.431 146.02Z" fill="#1F2937"/>
    <path d="M495.5 184.061C496.691 187.906 494.553 191.992 490.723 193.188C486.894 194.384 482.824 192.237 481.633 188.393C480.442 184.548 482.58 180.462 486.41 179.266C490.239 178.069 494.308 180.216 495.5 184.061Z" fill="#EA8C8C"/>
    <path d="M504.746 204.899L510.024 222.298C511.865 228.411 515.123 230.921 521.101 229.054C526.204 227.46 531.658 222.937 530.715 217.655L521.097 190.677L504.746 204.899Z" fill="#FECACA"/>
    <path d="M512.204 218.471L506.055 221.152C506.055 221.152 496.496 237.196 514.75 237.791C536.77 238.508 538.569 225.736 542.085 217.184L530.831 216.104L512.204 218.471Z" fill="#FECACA"/>
    <path d="M507.533 214.106C507.533 214.106 522.819 211.855 522.819 191.362L504.168 203.126L507.533 214.106Z" fill="#FCA5A5"/>
    <path d="M510.771 206.482C500.385 208.98 489.867 202.8 487.55 194.352L482.203 174.386C479.3 163.797 485.284 152.806 495.728 149.543C506.42 146.203 519.658 151.613 522.985 162.349L527.111 178.453C530.302 190.909 523.002 202.662 510.771 206.482Z" fill="#FECACA"/>
    <path d="M509.374 159.515C509.449 172.297 521.537 179.112 521.537 179.112L530.142 161.601C530.142 161.601 509.313 149.015 509.374 159.515Z" fill="#1F2937"/>
    <path d="M512.896 161.779C512.896 161.779 487.614 159.466 479.536 171.618C479.536 171.618 478.84 146.778 505.968 145.327C533.096 143.876 525.222 163.112 525.222 163.112L512.896 161.779Z" fill="#1F2937"/>
    <path d="M496.924 185.938L497.357 189.823L499.949 189.308" stroke="#1F2937" stroke-width="1.1013" stroke-miterlimit="10" stroke-linecap="round" stroke-linejoin="round"/>
    <path d="M492.479 183.695C492.753 184.706 492.158 185.748 491.151 186.021C490.144 186.296 489.106 185.699 488.834 184.688C488.561 183.677 489.155 182.635 490.162 182.361C491.168 182.088 492.206 182.684 492.479 183.695Z" fill="#1F2937"/>
    <path d="M507.791 179.527C508.064 180.538 507.469 181.58 506.463 181.853C505.456 182.128 504.419 181.53 504.145 180.52C503.872 179.509 504.466 178.467 505.473 178.192C506.481 177.919 507.518 178.516 507.791 179.527Z" fill="#1F2937"/>
    <path d="M498.496 174.826L509.66 173.684C509.66 173.684 507.907 170.672 503.357 171.182C498.807 171.692 498.496 174.826 498.496 174.826Z" fill="#1F2937"/>
    <path d="M492.858 176.564L484.995 179.111C484.995 179.111 485.21 176.063 488.425 175.061C491.641 174.061 492.858 176.564 492.858 176.564Z" fill="#1F2937"/>
    <path d="M496.804 194.011L508.194 191.362C508.194 191.362 507.294 196.803 501.273 196.907C497.096 196.979 496.804 194.011 496.804 194.011Z" fill="white"/>
    <path d="M532.464 176.471C532.722 180.19 529.929 183.414 526.225 183.673C522.521 183.932 519.31 181.128 519.052 177.409C518.794 173.69 521.587 170.466 525.291 170.207C528.995 169.948 532.207 172.752 532.464 176.471Z" fill="#FECACA"/>
    <path d="M523.553 179.105C523.553 179.105 523.214 174.222 527.917 174.666" stroke="#1F2937" stroke-width="0.981" stroke-miterlimit="10" stroke-linecap="round" stroke-linejoin="round"/>
    <path d="M151.01 363.429V414.392L196.849 415.572V379.062L206.744 377.33L213.395 414.392L254.863 417.038L238.716 340.532L151.01 363.429Z" fill="#831843"/>
    <path d="M113.498 279.527L96.9541 391.42L114.847 393.362L144.452 278.571L113.498 279.527Z" fill="#FECACA"/>
    <path d="M96.9541 391.42C96.9541 391.42 67.3364 398.269 68.5189 406.198H104.633C104.633 406.198 118.308 405.148 114.847 393.363L96.9541 391.42Z" fill="#FECACA"/>
    <path d="M157.489 230.468C157.489 230.468 120.71 227.435 100.301 282.573L145.68 298.948L157.489 230.468Z" fill="#F87171"/>
    <path d="M287.488 191.094L271.355 245.231L290.182 266.619C290.182 266.619 301.9 218.875 302.27 191.245L287.488 191.094Z" fill="#FECACA"/>
    <path d="M286.858 192.64C286.858 192.64 301.304 194.56 303.329 190.935C306.869 184.601 305 167.404 305 167.404C305 167.404 279.652 167.967 279.989 168.209C280.326 168.452 286.858 192.64 286.858 192.64Z" fill="#FECACA"/>
    <path d="M286.859 192.639C286.59 191.364 276.873 180.379 273.377 176.199C272.533 175.191 272.82 173.596 273.979 172.848C274.732 172.361 276.067 171.939 277.15 172.868L286.467 180.11L286.859 192.639Z" fill="#FECACA"/>
    <path d="M281.701 178.603L277.902 158.139C277.621 156.788 278.534 155.411 279.888 155.141C281.06 154.908 282.169 155.592 282.479 156.739L286.478 171.505L281.701 178.603Z" fill="#FECACA"/>
    <path d="M286.438 168.573L286.166 152.974C286.117 151.618 287.18 150.426 288.511 150.346C289.663 150.277 290.646 151.074 290.829 152.227L293.271 169.393L286.438 168.573Z" fill="#FECACA"/>
    <path d="M293.568 170.325L294.755 154.409C294.859 152.934 296.116 151.761 297.55 151.801C298.897 151.838 299.928 152.938 299.912 154.322L299.747 168.961L293.568 170.325Z" fill="#FECACA"/>
    <path d="M305 167.405L306.848 157.202C306.888 156.073 306.067 155.158 304.97 155.107C303.921 155.059 302.956 155.82 302.716 156.885L299.749 168.961L305 167.405Z" fill="#FECACA"/>
    <path d="M282.161 176.765C282.161 176.765 289.511 172.855 294.415 182.805" stroke="#282828" stroke-width="1.1831" stroke-miterlimit="10" stroke-linecap="round" stroke-linejoin="round"/>
    <path d="M291.354 252.586C291.354 252.586 293.484 273.626 281.671 275.488C269.857 277.35 243.72 260.978 243.72 260.978L231.626 219.876L276.992 245.107L291.354 252.586Z" fill="#FECACA"/>
    <path d="M200.025 222.858C200.025 222.858 225.142 206.129 264.195 232.359L241.28 268.756L218.473 266.638L200.025 222.858Z" fill="#F87171"/>
    <path d="M140.72 291.543L146.442 364.948L247.566 350.484L231.919 243.612L200.025 222.858L157.488 230.468L140.72 291.543Z" fill="#F87171"/>
    <path d="M141.17 297.318L138.483 272.617" stroke="#1F2937" stroke-width="1.1396" stroke-miterlimit="10" stroke-linecap="round" stroke-linejoin="round"/>
    <path d="M235.521 268.221L231.627 246.897" stroke="#1F2937" stroke-width="1.1396" stroke-miterlimit="10" stroke-linecap="round" stroke-linejoin="round"/>
    <path d="M165.305 224.899L160.622 196.249L186.927 191.915L191.61 220.565L200.025 222.858C200.025 222.858 200.13 235.035 180.751 238.498C161.372 241.962 157.49 230.467 157.49 230.467L165.305 224.899Z" fill="#FECACA"/>
    <path d="M188.406 200.971C188.406 200.971 187.966 212.225 178.37 215.091C167.326 218.389 162.147 205.582 162.147 205.582C162.147 205.582 168.118 210.799 176.002 209.51C184.795 208.072 188.406 200.971 188.406 200.971Z" fill="#FCA5A5"/>
    <path d="M156.904 149.941C156.904 149.941 161.585 138.299 177.329 140.214C188.441 141.565 192.155 150.663 194.114 154.804C194.864 156.39 195.197 158.137 195.075 159.889L192.916 179.399L174.479 154.545L159.293 157.292L156.904 149.941Z" fill="#1F2937"/>
    <path d="M192.916 179.399C192.916 179.399 194.596 176.013 198.867 177.17C203.138 178.326 202.27 188.548 196.224 190.444C196.224 190.444 194.058 191.149 192.172 189.801C192.172 189.801 192.956 182.236 192.916 179.399Z" fill="#FECACA"/>
    <path d="M198.401 180.791C198.401 180.791 194.839 179.98 192.897 185.322" stroke="#111827" stroke-width="0.6978" stroke-miterlimit="10" stroke-linecap="round" stroke-linejoin="round"/>
    <path d="M150.785 183.609C150.785 183.609 148.474 180.621 144.514 182.6C140.553 184.579 143.409 194.428 149.709 195.09C149.709 195.09 151.971 195.354 153.555 193.66C153.555 193.66 151.303 186.398 150.785 183.609Z" fill="#FECACA"/>
    <path d="M145.681 186.059C145.681 186.059 149.014 184.559 151.967 189.412" stroke="#111827" stroke-width="0.6978" stroke-miterlimit="10" stroke-linecap="round" stroke-linejoin="round"/>
    <path d="M192.385 169.837C192.987 175.886 193.648 188.603 190.689 196.486C187.91 203.887 183.521 207.513 176.003 208.492C168.483 209.471 161.587 207.858 156.178 199.153C150.768 190.447 149.38 174.244 149.38 174.244C149.38 174.244 147.239 152.631 168.514 150.506C190.92 148.269 192.385 169.837 192.385 169.837Z" fill="#FECACA"/>
    <path d="M150.785 183.609L145.082 165.006C144.714 163.481 144.771 161.884 145.281 160.4C146.555 156.692 150.466 148.374 156.904 149.942L159.292 157.294C159.292 157.294 151.554 159.683 149.414 170.373L150.785 183.609Z" fill="#1F2937"/>
    <path d="M154.428 156.287C154.428 156.287 168.652 170.453 193.784 166.398C193.784 166.398 189.571 148.323 177.756 148.195C165.941 148.067 156.688 154.223 156.688 154.223L154.428 156.287Z" fill="#1F2937"/>
    <path d="M159.293 157.293C159.293 157.293 156.784 165.998 149.258 173.036C149.258 173.036 145.85 155.988 159.293 157.293Z" fill="#1F2937"/>
    <path d="M178.934 179.016C179.097 180.058 180.071 180.77 181.109 180.607C182.147 180.444 182.857 179.466 182.694 178.423C182.531 177.381 181.557 176.669 180.519 176.832C179.48 176.996 178.77 177.974 178.934 179.016Z" fill="#1F2937"/>
    <path d="M161.31 181.795C161.474 182.837 162.447 183.55 163.486 183.386C164.523 183.223 165.233 182.245 165.07 181.202C164.907 180.16 163.934 179.448 162.895 179.611C161.857 179.776 161.148 180.753 161.31 181.795Z" fill="#1F2937"/>
    <path d="M165.5 172.387L153.375 177.658C153.375 177.658 153.393 174.008 158.361 171.899C163.329 169.791 165.5 172.387 165.5 172.387Z" fill="#1F2937"/>
    <path d="M174.386 171.149L187.537 172.433C187.537 172.433 186.405 168.965 181.033 168.487C175.66 168.009 174.386 171.149 174.386 171.149Z" fill="#1F2937"/>
    <path d="M171.086 184.894L171.635 187.58C171.774 188.257 172.475 188.642 173.088 188.376L174.45 187.785" stroke="#1F2937" stroke-width="1.0257" stroke-miterlimit="10" stroke-linecap="round" stroke-linejoin="round"/>
    <path d="M167.127 193.732L180.813 190.63C180.813 190.63 181.939 195.972 175.203 197.278C168.468 198.585 167.127 193.732 167.127 193.732Z" fill="white"/>
    <path d="M638.485 404.993H40V419.999H638.485V404.993Z" fill="#FCA5A5"/>
    <path d="M303.391 376.474H273.517C265.673 376.474 259.313 382.859 259.313 390.734C259.313 398.61 265.673 404.995 273.517 404.995H308.659L303.391 376.474Z" fill="#FECACA"/>
    <path d="M262.599 381.613L281.14 351.128L308.659 354.858L304.577 390.734L262.599 381.613Z" fill="#FECACA"/>
    <path d="M296.002 376.474H273.517" stroke="#1F2937" stroke-width="1.1396" stroke-miterlimit="10" stroke-linecap="round" stroke-linejoin="round"/>
    <path d="M396.9 376.474H426.774C434.618 376.474 440.978 382.859 440.978 390.734C440.978 398.61 434.618 404.995 426.774 404.995H391.632L396.9 376.474Z" fill="#FECACA"/>
    <path d="M437.376 381.246L414.028 345.127L391.632 354.858L395.714 390.734L437.376 381.246Z" fill="#FECACA"/>
    <path d="M398.595 376.474H426.774" stroke="#1F2937" stroke-width="1.1396" stroke-miterlimit="10" stroke-linecap="round" stroke-linejoin="round"/>
    <path d="M347.638 297.651C347.638 297.651 317.897 297.651 296.001 319.27V379.856C296.001 379.856 400.78 381.457 400.78 379.856C400.78 378.255 400.807 315.266 400.807 315.266C400.807 315.266 379.372 297.651 347.638 297.651Z" fill="#65A30D"/>
    <path d="M300.431 315.267C300.431 315.267 284.265 328.369 267.224 357.222C267.224 357.222 270.9 373.918 302.643 376.473L300.431 315.267Z" fill="#65A30D"/>
    <path d="M400.808 315.267C400.808 315.267 416.974 328.369 434.015 357.222C434.015 357.222 430.339 373.918 398.596 376.473L400.808 315.267Z" fill="#65A30D"/>
    <path d="M396.026 404.995H300.756C298.129 404.995 296.001 402.858 296.001 400.221V339.832C296.001 337.195 298.129 335.058 300.756 335.058H396.026C398.652 335.058 400.78 337.195 400.78 339.832V400.221C400.78 402.857 398.652 404.995 396.026 404.995Z" fill="#FEE2E2"/>
    <path d="M348.391 376.473C351.937 376.473 354.812 373.587 354.812 370.026C354.812 366.466 351.937 363.579 348.391 363.579C344.845 363.579 341.97 366.466 341.97 370.026C341.97 373.587 344.845 376.473 348.391 376.473Z" fill="white"/>
    <path d="M358.418 284.89H337.864V308.008H358.418V284.89Z" fill="#FECACA"/>
    <path d="M336.859 283.639C336.859 283.639 338.671 295.124 347.29 295.332C358.603 295.605 358.418 284.15 358.418 284.15C358.418 284.15 356.875 287.519 348.127 287.532C338.37 287.546 336.859 283.639 336.859 283.639Z" fill="#FCA5A5"/>
    <path d="M348.183 275.541C363.969 275.541 376.766 262.361 376.766 246.102C376.766 229.843 363.969 216.663 348.183 216.663C332.397 216.663 319.6 229.843 319.6 246.102C319.6 262.361 332.397 275.541 348.183 275.541Z" fill="#1F2937"/>
    <path d="M372.888 256.843C372.888 256.843 374.947 253.556 379.192 255.173C383.436 256.789 381.516 267.14 375.149 268.46C375.149 268.46 372.866 268.96 371.077 267.391C371.077 267.391 372.643 259.744 372.888 256.843Z" fill="#FECACA"/>
    <path d="M378.349 258.824C378.349 258.824 374.793 257.633 372.269 262.89" stroke="#111827" stroke-width="0.7753" stroke-miterlimit="10" stroke-linecap="round" stroke-linejoin="round"/>
    <path d="M324.144 256.843C324.144 256.843 322.086 253.556 317.841 255.173C313.596 256.789 315.516 267.14 321.884 268.46C321.884 268.46 324.167 268.96 325.956 267.391C325.956 267.391 324.39 259.744 324.144 256.843Z" fill="#FECACA"/>
    <path d="M318.683 258.824C318.683 258.824 322.239 257.633 324.763 262.89" stroke="#111827" stroke-width="0.7753" stroke-miterlimit="10" stroke-linecap="round" stroke-linejoin="round"/>
    <path d="M373.289 247.923C373.292 254.556 372.608 268.433 368.325 276.671C364.304 284.404 357.654 288.567 348.936 288.814C340.217 289.062 333.722 285.863 328.518 275.825C323.313 265.787 323.561 248.046 323.561 248.046C323.561 248.046 323.561 224.35 348.155 224.35C374.059 224.351 373.289 247.923 373.289 247.923Z" fill="#FECACA"/>
    <path d="M324.144 256.843C324.144 256.843 329.395 245.279 324.763 236.954C324.763 236.954 320.568 250.346 324.144 256.843Z" fill="#1F2937"/>
    <path d="M372.813 256.843C372.813 256.843 367.562 245.279 372.194 236.954C372.194 236.954 376.388 250.346 372.813 256.843Z" fill="#1F2937"/>
    <path d="M360.926 225.68C360.926 225.68 358.505 239.698 372.942 246.07C372.942 246.07 372.349 229.663 360.926 225.68Z" fill="#1F2937"/>
    <path d="M364.176 227.433C364.176 227.433 362.014 241.421 343.077 238.302C328.336 235.876 323.835 247.19 323.835 247.19C323.835 247.19 321.22 226.158 345.019 221.856C345.019 221.856 357.194 221.792 364.176 227.433Z" fill="#1F2937"/>
    <path d="M339.686 259.336C339.686 260.583 338.679 261.594 337.438 261.594C336.196 261.594 335.189 260.583 335.189 259.336C335.189 258.09 336.196 257.079 337.438 257.079C338.679 257.079 339.686 258.09 339.686 259.336Z" fill="#1F2937"/>
    <path d="M358.254 261.594C359.495 261.594 360.502 260.583 360.502 259.336C360.502 258.09 359.495 257.079 358.254 257.079C357.012 257.079 356.005 258.09 356.005 259.336C356.005 260.583 357.012 261.594 358.254 261.594Z" fill="#1F2937"/>
    <path d="M346.717 264.254L346.72 267.3C346.721 268.068 347.4 268.643 348.125 268.491L349.738 268.151" stroke="#1F2937" stroke-width="1.1396" stroke-miterlimit="10" stroke-linecap="round" stroke-linejoin="round"/>
    <path d="M344.117 252.342L330.492 253.986C330.492 253.986 331.585 250.357 337.153 249.734C342.72 249.111 344.117 252.342 344.117 252.342Z" fill="#1F2937"/>
    <path d="M351.974 252.342L365.599 253.986C365.599 253.986 364.505 250.357 358.938 249.734C353.371 249.111 351.974 252.342 351.974 252.342Z" fill="#1F2937"/>
    <path d="M341.795 265.87C345.425 262.225 345.425 256.314 341.795 252.669C338.164 249.024 332.278 249.024 328.647 252.669C325.016 256.314 325.016 262.225 328.647 265.87C332.278 269.515 338.164 269.515 341.795 265.87Z" stroke="white" stroke-width="1.2497" stroke-miterlimit="10"/>
    <path d="M370.6 261.381C371.775 256.362 368.675 251.337 363.677 250.158C358.678 248.978 353.674 252.09 352.499 257.109C351.324 262.128 354.424 267.152 359.423 268.332C364.421 269.512 369.425 266.399 370.6 261.381Z" stroke="white" stroke-width="1.2497" stroke-miterlimit="10"/>
    <path d="M344.522 260.045C344.522 260.045 347.805 254.976 352.259 260.045" stroke="white" stroke-width="1.2497" stroke-miterlimit="10"/>
    <path d="M340.402 272.618C340.402 272.618 341.769 274.395 347.845 274.395C353.37 274.395 355.877 272.618 355.877 272.618" stroke="#1F2937" stroke-width="1.1396" stroke-miterlimit="10" stroke-linecap="round" stroke-linejoin="round"/>
    <path d="M347.638 297.651C347.638 297.651 335.083 296.967 318.683 304.248C318.683 304.248 318.341 318.458 346.645 318.458C374.949 318.458 377.47 302.884 377.47 302.884C377.47 302.884 359.495 296.448 347.638 297.651Z" fill="#FECACA"/>
    <path d="M358.417 226.662C368.722 226.662 377.075 218.274 377.075 207.927C377.075 197.581 368.722 189.193 358.417 189.193C348.112 189.193 339.758 197.581 339.758 207.927C339.758 218.274 348.112 226.662 358.417 226.662Z" fill="#1F2937"/>
  </g>
  <defs>
    <filter id="filter0_f_2529_2569" x="450" y="-302.478" width="1970" height="1826" filterUnits="userSpaceOnUse" color-interpolation-filters="sRGB">
      <feFlood flood-opacity="0" result="BackgroundImageFix"/>
      <feBlend mode="normal" in="SourceGraphic" in2="BackgroundImageFix" result="shape"/>
      <feGaussianBlur stdDeviation="250" result="effect1_foregroundBlur_2529_2569"/>
    </filter>
    <filter id="filter1_f_2529_2569" x="385" y="332.34" width="1699" height="1594.68" filterUnits="userSpaceOnUse" color-interpolation-filters="sRGB">
      <feFlood flood-opacity="0" result="BackgroundImageFix"/>
      <feBlend mode="normal" in="SourceGraphic" in2="BackgroundImageFix" result="shape"/>
      <feGaussianBlur stdDeviation="250" result="effect1_foregroundBlur_2529_2569"/>
    </filter>
    <filter id="filter2_f_2529_2569" x="-500" y="-500" width="1950" height="1806.99" filterUnits="userSpaceOnUse" color-interpolation-filters="sRGB">
      <feFlood flood-opacity="0" result="BackgroundImageFix"/>
      <feBlend mode="normal" in="SourceGraphic" in2="BackgroundImageFix" result="shape"/>
      <feGaussianBlur stdDeviation="250" result="effect1_foregroundBlur_2529_2569"/>
    </filter>
    <clipPath id="clip0_2529_2569">
      <rect width="710" height="460" fill="white"/>
    </clipPath>
    <clipPath id="clip1_2529_2569">
      <rect width="1920" height="1955.15" fill="white"/>
    </clipPath>
  </defs>
</svg>
