<svg width="140" height="230" viewBox="0 0 140 230" fill="none" xmlns="http://www.w3.org/2000/svg">
  <g clip-path="url(#clip0_2540_2999)">
    <path d="M2.5 5C3.88071 5 5 3.88071 5 2.5C5 1.11929 3.88071 0 2.5 0C1.11929 0 0 1.11929 0 2.5C0 3.88071 1.11929 5 2.5 5Z" fill="url(#paint0_linear_2540_2999)"/>
    <path d="M47.5 5C48.8807 5 50 3.88071 50 2.5C50 1.11929 48.8807 0 47.5 0C46.1193 0 45 1.11929 45 2.5C45 3.88071 46.1193 5 47.5 5Z" fill="url(#paint1_linear_2540_2999)"/>
    <path d="M92.5 5C93.8807 5 95 3.88071 95 2.5C95 1.11929 93.8807 0 92.5 0C91.1193 0 90 1.11929 90 2.5C90 3.88071 91.1193 5 92.5 5Z" fill="url(#paint2_linear_2540_2999)"/>
    <path d="M137.5 5C138.881 5 140 3.88071 140 2.5C140 1.11929 138.881 0 137.5 0C136.119 0 135 1.11929 135 2.5C135 3.88071 136.119 5 137.5 5Z" fill="url(#paint3_linear_2540_2999)"/>
    <path d="M2.5 50C3.88071 50 5 48.8807 5 47.5C5 46.1193 3.88071 45 2.5 45C1.11929 45 0 46.1193 0 47.5C0 48.8807 1.11929 50 2.5 50Z" fill="url(#paint4_linear_2540_2999)"/>
    <path d="M47.5 50C48.8807 50 50 48.8807 50 47.5C50 46.1193 48.8807 45 47.5 45C46.1193 45 45 46.1193 45 47.5C45 48.8807 46.1193 50 47.5 50Z" fill="url(#paint5_linear_2540_2999)"/>
    <path d="M92.5 50C93.8807 50 95 48.8807 95 47.5C95 46.1193 93.8807 45 92.5 45C91.1193 45 90 46.1193 90 47.5C90 48.8807 91.1193 50 92.5 50Z" fill="url(#paint6_linear_2540_2999)"/>
    <path d="M137.5 50C138.881 50 140 48.8807 140 47.5C140 46.1193 138.881 45 137.5 45C136.119 45 135 46.1193 135 47.5C135 48.8807 136.119 50 137.5 50Z" fill="url(#paint7_linear_2540_2999)"/>
    <path d="M2.5 95C3.88071 95 5 93.8807 5 92.5C5 91.1193 3.88071 90 2.5 90C1.11929 90 0 91.1193 0 92.5C0 93.8807 1.11929 95 2.5 95Z" fill="url(#paint8_linear_2540_2999)"/>
    <path d="M47.5 95C48.8807 95 50 93.8807 50 92.5C50 91.1193 48.8807 90 47.5 90C46.1193 90 45 91.1193 45 92.5C45 93.8807 46.1193 95 47.5 95Z" fill="url(#paint9_linear_2540_2999)"/>
    <path d="M92.5 95C93.8807 95 95 93.8807 95 92.5C95 91.1193 93.8807 90 92.5 90C91.1193 90 90 91.1193 90 92.5C90 93.8807 91.1193 95 92.5 95Z" fill="url(#paint10_linear_2540_2999)"/>
    <path d="M137.5 95C138.881 95 140 93.8807 140 92.5C140 91.1193 138.881 90 137.5 90C136.119 90 135 91.1193 135 92.5C135 93.8807 136.119 95 137.5 95Z" fill="url(#paint11_linear_2540_2999)"/>
    <path d="M2.5 140C3.88071 140 5 138.881 5 137.5C5 136.119 3.88071 135 2.5 135C1.11929 135 0 136.119 0 137.5C0 138.881 1.11929 140 2.5 140Z" fill="url(#paint12_linear_2540_2999)"/>
    <path d="M47.5 140C48.8807 140 50 138.881 50 137.5C50 136.119 48.8807 135 47.5 135C46.1193 135 45 136.119 45 137.5C45 138.881 46.1193 140 47.5 140Z" fill="url(#paint13_linear_2540_2999)"/>
    <path d="M92.5 140C93.8807 140 95 138.881 95 137.5C95 136.119 93.8807 135 92.5 135C91.1193 135 90 136.119 90 137.5C90 138.881 91.1193 140 92.5 140Z" fill="url(#paint14_linear_2540_2999)"/>
    <path d="M137.5 140C138.881 140 140 138.881 140 137.5C140 136.119 138.881 135 137.5 135C136.119 135 135 136.119 135 137.5C135 138.881 136.119 140 137.5 140Z" fill="url(#paint15_linear_2540_2999)"/>
    <path d="M2.5 185C3.88071 185 5 183.881 5 182.5C5 181.119 3.88071 180 2.5 180C1.11929 180 0 181.119 0 182.5C0 183.881 1.11929 185 2.5 185Z" fill="url(#paint16_linear_2540_2999)"/>
    <path d="M47.5 185C48.8807 185 50 183.881 50 182.5C50 181.119 48.8807 180 47.5 180C46.1193 180 45 181.119 45 182.5C45 183.881 46.1193 185 47.5 185Z" fill="url(#paint17_linear_2540_2999)"/>
    <path d="M92.5 185C93.8807 185 95 183.881 95 182.5C95 181.119 93.8807 180 92.5 180C91.1193 180 90 181.119 90 182.5C90 183.881 91.1193 185 92.5 185Z" fill="url(#paint18_linear_2540_2999)"/>
    <path d="M137.5 185C138.881 185 140 183.881 140 182.5C140 181.119 138.881 180 137.5 180C136.119 180 135 181.119 135 182.5C135 183.881 136.119 185 137.5 185Z" fill="url(#paint19_linear_2540_2999)"/>
    <path d="M2.5 230C3.88071 230 5 228.881 5 227.5C5 226.119 3.88071 225 2.5 225C1.11929 225 0 226.119 0 227.5C0 228.881 1.11929 230 2.5 230Z" fill="url(#paint20_linear_2540_2999)"/>
    <path d="M47.5 230C48.8807 230 50 228.881 50 227.5C50 226.119 48.8807 225 47.5 225C46.1193 225 45 226.119 45 227.5C45 228.881 46.1193 230 47.5 230Z" fill="url(#paint21_linear_2540_2999)"/>
    <path d="M92.5 230C93.8807 230 95 228.881 95 227.5C95 226.119 93.8807 225 92.5 225C91.1193 225 90 226.119 90 227.5C90 228.881 91.1193 230 92.5 230Z" fill="url(#paint22_linear_2540_2999)"/>
    <path d="M137.5 230C138.881 230 140 228.881 140 227.5C140 226.119 138.881 225 137.5 225C136.119 225 135 226.119 135 227.5C135 228.881 136.119 230 137.5 230Z" fill="url(#paint23_linear_2540_2999)"/>
  </g>
  <defs>
    <linearGradient id="paint0_linear_2540_2999" x1="7.94535e-08" y1="2.5" x2="5" y2="2.5" gradientUnits="userSpaceOnUse">
      <stop stop-color="#F87171"/>
      <stop offset="1" stop-color="#FEE2E2"/>
    </linearGradient>
    <linearGradient id="paint1_linear_2540_2999" x1="45" y1="2.5" x2="50" y2="2.5" gradientUnits="userSpaceOnUse">
      <stop stop-color="#F87171"/>
      <stop offset="1" stop-color="#FEE2E2"/>
    </linearGradient>
    <linearGradient id="paint2_linear_2540_2999" x1="90" y1="2.5" x2="95" y2="2.5" gradientUnits="userSpaceOnUse">
      <stop stop-color="#F87171"/>
      <stop offset="1" stop-color="#FEE2E2"/>
    </linearGradient>
    <linearGradient id="paint3_linear_2540_2999" x1="135" y1="2.5" x2="140" y2="2.5" gradientUnits="userSpaceOnUse">
      <stop stop-color="#F87171"/>
      <stop offset="1" stop-color="#FEE2E2"/>
    </linearGradient>
    <linearGradient id="paint4_linear_2540_2999" x1="7.94535e-08" y1="47.5" x2="5" y2="47.5" gradientUnits="userSpaceOnUse">
      <stop stop-color="#F87171"/>
      <stop offset="1" stop-color="#FEE2E2"/>
    </linearGradient>
    <linearGradient id="paint5_linear_2540_2999" x1="45" y1="47.5" x2="50" y2="47.5" gradientUnits="userSpaceOnUse">
      <stop stop-color="#F87171"/>
      <stop offset="1" stop-color="#FEE2E2"/>
    </linearGradient>
    <linearGradient id="paint6_linear_2540_2999" x1="90" y1="47.5" x2="95" y2="47.5" gradientUnits="userSpaceOnUse">
      <stop stop-color="#F87171"/>
      <stop offset="1" stop-color="#FEE2E2"/>
    </linearGradient>
    <linearGradient id="paint7_linear_2540_2999" x1="135" y1="47.5" x2="140" y2="47.5" gradientUnits="userSpaceOnUse">
      <stop stop-color="#F87171"/>
      <stop offset="1" stop-color="#FEE2E2"/>
    </linearGradient>
    <linearGradient id="paint8_linear_2540_2999" x1="7.94535e-08" y1="92.5" x2="5" y2="92.5" gradientUnits="userSpaceOnUse">
      <stop stop-color="#F87171"/>
      <stop offset="1" stop-color="#FEE2E2"/>
    </linearGradient>
    <linearGradient id="paint9_linear_2540_2999" x1="45" y1="92.5" x2="50" y2="92.5" gradientUnits="userSpaceOnUse">
      <stop stop-color="#F87171"/>
      <stop offset="1" stop-color="#FEE2E2"/>
    </linearGradient>
    <linearGradient id="paint10_linear_2540_2999" x1="90" y1="92.5" x2="95" y2="92.5" gradientUnits="userSpaceOnUse">
      <stop stop-color="#F87171"/>
      <stop offset="1" stop-color="#FEE2E2"/>
    </linearGradient>
    <linearGradient id="paint11_linear_2540_2999" x1="135" y1="92.5" x2="140" y2="92.5" gradientUnits="userSpaceOnUse">
      <stop stop-color="#F87171"/>
      <stop offset="1" stop-color="#FEE2E2"/>
    </linearGradient>
    <linearGradient id="paint12_linear_2540_2999" x1="7.94535e-08" y1="137.5" x2="5" y2="137.5" gradientUnits="userSpaceOnUse">
      <stop stop-color="#F87171"/>
      <stop offset="1" stop-color="#FEE2E2"/>
    </linearGradient>
    <linearGradient id="paint13_linear_2540_2999" x1="45" y1="137.5" x2="50" y2="137.5" gradientUnits="userSpaceOnUse">
      <stop stop-color="#F87171"/>
      <stop offset="1" stop-color="#FEE2E2"/>
    </linearGradient>
    <linearGradient id="paint14_linear_2540_2999" x1="90" y1="137.5" x2="95" y2="137.5" gradientUnits="userSpaceOnUse">
      <stop stop-color="#F87171"/>
      <stop offset="1" stop-color="#FEE2E2"/>
    </linearGradient>
    <linearGradient id="paint15_linear_2540_2999" x1="135" y1="137.5" x2="140" y2="137.5" gradientUnits="userSpaceOnUse">
      <stop stop-color="#F87171"/>
      <stop offset="1" stop-color="#FEE2E2"/>
    </linearGradient>
    <linearGradient id="paint16_linear_2540_2999" x1="7.94535e-08" y1="182.5" x2="5" y2="182.5" gradientUnits="userSpaceOnUse">
      <stop stop-color="#F87171"/>
      <stop offset="1" stop-color="#FEE2E2"/>
    </linearGradient>
    <linearGradient id="paint17_linear_2540_2999" x1="45" y1="182.5" x2="50" y2="182.5" gradientUnits="userSpaceOnUse">
      <stop stop-color="#F87171"/>
      <stop offset="1" stop-color="#FEE2E2"/>
    </linearGradient>
    <linearGradient id="paint18_linear_2540_2999" x1="90" y1="182.5" x2="95" y2="182.5" gradientUnits="userSpaceOnUse">
      <stop stop-color="#F87171"/>
      <stop offset="1" stop-color="#FEE2E2"/>
    </linearGradient>
    <linearGradient id="paint19_linear_2540_2999" x1="135" y1="182.5" x2="140" y2="182.5" gradientUnits="userSpaceOnUse">
      <stop stop-color="#F87171"/>
      <stop offset="1" stop-color="#FEE2E2"/>
    </linearGradient>
    <linearGradient id="paint20_linear_2540_2999" x1="7.94535e-08" y1="227.5" x2="5" y2="227.5" gradientUnits="userSpaceOnUse">
      <stop stop-color="#F87171"/>
      <stop offset="1" stop-color="#FEE2E2"/>
    </linearGradient>
    <linearGradient id="paint21_linear_2540_2999" x1="45" y1="227.5" x2="50" y2="227.5" gradientUnits="userSpaceOnUse">
      <stop stop-color="#F87171"/>
      <stop offset="1" stop-color="#FEE2E2"/>
    </linearGradient>
    <linearGradient id="paint22_linear_2540_2999" x1="90" y1="227.5" x2="95" y2="227.5" gradientUnits="userSpaceOnUse">
      <stop stop-color="#F87171"/>
      <stop offset="1" stop-color="#FEE2E2"/>
    </linearGradient>
    <linearGradient id="paint23_linear_2540_2999" x1="135" y1="227.5" x2="140" y2="227.5" gradientUnits="userSpaceOnUse">
      <stop stop-color="#F87171"/>
      <stop offset="1" stop-color="#FEE2E2"/>
    </linearGradient>
    <clipPath id="clip0_2540_2999">
      <rect width="140" height="230" fill="white"/>
    </clipPath>
  </defs>
</svg>
