<svg width="407" height="407" viewBox="0 0 407 407" fill="none" xmlns="http://www.w3.org/2000/svg">
  <path opacity="0.5" d="M4 3.5H3V403.5H4V3.5Z" fill="url(#paint0_linear_2538_2861)"/>
  <path opacity="0.2" d="M23.5518 3H22.5488V404H23.5518V3Z" fill="url(#paint1_linear_2538_2861)"/>
  <path opacity="0.2" d="M43.6021 3H42.5991V404H43.6021V3Z" fill="url(#paint2_linear_2538_2861)"/>
  <path opacity="0.2" d="M63.6519 3H62.6489V404H63.6519V3Z" fill="url(#paint3_linear_2538_2861)"/>
  <path opacity="0.2" d="M83.7012 3H82.6992V404H83.7012V3Z" fill="url(#paint4_linear_2538_2861)"/>
  <path opacity="0.5" d="M103.751 3H102.748V404H103.751V3Z" fill="url(#paint5_linear_2538_2861)"/>
  <path opacity="0.2" d="M123.801 3H122.799V404H123.801V3Z" fill="url(#paint6_linear_2538_2861)"/>
  <path opacity="0.2" d="M143.851 3H142.849V404H143.851V3Z" fill="url(#paint7_linear_2538_2861)"/>
  <path opacity="0.2" d="M163.901 3H162.899V404H163.901V3Z" fill="url(#paint8_linear_2538_2861)"/>
  <path opacity="0.2" d="M183.951 3H182.949V404H183.951V3Z" fill="url(#paint9_linear_2538_2861)"/>
  <path opacity="0.5" d="M204.001 3H202.998V404H204.001V3Z" fill="url(#paint10_linear_2538_2861)"/>
  <path opacity="0.2" d="M224.051 3H223.049V404H224.051V3Z" fill="url(#paint11_linear_2538_2861)"/>
  <path opacity="0.2" d="M244.102 3H243.099V404H244.102V3Z" fill="url(#paint12_linear_2538_2861)"/>
  <path opacity="0.2" d="M264.151 3H263.148V404H264.151V3Z" fill="url(#paint13_linear_2538_2861)"/>
  <path opacity="0.2" d="M284.201 3H283.199V404H284.201V3Z" fill="url(#paint14_linear_2538_2861)"/>
  <path opacity="0.5" d="M304.251 3H303.249V404H304.251V3Z" fill="url(#paint15_linear_2538_2861)"/>
  <path opacity="0.2" d="M324.301 3H323.299V404H324.301V3Z" fill="url(#paint16_linear_2538_2861)"/>
  <path opacity="0.2" d="M344.352 3H343.349V404H344.352V3Z" fill="url(#paint17_linear_2538_2861)"/>
  <path opacity="0.2" d="M364.401 3H363.398V404H364.401V3Z" fill="url(#paint18_linear_2538_2861)"/>
  <path opacity="0.2" d="M384.451 3H383.449V404H384.451V3Z" fill="url(#paint19_linear_2538_2861)"/>
  <path opacity="0.5" d="M404 3.5H403V403.5H404V3.5Z" fill="url(#paint20_linear_2538_2861)"/>
  <path opacity="0.5" d="M403.5 3H3.5V4H403.5V3Z" fill="url(#paint21_linear_2538_2861)"/>
  <path opacity="0.2" d="M404 22.5488H3V23.5518H404V22.5488Z" fill="url(#paint22_linear_2538_2861)"/>
  <path opacity="0.2" d="M404 42.5986H3V43.6016H404V42.5986Z" fill="url(#paint23_linear_2538_2861)"/>
  <path opacity="0.2" d="M404 62.6494H3V63.6524H404V62.6494Z" fill="url(#paint24_linear_2538_2861)"/>
  <path opacity="0.2" d="M404 82.6992H3V83.7022H404V82.6992Z" fill="url(#paint25_linear_2538_2861)"/>
  <path opacity="0.5" d="M404 102.748H3V103.751H404V102.748Z" fill="url(#paint26_linear_2538_2861)"/>
  <path opacity="0.2" d="M404 122.799H3V123.802H404V122.799Z" fill="url(#paint27_linear_2538_2861)"/>
  <path opacity="0.2" d="M404 142.849H3V143.852H404V142.849Z" fill="url(#paint28_linear_2538_2861)"/>
  <path opacity="0.2" d="M404 162.899H3V163.902H404V162.899Z" fill="url(#paint29_linear_2538_2861)"/>
  <path opacity="0.2" d="M404 182.949H3V183.952H404V182.949Z" fill="url(#paint30_linear_2538_2861)"/>
  <path opacity="0.5" d="M404 202.999H3V204.002H404V202.999Z" fill="url(#paint31_linear_2538_2861)"/>
  <path opacity="0.2" d="M404 223.049H3V224.051H404V223.049Z" fill="url(#paint32_linear_2538_2861)"/>
  <path opacity="0.2" d="M404 243.099H3V244.102H404V243.099Z" fill="url(#paint33_linear_2538_2861)"/>
  <path opacity="0.2" d="M404 263.148H3V264.151H404V263.148Z" fill="url(#paint34_linear_2538_2861)"/>
  <path opacity="0.2" d="M404 283.199H3V284.201H404V283.199Z" fill="url(#paint35_linear_2538_2861)"/>
  <path opacity="0.5" d="M404 303.249H3V304.251H404V303.249Z" fill="url(#paint36_linear_2538_2861)"/>
  <path opacity="0.2" d="M404 323.299H3V324.301H404V323.299Z" fill="url(#paint37_linear_2538_2861)"/>
  <path opacity="0.2" d="M404 343.349H3V344.352H404V343.349Z" fill="url(#paint38_linear_2538_2861)"/>
  <path opacity="0.2" d="M404 363.398H3V364.401H404V363.398Z" fill="url(#paint39_linear_2538_2861)"/>
  <path opacity="0.2" d="M404 383.449H3V384.451H404V383.449Z" fill="url(#paint40_linear_2538_2861)"/>
  <path opacity="0.5" d="M403.5 403H3.5V404H403.5V403Z" fill="url(#paint41_linear_2538_2861)"/>
  <path d="M4 0H3V7H4V0Z" fill="url(#paint42_linear_2538_2861)"/>
  <path d="M7 3H0V4H7V3Z" fill="url(#paint43_linear_2538_2861)"/>
  <path d="M404 0H403V7H404V0Z" fill="url(#paint44_linear_2538_2861)"/>
  <path d="M407 3H400V4H407V3Z" fill="url(#paint45_linear_2538_2861)"/>
  <path d="M4 100H3V107H4V100Z" fill="url(#paint46_linear_2538_2861)"/>
  <path d="M7 103H0V104H7V103Z" fill="url(#paint47_linear_2538_2861)"/>
  <path d="M404 100H403V107H404V100Z" fill="url(#paint48_linear_2538_2861)"/>
  <path d="M407 103H400V104H407V103Z" fill="url(#paint49_linear_2538_2861)"/>
  <path d="M4 200H3V207H4V200Z" fill="url(#paint50_linear_2538_2861)"/>
  <path d="M7 203H0V204H7V203Z" fill="url(#paint51_linear_2538_2861)"/>
  <path d="M404 200H403V207H404V200Z" fill="url(#paint52_linear_2538_2861)"/>
  <path d="M407 203H400V204H407V203Z" fill="url(#paint53_linear_2538_2861)"/>
  <path d="M4 300H3V307H4V300Z" fill="url(#paint54_linear_2538_2861)"/>
  <path d="M7 303H0V304H7V303Z" fill="url(#paint55_linear_2538_2861)"/>
  <path d="M404 300H403V307H404V300Z" fill="url(#paint56_linear_2538_2861)"/>
  <path d="M407 303H400V304H407V303Z" fill="url(#paint57_linear_2538_2861)"/>
  <path d="M4 400H3V407H4V400Z" fill="url(#paint58_linear_2538_2861)"/>
  <path d="M7 403H0V404H7V403Z" fill="url(#paint59_linear_2538_2861)"/>
  <path d="M104 0H103V7H104V0Z" fill="url(#paint60_linear_2538_2861)"/>
  <path d="M107 3H100V4H107V3Z" fill="url(#paint61_linear_2538_2861)"/>
  <path d="M104 100H103V107H104V100Z" fill="url(#paint62_linear_2538_2861)"/>
  <path d="M107 103H100V104H107V103Z" fill="url(#paint63_linear_2538_2861)"/>
  <path d="M104 200H103V207H104V200Z" fill="url(#paint64_linear_2538_2861)"/>
  <path d="M107 203H100V204H107V203Z" fill="url(#paint65_linear_2538_2861)"/>
  <path d="M104 300H103V307H104V300Z" fill="url(#paint66_linear_2538_2861)"/>
  <path d="M107 303H100V304H107V303Z" fill="url(#paint67_linear_2538_2861)"/>
  <path d="M104 400H103V407H104V400Z" fill="url(#paint68_linear_2538_2861)"/>
  <path d="M107 403H100V404H107V403Z" fill="url(#paint69_linear_2538_2861)"/>
  <path d="M204 0H203V7H204V0Z" fill="url(#paint70_linear_2538_2861)"/>
  <path d="M207 3H200V4H207V3Z" fill="url(#paint71_linear_2538_2861)"/>
  <path d="M204 100H203V107H204V100Z" fill="url(#paint72_linear_2538_2861)"/>
  <path d="M207 103H200V104H207V103Z" fill="url(#paint73_linear_2538_2861)"/>
  <path d="M204 200H203V207H204V200Z" fill="url(#paint74_linear_2538_2861)"/>
  <path d="M207 203H200V204H207V203Z" fill="url(#paint75_linear_2538_2861)"/>
  <path d="M204 300H203V307H204V300Z" fill="url(#paint76_linear_2538_2861)"/>
  <path d="M207 303H200V304H207V303Z" fill="url(#paint77_linear_2538_2861)"/>
  <path d="M204 400H203V407H204V400Z" fill="url(#paint78_linear_2538_2861)"/>
  <path d="M207 403H200V404H207V403Z" fill="url(#paint79_linear_2538_2861)"/>
  <path d="M304 0H303V7H304V0Z" fill="url(#paint80_linear_2538_2861)"/>
  <path d="M307 3H300V4H307V3Z" fill="url(#paint81_linear_2538_2861)"/>
  <path d="M304 100H303V107H304V100Z" fill="url(#paint82_linear_2538_2861)"/>
  <path d="M307 103H300V104H307V103Z" fill="url(#paint83_linear_2538_2861)"/>
  <path d="M304 200H303V207H304V200Z" fill="url(#paint84_linear_2538_2861)"/>
  <path d="M307 203H300V204H307V203Z" fill="url(#paint85_linear_2538_2861)"/>
  <path d="M304 300H303V307H304V300Z" fill="url(#paint86_linear_2538_2861)"/>
  <path d="M307 303H300V304H307V303Z" fill="url(#paint87_linear_2538_2861)"/>
  <path d="M304 400H303V407H304V400Z" fill="url(#paint88_linear_2538_2861)"/>
  <path d="M307 403H300V404H307V403Z" fill="url(#paint89_linear_2538_2861)"/>
  <path d="M404 400H403V407H404V400Z" fill="url(#paint90_linear_2538_2861)"/>
  <path d="M407 403H400V404H407V403Z" fill="url(#paint91_linear_2538_2861)"/>
  <path d="M54 53H53V54H54V53Z" fill="url(#paint92_linear_2538_2861)"/>
  <path d="M154 53H153V54H154V53Z" fill="url(#paint93_linear_2538_2861)"/>
  <path d="M254 53H253V54H254V53Z" fill="url(#paint94_linear_2538_2861)"/>
  <path d="M354 53H353V54H354V53Z" fill="url(#paint95_linear_2538_2861)"/>
  <path d="M54 153H53V154H54V153Z" fill="url(#paint96_linear_2538_2861)"/>
  <path d="M154 153H153V154H154V153Z" fill="url(#paint97_linear_2538_2861)"/>
  <path d="M254 153H253V154H254V153Z" fill="url(#paint98_linear_2538_2861)"/>
  <path d="M354 153H353V154H354V153Z" fill="url(#paint99_linear_2538_2861)"/>
  <path d="M54 253H53V254H54V253Z" fill="url(#paint100_linear_2538_2861)"/>
  <path d="M154 253H153V254H154V253Z" fill="url(#paint101_linear_2538_2861)"/>
  <path d="M254 253H253V254H254V253Z" fill="url(#paint102_linear_2538_2861)"/>
  <path d="M354 253H353V254H354V253Z" fill="url(#paint103_linear_2538_2861)"/>
  <path d="M54 353H53V354H54V353Z" fill="url(#paint104_linear_2538_2861)"/>
  <path d="M154 353H153V354H154V353Z" fill="url(#paint105_linear_2538_2861)"/>
  <path d="M254 353H253V354H254V353Z" fill="url(#paint106_linear_2538_2861)"/>
  <path d="M354 353H353V354H354V353Z" fill="url(#paint107_linear_2538_2861)"/>
  <defs>
    <linearGradient id="paint0_linear_2538_2861" x1="2.97789" y1="-4.3624" x2="5.07129" y2="-4.35721" gradientUnits="userSpaceOnUse">
      <stop stop-color="#F87171"/>
      <stop offset="1" stop-color="#FDBA74"/>
    </linearGradient>
    <linearGradient id="paint1_linear_2538_2861" x1="22.5266" y1="-4.88206" x2="24.6263" y2="-4.87684" gradientUnits="userSpaceOnUse">
      <stop stop-color="#F87171"/>
      <stop offset="1" stop-color="#FDBA74"/>
    </linearGradient>
    <linearGradient id="paint2_linear_2538_2861" x1="42.5769" y1="-4.88206" x2="44.6766" y2="-4.87684" gradientUnits="userSpaceOnUse">
      <stop stop-color="#F87171"/>
      <stop offset="1" stop-color="#FDBA74"/>
    </linearGradient>
    <linearGradient id="paint3_linear_2538_2861" x1="62.6267" y1="-4.88206" x2="64.7264" y2="-4.87684" gradientUnits="userSpaceOnUse">
      <stop stop-color="#F87171"/>
      <stop offset="1" stop-color="#FDBA74"/>
    </linearGradient>
    <linearGradient id="paint4_linear_2538_2861" x1="82.6771" y1="-4.88206" x2="84.7747" y2="-4.87685" gradientUnits="userSpaceOnUse">
      <stop stop-color="#F87171"/>
      <stop offset="1" stop-color="#FDBA74"/>
    </linearGradient>
    <linearGradient id="paint5_linear_2538_2861" x1="102.726" y1="-4.88206" x2="104.826" y2="-4.87684" gradientUnits="userSpaceOnUse">
      <stop stop-color="#F87171"/>
      <stop offset="1" stop-color="#FDBA74"/>
    </linearGradient>
    <linearGradient id="paint6_linear_2538_2861" x1="122.777" y1="-4.88206" x2="124.874" y2="-4.87685" gradientUnits="userSpaceOnUse">
      <stop stop-color="#F87171"/>
      <stop offset="1" stop-color="#FDBA74"/>
    </linearGradient>
    <linearGradient id="paint7_linear_2538_2861" x1="142.827" y1="-4.88206" x2="144.925" y2="-4.87685" gradientUnits="userSpaceOnUse">
      <stop stop-color="#F87171"/>
      <stop offset="1" stop-color="#FDBA74"/>
    </linearGradient>
    <linearGradient id="paint8_linear_2538_2861" x1="162.877" y1="-4.88206" x2="164.974" y2="-4.87685" gradientUnits="userSpaceOnUse">
      <stop stop-color="#F87171"/>
      <stop offset="1" stop-color="#FDBA74"/>
    </linearGradient>
    <linearGradient id="paint9_linear_2538_2861" x1="182.927" y1="-4.88206" x2="185.025" y2="-4.87685" gradientUnits="userSpaceOnUse">
      <stop stop-color="#F87171"/>
      <stop offset="1" stop-color="#FDBA74"/>
    </linearGradient>
    <linearGradient id="paint10_linear_2538_2861" x1="202.976" y1="-4.88206" x2="205.076" y2="-4.87684" gradientUnits="userSpaceOnUse">
      <stop stop-color="#F87171"/>
      <stop offset="1" stop-color="#FDBA74"/>
    </linearGradient>
    <linearGradient id="paint11_linear_2538_2861" x1="223.027" y1="-4.88206" x2="225.124" y2="-4.87685" gradientUnits="userSpaceOnUse">
      <stop stop-color="#F87171"/>
      <stop offset="1" stop-color="#FDBA74"/>
    </linearGradient>
    <linearGradient id="paint12_linear_2538_2861" x1="243.077" y1="-4.88206" x2="245.177" y2="-4.87684" gradientUnits="userSpaceOnUse">
      <stop stop-color="#F87171"/>
      <stop offset="1" stop-color="#FDBA74"/>
    </linearGradient>
    <linearGradient id="paint13_linear_2538_2861" x1="263.126" y1="-4.88206" x2="265.225" y2="-4.87684" gradientUnits="userSpaceOnUse">
      <stop stop-color="#F87171"/>
      <stop offset="1" stop-color="#FDBA74"/>
    </linearGradient>
    <linearGradient id="paint14_linear_2538_2861" x1="283.177" y1="-4.88206" x2="285.275" y2="-4.87685" gradientUnits="userSpaceOnUse">
      <stop stop-color="#F87171"/>
      <stop offset="1" stop-color="#FDBA74"/>
    </linearGradient>
    <linearGradient id="paint15_linear_2538_2861" x1="303.227" y1="-4.88206" x2="305.324" y2="-4.87685" gradientUnits="userSpaceOnUse">
      <stop stop-color="#F87171"/>
      <stop offset="1" stop-color="#FDBA74"/>
    </linearGradient>
    <linearGradient id="paint16_linear_2538_2861" x1="323.277" y1="-4.88206" x2="325.374" y2="-4.87685" gradientUnits="userSpaceOnUse">
      <stop stop-color="#F87171"/>
      <stop offset="1" stop-color="#FDBA74"/>
    </linearGradient>
    <linearGradient id="paint17_linear_2538_2861" x1="343.327" y1="-4.88206" x2="345.427" y2="-4.87684" gradientUnits="userSpaceOnUse">
      <stop stop-color="#F87171"/>
      <stop offset="1" stop-color="#FDBA74"/>
    </linearGradient>
    <linearGradient id="paint18_linear_2538_2861" x1="363.376" y1="-4.88206" x2="365.475" y2="-4.87684" gradientUnits="userSpaceOnUse">
      <stop stop-color="#F87171"/>
      <stop offset="1" stop-color="#FDBA74"/>
    </linearGradient>
    <linearGradient id="paint19_linear_2538_2861" x1="383.427" y1="-4.88206" x2="385.525" y2="-4.87685" gradientUnits="userSpaceOnUse">
      <stop stop-color="#F87171"/>
      <stop offset="1" stop-color="#FDBA74"/>
    </linearGradient>
    <linearGradient id="paint20_linear_2538_2861" x1="402.978" y1="-4.3624" x2="405.071" y2="-4.35721" gradientUnits="userSpaceOnUse">
      <stop stop-color="#F87171"/>
      <stop offset="1" stop-color="#FDBA74"/>
    </linearGradient>
    <linearGradient id="paint21_linear_2538_2861" x1="-5.34521" y1="2.98034" x2="-5.33991" y2="5.08849" gradientUnits="userSpaceOnUse">
      <stop stop-color="#F87171"/>
      <stop offset="1" stop-color="#FDBA74"/>
    </linearGradient>
    <linearGradient id="paint22_linear_2538_2861" x1="-5.86733" y1="22.5291" x2="-5.862" y2="24.6436" gradientUnits="userSpaceOnUse">
      <stop stop-color="#F87171"/>
      <stop offset="1" stop-color="#FDBA74"/>
    </linearGradient>
    <linearGradient id="paint23_linear_2538_2861" x1="-5.86733" y1="42.5789" x2="-5.862" y2="44.6934" gradientUnits="userSpaceOnUse">
      <stop stop-color="#F87171"/>
      <stop offset="1" stop-color="#FDBA74"/>
    </linearGradient>
    <linearGradient id="paint24_linear_2538_2861" x1="-5.86733" y1="62.6297" x2="-5.862" y2="64.7442" gradientUnits="userSpaceOnUse">
      <stop stop-color="#F87171"/>
      <stop offset="1" stop-color="#FDBA74"/>
    </linearGradient>
    <linearGradient id="paint25_linear_2538_2861" x1="-5.86733" y1="82.6795" x2="-5.862" y2="84.794" gradientUnits="userSpaceOnUse">
      <stop stop-color="#F87171"/>
      <stop offset="1" stop-color="#FDBA74"/>
    </linearGradient>
    <linearGradient id="paint26_linear_2538_2861" x1="-5.86733" y1="102.728" x2="-5.862" y2="104.843" gradientUnits="userSpaceOnUse">
      <stop stop-color="#F87171"/>
      <stop offset="1" stop-color="#FDBA74"/>
    </linearGradient>
    <linearGradient id="paint27_linear_2538_2861" x1="-5.86733" y1="122.779" x2="-5.862" y2="124.894" gradientUnits="userSpaceOnUse">
      <stop stop-color="#F87171"/>
      <stop offset="1" stop-color="#FDBA74"/>
    </linearGradient>
    <linearGradient id="paint28_linear_2538_2861" x1="-5.86733" y1="142.829" x2="-5.862" y2="144.943" gradientUnits="userSpaceOnUse">
      <stop stop-color="#F87171"/>
      <stop offset="1" stop-color="#FDBA74"/>
    </linearGradient>
    <linearGradient id="paint29_linear_2538_2861" x1="-5.86733" y1="162.88" x2="-5.862" y2="164.994" gradientUnits="userSpaceOnUse">
      <stop stop-color="#F87171"/>
      <stop offset="1" stop-color="#FDBA74"/>
    </linearGradient>
    <linearGradient id="paint30_linear_2538_2861" x1="-5.86733" y1="182.93" x2="-5.862" y2="185.044" gradientUnits="userSpaceOnUse">
      <stop stop-color="#F87171"/>
      <stop offset="1" stop-color="#FDBA74"/>
    </linearGradient>
    <linearGradient id="paint31_linear_2538_2861" x1="-5.86733" y1="202.979" x2="-5.862" y2="205.094" gradientUnits="userSpaceOnUse">
      <stop stop-color="#F87171"/>
      <stop offset="1" stop-color="#FDBA74"/>
    </linearGradient>
    <linearGradient id="paint32_linear_2538_2861" x1="-5.86733" y1="223.029" x2="-5.86201" y2="225.141" gradientUnits="userSpaceOnUse">
      <stop stop-color="#F87171"/>
      <stop offset="1" stop-color="#FDBA74"/>
    </linearGradient>
    <linearGradient id="paint33_linear_2538_2861" x1="-5.86733" y1="243.079" x2="-5.862" y2="245.193" gradientUnits="userSpaceOnUse">
      <stop stop-color="#F87171"/>
      <stop offset="1" stop-color="#FDBA74"/>
    </linearGradient>
    <linearGradient id="paint34_linear_2538_2861" x1="-5.86733" y1="263.129" x2="-5.862" y2="265.243" gradientUnits="userSpaceOnUse">
      <stop stop-color="#F87171"/>
      <stop offset="1" stop-color="#FDBA74"/>
    </linearGradient>
    <linearGradient id="paint35_linear_2538_2861" x1="-5.86733" y1="283.18" x2="-5.86201" y2="285.292" gradientUnits="userSpaceOnUse">
      <stop stop-color="#F87171"/>
      <stop offset="1" stop-color="#FDBA74"/>
    </linearGradient>
    <linearGradient id="paint36_linear_2538_2861" x1="-5.86733" y1="303.229" x2="-5.86201" y2="305.342" gradientUnits="userSpaceOnUse">
      <stop stop-color="#F87171"/>
      <stop offset="1" stop-color="#FDBA74"/>
    </linearGradient>
    <linearGradient id="paint37_linear_2538_2861" x1="-5.86733" y1="323.279" x2="-5.86201" y2="325.391" gradientUnits="userSpaceOnUse">
      <stop stop-color="#F87171"/>
      <stop offset="1" stop-color="#FDBA74"/>
    </linearGradient>
    <linearGradient id="paint38_linear_2538_2861" x1="-5.86733" y1="343.329" x2="-5.862" y2="345.443" gradientUnits="userSpaceOnUse">
      <stop stop-color="#F87171"/>
      <stop offset="1" stop-color="#FDBA74"/>
    </linearGradient>
    <linearGradient id="paint39_linear_2538_2861" x1="-5.86733" y1="363.379" x2="-5.862" y2="365.493" gradientUnits="userSpaceOnUse">
      <stop stop-color="#F87171"/>
      <stop offset="1" stop-color="#FDBA74"/>
    </linearGradient>
    <linearGradient id="paint40_linear_2538_2861" x1="-5.86733" y1="383.43" x2="-5.86201" y2="385.542" gradientUnits="userSpaceOnUse">
      <stop stop-color="#F87171"/>
      <stop offset="1" stop-color="#FDBA74"/>
    </linearGradient>
    <linearGradient id="paint41_linear_2538_2861" x1="-5.34521" y1="402.98" x2="-5.33991" y2="405.088" gradientUnits="userSpaceOnUse">
      <stop stop-color="#F87171"/>
      <stop offset="1" stop-color="#FDBA74"/>
    </linearGradient>
    <linearGradient id="paint42_linear_2538_2861" x1="2.97789" y1="-0.137592" x2="5.03001" y2="0.153518" gradientUnits="userSpaceOnUse">
      <stop stop-color="#F87171"/>
      <stop offset="1" stop-color="#FDBA74"/>
    </linearGradient>
    <linearGradient id="paint43_linear_2538_2861" x1="-0.154791" y1="2.98034" x2="0.142346" y2="5.04576" gradientUnits="userSpaceOnUse">
      <stop stop-color="#F87171"/>
      <stop offset="1" stop-color="#FDBA74"/>
    </linearGradient>
    <linearGradient id="paint44_linear_2538_2861" x1="402.978" y1="-0.137592" x2="405.03" y2="0.153518" gradientUnits="userSpaceOnUse">
      <stop stop-color="#F87171"/>
      <stop offset="1" stop-color="#FDBA74"/>
    </linearGradient>
    <linearGradient id="paint45_linear_2538_2861" x1="399.845" y1="2.98034" x2="400.142" y2="5.04576" gradientUnits="userSpaceOnUse">
      <stop stop-color="#F87171"/>
      <stop offset="1" stop-color="#FDBA74"/>
    </linearGradient>
    <linearGradient id="paint46_linear_2538_2861" x1="2.97789" y1="99.8624" x2="5.03001" y2="100.154" gradientUnits="userSpaceOnUse">
      <stop stop-color="#F87171"/>
      <stop offset="1" stop-color="#FDBA74"/>
    </linearGradient>
    <linearGradient id="paint47_linear_2538_2861" x1="-0.154791" y1="102.98" x2="0.142346" y2="105.046" gradientUnits="userSpaceOnUse">
      <stop stop-color="#F87171"/>
      <stop offset="1" stop-color="#FDBA74"/>
    </linearGradient>
    <linearGradient id="paint48_linear_2538_2861" x1="402.978" y1="99.8624" x2="405.03" y2="100.154" gradientUnits="userSpaceOnUse">
      <stop stop-color="#F87171"/>
      <stop offset="1" stop-color="#FDBA74"/>
    </linearGradient>
    <linearGradient id="paint49_linear_2538_2861" x1="399.845" y1="102.98" x2="400.142" y2="105.046" gradientUnits="userSpaceOnUse">
      <stop stop-color="#F87171"/>
      <stop offset="1" stop-color="#FDBA74"/>
    </linearGradient>
    <linearGradient id="paint50_linear_2538_2861" x1="2.97789" y1="199.862" x2="5.03001" y2="200.154" gradientUnits="userSpaceOnUse">
      <stop stop-color="#F87171"/>
      <stop offset="1" stop-color="#FDBA74"/>
    </linearGradient>
    <linearGradient id="paint51_linear_2538_2861" x1="-0.154791" y1="202.98" x2="0.142346" y2="205.046" gradientUnits="userSpaceOnUse">
      <stop stop-color="#F87171"/>
      <stop offset="1" stop-color="#FDBA74"/>
    </linearGradient>
    <linearGradient id="paint52_linear_2538_2861" x1="402.978" y1="199.862" x2="405.03" y2="200.154" gradientUnits="userSpaceOnUse">
      <stop stop-color="#F87171"/>
      <stop offset="1" stop-color="#FDBA74"/>
    </linearGradient>
    <linearGradient id="paint53_linear_2538_2861" x1="399.845" y1="202.98" x2="400.142" y2="205.046" gradientUnits="userSpaceOnUse">
      <stop stop-color="#F87171"/>
      <stop offset="1" stop-color="#FDBA74"/>
    </linearGradient>
    <linearGradient id="paint54_linear_2538_2861" x1="2.97789" y1="299.862" x2="5.03001" y2="300.154" gradientUnits="userSpaceOnUse">
      <stop stop-color="#F87171"/>
      <stop offset="1" stop-color="#FDBA74"/>
    </linearGradient>
    <linearGradient id="paint55_linear_2538_2861" x1="-0.154791" y1="302.98" x2="0.142346" y2="305.046" gradientUnits="userSpaceOnUse">
      <stop stop-color="#F87171"/>
      <stop offset="1" stop-color="#FDBA74"/>
    </linearGradient>
    <linearGradient id="paint56_linear_2538_2861" x1="402.978" y1="299.862" x2="405.03" y2="300.154" gradientUnits="userSpaceOnUse">
      <stop stop-color="#F87171"/>
      <stop offset="1" stop-color="#FDBA74"/>
    </linearGradient>
    <linearGradient id="paint57_linear_2538_2861" x1="399.845" y1="302.98" x2="400.142" y2="305.046" gradientUnits="userSpaceOnUse">
      <stop stop-color="#F87171"/>
      <stop offset="1" stop-color="#FDBA74"/>
    </linearGradient>
    <linearGradient id="paint58_linear_2538_2861" x1="2.97789" y1="399.862" x2="5.03001" y2="400.154" gradientUnits="userSpaceOnUse">
      <stop stop-color="#F87171"/>
      <stop offset="1" stop-color="#FDBA74"/>
    </linearGradient>
    <linearGradient id="paint59_linear_2538_2861" x1="-0.154791" y1="402.98" x2="0.142346" y2="405.046" gradientUnits="userSpaceOnUse">
      <stop stop-color="#F87171"/>
      <stop offset="1" stop-color="#FDBA74"/>
    </linearGradient>
    <linearGradient id="paint60_linear_2538_2861" x1="102.978" y1="-0.137592" x2="105.03" y2="0.153518" gradientUnits="userSpaceOnUse">
      <stop stop-color="#F87171"/>
      <stop offset="1" stop-color="#FDBA74"/>
    </linearGradient>
    <linearGradient id="paint61_linear_2538_2861" x1="99.8452" y1="2.98034" x2="100.142" y2="5.04576" gradientUnits="userSpaceOnUse">
      <stop stop-color="#F87171"/>
      <stop offset="1" stop-color="#FDBA74"/>
    </linearGradient>
    <linearGradient id="paint62_linear_2538_2861" x1="102.978" y1="99.8624" x2="105.03" y2="100.154" gradientUnits="userSpaceOnUse">
      <stop stop-color="#F87171"/>
      <stop offset="1" stop-color="#FDBA74"/>
    </linearGradient>
    <linearGradient id="paint63_linear_2538_2861" x1="99.8452" y1="102.98" x2="100.142" y2="105.046" gradientUnits="userSpaceOnUse">
      <stop stop-color="#F87171"/>
      <stop offset="1" stop-color="#FDBA74"/>
    </linearGradient>
    <linearGradient id="paint64_linear_2538_2861" x1="102.978" y1="199.862" x2="105.03" y2="200.154" gradientUnits="userSpaceOnUse">
      <stop stop-color="#F87171"/>
      <stop offset="1" stop-color="#FDBA74"/>
    </linearGradient>
    <linearGradient id="paint65_linear_2538_2861" x1="99.8452" y1="202.98" x2="100.142" y2="205.046" gradientUnits="userSpaceOnUse">
      <stop stop-color="#F87171"/>
      <stop offset="1" stop-color="#FDBA74"/>
    </linearGradient>
    <linearGradient id="paint66_linear_2538_2861" x1="102.978" y1="299.862" x2="105.03" y2="300.154" gradientUnits="userSpaceOnUse">
      <stop stop-color="#F87171"/>
      <stop offset="1" stop-color="#FDBA74"/>
    </linearGradient>
    <linearGradient id="paint67_linear_2538_2861" x1="99.8452" y1="302.98" x2="100.142" y2="305.046" gradientUnits="userSpaceOnUse">
      <stop stop-color="#F87171"/>
      <stop offset="1" stop-color="#FDBA74"/>
    </linearGradient>
    <linearGradient id="paint68_linear_2538_2861" x1="102.978" y1="399.862" x2="105.03" y2="400.154" gradientUnits="userSpaceOnUse">
      <stop stop-color="#F87171"/>
      <stop offset="1" stop-color="#FDBA74"/>
    </linearGradient>
    <linearGradient id="paint69_linear_2538_2861" x1="99.8452" y1="402.98" x2="100.142" y2="405.046" gradientUnits="userSpaceOnUse">
      <stop stop-color="#F87171"/>
      <stop offset="1" stop-color="#FDBA74"/>
    </linearGradient>
    <linearGradient id="paint70_linear_2538_2861" x1="202.978" y1="-0.137592" x2="205.03" y2="0.153518" gradientUnits="userSpaceOnUse">
      <stop stop-color="#F87171"/>
      <stop offset="1" stop-color="#FDBA74"/>
    </linearGradient>
    <linearGradient id="paint71_linear_2538_2861" x1="199.845" y1="2.98034" x2="200.142" y2="5.04576" gradientUnits="userSpaceOnUse">
      <stop stop-color="#F87171"/>
      <stop offset="1" stop-color="#FDBA74"/>
    </linearGradient>
    <linearGradient id="paint72_linear_2538_2861" x1="202.978" y1="99.8624" x2="205.03" y2="100.154" gradientUnits="userSpaceOnUse">
      <stop stop-color="#F87171"/>
      <stop offset="1" stop-color="#FDBA74"/>
    </linearGradient>
    <linearGradient id="paint73_linear_2538_2861" x1="199.845" y1="102.98" x2="200.142" y2="105.046" gradientUnits="userSpaceOnUse">
      <stop stop-color="#F87171"/>
      <stop offset="1" stop-color="#FDBA74"/>
    </linearGradient>
    <linearGradient id="paint74_linear_2538_2861" x1="202.978" y1="199.862" x2="205.03" y2="200.154" gradientUnits="userSpaceOnUse">
      <stop stop-color="#F87171"/>
      <stop offset="1" stop-color="#FDBA74"/>
    </linearGradient>
    <linearGradient id="paint75_linear_2538_2861" x1="199.845" y1="202.98" x2="200.142" y2="205.046" gradientUnits="userSpaceOnUse">
      <stop stop-color="#F87171"/>
      <stop offset="1" stop-color="#FDBA74"/>
    </linearGradient>
    <linearGradient id="paint76_linear_2538_2861" x1="202.978" y1="299.862" x2="205.03" y2="300.154" gradientUnits="userSpaceOnUse">
      <stop stop-color="#F87171"/>
      <stop offset="1" stop-color="#FDBA74"/>
    </linearGradient>
    <linearGradient id="paint77_linear_2538_2861" x1="199.845" y1="302.98" x2="200.142" y2="305.046" gradientUnits="userSpaceOnUse">
      <stop stop-color="#F87171"/>
      <stop offset="1" stop-color="#FDBA74"/>
    </linearGradient>
    <linearGradient id="paint78_linear_2538_2861" x1="202.978" y1="399.862" x2="205.03" y2="400.154" gradientUnits="userSpaceOnUse">
      <stop stop-color="#F87171"/>
      <stop offset="1" stop-color="#FDBA74"/>
    </linearGradient>
    <linearGradient id="paint79_linear_2538_2861" x1="199.845" y1="402.98" x2="200.142" y2="405.046" gradientUnits="userSpaceOnUse">
      <stop stop-color="#F87171"/>
      <stop offset="1" stop-color="#FDBA74"/>
    </linearGradient>
    <linearGradient id="paint80_linear_2538_2861" x1="302.978" y1="-0.137592" x2="305.03" y2="0.153518" gradientUnits="userSpaceOnUse">
      <stop stop-color="#F87171"/>
      <stop offset="1" stop-color="#FDBA74"/>
    </linearGradient>
    <linearGradient id="paint81_linear_2538_2861" x1="299.845" y1="2.98034" x2="300.142" y2="5.04576" gradientUnits="userSpaceOnUse">
      <stop stop-color="#F87171"/>
      <stop offset="1" stop-color="#FDBA74"/>
    </linearGradient>
    <linearGradient id="paint82_linear_2538_2861" x1="302.978" y1="99.8624" x2="305.03" y2="100.154" gradientUnits="userSpaceOnUse">
      <stop stop-color="#F87171"/>
      <stop offset="1" stop-color="#FDBA74"/>
    </linearGradient>
    <linearGradient id="paint83_linear_2538_2861" x1="299.845" y1="102.98" x2="300.142" y2="105.046" gradientUnits="userSpaceOnUse">
      <stop stop-color="#F87171"/>
      <stop offset="1" stop-color="#FDBA74"/>
    </linearGradient>
    <linearGradient id="paint84_linear_2538_2861" x1="302.978" y1="199.862" x2="305.03" y2="200.154" gradientUnits="userSpaceOnUse">
      <stop stop-color="#F87171"/>
      <stop offset="1" stop-color="#FDBA74"/>
    </linearGradient>
    <linearGradient id="paint85_linear_2538_2861" x1="299.845" y1="202.98" x2="300.142" y2="205.046" gradientUnits="userSpaceOnUse">
      <stop stop-color="#F87171"/>
      <stop offset="1" stop-color="#FDBA74"/>
    </linearGradient>
    <linearGradient id="paint86_linear_2538_2861" x1="302.978" y1="299.862" x2="305.03" y2="300.154" gradientUnits="userSpaceOnUse">
      <stop stop-color="#F87171"/>
      <stop offset="1" stop-color="#FDBA74"/>
    </linearGradient>
    <linearGradient id="paint87_linear_2538_2861" x1="299.845" y1="302.98" x2="300.142" y2="305.046" gradientUnits="userSpaceOnUse">
      <stop stop-color="#F87171"/>
      <stop offset="1" stop-color="#FDBA74"/>
    </linearGradient>
    <linearGradient id="paint88_linear_2538_2861" x1="302.978" y1="399.862" x2="305.03" y2="400.154" gradientUnits="userSpaceOnUse">
      <stop stop-color="#F87171"/>
      <stop offset="1" stop-color="#FDBA74"/>
    </linearGradient>
    <linearGradient id="paint89_linear_2538_2861" x1="299.845" y1="402.98" x2="300.142" y2="405.046" gradientUnits="userSpaceOnUse">
      <stop stop-color="#F87171"/>
      <stop offset="1" stop-color="#FDBA74"/>
    </linearGradient>
    <linearGradient id="paint90_linear_2538_2861" x1="402.978" y1="399.862" x2="405.03" y2="400.154" gradientUnits="userSpaceOnUse">
      <stop stop-color="#F87171"/>
      <stop offset="1" stop-color="#FDBA74"/>
    </linearGradient>
    <linearGradient id="paint91_linear_2538_2861" x1="399.845" y1="402.98" x2="400.142" y2="405.046" gradientUnits="userSpaceOnUse">
      <stop stop-color="#F87171"/>
      <stop offset="1" stop-color="#FDBA74"/>
    </linearGradient>
    <linearGradient id="paint92_linear_2538_2861" x1="52.9779" y1="52.9803" x2="54.0319" y2="54.027" gradientUnits="userSpaceOnUse">
      <stop stop-color="#F87171"/>
      <stop offset="1" stop-color="#FDBA74"/>
    </linearGradient>
    <linearGradient id="paint93_linear_2538_2861" x1="152.978" y1="52.9803" x2="154.032" y2="54.027" gradientUnits="userSpaceOnUse">
      <stop stop-color="#F87171"/>
      <stop offset="1" stop-color="#FDBA74"/>
    </linearGradient>
    <linearGradient id="paint94_linear_2538_2861" x1="252.978" y1="52.9803" x2="254.032" y2="54.027" gradientUnits="userSpaceOnUse">
      <stop stop-color="#F87171"/>
      <stop offset="1" stop-color="#FDBA74"/>
    </linearGradient>
    <linearGradient id="paint95_linear_2538_2861" x1="352.978" y1="52.9803" x2="354.032" y2="54.027" gradientUnits="userSpaceOnUse">
      <stop stop-color="#F87171"/>
      <stop offset="1" stop-color="#FDBA74"/>
    </linearGradient>
    <linearGradient id="paint96_linear_2538_2861" x1="52.9779" y1="152.98" x2="54.0319" y2="154.027" gradientUnits="userSpaceOnUse">
      <stop stop-color="#F87171"/>
      <stop offset="1" stop-color="#FDBA74"/>
    </linearGradient>
    <linearGradient id="paint97_linear_2538_2861" x1="152.978" y1="152.98" x2="154.032" y2="154.027" gradientUnits="userSpaceOnUse">
      <stop stop-color="#F87171"/>
      <stop offset="1" stop-color="#FDBA74"/>
    </linearGradient>
    <linearGradient id="paint98_linear_2538_2861" x1="252.978" y1="152.98" x2="254.032" y2="154.027" gradientUnits="userSpaceOnUse">
      <stop stop-color="#F87171"/>
      <stop offset="1" stop-color="#FDBA74"/>
    </linearGradient>
    <linearGradient id="paint99_linear_2538_2861" x1="352.978" y1="152.98" x2="354.032" y2="154.027" gradientUnits="userSpaceOnUse">
      <stop stop-color="#F87171"/>
      <stop offset="1" stop-color="#FDBA74"/>
    </linearGradient>
    <linearGradient id="paint100_linear_2538_2861" x1="52.9779" y1="252.98" x2="54.0319" y2="254.027" gradientUnits="userSpaceOnUse">
      <stop stop-color="#F87171"/>
      <stop offset="1" stop-color="#FDBA74"/>
    </linearGradient>
    <linearGradient id="paint101_linear_2538_2861" x1="152.978" y1="252.98" x2="154.032" y2="254.027" gradientUnits="userSpaceOnUse">
      <stop stop-color="#F87171"/>
      <stop offset="1" stop-color="#FDBA74"/>
    </linearGradient>
    <linearGradient id="paint102_linear_2538_2861" x1="252.978" y1="252.98" x2="254.032" y2="254.027" gradientUnits="userSpaceOnUse">
      <stop stop-color="#F87171"/>
      <stop offset="1" stop-color="#FDBA74"/>
    </linearGradient>
    <linearGradient id="paint103_linear_2538_2861" x1="352.978" y1="252.98" x2="354.032" y2="254.027" gradientUnits="userSpaceOnUse">
      <stop stop-color="#F87171"/>
      <stop offset="1" stop-color="#FDBA74"/>
    </linearGradient>
    <linearGradient id="paint104_linear_2538_2861" x1="52.9779" y1="352.98" x2="54.0319" y2="354.027" gradientUnits="userSpaceOnUse">
      <stop stop-color="#F87171"/>
      <stop offset="1" stop-color="#FDBA74"/>
    </linearGradient>
    <linearGradient id="paint105_linear_2538_2861" x1="152.978" y1="352.98" x2="154.032" y2="354.027" gradientUnits="userSpaceOnUse">
      <stop stop-color="#F87171"/>
      <stop offset="1" stop-color="#FDBA74"/>
    </linearGradient>
    <linearGradient id="paint106_linear_2538_2861" x1="252.978" y1="352.98" x2="254.032" y2="354.027" gradientUnits="userSpaceOnUse">
      <stop stop-color="#F87171"/>
      <stop offset="1" stop-color="#FDBA74"/>
    </linearGradient>
    <linearGradient id="paint107_linear_2538_2861" x1="352.978" y1="352.98" x2="354.032" y2="354.027" gradientUnits="userSpaceOnUse">
      <stop stop-color="#F87171"/>
      <stop offset="1" stop-color="#FDBA74"/>
    </linearGradient>
  </defs>
</svg>
