<svg width="80" height="80" viewBox="0 0 80 80" fill="none" xmlns="http://www.w3.org/2000/svg">
  <g clip-path="url(#clip0_3012_76)">
    <path d="M41.2206 33.2338C30.89 22.9044 19.5624 17.4839 15.9185 21.1265C15.5186 21.5453 15.2244 22.0533 15.0601 22.6086L15.0015 22.5499L11.5215 36.811L8.0562 51.0295L3.94846 67.8656L1.34814 78.5281L16.7435 72.7024L36.3252 65.2933L51.9471 59.3822L51.9284 59.3636C52.4514 59.1968 52.9299 58.9139 53.3279 58.5359C56.9718 54.892 51.5513 43.5644 41.2206 33.2338Z" fill="#DD1C4B"/>
    <path d="M41.2207 33.2299C30.8905 22.8993 19.5626 17.4783 15.919 21.1218C12.2755 24.7652 17.6961 36.0933 28.0263 46.4238C38.3565 56.7544 49.6844 62.1753 53.3279 58.5319C56.9715 54.8885 51.5509 43.5604 41.2207 33.2299Z" fill="#D1E3EE"/>
    <path d="M50.529 59.8435C48.6638 59.8762 46.8132 59.509 45.1018 58.7666L32.3334 63.5981L12.745 71.0005L2.24113 74.975L1.34814 78.6362L16.7435 72.8105L36.3252 65.4014L50.6623 59.9768L50.529 59.8435Z" fill="#B21D48"/>
    <path d="M66.6559 49.3137C66.4963 49.3132 66.3379 49.2847 66.1881 49.2297C59.4219 46.6948 52.108 45.9842 44.9804 47.1692L40.2195 47.9622C39.8751 48.0114 39.5251 47.9239 39.2443 47.7185C38.9635 47.513 38.7741 47.2059 38.7167 46.8628C38.6593 46.5196 38.7383 46.1676 38.937 45.8819C39.1356 45.5963 39.438 45.3996 39.7797 45.3339L44.5419 44.5342C52.1312 43.2733 59.9187 44.0294 67.1237 46.7267C67.4204 46.8333 67.6697 47.0417 67.8273 47.3148C67.9849 47.5878 68.0406 47.9079 67.9845 48.2182C67.9284 48.5284 67.7642 48.8087 67.5209 49.0093C67.2777 49.2099 66.9712 49.3178 66.6559 49.3137ZM42.6653 41.3168C42.3642 41.3151 42.0727 41.2115 41.8381 41.0229C41.6034 40.8343 41.4396 40.5718 41.3731 40.2782C41.3067 39.9846 41.3416 39.6772 41.4721 39.406C41.6027 39.1347 41.8212 38.9157 42.0921 38.7845L70.0812 25.4563C70.2393 25.381 70.4106 25.3376 70.5854 25.3286C70.7603 25.3195 70.9352 25.345 71.1001 25.4035C71.2651 25.4621 71.417 25.5525 71.547 25.6698C71.677 25.787 71.7826 25.9287 71.8579 26.0868C71.9332 26.2448 71.9766 26.4161 71.9856 26.591C71.9947 26.7658 71.9692 26.9407 71.9107 27.1057C71.8522 27.2707 71.7617 27.4225 71.6445 27.5525C71.5272 27.6825 71.3855 27.7882 71.2275 27.8634L43.2384 41.1915C43.059 41.2754 42.8632 41.3182 42.6653 41.3168ZM27.0793 38.6512C26.86 38.651 26.6441 38.5966 26.4508 38.493C26.2575 38.3893 26.0927 38.2396 25.9712 38.057C25.8496 37.8744 25.775 37.6647 25.754 37.4463C25.7329 37.228 25.7661 37.0079 25.8505 36.8054V36.8052L27.7884 32.1551C30.77 25.0303 31.4653 17.1555 29.7783 9.6185C29.7367 9.44638 29.7298 9.26769 29.7581 9.09287C29.7863 8.91806 29.8491 8.75063 29.9428 8.60036C30.0365 8.45009 30.1592 8.31999 30.3037 8.21767C30.4482 8.11535 30.6117 8.04286 30.7845 8.00443C30.9574 7.96599 31.1362 7.96239 31.3104 7.99383C31.4847 8.02527 31.651 8.09113 31.7995 8.18754C31.948 8.28396 32.0759 8.40901 32.1755 8.55539C32.2752 8.70176 32.3447 8.86653 32.3799 9.04006C34.1872 17.1138 33.442 25.5495 30.2474 33.1813L28.3082 37.8315C28.207 38.0741 28.0363 38.2813 27.8177 38.4272C27.599 38.573 27.3422 38.651 27.0793 38.6512Z" fill="#FFBF41"/>
    <path d="M73.3199 54.6457C74.7921 54.6457 75.9856 53.4523 75.9856 51.9801C75.9856 50.5079 74.7921 49.3145 73.3199 49.3145C71.8477 49.3145 70.6543 50.5079 70.6543 51.9801C70.6543 53.4523 71.8477 54.6457 73.3199 54.6457Z" fill="#D5557E"/>
    <path d="M41.3324 17.3264C42.8046 17.3264 43.998 16.1329 43.998 14.6607C43.998 13.1886 42.8046 11.9951 41.3324 11.9951C39.8602 11.9951 38.6667 13.1886 38.6667 14.6607C38.6667 16.1329 39.8602 17.3264 41.3324 17.3264Z" fill="#DD95C1"/>
    <path d="M29.337 5.33126C27.8648 5.33126 26.6714 4.13789 26.6714 2.66563C26.6714 1.19337 27.8648 0 29.337 0C30.8093 0 32.0026 1.19337 32.0026 2.66563C32.0026 4.13789 30.8093 5.33126 29.337 5.33126Z" fill="#7FCCCB"/>
    <path d="M66.656 10.6625C66.3025 10.6625 65.9635 10.5221 65.7135 10.2721C65.4636 10.0222 65.3231 9.68318 65.3231 9.3297V7.99688C65.3231 7.6434 65.4636 7.30439 65.7135 7.05444C65.9635 6.80449 66.3025 6.66407 66.656 6.66407C67.0094 6.66407 67.3485 6.80449 67.5984 7.05444C67.8484 7.30439 67.9888 7.6434 67.9888 7.99688V9.3297C67.9888 9.68318 67.8484 10.0222 67.5984 10.2721C67.3485 10.5221 67.0094 10.6625 66.656 10.6625ZM66.656 3.99844C66.3025 3.99844 65.9635 3.85802 65.7135 3.60807C65.4636 3.35812 65.3231 3.01911 65.3231 2.66563V1.33281C65.3231 0.97933 65.4636 0.640323 65.7135 0.390372C65.9635 0.140421 66.3025 0 66.656 0C67.0094 0 67.3485 0.140421 67.5984 0.390372C67.8484 0.640323 67.9888 0.97933 67.9888 1.33281V2.66563C67.9888 3.01911 67.8484 3.35812 67.5984 3.60807C67.3485 3.85802 67.0094 3.99844 66.656 3.99844ZM70.6544 6.66407H69.3216C68.9681 6.66407 68.6291 6.52365 68.3791 6.2737C68.1292 6.02375 67.9888 5.68474 67.9888 5.33126C67.9888 4.97777 68.1292 4.63877 68.3791 4.38881C68.6291 4.13886 68.9681 3.99844 69.3216 3.99844H70.6544C71.0079 3.99844 71.3469 4.13886 71.5968 4.38881C71.8468 4.63877 71.9872 4.97777 71.9872 5.33126C71.9872 5.68474 71.8468 6.02375 71.5968 6.2737C71.3469 6.52365 71.0079 6.66407 70.6544 6.66407ZM63.9903 6.66407H62.6575C62.304 6.66407 61.965 6.52365 61.7151 6.2737C61.4651 6.02375 61.3247 5.68474 61.3247 5.33126C61.3247 4.97777 61.4651 4.63877 61.7151 4.38881C61.965 4.13886 62.304 3.99844 62.6575 3.99844H63.9903C64.3438 3.99844 64.6828 4.13886 64.9328 4.38881C65.1827 4.63877 65.3231 4.97777 65.3231 5.33126C65.3231 5.68474 65.1827 6.02375 64.9328 6.2737C64.6828 6.52365 64.3438 6.66407 63.9903 6.66407Z" fill="#2276BB"/>
    <path d="M11.928 38.6516C11.7787 38.0774 11.6432 37.4996 11.5215 36.9189L8.05615 51.1374L8.32272 54.3881C8.90373 61.3186 11.8808 67.8301 16.7421 72.8036L36.3251 65.4012C36.2185 65.3679 36.1079 65.3439 36.0013 65.3079C24.1267 60.8555 15.1514 50.917 11.928 38.6516Z" fill="white"/>
    <path d="M36.3251 65.4014C36.2185 65.368 36.1078 65.344 36.0012 65.3081C34.7183 64.8224 33.4619 64.2694 32.2373 63.6514L14.5989 70.3248C15.2676 71.1921 15.9835 72.0219 16.7434 72.8105L36.3251 65.4014Z" fill="#F6F6E7"/>
    <path d="M57.3263 15.9658V22.6579H50.6343V15.9658H57.3263Z" fill="#C9DA53"/>
    <path d="M33.3356 39.9842C33.0661 39.9841 32.803 39.9023 32.5809 39.7496C32.3588 39.597 32.1883 39.3805 32.0917 39.1289C31.9951 38.8773 31.9771 38.6024 32.04 38.3403C32.1029 38.0783 32.2437 37.8414 32.4439 37.6611L45.7721 25.6657C46.0359 25.4374 46.3788 25.3217 46.7271 25.3434C47.0753 25.3651 47.4012 25.5225 47.6347 25.7818C47.8681 26.0411 47.9906 26.3816 47.9758 26.7302C47.961 27.0789 47.81 27.4078 47.5554 27.6463L34.2273 39.6416C33.9825 39.862 33.6649 39.984 33.3356 39.9842Z" fill="#FFBF41"/>
    <path d="M71.9873 34.6534C71.6338 34.6534 71.2948 34.5129 71.0448 34.263C70.7949 34.013 70.6545 33.674 70.6545 33.3205V31.9877C70.6545 31.6343 70.7949 31.2952 71.0448 31.0453C71.2948 30.7953 71.6338 30.6549 71.9873 30.6549C72.3408 30.6549 72.6798 30.7953 72.9297 31.0453C73.1797 31.2952 73.3201 31.6343 73.3201 31.9877V33.3205C73.3201 33.674 73.1797 34.013 72.9297 34.263C72.6798 34.5129 72.3408 34.6534 71.9873 34.6534ZM76.7001 32.7008C76.525 32.7013 76.3516 32.667 76.1898 32.6C76.0281 32.533 75.8812 32.4345 75.7578 32.3103L74.8155 31.368C74.5727 31.1166 74.4384 30.7799 74.4414 30.4305C74.4445 30.081 74.5846 29.7467 74.8318 29.4996C75.0789 29.2525 75.4132 29.1123 75.7626 29.1093C76.1121 29.1063 76.4487 29.2406 76.7001 29.4834L77.6424 30.4257C77.8288 30.6121 77.9557 30.8495 78.0071 31.108C78.0585 31.3665 78.0321 31.6345 77.9312 31.878C77.8304 32.1215 77.6596 32.3296 77.4404 32.4761C77.2213 32.6225 76.9637 32.7007 76.7001 32.7008ZM78.6514 27.9893H77.3185C76.9651 27.9893 76.6261 27.8489 76.3761 27.5989C76.1262 27.349 75.9857 27.01 75.9857 26.6565C75.9857 26.303 76.1262 25.964 76.3761 25.714C76.6261 25.4641 76.9651 25.3237 77.3185 25.3237H78.6514C79.0048 25.3237 79.3438 25.4641 79.5938 25.714C79.8438 25.964 79.9842 26.303 79.9842 26.6565C79.9842 27.01 79.8438 27.349 79.5938 27.5989C79.3438 27.8489 79.0048 27.9893 78.6514 27.9893ZM75.7578 24.2201C75.4943 24.22 75.2366 24.1418 75.0175 23.9954C74.7984 23.8489 74.6276 23.6408 74.5267 23.3973C74.4259 23.1538 74.3995 22.8858 74.4509 22.6273C74.5023 22.3688 74.6292 22.1314 74.8155 21.945L75.7578 21.0027C76.0092 20.7599 76.3459 20.6256 76.6953 20.6286C77.0448 20.6316 77.3791 20.7718 77.6262 21.0189C77.8733 21.266 78.0135 21.6003 78.0165 21.9498C78.0195 22.2992 77.8852 22.6359 77.6424 22.8873L76.7001 23.8296C76.4502 24.0795 76.1113 24.22 75.7578 24.2201ZM71.9873 22.658C71.6338 22.658 71.2948 22.5176 71.0448 22.2677C70.7949 22.0177 70.6545 21.6787 70.6545 21.3252V19.9924C70.6545 19.6389 70.7949 19.2999 71.0448 19.05C71.2948 18.8 71.6338 18.6596 71.9873 18.6596C72.3408 18.6596 72.6798 18.8 72.9297 19.05C73.1797 19.2999 73.3201 19.6389 73.3201 19.9924V21.3252C73.3201 21.6787 73.1797 22.0177 72.9297 22.2677C72.6798 22.5176 72.3408 22.658 71.9873 22.658ZM68.2168 24.2201C67.8633 24.22 67.5243 24.0795 67.2745 23.8296L66.3322 22.8873C66.0894 22.6359 65.955 22.2992 65.9581 21.9498C65.9611 21.6003 66.1013 21.266 66.3484 21.0189C66.5955 20.7718 66.9298 20.6316 67.2793 20.6286C67.6287 20.6256 67.9654 20.7599 68.2168 21.0027L69.1591 21.945C69.3454 22.1314 69.4723 22.3688 69.5237 22.6273C69.5751 22.8858 69.5487 23.1538 69.4479 23.3973C69.347 23.6408 69.1762 23.8489 68.9571 23.9954C68.738 24.1418 68.4803 24.22 68.2168 24.2201ZM8.01222 1.33301L10.0714 5.50605L14.6763 6.17512L11.3443 9.42319L12.1306 14.0094L8.01222 11.8436L3.89382 14.0094L4.68018 9.42319L1.34814 6.17512L5.95302 5.50605L8.01222 1.33301Z" fill="#FFDB43"/>
    <path d="M79.5629 72.1933C78.929 69.9468 77.4693 68.0229 75.4764 66.8074L74.9273 65.9837C73.4039 63.7056 71.431 61.7628 69.1297 60.2747C66.8283 58.7865 64.2471 57.7844 61.5445 57.3298C61.2001 57.2806 60.8501 57.3681 60.5693 57.5736C60.2885 57.779 60.0991 58.0861 60.0417 58.4292C59.9843 58.7724 60.0633 59.1244 60.262 59.4101C60.4606 59.6957 60.763 59.8924 61.1047 59.9581C65.0445 60.6268 68.635 62.6284 71.2754 65.6279C70.178 65.8253 69.1351 66.2538 68.216 66.885C67.2968 67.5163 66.5224 68.3357 65.9442 69.2891C64.5087 71.8599 65.4292 75.1075 68 76.543C70.5709 77.9784 73.8184 77.0579 75.2539 74.4871C75.8022 73.4286 76.0982 72.2576 76.1189 71.0658C76.8138 72.0751 77.2099 73.26 77.2615 74.4844C77.3131 75.7087 77.0182 76.9228 76.4108 77.9871C76.3199 78.1402 76.2607 78.3099 76.2366 78.4862C76.2125 78.6626 76.2239 78.842 76.2702 79.0139C76.3165 79.1857 76.3968 79.3466 76.5063 79.4869C76.6158 79.6272 76.7523 79.7442 76.9078 79.8309C77.0632 79.9177 77.2345 79.9724 77.4114 79.9918C77.5883 80.0113 77.7674 79.9951 77.938 79.9442C78.1085 79.8934 78.2672 79.8088 78.4046 79.6957C78.542 79.5825 78.6553 79.4429 78.7378 79.2852C79.3373 78.2163 79.7189 77.0392 79.8605 75.8219C80.0021 74.6046 79.901 73.3713 79.5629 72.1933ZM72.9294 73.1863C72.218 74.4753 70.5965 74.9434 69.3077 74.232C68.0187 73.5206 67.5505 71.8991 68.2619 70.6103L68.2739 70.5886C68.6622 69.9527 69.1879 69.4118 69.8125 69.0054C70.437 68.5991 71.1445 68.3376 71.8832 68.2402C72.1149 68.2339 72.3443 68.2871 72.5496 68.3948C73.6745 69.0226 73.7345 71.7442 72.9294 73.1863Z" fill="#2BB3CE"/>
    <path d="M51.3566 61.0858C52.4236 60.9222 53.4126 60.4286 54.1848 59.6743C55.5069 58.3535 56.6438 55.6306 54.55 50.17C54.4301 49.8375 54.1831 49.5662 53.8632 49.4158C53.5434 49.2654 53.1769 49.2482 52.8443 49.368C52.6754 49.4289 52.5204 49.5233 52.3889 49.6455C52.2573 49.7678 52.1518 49.9154 52.0787 50.0794C52.0056 50.2434 51.9664 50.4206 51.9635 50.6001C51.9605 50.7797 51.9939 50.958 52.0616 51.1243C53.2771 54.2964 53.3651 56.7222 52.3002 57.7884C51.01 59.0759 47.798 58.6734 43.7035 56.7142C38.2216 53.8686 33.2389 50.1504 28.9506 45.7051C18.5094 35.2638 14.2017 25.0185 16.866 22.3542C17.2863 22.0227 17.7744 21.7878 18.2957 21.6662C18.8169 21.5446 19.3586 21.5392 19.8822 21.6505C20.233 21.6937 20.5866 21.5957 20.8652 21.3781C21.1438 21.1606 21.3246 20.8413 21.3677 20.4904C21.3898 20.311 21.3752 20.1289 21.3247 19.9553C21.2742 19.7817 21.1888 19.6202 21.0739 19.4806C20.959 19.341 20.8169 19.2262 20.6563 19.1433C20.4956 19.0604 20.3197 19.011 20.1394 18.9982C19.2247 18.8363 18.2853 18.8842 17.3918 19.1382C16.4984 19.3921 15.6742 19.8455 14.9814 20.4643C10.0993 25.353 17.5631 38.0881 27.0714 47.591C31.5726 52.2495 36.8032 56.1431 42.5573 59.1186C43.5999 59.6175 44.6743 60.0472 45.7734 60.4047L36.2971 63.9887C24.9169 59.649 16.3259 50.0904 13.2208 38.3133C12.9009 37.0938 12.6396 35.8476 12.4437 34.6081C12.4212 34.4313 12.3634 34.2607 12.2738 34.1066C12.1842 33.9525 12.0646 33.8179 11.9221 33.7108C11.7795 33.6038 11.617 33.5264 11.444 33.4833C11.271 33.4401 11.0911 33.4322 10.915 33.4598C10.7389 33.4874 10.5701 33.5501 10.4186 33.6441C10.2672 33.7382 10.1361 33.8616 10.0332 34.0072C9.9303 34.1528 9.85766 34.3175 9.81956 34.4917C9.78146 34.6658 9.77869 34.8459 9.81141 35.0211C10.0207 36.3539 10.3006 37.6867 10.6431 38.9902C12.1584 44.7338 14.9199 50.0731 18.7315 54.629C22.5431 59.1849 27.3112 62.8454 32.6972 65.3506L17.1099 71.2483C17.0389 71.1288 16.9488 71.0217 16.8433 70.9311C14.8832 69.3576 13.263 67.4023 12.081 65.1839C10.8991 62.9655 10.18 60.5301 9.96735 58.0255L9.34493 50.5364C9.33308 50.3607 9.28613 50.1893 9.20686 50.0321C9.12758 49.8749 9.01759 49.7352 8.88339 49.6212C8.74919 49.5073 8.5935 49.4214 8.42554 49.3687C8.25757 49.3159 8.08074 49.2974 7.90549 49.3142C7.55326 49.3434 7.22704 49.5113 6.99859 49.781C6.77014 50.0507 6.65817 50.4001 6.6873 50.7523L7.31105 58.2441C7.78081 63.6537 10.3042 68.6781 14.363 72.2853L3.24597 76.4943L5.24519 68.2895C5.41963 67.5739 4.98113 66.8525 4.26557 66.6781C3.55002 66.5037 2.82863 66.9422 2.6542 67.6577L0.0538822 78.3202C0.00601526 78.5163 0.0033188 78.7208 0.0459963 78.9181C0.0886739 79.1154 0.17561 79.3004 0.300244 79.4592C0.424879 79.618 0.583954 79.7464 0.765465 79.8347C0.946977 79.9231 1.14618 79.969 1.34804 79.9691C1.50914 79.969 1.66892 79.9401 1.81986 79.8838L51.134 61.2244C51.2129 61.1863 51.2875 61.1398 51.3566 61.0858Z" fill="black"/>
    <path d="M44.5446 44.5401L39.7838 45.3398C39.6074 45.3643 39.4377 45.4239 39.2847 45.5151C39.1317 45.6063 38.9986 45.7272 38.8932 45.8707C38.7877 46.0142 38.7121 46.1774 38.6707 46.3506C38.6294 46.5238 38.6232 46.7036 38.6525 46.8792C38.6818 47.0549 38.746 47.2229 38.8414 47.3733C38.9367 47.5238 39.0612 47.6536 39.2075 47.7551C39.3539 47.8566 39.5191 47.9277 39.6933 47.9643C39.8676 48.0009 40.0475 48.0022 40.2223 47.9681L44.9831 47.1751C52.1111 45.9901 59.4255 46.7007 66.1922 49.2356C66.3411 49.2884 66.498 49.315 66.656 49.3142C66.9686 49.3148 67.2715 49.2054 67.5117 49.0052C67.7518 48.805 67.9139 48.5267 67.9697 48.2191C68.0254 47.9114 67.9712 47.594 67.8166 47.3222C67.662 47.0505 67.4167 46.8418 67.1238 46.7326C59.9195 44.0358 52.1331 43.2797 44.5446 44.5401ZM41.4658 40.5576C41.6177 40.8765 41.8901 41.1221 42.223 41.2403C42.5559 41.3585 42.922 41.3397 43.2411 41.1881L71.2302 27.8599C71.5454 27.7057 71.7871 27.4334 71.9028 27.1021C72.0185 26.7707 71.9989 26.4071 71.8481 26.0902C71.6974 25.7733 71.4277 25.5286 71.0977 25.4093C70.7677 25.2899 70.4039 25.3056 70.0853 25.4529L42.0962 38.781C41.9382 38.8562 41.7965 38.9618 41.6793 39.0918C41.562 39.2218 41.4716 39.3736 41.413 39.5386C41.3545 39.7035 41.329 39.8784 41.338 40.0532C41.347 40.228 41.3904 40.3993 41.4656 40.5573L41.4658 40.5576ZM26.5716 38.5491C26.8977 38.6848 27.2643 38.6855 27.591 38.551C27.9176 38.4166 28.1775 38.158 28.3136 37.832L30.2515 33.1872C33.4468 25.5555 34.1919 17.1196 32.384 9.04592C32.3487 8.87239 32.2792 8.70762 32.1796 8.56124C32.0799 8.41487 31.9521 8.28982 31.8036 8.1934C31.655 8.09699 31.4888 8.03113 31.3145 7.99969C31.1402 7.96825 30.9615 7.97185 30.7886 8.01029C30.6157 8.04872 30.4523 8.12121 30.3077 8.22353C30.1632 8.32585 30.0405 8.45595 29.9469 8.60622C29.8532 8.75649 29.7904 8.92392 29.7621 9.09873C29.7339 9.27355 29.7408 9.45224 29.7823 9.62436C31.4705 17.1611 30.7756 25.0362 27.7938 32.1609L25.8545 36.8111C25.7201 37.1368 25.72 37.5024 25.8544 37.8281C25.9888 38.1538 26.2466 38.413 26.5716 38.5491ZM69.3216 51.9799C69.3216 54.1882 71.1117 55.9783 73.32 55.9783C75.5284 55.9783 77.3185 54.1882 77.3185 51.9799C77.3185 49.7716 75.5284 47.9814 73.32 47.9814C71.1117 47.9814 69.3216 49.7716 69.3216 51.9799ZM74.6529 51.9799C74.6529 52.3333 74.5124 52.6723 74.2625 52.9223C74.0125 53.1723 73.6735 53.3127 73.32 53.3127C72.9666 53.3127 72.6276 53.1723 72.3776 52.9223C72.1277 52.6723 71.9872 52.3333 71.9872 51.9799C71.9872 51.6264 72.1277 51.2874 72.3776 51.0374C72.6276 50.7875 72.9666 50.647 73.32 50.647C73.6735 50.647 74.0125 50.7875 74.2625 51.0374C74.5124 51.2874 74.6529 51.6264 74.6529 51.9799ZM45.331 14.6611C45.331 12.4528 43.5408 10.6626 41.3325 10.6626C39.1242 10.6626 37.3341 12.4528 37.3341 14.6611C37.3341 16.8694 39.1242 18.6595 41.3325 18.6595C43.5408 18.6595 45.331 16.8694 45.331 14.6611ZM39.9997 14.6611C39.9997 14.3076 40.1401 13.9686 40.3901 13.7186C40.64 13.4687 40.979 13.3283 41.3325 13.3283C41.686 13.3283 42.025 13.4687 42.2749 13.7186C42.5249 13.9686 42.6653 14.3076 42.6653 14.6611C42.6653 15.0146 42.5249 15.3536 42.2749 15.6035C42.025 15.8535 41.686 15.9939 41.3325 15.9939C40.979 15.9939 40.64 15.8535 40.3901 15.6035C40.1401 15.3536 39.9997 15.0146 39.9997 14.6611Z" fill="black"/>
    <path d="M29.337 5.33126C30.8092 5.33126 32.0026 4.13781 32.0026 2.66563C32.0026 1.19344 30.8092 0 29.337 0C27.8648 0 26.6714 1.19344 26.6714 2.66563C26.6714 4.13781 27.8648 5.33126 29.337 5.33126Z" fill="black"/>
    <path d="M65.3231 9.3297C65.3231 9.68318 65.4635 10.0222 65.7135 10.2721C65.9634 10.5221 66.3024 10.6625 66.6559 10.6625C67.0094 10.6625 67.3484 10.5221 67.5984 10.2721C67.8483 10.0222 67.9887 9.68318 67.9887 9.3297V7.99688C67.9887 7.6434 67.8483 7.30439 67.5984 7.05444C67.3484 6.80449 67.0094 6.66407 66.6559 6.66407C66.3024 6.66407 65.9634 6.80449 65.7135 7.05444C65.4635 7.30439 65.3231 7.6434 65.3231 7.99688V9.3297ZM66.6559 0C66.3024 0 65.9634 0.140421 65.7135 0.390372C65.4635 0.640323 65.3231 0.97933 65.3231 1.33281V2.66563C65.3231 3.01911 65.4635 3.35812 65.7135 3.60807C65.9634 3.85802 66.3024 3.99844 66.6559 3.99844C67.0094 3.99844 67.3484 3.85802 67.5984 3.60807C67.8483 3.35812 67.9887 3.01911 67.9887 2.66563V1.33281C67.9887 0.97933 67.8483 0.640323 67.5984 0.390372C67.3484 0.140421 67.0094 0 66.6559 0ZM70.6544 3.99844H69.3216C68.9681 3.99844 68.6291 4.13886 68.3791 4.38881C68.1292 4.63877 67.9887 4.97777 67.9887 5.33126C67.9887 5.68474 68.1292 6.02375 68.3791 6.2737C68.6291 6.52365 68.9681 6.66407 69.3216 6.66407H70.6544C71.0079 6.66407 71.3469 6.52365 71.5968 6.2737C71.8468 6.02375 71.9872 5.68474 71.9872 5.33126C71.9872 4.97777 71.8468 4.63877 71.5968 4.38881C71.3469 4.13886 71.0079 3.99844 70.6544 3.99844ZM63.9903 3.99844H62.6575C62.304 3.99844 61.965 4.13886 61.715 4.38881C61.4651 4.63877 61.3247 4.97777 61.3247 5.33126C61.3247 5.68474 61.4651 6.02375 61.715 6.2737C61.965 6.52365 62.304 6.66407 62.6575 6.66407H63.9903C64.3438 6.66407 64.6828 6.52365 64.9327 6.2737C65.1827 6.02375 65.3231 5.68474 65.3231 5.33126C65.3231 4.97777 65.1827 4.63877 64.9327 4.38881C64.6828 4.13886 64.3438 3.99844 63.9903 3.99844ZM57.3262 23.9907C57.6797 23.9907 58.0187 23.8502 58.2687 23.6003C58.5186 23.3503 58.659 23.0113 58.659 22.6578V15.9658C58.659 15.6123 58.5186 15.2733 58.2687 15.0233C58.0187 14.7734 57.6797 14.633 57.3262 14.633H50.6382C50.2847 14.633 49.9457 14.7734 49.6957 15.0233C49.4458 15.2733 49.3054 15.6123 49.3054 15.9658V22.6578C49.3054 23.0113 49.4458 23.3503 49.6957 23.6003C49.9457 23.8502 50.2847 23.9907 50.6382 23.9907H57.3262ZM51.967 17.2986H55.9934V21.325H51.971L51.967 17.2986ZM32.348 39.5433C32.465 39.6734 32.6066 39.7792 32.7645 39.8546C32.9225 39.93 33.0937 39.9736 33.2685 39.9828C33.4433 39.9921 33.6182 39.9668 33.7832 39.9084C33.9482 39.8501 34.1001 39.7598 34.2302 39.6427L34.2312 39.6419L47.5594 27.6466C47.814 27.408 47.9649 27.0791 47.9798 26.7305C47.9946 26.3819 47.8721 26.0414 47.6386 25.7821C47.4052 25.5228 47.0793 25.3654 46.731 25.3437C46.3828 25.322 46.0399 25.4377 45.7761 25.666L32.4479 37.6613C32.1852 37.8977 32.027 38.2287 32.0083 38.5816C31.9895 38.9345 32.1117 39.2804 32.348 39.5433ZM73.32 33.3204V31.9875C73.32 31.6341 73.1796 31.295 72.9296 31.0451C72.6797 30.7951 72.3407 30.6547 71.9872 30.6547C71.6337 30.6547 71.2947 30.7951 71.0447 31.0451C70.7948 31.295 70.6544 31.6341 70.6544 31.9875V33.3204C70.6544 33.6738 70.7948 34.0128 71.0447 34.2628C71.2947 34.5127 71.6337 34.6532 71.9872 34.6532C72.3407 34.6532 72.6797 34.5127 72.9296 34.2628C73.1796 34.0128 73.32 33.6738 73.32 33.3204ZM74.8181 31.3678L75.7604 32.3101C76.0118 32.5529 76.3484 32.6872 76.6979 32.6842C77.0473 32.6811 77.3816 32.541 77.6287 32.2938C77.8759 32.0467 78.016 31.7124 78.0191 31.363C78.0221 31.0135 77.8878 30.6769 77.645 30.4255L76.7027 29.4832C76.4513 29.2404 76.1146 29.1061 75.7652 29.1091C75.4157 29.1121 75.0814 29.2523 74.8343 29.4994C74.5872 29.7465 74.447 30.0808 74.444 30.4303C74.441 30.7797 74.5753 31.1164 74.8181 31.3678ZM78.6513 25.3235H77.3184C76.965 25.3235 76.626 25.4639 76.376 25.7138C76.1261 25.9638 75.9856 26.3028 75.9856 26.6563C75.9856 27.0098 76.1261 27.3488 76.376 27.5987C76.626 27.8487 76.965 27.9891 77.3184 27.9891H78.6513C79.0047 27.9891 79.3437 27.8487 79.5937 27.5987C79.8436 27.3488 79.9841 27.0098 79.9841 26.6563C79.9841 26.3028 79.8436 25.9638 79.5937 25.7138C79.3437 25.4639 79.0047 25.3235 78.6513 25.3235ZM75.7604 24.2199C76.1138 24.2198 76.4528 24.0794 76.7027 23.8294L77.645 22.8871C77.8878 22.6357 78.0221 22.299 78.0191 21.9496C78.016 21.6001 77.8759 21.2658 77.6287 21.0187C77.3816 20.7716 77.0473 20.6314 76.6979 20.6284C76.3484 20.6254 76.0118 20.7597 75.7604 21.0025L74.8181 21.9448C74.6317 22.1312 74.5048 22.3686 74.4534 22.6271C74.402 22.8856 74.4284 23.1536 74.5293 23.3971C74.6301 23.6406 74.8009 23.8487 75.0201 23.9952C75.2392 24.1416 75.4968 24.2198 75.7604 24.2199ZM71.9872 18.6594C71.6337 18.6594 71.2947 18.7998 71.0447 19.0498C70.7948 19.2997 70.6544 19.6387 70.6544 19.9922V21.325C70.6544 21.6785 70.7948 22.0175 71.0447 22.2675C71.2947 22.5174 71.6337 22.6578 71.9872 22.6578C72.3407 22.6578 72.6797 22.5174 72.9296 22.2675C73.1796 22.0175 73.32 21.6785 73.32 21.325V19.9922C73.32 19.6387 73.1796 19.2997 72.9296 19.0498C72.6797 18.7998 72.3407 18.6594 71.9872 18.6594ZM68.2207 21.0025C67.9693 20.7597 67.6326 20.6254 67.2831 20.6284C66.9337 20.6314 66.5994 20.7716 66.3523 21.0187C66.1052 21.2658 65.965 21.6001 65.962 21.9496C65.9589 22.299 66.0933 22.6357 66.3361 22.8871L67.2784 23.8294C67.5297 24.0722 67.8664 24.2065 68.2159 24.2035C68.5653 24.2004 68.8996 24.0603 69.1467 23.8131C69.3938 23.566 69.534 23.2317 69.537 22.8823C69.5401 22.5328 69.4057 22.1962 69.163 21.9448L68.2207 21.0025ZM15.9477 5.76309C15.8706 5.52657 15.729 5.31633 15.5386 5.15616C15.3483 4.99599 15.117 4.89228 14.8708 4.85677L10.9603 4.28766L9.21164 0.74371C9.08907 0.535602 8.91431 0.363091 8.70463 0.243238C8.49495 0.123384 8.25762 0.06034 8.0161 0.06034C7.77459 0.06034 7.53725 0.123384 7.32757 0.243238C7.11789 0.363091 6.94313 0.535602 6.82057 0.74371L5.07192 4.28766L1.16011 4.85677C0.914208 4.89271 0.683255 4.99668 0.493324 5.15694C0.303393 5.3172 0.16205 5.52736 0.0852548 5.76371C0.00845967 6.00006 -0.000728595 6.25317 0.0587275 6.49446C0.118184 6.73575 0.243916 6.95561 0.421727 7.12922L3.25129 9.88815L2.58488 13.784C2.54187 14.0293 2.56846 14.2818 2.66164 14.5128C2.75482 14.7437 2.91086 14.944 3.11207 15.0908C3.31328 15.2376 3.5516 15.3251 3.8 15.3434C4.04841 15.3616 4.29696 15.3099 4.51746 15.1941L8.0121 13.3495L11.5107 15.1887C11.7309 15.3045 11.9789 15.3563 12.227 15.3384C12.475 15.3205 12.7131 15.2335 12.9143 15.0874C13.1155 14.9412 13.2718 14.7417 13.3655 14.5114C13.4592 14.281 13.4867 14.0291 13.4447 13.784L12.7782 9.88815L15.6091 7.12922C15.7874 6.95578 15.9136 6.73591 15.9734 6.49448C16.0333 6.25306 16.0243 5.99971 15.9477 5.76309ZM10.4178 8.4687C10.2632 8.61933 10.1475 8.80525 10.0807 9.01048C10.0138 9.21572 9.99778 9.43412 10.034 9.64691L10.3645 11.5728L8.63586 10.6625C8.44454 10.5619 8.23161 10.5093 8.01544 10.5093C7.79926 10.5093 7.58633 10.5619 7.39501 10.6625L5.66235 11.5715L5.99422 9.64558C6.0305 9.43321 6.01477 9.21521 5.94838 9.01025C5.88199 8.80529 5.76693 8.61947 5.61304 8.4687L4.21625 7.10523L6.14616 6.82401C6.36026 6.79316 6.56362 6.71066 6.73871 6.58364C6.91379 6.45663 7.05533 6.2889 7.15111 6.09496L8.0121 4.34497L8.87577 6.09496C8.97129 6.28857 9.11242 6.45608 9.28701 6.58307C9.4616 6.71007 9.66443 6.79275 9.87804 6.82401L11.8093 7.10523L10.4178 8.4687ZM75.4805 66.8073L74.9314 65.9836C73.4072 63.7059 71.434 61.7634 69.1325 60.2753C66.831 58.7872 64.2499 57.7848 61.5473 57.3297C61.3755 57.2961 61.1988 57.2968 61.0272 57.3316C60.8557 57.3664 60.6927 57.4346 60.5475 57.5324C60.4023 57.6302 60.2779 57.7556 60.1812 57.9015C60.0845 58.0474 60.0175 58.211 59.984 58.3828C59.9493 58.5606 59.9512 58.7436 59.9897 58.9206C60.0281 59.0976 60.1022 59.2649 60.2074 59.4124C60.3127 59.5598 60.4469 59.6842 60.6019 59.778C60.7569 59.8718 60.9293 59.9331 61.1088 59.958C65.0482 60.6265 68.6384 62.6282 71.2781 65.6278C70.1809 65.8258 69.1383 66.2546 68.2193 66.8858C67.3002 67.5169 66.5256 68.3361 65.9469 69.289C64.5114 71.8602 65.4322 75.1081 68.0034 76.5435C70.5746 77.979 73.8225 77.0581 75.2579 74.487C75.8037 73.4277 76.0983 72.2571 76.1189 71.0656C76.5071 71.635 76.8052 72.2607 77.0026 72.9209C77.2432 73.7624 77.3147 74.6432 77.2132 75.5125C77.1116 76.3817 76.8389 77.2223 76.4108 77.9856C76.32 78.1387 76.2608 78.3084 76.2366 78.4848C76.2125 78.6612 76.2239 78.8406 76.2703 79.0124C76.3166 79.1843 76.3969 79.3451 76.5064 79.4855C76.6159 79.6258 76.7524 79.7428 76.9078 79.8295C77.0633 79.9162 77.2345 79.9709 77.4115 79.9904C77.5884 80.0098 77.7674 79.9936 77.938 79.9428C78.1086 79.8919 78.2672 79.8074 78.4046 79.6942C78.542 79.581 78.6553 79.4415 78.7379 79.2838C81.1759 74.9245 79.7392 69.4181 75.4818 66.806L75.4805 66.8073ZM72.9335 73.1862C72.2164 74.472 70.5929 74.933 69.3071 74.2159C69.0011 74.0453 68.7317 73.816 68.5144 73.5412C68.2972 73.2664 68.1362 72.9515 68.0407 72.6144C67.9441 72.2778 67.9153 71.9254 67.956 71.5776C67.9967 71.2298 68.1062 70.8936 68.278 70.5885C68.6661 69.9525 69.1918 69.4114 69.8163 69.0051C70.4409 68.5987 71.1485 68.3373 71.8872 68.2401C72.1189 68.2339 72.3483 68.2872 72.5536 68.3947C73.6772 69.0224 73.7372 71.744 72.9335 73.1862Z" fill="black"/>
  </g>
  <defs>
    <clipPath id="clip0_3012_76">
      <rect width="80" height="80" fill="white"/>
    </clipPath>
  </defs>
</svg>
