<svg width="100" height="100" viewBox="0 0 100 100" fill="none" xmlns="http://www.w3.org/2000/svg">
  <path d="M50 100C77.6142 100 100 77.6142 100 50C100 22.3858 77.6142 0 50 0C22.3858 0 0 22.3858 0 50C0 77.6142 22.3858 100 50 100Z" fill="#B5B385"/>
  <mask id="mask0_3005_2796" style="mask-type:luminance" maskUnits="userSpaceOnUse" x="0" y="0" width="100" height="100">
    <path d="M50 100C77.6142 100 100 77.6142 100 50C100 22.3858 77.6142 0 50 0C22.3858 0 0 22.3858 0 50C0 77.6142 22.3858 100 50 100Z" fill="white"/>
  </mask>
  <g mask="url(#mask0_3005_2796)">
    <path d="M43.7079 81.5893C43.5968 81.5306 43.4725 81.5014 43.3468 81.5045C42.3908 81.518 41.4764 81.2797 40.5673 81.026C38.8122 80.5279 37.114 79.8477 35.5002 78.9966C34.5704 78.511 33.7345 77.8935 32.9328 77.2246C32.4742 76.8418 32.0111 76.4644 31.5832 76.0456C31.0438 75.5205 30.5988 74.9064 30.2679 74.2302C30.0991 73.8871 30.0973 73.9277 29.7082 73.9449C29.0963 73.9661 28.4871 73.8544 27.9226 73.6172C27.0885 73.2814 26.5261 72.6585 26.1316 71.8858C25.7281 71.095 25.3191 70.2997 25.1666 69.4068C25.0557 68.8038 25.092 68.1829 25.2722 67.5969C25.3324 67.4422 25.3346 67.271 25.2785 67.1148C25.4733 66.4849 25.8441 65.9239 26.3473 65.498C27.0948 64.8787 27.938 64.6621 28.8858 64.9148C29.265 65.015 29.2867 64.9997 29.2524 64.6124C29.1747 63.753 29.1621 62.8891 29.0854 62.0315C29.0222 61.3093 29.423 60.8525 29.8653 60.4156C30.1379 60.1542 30.4569 59.946 30.806 59.8017C31.8107 59.6943 32.8146 59.7611 33.813 59.8586C34.6498 59.9407 35.4849 59.9154 36.3208 59.9299C36.4743 59.9273 36.6277 59.9379 36.7794 59.9615C37.1152 60.1131 37.5079 59.9236 37.8338 60.133C37.8338 60.4228 37.5738 60.3785 37.4203 60.4318C36.9912 60.5701 36.6311 60.8672 36.4138 61.2623C36.3531 61.3743 36.3145 61.4969 36.3 61.6234C36.2838 61.7507 36.2775 61.8852 36.4075 61.9584C36.5375 62.0315 36.6476 61.943 36.7334 61.8491C36.864 61.6853 37.0245 61.5478 37.2064 61.4438C37.6235 61.2389 38.0441 61.1585 38.4937 61.3535C38.7083 61.4546 38.9341 61.5303 39.1662 61.5792C39.3369 61.6099 39.5111 61.627 39.6077 61.4438C39.6451 61.3677 39.6588 61.2822 39.6468 61.1983C39.6349 61.1144 39.598 61.036 39.5409 60.9734C39.3396 60.7026 39.0507 60.569 38.7528 60.4436C38.6029 60.3795 38.4215 60.3713 38.3213 60.2115C38.3196 60.1892 38.3242 60.1667 38.3348 60.1469C38.3453 60.1271 38.3613 60.1107 38.3809 60.0996C38.495 60.0454 38.6214 60.022 38.7474 60.0319C40.1421 60.049 41.5323 59.9416 42.9207 59.8513C44.2748 59.7611 45.5983 59.474 46.9325 59.2537C51.3012 58.5391 55.5636 57.2815 59.6205 55.5101C59.9924 55.3476 60.3526 55.0849 60.804 55.1806C61.4729 55.4635 62.0923 55.8518 62.6384 56.3307C62.9992 56.6387 63.3892 56.9108 63.8029 57.1431C64.5088 57.5629 64.8627 58.165 64.8528 59.0064C64.8355 59.7318 64.9175 60.4562 65.0965 61.1594C65.2482 61.7272 65.2771 62.3149 65.3366 62.8972C65.3628 63.1761 65.4513 63.2249 65.7032 63.1364C66.2945 62.9279 66.9164 62.9216 67.5249 62.9884C68.3816 63.0786 68.8907 63.6763 69.3015 64.3696C69.3303 64.4476 69.3692 64.5217 69.417 64.5898C69.4232 64.7979 69.4474 65.0052 69.4892 65.2091C69.6861 66.1678 69.6218 67.1617 69.3033 68.087C68.9936 69.0114 68.6795 69.9367 68.2037 70.7953C67.6549 71.7819 66.8785 72.5105 65.7663 72.8246C65.4242 72.923 65.0776 73.044 64.7065 72.9023C64.4655 72.812 64.3454 73.0043 64.2552 73.1731C64.0118 73.5954 63.7473 74.0052 63.4626 74.4008C62.9691 75.1211 62.4172 75.7996 61.8123 76.4292C61.3044 76.9784 60.7616 77.4943 60.1874 77.9738C59.8009 78.2931 59.3854 78.5754 58.9462 78.817C57.7328 79.4741 56.4742 80.0439 55.1799 80.5223C54.2221 80.8698 53.2399 81.1063 52.2523 81.3347C51.4101 81.425 50.5624 81.5153 49.7247 81.527C47.9327 81.5586 46.1453 81.6633 44.3552 81.7157C44.1277 81.7238 43.8966 81.7518 43.7079 81.5893Z" fill="#FFE6DC"/>
    <path d="M58.5408 86.9329C60.414 88.0451 62.2294 89.2449 63.867 90.6838C65.0469 91.7175 66.0263 92.9407 66.9625 94.1937C67.7123 95.1837 68.3833 96.2311 68.9693 97.3262C69.1408 97.6502 69.2726 97.9816 69.2672 98.358C69.2672 98.4769 69.2432 98.5945 69.1967 98.7038C69.1501 98.8132 69.082 98.912 68.9963 98.9944C67.5763 100.423 66.0652 101.74 64.3734 102.841C61.3047 104.848 57.868 106.225 54.2627 106.893C52.3452 107.266 50.3928 107.428 48.4401 107.377C44.9898 107.265 41.6695 106.577 38.5099 105.14C35.8071 103.91 33.4356 102.226 31.4415 100.023C30.2754 98.738 29.3845 97.2284 28.8236 95.5866C28.5618 94.8238 28.6683 94.1657 29.1079 93.4922C30.1009 91.9675 31.3882 90.7154 32.7026 89.4841C33.337 88.8957 34.0154 88.3566 34.732 87.8718C35.5537 87.3184 36.412 86.8217 37.3012 86.385C37.5106 86.2793 37.674 86.1665 37.7399 85.9336C37.915 86.2288 38.1994 86.3425 38.509 86.4554C39.5571 86.839 40.5853 87.2597 41.6795 87.5206C42.6887 87.7616 43.7151 87.8573 44.737 87.9982C44.8616 88.0144 44.988 88.0135 45.1108 88.0415C45.4935 88.1318 45.5802 88.2365 45.5333 88.6238C45.4953 88.928 45.4809 89.2349 45.4313 89.5382C45.387 89.8434 45.4061 90.1544 45.4872 90.4518C45.6244 90.998 45.9765 91.1045 46.4035 90.7226C46.6229 90.5276 46.8142 90.3029 47.0354 90.1097C47.1257 90.0293 47.2295 89.9084 47.3604 89.9706C47.5157 90.0447 47.4714 90.2099 47.4507 90.3444C47.3442 91.0232 47.1744 91.6849 46.8485 92.2952C46.2022 93.5058 45.6524 94.7597 45.294 96.0867C44.8427 97.7459 44.5032 99.4268 44.4915 101.156C44.4915 101.374 44.4635 101.608 44.6224 101.794C44.7695 101.763 44.7704 101.634 44.8029 101.538C44.9273 101.182 45.0108 100.813 45.0521 100.438C45.396 97.8443 46.0993 95.3564 47.2494 93.0029C47.7522 91.9738 47.9129 90.8824 47.9364 89.7531C47.9364 89.5283 47.8578 89.1943 48.1458 89.141C48.4338 89.0878 48.4753 89.4362 48.5475 89.6421C48.8942 90.6351 49.063 91.6552 48.9564 92.724C48.8758 93.5441 48.8819 94.3705 48.9745 95.1894C49.0458 95.8294 48.9808 96.4731 49.0106 97.114C49.0612 98.1973 49.1171 99.2806 49.2742 100.364C49.3807 101.099 49.7445 101.699 50.195 102.26C50.3628 102.474 50.6051 102.618 50.8739 102.661C50.8069 102.407 50.694 102.167 50.5408 101.953C49.9991 101.091 49.8005 100.155 49.7554 99.1352C49.6895 97.6421 49.7671 96.1472 49.6723 94.6604C49.6091 93.6674 49.6588 92.6807 49.61 91.6922C49.5736 91.247 49.4922 90.8066 49.3672 90.3778C49.3329 90.246 49.2652 90.0844 49.4006 89.9896C49.536 89.8948 49.6633 90.0149 49.777 90.088C50.0244 90.246 50.2284 90.4617 50.4803 90.6143C50.8621 90.8472 51.2593 90.9971 51.6936 90.719C51.824 90.6489 51.9262 90.5358 51.9828 90.3989C52.0394 90.262 52.0469 90.1097 52.0041 89.968C51.9138 89.5689 51.7333 89.2087 51.5527 88.844C51.3135 88.3466 51.3722 88.2247 51.8976 88.1417C52.9032 87.9846 53.9116 87.7544 54.9263 87.7707C55.9698 87.7878 57.017 87.8023 58.0606 87.8555C58.7223 87.8889 58.8198 87.7707 58.5517 87.164C58.5291 87.0909 58.4858 87.0169 58.5408 86.9329Z" fill="#969696"/>
    <path d="M36.8327 60.0708C36.3461 60.0708 35.8595 60.0708 35.3729 60.0708C34.5659 60.0708 33.7652 59.9806 32.9617 59.9273C32.2267 59.8796 31.4896 59.8703 30.7536 59.8993C30.0224 60.0031 29.3092 59.8036 28.587 59.7513C26.6326 59.6095 24.7351 59.1194 22.8185 58.7583C22.2452 58.636 21.6861 58.4544 21.1503 58.2166C21.0821 58.0974 20.9782 58.0027 20.8533 57.9458C20.4976 57.805 20.2214 57.5513 19.9361 57.3003C19.3827 56.8056 19.4567 56.1683 20.1094 55.7991C20.1699 55.7648 20.2349 55.7395 20.2981 55.7088C20.6592 54.6923 21.4166 53.943 22.0611 53.1161C24.1754 50.4079 27.0614 48.7072 29.9782 47.0506C32.0111 45.9107 34.1306 44.9327 36.3172 44.1258C36.644 44.003 36.9834 43.9209 37.3102 43.7863C37.5323 43.6961 37.5567 43.5823 37.4583 43.3675C36.3701 41.0072 35.6728 38.4858 35.3937 35.9018C35.1445 33.6034 35.4235 31.3692 35.9814 29.1484C36.258 28.023 36.6703 26.9354 37.2091 25.9094C37.3237 25.6946 37.4474 25.5005 37.6758 25.3939C37.8112 25.3235 37.8139 25.2233 37.7859 25.0807C37.7237 24.7508 37.7382 24.4111 37.8284 24.0877C37.9701 23.5569 38.3122 23.2527 38.844 23.1624C39.3251 23.0793 39.846 23.3501 40.1141 23.7997C40.2415 24.0327 40.3187 24.2898 40.3407 24.5544C40.3804 24.8713 40.3786 24.8713 40.7144 24.8731C40.783 24.8731 40.8526 24.8803 40.9221 24.8848C41.2669 24.7945 41.5693 24.8848 41.8772 25.0572C42.7962 25.5637 43.475 26.359 44.2712 27.0116C46.1886 28.5842 47.448 30.6605 48.6793 32.7585C48.916 33.1703 49.1085 33.6061 49.2534 34.0584C49.7454 35.5425 50.344 36.9896 50.808 38.4819C51.0624 39.266 51.2189 40.0786 51.2738 40.9012C51.2846 41.1079 51.3153 41.2379 51.5825 41.2226C53.0332 41.1395 54.4785 41.2867 55.9256 41.3544C57.4718 41.4322 59.0121 41.6006 60.5386 41.859C63.2327 42.3098 65.8104 43.2917 68.1216 44.7478C68.3256 44.8741 68.5098 45.0123 68.5955 45.247L68.7183 45.5656C68.9939 45.4723 69.2831 45.425 69.5741 45.4257C70.3613 45.46 70.819 46.0414 70.6475 46.8096C70.5603 47.2049 70.3739 47.5715 70.1058 47.8749C69.8856 48.1249 69.6635 48.3732 69.4315 48.6115C69.3213 48.7252 69.2284 48.8363 69.2401 49.0042C67.5917 50.305 66.1392 51.8325 64.4826 53.1225C63.3452 54.0072 62.0877 54.6878 60.7814 55.2782C60.6207 55.1997 60.4871 55.2872 60.3472 55.345C59.1502 55.8397 57.9567 56.338 56.7471 56.8084C54.9497 57.4999 53.0955 57.9963 51.2404 58.4901C49.4205 58.9731 47.5698 59.2837 45.7156 59.5852C44.8779 59.7215 44.0419 59.8659 43.1988 59.9643C42.7474 60.0176 42.2825 60.0492 41.8239 60.0546C40.6675 60.0772 39.5147 60.2063 38.3565 60.1611C37.8419 60.171 37.3391 60.0799 36.8327 60.0708Z" fill="#D27070"/>
    <path d="M37.6758 25.3838C37.3066 25.8352 37.0899 26.3642 36.8552 26.8814C36.2233 28.2726 35.966 29.7657 35.6519 31.2471C35.4009 32.4324 35.3702 33.624 35.4298 34.8165C35.4623 35.4764 35.549 36.139 35.6419 36.798C35.7827 37.8284 35.985 38.8494 36.2477 39.8556C36.4282 40.557 36.7297 41.2187 36.9789 41.8967C37.1983 42.4934 37.3707 43.1145 37.7589 43.6453C37.5079 43.8674 37.2172 43.9504 36.9464 44.0326C35.7187 44.4072 34.5578 44.9443 33.3851 45.4544C33.1296 45.5654 32.8732 45.6747 32.6223 45.7947C30.2605 46.9264 27.9931 48.2453 25.8418 49.7388C24.9391 50.3707 24.0562 51.0288 23.3214 51.8512C22.359 52.9263 21.3751 53.9871 20.5978 55.2166C20.4967 55.3755 20.4922 55.5976 20.2999 55.6987C20.3685 55.5551 20.3071 55.4279 20.2493 55.3015C19.798 54.2967 19.6174 53.2378 19.5795 52.1419C19.5082 49.9518 19.8386 47.8196 20.4696 45.7279C20.5689 45.3975 20.6502 45.0617 20.7404 44.7277C20.921 44.3223 20.9751 43.8719 21.1611 43.4638L21.1539 43.4684C21.181 43.4557 21.1927 43.4404 21.1891 43.4205C21.1855 43.4007 21.181 43.3889 21.1737 43.3889C22.2263 40.3828 23.5777 37.5374 25.5547 35.0106C26.5875 33.6908 27.6157 32.3746 28.8488 31.2272C30.1906 29.9644 31.6604 28.845 33.2343 27.8871C33.3686 27.8115 33.4937 27.7206 33.6072 27.6163C34.5551 26.6919 35.7042 26.1024 36.9175 25.6212C37.1676 25.5282 37.405 25.4027 37.6758 25.3838Z" fill="#DC7676"/>
    <path d="M68.5928 45.2335C68.2101 44.8579 67.7226 44.6413 67.2694 44.3741C65.9855 43.6162 64.6149 43.016 63.1872 42.5866C62.2975 42.3186 61.3905 42.1114 60.4727 41.9664C59.8173 41.8617 59.1655 41.7191 58.5056 41.6568C58.1066 41.6189 57.7058 41.5765 57.305 41.5431C56.6983 41.4925 56.0854 41.5088 55.4841 41.3932C55.4428 41.3853 55.4007 41.3822 55.3587 41.3842C54.2582 41.4438 53.1632 41.2632 52.0637 41.3002C51.856 41.3066 51.6502 41.2903 51.4426 41.3544C51.235 41.4185 51.1609 41.3544 51.1654 41.1278C51.1808 40.3154 50.9632 39.5336 50.7655 38.7554C50.5308 37.8274 50.1616 36.9409 49.8312 36.0472C49.6877 35.6554 49.5333 35.2654 49.4195 34.8646C49.0584 33.5899 48.4067 32.4624 47.7107 31.3512C47.2285 30.5717 46.7054 29.8184 46.1435 29.0943C45.6957 28.5097 45.1873 27.9741 44.6269 27.4965C44.2261 27.1736 43.8444 26.8276 43.484 26.4601C42.9225 25.8688 42.2626 25.4129 41.572 24.9914C41.3644 24.8659 41.1414 24.9011 40.9221 24.8794C41.1495 24.7747 41.3915 24.8171 41.6235 24.8298C42.6246 24.8866 43.6276 24.9065 44.626 25.0293C45.8321 25.1773 47.0146 25.4355 48.2045 25.6657C50.6346 26.136 52.8518 27.1399 54.956 28.3992C57.2445 29.767 59.3653 31.3975 61.2752 33.2577C62.6952 34.62 63.9839 36.1128 65.1245 37.7164C65.9965 38.9594 66.8397 40.2278 67.487 41.6117C67.9961 42.695 68.2913 43.8378 68.5703 44.9888C68.5848 45.0696 68.5923 45.1514 68.5928 45.2335Z" fill="#DC7676"/>
    <path d="M58.5408 86.9326C58.5787 87.0753 58.7141 87.1475 58.78 87.2711C58.8775 87.4517 58.9335 87.6521 58.8216 87.8281C58.764 87.9087 58.6832 87.9699 58.59 88.0035C58.4968 88.037 58.3955 88.0413 58.2998 88.0159C57.8276 87.9166 57.3537 87.9599 56.8816 87.9599C56.2822 87.9599 55.6864 87.9112 55.0887 87.8805C54.4749 87.8498 53.8719 87.9942 53.2643 88.061C52.7543 88.1161 52.2496 88.2136 51.7414 88.2931C51.4769 88.3337 51.4633 88.3571 51.5789 88.6144C51.7269 88.9448 51.9201 89.2554 52.0303 89.6029C52.0591 89.6932 52.0962 89.7835 52.1205 89.881C52.3101 90.5752 51.8389 91.0807 51.1158 90.9886C50.7831 90.9462 50.4713 90.8032 50.2221 90.5788C49.9841 90.367 49.7273 90.1776 49.4547 90.0128C49.36 90.1238 49.4448 90.2059 49.471 90.2917C49.6452 90.8357 49.7386 91.4024 49.7481 91.9735C49.7481 92.3057 49.7382 92.6388 49.7481 92.9665C49.8005 94.7233 49.8014 96.48 49.8465 98.2358C49.8655 98.958 49.8357 99.6847 49.9865 100.402C50.027 100.622 50.0984 100.835 50.1986 101.034C50.4794 101.563 50.7646 102.091 51.0499 102.619C51.0815 102.676 51.151 102.727 51.0878 102.799C51.0246 102.871 50.9668 102.838 50.8946 102.826C50.4956 102.759 50.232 102.504 49.9919 102.205C49.3464 101.414 49.1388 100.49 49.0539 99.4969C48.9384 98.1482 48.9285 96.7996 48.8734 95.45C48.8481 94.7684 48.8174 94.0868 48.8111 93.4053C48.8111 93.0442 48.8643 92.6831 48.877 92.322C48.9126 91.2884 48.7165 90.2601 48.3028 89.3123C48.2749 89.2464 48.2433 89.1723 48.1611 89.1958C48.079 89.2193 48.0708 89.2942 48.0708 89.3664C48.0708 89.547 48.0708 89.7275 48.0627 89.908C48.0508 90.5757 47.9664 91.2401 47.8109 91.8896C47.6637 92.4601 47.4037 92.9855 47.1618 93.5145C46.3899 95.2071 45.786 96.9512 45.4673 98.7883C45.3301 99.5818 45.1965 100.375 45.0449 101.167C44.9873 101.411 44.9119 101.65 44.8192 101.882C44.7885 101.972 44.7578 102.084 44.6314 102.072C44.5339 102.063 44.5095 101.965 44.4816 101.892C44.412 101.709 44.3742 101.517 44.3696 101.321C44.3682 100.64 44.4207 99.9591 44.5267 99.2857C44.6474 98.3765 44.8188 97.4747 45.0403 96.5847C45.332 95.4072 45.75 94.2646 46.287 93.1769C46.5895 92.5801 46.9244 91.9979 47.1157 91.3506C47.2329 90.9163 47.3269 90.476 47.3974 90.0317C47.2232 90.0236 47.1681 90.1536 47.0869 90.2312C46.8558 90.4533 46.6355 90.6826 46.4053 90.911C46.0153 91.2911 45.4719 91.0618 45.3708 90.5499C45.2444 89.9035 45.3482 89.2743 45.4258 88.6424C45.4755 88.238 45.5007 88.2136 45.0864 88.1604C44.5763 88.0963 44.0681 88.0105 43.5572 87.969C42.5371 87.8841 41.5594 87.6187 40.5781 87.3479C39.9056 87.1619 39.2737 86.8622 38.6246 86.6121C38.4693 86.5517 38.3077 86.5047 38.147 86.4587C37.7859 86.3531 37.7814 86.3513 37.7444 85.9387C37.823 85.778 37.9755 85.7031 38.1182 85.6191C39.4452 84.8365 40.8868 84.33 42.3475 83.8714C42.4821 83.8343 42.6238 83.8309 42.76 83.8615C43.4389 83.9734 43.8894 84.451 44.3416 84.896C45.0118 85.5673 45.7775 86.1358 46.6138 86.5833C47.7161 87.1664 48.7524 87.0942 49.7861 86.4668C50.6319 85.9523 51.5211 85.509 52.3264 84.9276C52.7633 84.6117 53.2291 84.386 53.7843 84.3652H53.8105C53.9007 84.4149 54.0036 84.3761 54.0894 84.4293C54.8091 84.6759 55.5133 84.9656 56.1982 85.2968C56.5777 85.4669 56.9333 85.6857 57.2562 85.9477C57.667 86.2998 58.1526 86.5535 58.5408 86.9326Z" fill="#3D799A"/>
    <path d="M60.7778 55.2645C60.8256 55.0632 61.0188 55.046 61.1606 54.9783C62.4033 54.4082 63.5754 53.6954 64.6533 52.8542C65.1645 52.4676 65.6506 52.0488 66.1085 51.6003C66.8686 50.8185 67.7334 50.1559 68.554 49.4454C68.7002 49.3173 68.8474 49.1891 68.9873 49.0527C69.0631 48.9778 69.1345 48.9291 69.2392 48.9914C70.0399 52.1871 70.5328 55.4207 70.3468 58.7274C70.2412 60.6114 70.0101 62.4792 69.4757 64.2982C69.4486 64.3885 69.436 64.4887 69.417 64.5835C69.2843 64.6051 69.2581 64.4977 69.2139 64.4138C69.059 64.1165 68.8537 63.8483 68.6073 63.6212C68.3962 63.4166 68.1437 63.2597 67.8668 63.1613C67.5898 63.0629 67.295 63.0251 67.0022 63.0506C66.4208 63.0948 65.8286 63.093 65.3095 63.4379C65.1976 63.3214 65.2247 63.2059 65.2193 63.1039C65.1886 62.31 65.0782 61.5213 64.8898 60.7495C64.7646 60.1921 64.7151 59.6203 64.7426 59.0497C64.7697 58.2643 64.4718 57.6649 63.7993 57.2668C63.2718 56.9538 62.7717 56.5969 62.3043 56.1997C61.8399 55.8207 61.3264 55.5061 60.7778 55.2645Z" fill="#54433C"/>
    <path d="M21.1539 58.208C21.2333 58.1177 21.3236 58.1348 21.4193 58.1764C22.4069 58.6115 23.464 58.7767 24.5148 58.9681C25.2652 59.1053 26.0136 59.2521 26.7599 59.4086C27.3999 59.5431 28.0535 59.5584 28.6999 59.6361C29.3318 59.7128 29.9637 59.7652 30.6028 59.8311C30.6559 59.8459 30.7066 59.8681 30.7536 59.897C30.5171 60.0676 30.2769 60.2346 30.0449 60.4115C29.8355 60.5722 29.6207 60.732 29.543 61.0064C29.5277 61.0615 29.5069 61.1247 29.4528 61.1373C29.1341 61.2087 29.2054 61.4515 29.2108 61.6681C29.2361 62.7261 29.2866 63.7833 29.3796 64.8377C29.3905 64.9586 29.4338 65.0841 29.3724 65.2123C29.3323 65.2111 29.2927 65.2034 29.255 65.1897C28.1988 64.5641 26.397 64.9993 25.6152 66.598C25.5484 66.7352 25.496 66.8797 25.4428 67.0232C25.4321 67.0562 25.4093 67.0839 25.379 67.1007C25.3486 67.1175 25.313 67.122 25.2794 67.1135C24.5373 65.7774 23.807 64.4351 23.1336 63.0629C22.3988 61.5643 21.6793 60.0604 21.218 58.449C21.1936 58.3695 21.1746 58.2928 21.1539 58.208Z" fill="#54433C"/>
    <path d="M43.7079 81.5899C44.1268 81.5899 44.5456 81.5899 44.9645 81.5899C45.5611 81.5812 46.1563 81.53 46.7456 81.4364C46.8561 81.4187 46.9683 81.4154 47.0796 81.4265C47.6736 81.4996 48.2676 81.4184 48.8607 81.4265C49.6542 81.4328 50.4405 81.3489 51.2286 81.2739C51.5626 81.2423 51.9192 81.1674 52.2478 81.3407C52.1833 81.5031 52.1833 81.6839 52.2478 81.8463C52.2478 81.9013 52.2478 81.9564 52.2478 82.0115C52.3381 82.1099 52.2406 82.2498 52.3255 82.3491C52.3798 82.7424 52.5384 83.1139 52.7849 83.4252C52.8677 83.5333 52.9399 83.6491 53.0007 83.7709C52.9899 83.9921 52.794 84.0183 52.6513 84.0679C50.2455 84.9048 47.7919 85.2604 45.2615 84.763C44.5854 84.6294 43.9697 84.3324 43.3793 83.9849C43.2358 83.9009 43.0859 83.8106 43.113 83.6021C43.4795 82.9774 43.7368 82.3256 43.7079 81.5899Z" fill="#FFCEBA"/>
    <path d="M43.1166 83.5977C43.2818 83.9118 43.624 83.9894 43.8966 84.1321C44.6178 84.4946 45.4015 84.7164 46.2058 84.7857C46.7459 84.8363 47.2882 84.8595 47.8307 84.8552C49.118 84.8552 50.3683 84.6141 51.6033 84.2729C52.0826 84.1402 52.5728 84.031 53.0052 83.7665C53.0797 83.844 53.1457 83.9294 53.202 84.021C53.2469 84.1357 53.3292 84.2318 53.4355 84.2939C53.5418 84.356 53.666 84.3804 53.7879 84.3632C53.1894 84.5257 52.6604 84.8263 52.1449 85.1648C51.0706 85.8671 49.9856 86.5505 48.7822 87.0226C48.4039 87.1758 47.9835 87.1895 47.596 87.0615C46.4911 86.7094 45.4899 86.1759 44.6603 85.3463C44.4626 85.1495 44.2541 84.9635 44.0555 84.7667C43.6752 84.3975 43.2393 84.0905 42.7636 83.8567C42.9532 83.8694 43.0092 83.6988 43.1166 83.5977Z" fill="#FFE6DC"/>
    <path d="M52.2433 81.8415C52.1844 81.7704 52.1522 81.681 52.1522 81.5887C52.1522 81.4964 52.1844 81.407 52.2433 81.3359C52.2478 81.5047 52.2478 81.6736 52.2433 81.8415Z" fill="#FFE6DC"/>
    <path d="M52.3336 82.3454C52.2199 82.2552 52.2614 82.1252 52.256 82.0078C52.3679 82.099 52.3255 82.2281 52.3336 82.3454Z" fill="#FFE6DC"/>
    <path d="M54.0921 84.4283C53.995 84.4375 53.8974 84.415 53.8141 84.3642C53.9143 84.3506 54.0163 84.3335 54.0921 84.4283Z" fill="#FFE6DC"/>
    <path d="M40.9519 67.9109C40.9597 68.5045 40.8511 69.094 40.6323 69.6459C40.559 69.8421 40.4636 70.0293 40.3479 70.2038C39.8821 70.8944 39.1608 71.1156 38.4106 70.7554C37.4429 70.2914 36.8949 69.4915 36.7559 68.4417C36.625 67.455 36.9247 66.536 37.3174 65.6486C37.3804 65.4995 37.4771 65.3671 37.5999 65.2617C37.7227 65.1563 37.8683 65.0807 38.0252 65.041C38.1069 65.0221 38.186 64.9933 38.2608 64.9553C38.9685 64.5689 39.6149 64.8822 40.0247 65.3453C40.4337 65.8257 40.7177 66.3997 40.8516 67.0162C40.9268 67.3083 40.9606 67.6094 40.9519 67.9109Z" fill="#54433C"/>
    <path d="M55.0933 65.8771C55.1149 65.1766 55.2973 64.5826 55.6737 64.0617C56.0348 63.5589 56.4997 63.3341 57.156 63.4749C58.623 63.79 59.5293 65.1423 59.2152 66.6192C59.1404 66.9741 59.0074 67.3143 58.8216 67.6257C58.2176 68.6305 57.0305 68.8345 56.1359 68.0681C55.4535 67.4849 55.1519 66.7067 55.0933 65.8771Z" fill="#54433C"/>
    <path d="M39.577 76.3123C38.9965 76.3411 38.4125 76.2554 37.906 75.8816C37.5124 75.5919 37.2109 75.2497 37.2488 74.7081C37.2623 74.4289 37.3735 74.1633 37.563 73.9579C38.0836 73.3938 38.7505 72.9851 39.4894 72.7771C39.8495 72.6776 40.2164 72.6046 40.5872 72.5587C41.4357 72.4332 42.361 73.0768 42.6111 73.9019C42.8395 74.6557 42.4712 75.2912 41.8997 75.7074C41.3437 76.1091 40.6928 76.249 40.0247 76.3149C39.8866 76.324 39.7458 76.3123 39.577 76.3123Z" fill="#FFC4CD"/>
    <path d="M56.9719 73.6298C56.534 73.638 56.1594 73.6596 55.8046 73.4845C55.3975 73.2841 55.0951 73.0042 54.9741 72.5502C54.9208 72.3619 54.9156 72.1633 54.9592 71.9726C55.0027 71.7819 55.0935 71.6052 55.2233 71.4588C55.6406 70.9683 56.1786 70.5949 56.7841 70.3755C57.4448 70.1175 58.1516 69.9983 58.8604 70.0252C59.5131 70.0496 59.9536 70.4125 60.2073 70.9334C60.4248 71.3847 60.3201 71.883 60.0439 72.3254C59.6981 72.8788 59.1547 73.1523 58.5805 73.3771C58.0709 73.584 57.5204 73.6705 56.9719 73.6298Z" fill="#FFC4CD"/>
    <path d="M47.7296 70.5413C47.1654 70.4773 46.5985 70.4294 46.1128 70.0728C45.9961 69.9981 45.8989 69.8966 45.8294 69.7767C45.2877 68.7296 45.5116 67.6102 46.7014 67.1777C47.3333 66.9475 47.9842 66.8555 48.664 67.0098C49.8005 67.268 50.2997 68.7476 49.7536 69.579C49.4521 70.0376 49.0187 70.285 48.5168 70.4421C48.2627 70.523 47.9959 70.5566 47.7296 70.5413Z" fill="#FFCEBA"/>
    <path d="M46.3881 75.019C46.3881 74.8385 46.3791 74.6579 46.3881 74.4774C46.4017 74.2824 46.4883 74.1099 46.6969 74.0847C46.9054 74.0594 46.9957 74.2183 47.0417 74.388C47.1401 74.7491 47.2277 75.1102 47.3179 75.4785C47.4506 76.0129 47.7287 76.4137 48.2803 76.5925C48.589 76.6918 48.7813 76.6539 48.9772 76.3984C49.2436 76.0753 49.3985 75.6747 49.4186 75.2564C49.4349 74.8691 49.4674 74.481 49.4854 74.0919C49.499 73.803 49.6569 73.5972 49.8646 73.5502C50.1706 73.4843 50.4324 73.6703 50.4775 74.0206C50.557 74.6407 50.6048 75.27 50.4667 75.8838C50.316 76.5589 49.9167 77.1526 49.3482 77.5467C48.9736 77.8175 48.5493 77.8337 48.1169 77.6839C46.9433 77.2749 46.5822 76.7694 46.3872 75.437C46.3773 75.2978 46.3773 75.1581 46.3872 75.019H46.3881Z" fill="#FFA1AF"/>
    <path d="M65.5578 68.0429C65.6607 67.1889 65.8711 66.3845 66.5734 65.7959C66.9291 65.498 67.3136 65.508 67.6061 65.8203C67.7614 65.9864 67.8074 66.1769 67.6901 66.352C67.1277 67.1907 66.976 68.181 66.6483 69.1054C66.4777 69.5865 66.3486 69.6199 65.9884 69.2309C65.8405 69.0719 65.7262 68.8848 65.6522 68.6807C65.5782 68.4766 65.5461 68.2596 65.5578 68.0429Z" fill="#FFCEBA"/>
    <path d="M38.352 60.2198C38.6966 60.2792 39.0263 60.4055 39.3224 60.5917C39.531 60.7125 39.6885 60.905 39.7656 61.1333C39.874 61.5071 39.6934 61.7409 39.3079 61.721C39.1407 61.708 38.9768 61.6668 38.8232 61.5992C38.6688 61.5351 38.5144 61.4674 38.3556 61.4186C37.8085 61.2489 37.34 61.3906 36.941 61.7905C36.8624 61.8691 36.7947 61.9602 36.7108 62.0334C36.6268 62.1065 36.505 62.1832 36.3686 62.1182C36.3048 62.0885 36.2519 62.0392 36.2177 61.9776C36.1835 61.916 36.1697 61.8451 36.1782 61.7752C36.1848 61.4367 36.3163 61.1126 36.5474 60.8652C36.8931 60.4861 37.3382 60.3055 37.832 60.2225C38.0053 60.0988 38.1786 60.1719 38.352 60.2198Z" fill="#55433C"/>
    <path d="M56.46 59.0646C57.0639 59.1468 57.6399 59.4835 58.0705 60.0531C58.1499 60.1443 58.1937 60.2612 58.1937 60.3822C58.1937 60.5031 58.1499 60.62 58.0705 60.7112C57.9215 60.8855 57.6823 60.9324 57.4214 60.7961C57.1759 60.667 56.9511 60.4982 56.7155 60.351C56.2822 60.0802 56.154 60.1037 55.8317 60.4892C55.7492 60.6011 55.6551 60.7039 55.5509 60.7961C55.3596 60.9477 55.179 60.8863 55.0942 60.6561C55.0314 60.4548 55.0314 60.2391 55.0942 60.0378C55.2296 59.4673 55.764 59.0547 56.46 59.0646Z" fill="#55443D"/>
    <path d="M38.3519 60.2198C38.1794 60.2437 38.0045 60.2437 37.832 60.2198C37.6722 60.0979 37.4853 60.1674 37.312 60.1449C37.1387 60.1223 36.978 60.1909 36.8326 60.0735C37.34 60.069 37.8509 60.0068 38.3501 60.1539C38.3501 60.1738 38.351 60.1963 38.3519 60.2198Z" fill="#DEABA4"/>
    <path d="M21.8914 55.8559C21.96 55.6753 22.0819 55.5959 22.1776 55.4993C22.6976 54.9739 23.2293 54.4584 23.7438 53.9276C24.5698 53.0736 25.5177 52.3695 26.4728 51.6753C27.681 50.782 28.9407 49.9606 30.2454 49.2153C31.5415 48.4777 32.8738 47.8055 34.2373 47.2013C35.1815 46.7896 36.1213 46.3726 37.0908 46.0232C38.3222 45.58 39.5607 45.1665 40.8218 44.8163C41.8248 44.5373 42.8404 44.3116 43.8614 44.1112C44.6621 43.9541 45.4719 43.8404 46.2789 43.7158C47.169 43.5741 48.0672 43.5145 48.96 43.4134C49.4695 43.3525 49.9817 43.3181 50.4947 43.3105C51.7369 43.3024 52.979 43.306 54.2212 43.3105C55.0121 43.3216 55.8019 43.3744 56.5873 43.4685C56.9863 43.5109 57.3898 43.5154 57.7915 43.5452C58.3467 43.5867 58.8938 43.6761 59.4408 43.7528C60.4278 43.9032 61.405 44.1115 62.3675 44.3766C63.1198 44.5791 63.8546 44.8417 64.5648 45.162C65.5764 45.6303 66.5577 46.1612 67.5032 46.7517C67.7794 46.9196 67.8065 47.0623 67.6043 47.3331C66.846 48.3505 66.0056 49.2758 64.9656 50.0332C63.2107 51.3097 61.3285 52.3541 59.3686 53.2695C58.8026 53.5331 58.1951 53.7119 57.6182 53.9457C56.9087 54.2318 56.2108 54.5469 55.4995 54.8285C54.724 55.1364 53.9007 55.2916 53.1045 55.5372C52.9989 55.5697 52.8897 55.5914 52.784 55.6275C51.7185 55.9838 50.6334 56.2789 49.5342 56.5112C48.812 56.6611 48.0898 56.7559 47.3676 56.8805C46.6725 57.0014 45.9702 57.0746 45.2742 57.1946C44.208 57.3752 43.1338 57.5313 42.0433 57.4717C41.598 57.4338 41.1502 57.4365 40.7054 57.4799C40.1475 57.5521 39.6013 57.4537 39.0498 57.4654C38.4982 57.4772 37.9511 57.534 37.4194 57.4519C36.6449 57.3318 35.8667 57.4302 35.0913 57.3246C34.6164 57.2605 34.1217 57.2443 33.6415 57.1982C33.0754 57.145 32.5067 57.1639 31.9416 57.0691C31.5209 56.9987 31.0849 57.0376 30.6561 56.9717C29.9863 56.8687 29.3101 56.8028 28.6367 56.7315C28.3054 56.6963 27.9741 56.6891 27.6437 56.6412C27.056 56.5555 26.4647 56.4815 25.8752 56.4011C25.5746 56.3596 25.2695 56.3325 24.9661 56.3045C24.244 56.2386 23.5371 56.1303 22.8294 55.9967C22.5251 55.9362 22.2218 55.9046 21.8914 55.8559Z" fill="#DC7676"/>
    <path d="M37.3391 33.9531C37.3174 32.7994 37.5133 31.7775 37.7137 30.7565C37.925 29.6786 38.2454 28.6288 38.5551 27.5771C38.6806 27.1519 38.8665 26.7438 39.0218 26.3268C39.0588 26.2257 39.1193 26.1462 39.2276 26.1462C39.4867 26.1462 39.7404 26.0993 39.9868 26.2771C40.4481 26.6102 40.9591 26.8684 41.4195 27.2078C41.6978 27.415 41.9615 27.6412 42.2085 27.8849C42.7357 28.4013 43.3035 28.8734 43.8262 29.3952C44.6486 30.2167 45.2931 31.1718 45.9133 32.1458C46.1372 32.4979 46.3493 32.8572 46.5714 33.2102C47.0426 33.9576 47.3414 34.7764 47.6159 35.6124C47.9679 36.6821 48.367 37.7365 48.7461 38.7972C48.9853 39.4671 49.1144 40.1621 49.2273 40.8609C49.238 40.9858 49.2401 41.1112 49.2336 41.2364C49.2336 41.3935 49.1614 41.4585 49.0061 41.4657C48.3552 41.4964 47.708 41.5822 47.0616 41.6463C46.3755 41.7176 45.6912 41.8376 45.0079 41.9433C43.9517 42.1045 42.9048 42.3077 41.8672 42.5526C41.2055 42.7079 40.5528 42.8984 39.8966 43.078C39.8058 43.1131 39.7095 43.1315 39.6122 43.1322C39.5709 43.1326 39.5307 43.1183 39.499 43.0918C39.4672 43.0653 39.4459 43.0284 39.4389 42.9877C39.0778 41.7447 38.4874 40.5846 38.1281 39.3416C37.9134 38.6244 37.76 37.8902 37.6695 37.147C37.6162 36.6659 37.4889 36.1919 37.4564 35.7108C37.4185 35.0933 37.2822 34.4758 37.3391 33.9531Z" fill="#DC7676"/>
    <path d="M56.2695 66.2261C56.2695 65.9391 56.4582 65.7377 56.7209 65.7423C57.0143 65.7423 57.2698 66.0573 57.2698 66.4094C57.2698 66.6992 57.082 66.9312 56.8482 66.9294C56.5611 66.9266 56.2677 66.571 56.2695 66.2261Z" fill="#FCFCFB"/>
    <path d="M38.7979 67.8892C38.7979 67.6012 38.9866 67.3999 39.2493 67.4044C39.5427 67.4098 39.7982 67.7203 39.7982 68.0715C39.7982 68.3613 39.6104 68.5942 39.3766 68.5915C39.0895 68.5888 38.7925 68.2331 38.7979 67.8892Z" fill="#FCFCFB"/>
    <path d="M40.6043 74.6033C40.5871 74.4673 40.6056 74.3293 40.658 74.2026C40.7104 74.076 40.7949 73.9652 40.9031 73.8811C40.943 73.8426 40.9932 73.8163 41.0476 73.8054C41.102 73.7946 41.1584 73.7995 41.21 73.8197C41.3301 73.8658 41.3554 73.9705 41.3617 74.0906C41.3733 74.2493 41.3465 74.4086 41.2837 74.5548C41.2208 74.7011 41.1237 74.8301 41.0006 74.931C40.969 74.9685 40.9277 74.9967 40.8813 75.0126C40.8349 75.0285 40.785 75.0315 40.737 75.0213C40.6142 74.9771 40.6043 74.8588 40.6016 74.745C40.6034 74.7008 40.6043 74.6593 40.6043 74.6033Z" fill="#FFFEFE"/>
    <path d="M39.3531 74.8972C39.4202 74.5304 39.5751 74.1854 39.8045 73.8915C39.829 73.8572 39.8639 73.8317 39.9041 73.8189C39.9443 73.806 39.9876 73.8065 40.0274 73.8202C40.0733 73.8367 40.1128 73.867 40.1406 73.9069C40.1684 73.9469 40.1831 73.9945 40.1827 74.0432C40.2242 74.342 39.855 75.0543 39.5887 75.1815C39.4596 75.2447 39.3603 75.1454 39.3531 74.8972Z" fill="#FFFDFD"/>
    <path d="M58.0263 71.8836C58.0342 71.651 58.1071 71.4252 58.2366 71.2318C58.3142 71.1172 58.4379 71.0242 58.5887 71.0783C58.6469 71.1019 58.6966 71.1427 58.7309 71.1954C58.7653 71.248 58.7828 71.3098 58.781 71.3726C58.8037 71.6786 58.7181 71.9829 58.539 72.232C58.4659 72.3341 58.3585 72.4316 58.2285 72.4009C58.0985 72.3702 58.0741 72.2203 58.0407 72.1003C58.0282 72.0287 58.0234 71.9561 58.0263 71.8836Z" fill="#FFFDFE"/>
    <path d="M57.3573 71.6856C57.3204 71.9385 57.2303 72.1806 57.0928 72.3961C57.0233 72.5179 56.9123 72.5811 56.7769 72.5225C56.7191 72.4957 56.6726 72.4495 56.6455 72.3919C56.6185 72.3342 56.6125 72.2689 56.6288 72.2074C56.6719 71.9617 56.7422 71.7217 56.8383 71.4915C56.9051 71.3516 56.9999 71.2631 57.1642 71.2974C57.3285 71.3317 57.3619 71.4735 57.3573 71.6856Z" fill="#FFFDFD"/>
  </g>
</svg>
