<svg width="60" height="60" viewBox="0 0 60 60" fill="none" xmlns="http://www.w3.org/2000/svg">
  <g clip-path="url(#clip0_3010_3707)">
    <path d="M55.5346 58.8281H4.46543C2.64645 58.8281 1.17188 57.3536 1.17188 55.5346V20.8717C1.17188 19.0527 2.64645 17.5781 4.46543 17.5781H55.5347C57.3536 17.5781 58.8281 19.0527 58.8281 20.8717V55.5347C58.8281 57.3536 57.3536 58.8281 55.5346 58.8281Z" fill="white"/>
    <path d="M1.17188 24.5469H58.8281V51.86H1.17188V24.5469Z" fill="#8AA8BD"/>
    <path d="M30 53.5547C38.4784 53.5547 45.3516 46.6816 45.3516 38.2031C45.3516 29.7247 38.4784 22.8516 30 22.8516C21.5216 22.8516 14.6484 29.7247 14.6484 38.2031C14.6484 46.6816 21.5216 53.5547 30 53.5547Z" fill="#CCF5FC"/>
    <path d="M30 48.8672C35.8896 48.8672 40.6641 44.0927 40.6641 38.2031C40.6641 32.3135 35.8896 27.5391 30 27.5391C24.1104 27.5391 19.3359 32.3135 19.3359 38.2031C19.3359 44.0927 24.1104 48.8672 30 48.8672Z" fill="#33D6F5"/>
    <path d="M38.6983 10.3125H21.3016L16.8359 17.5781H43.164L38.6983 10.3125Z" fill="#8AA8BD"/>
    <path d="M11.1967 12.998H6.73255C5.96075 12.998 5.33521 13.6237 5.33521 14.3954V17.5781H12.5941V14.3954C12.5941 13.6236 11.9685 12.998 11.1967 12.998Z" fill="#33D6F5"/>
    <path d="M51.7969 33.9219C53.0913 33.9219 54.1406 32.8725 54.1406 31.5781C54.1406 30.2837 53.0913 29.2344 51.7969 29.2344C50.5025 29.2344 49.4531 30.2837 49.4531 31.5781C49.4531 32.8725 50.5025 33.9219 51.7969 33.9219Z" fill="#FF7D97"/>
    <path d="M55.5347 16.4062H43.8195L39.6968 9.69891C39.5919 9.52829 39.4451 9.3874 39.2703 9.28966C39.0955 9.19193 38.8986 9.14062 38.6984 9.14063H21.3016C20.8944 9.14063 20.5165 9.35203 20.3032 9.69891L16.1807 16.4062H13.766V14.3954C13.766 12.9788 12.6135 11.8261 11.1968 11.8261H6.73266C5.31598 11.8261 4.16344 12.9786 4.16344 14.3954V16.4176C1.8416 16.5736 0 18.5111 0 20.8716V55.5346C0 57.9968 2.0032 60 4.46531 60H55.5346C57.9968 60 60 57.9968 60 55.5347V20.8716C60 18.4095 57.9968 16.4062 55.5347 16.4062ZM16.6528 43.0028C16.4339 42.3939 15.7628 42.0775 15.1535 42.2967C14.5445 42.5157 14.2283 43.187 14.4473 43.796C15.4274 46.5209 17.0862 48.8711 19.1891 50.6879H2.34375V25.7184H19.1892C17.0864 27.5352 15.4276 29.8853 14.4476 32.6099C14.2284 33.2189 14.5446 33.8902 15.1536 34.1092C15.7627 34.3283 16.434 34.0121 16.6529 33.4031C18.6709 27.7929 24.0347 24.0234 30 24.0234C37.8187 24.0234 44.1797 30.3844 44.1797 38.2031C44.1797 46.0219 37.8187 52.3828 30 52.3828C24.0346 52.3828 18.6708 48.6132 16.6528 43.0028ZM46.5234 38.2031C46.5234 33.223 44.3087 28.7504 40.8125 25.7184H57.6562V50.6878H40.8125C44.3087 47.6558 46.5234 43.1832 46.5234 38.2031ZM21.957 11.4844H38.0432L41.0684 16.4062H18.9318L21.957 11.4844ZM6.73266 14.17H11.1968C11.3211 14.17 11.4223 14.2711 11.4223 14.3955V16.4062H6.50719V14.3954C6.50719 14.2711 6.60832 14.17 6.73266 14.17ZM4.46531 18.75H55.5346C56.7045 18.75 57.6561 19.7018 57.6561 20.8716V23.3746H37.284C35.0854 22.2902 32.6128 21.6797 30 21.6797C27.4254 21.6797 24.9477 22.2837 22.7279 23.3747H2.34375V20.8717C2.34375 19.7018 3.29555 18.75 4.46531 18.75ZM55.5347 57.6562H4.46531C3.29555 57.6562 2.34375 56.7045 2.34375 55.5347V53.0317H22.7278C24.9476 54.1226 27.4254 54.7266 30 54.7266C32.6128 54.7266 35.0854 54.116 37.284 53.0316H57.6562V55.5346C57.6562 56.7045 56.7045 57.6562 55.5347 57.6562Z" fill="black"/>
    <path d="M41.8359 38.2031C41.8359 31.6768 36.5263 26.3672 30 26.3672C23.4737 26.3672 18.1641 31.6768 18.1641 38.2031C18.1641 44.7294 23.4737 50.0391 30 50.0391C36.5263 50.0391 41.8359 44.7294 41.8359 38.2031ZM20.5078 38.2031C20.5078 32.9691 24.7659 28.7109 30 28.7109C35.2341 28.7109 39.4922 32.9691 39.4922 38.2031C39.4922 43.4372 35.2341 47.6953 30 47.6953C24.7659 47.6953 20.5078 43.4372 20.5078 38.2031ZM48.7383 11.5508C49.4153 11.5508 49.9662 12.1016 49.9662 12.7787C49.9662 13.4259 50.4908 13.9506 51.138 13.9506C51.7853 13.9506 52.3099 13.4259 52.3099 12.7787C52.3099 12.1017 52.8607 11.5508 53.5378 11.5508C54.185 11.5508 54.7097 11.0262 54.7097 10.3789C54.7097 9.73172 54.185 9.20707 53.5378 9.20707C52.8608 9.20707 52.3099 8.65629 52.3099 7.97918C52.3099 7.33195 51.7853 6.8073 51.138 6.8073C50.4908 6.8073 49.9662 7.33195 49.9662 7.97918C49.9662 8.65629 49.4154 9.20707 48.7383 9.20707C48.0911 9.20707 47.5664 9.73172 47.5664 10.3789C47.5664 11.0262 48.0911 11.5508 48.7383 11.5508ZM40.2006 4.74352C40.8776 4.74352 41.4285 5.2943 41.4285 5.97141C41.4285 6.61863 41.9531 7.14328 42.6004 7.14328C43.2476 7.14328 43.7722 6.61863 43.7722 5.97141C43.7722 5.29441 44.323 4.74352 45.0001 4.74352C45.6473 4.74352 46.172 4.21887 46.172 3.57164C46.172 2.92441 45.6473 2.39977 45.0001 2.39977C44.3231 2.39977 43.7722 1.84898 43.7722 1.17188C43.7722 0.524648 43.2476 0 42.6004 0C41.9531 0 41.4285 0.524648 41.4285 1.17188C41.4285 1.84887 40.8777 2.39977 40.2006 2.39977C39.5534 2.39977 39.0287 2.92441 39.0287 3.57164C39.0287 4.21887 39.5534 4.74352 40.2006 4.74352ZM51.7969 28.0621C49.8584 28.0621 48.2812 29.6392 48.2812 31.5777C48.2812 33.5162 49.8584 35.0933 51.7969 35.0933C53.7354 35.0933 55.3125 33.5162 55.3125 31.5777C55.3125 29.6392 53.7354 28.0621 51.7969 28.0621ZM51.7969 32.7496C51.1507 32.7496 50.625 32.2239 50.625 31.5777C50.625 30.9315 51.1507 30.4058 51.7969 30.4058C52.443 30.4058 52.9688 30.9315 52.9688 31.5777C52.9688 32.2239 52.443 32.7496 51.7969 32.7496Z" fill="black"/>
    <path d="M14.6484 39.375C15.2956 39.375 15.8203 38.8503 15.8203 38.2031C15.8203 37.5559 15.2956 37.0312 14.6484 37.0312C14.0012 37.0312 13.4766 37.5559 13.4766 38.2031C13.4766 38.8503 14.0012 39.375 14.6484 39.375Z" fill="black"/>
  </g>
  <defs>
    <clipPath id="clip0_3010_3707">
      <rect width="60" height="60" fill="white"/>
    </clipPath>
  </defs>
</svg>
