<svg width="164" height="170" viewBox="0 0 164 170" fill="none" xmlns="http://www.w3.org/2000/svg">
  <path d="M109.666 65.7476C92.4421 48.5236 71.1841 41.8596 62.1821 50.8616C60.3061 52.7376 59.1481 55.1696 58.5861 57.9636L14.2661 145.516C11.3761 148.406 12.5341 154.248 16.8501 158.564C21.1661 162.88 27.0081 164.038 29.8981 161.148L117.45 116.828C120.244 116.266 122.676 115.11 124.552 113.232C133.554 104.23 126.89 82.9696 109.666 65.7476Z" fill="#E15B64"/>
  <path d="M110.048 65.3658C92.422 47.7398 70.664 40.9198 61.452 50.1318C59.532 52.0518 58.346 54.5398 57.772 57.3998C55.59 68.2578 62.734 84.7758 76.686 98.7278C90.638 112.68 107.154 119.824 118.014 117.642C120.874 117.068 123.362 115.882 125.282 113.962C134.494 104.75 127.674 82.9918 110.048 65.3658Z" fill="#C33737"/>
  <path d="M116.23 48.1764C120.368 48.1764 123.722 44.8221 123.722 40.6844C123.722 36.5467 120.368 33.1924 116.23 33.1924C112.092 33.1924 108.738 36.5467 108.738 40.6844C108.738 44.8221 112.092 48.1764 116.23 48.1764Z" fill="#A0C8D7"/>
  <path d="M145.85 34.1162C151.834 34.1162 156.684 29.2657 156.684 23.2822C156.684 17.2988 151.834 12.4482 145.85 12.4482C139.867 12.4482 135.016 17.2988 135.016 23.2822C135.016 29.2657 139.867 34.1162 145.85 34.1162Z" fill="#ABBD81"/>
  <path d="M9.39006 86.6703C14.0999 86.6703 17.9181 82.8521 17.9181 78.1423C17.9181 73.4324 14.0999 69.6143 9.39006 69.6143C4.68018 69.6143 0.862061 73.4324 0.862061 78.1423C0.862061 82.8521 4.68018 86.6703 9.39006 86.6703Z" fill="#F8B26A"/>
  <path d="M156.684 124.012C160.248 124.012 163.138 121.122 163.138 117.558C163.138 113.993 160.248 111.104 156.684 111.104C153.12 111.104 150.23 113.993 150.23 117.558C150.23 121.122 153.12 124.012 156.684 124.012Z" fill="#A0C8D7"/>
  <path d="M81.998 68.2299C81.5088 68.2303 81.0282 68.1007 80.6053 67.8545C80.1825 67.6083 79.8326 67.2543 79.5914 66.8286C79.3502 66.4029 79.2263 65.9208 79.2324 65.4316C79.2385 64.9423 79.3743 64.4635 79.626 64.0439C92.33 42.8359 93.224 23.2379 82.362 4.13393C81.9997 3.49635 81.9056 2.74096 82.1002 2.03395C82.2949 1.32694 82.7625 0.726213 83.4 0.363927C84.0376 0.00164124 84.793 -0.0925289 85.5 0.102134C86.207 0.296797 86.8077 0.764347 87.17 1.40193C98.942 22.1019 98 44.1359 84.374 66.8859C83.854 67.7519 82.938 68.2299 81.998 68.2299Z" fill="#A0C8D7"/>
  <path d="M103.496 98.8516C103.028 98.8518 102.568 98.7331 102.158 98.5067C101.748 98.2803 101.403 97.9536 101.154 97.5573C100.905 97.1609 100.761 96.7078 100.735 96.2406C100.709 95.7733 100.802 95.307 101.006 94.8856C113.074 69.7896 136.748 58.5876 159.934 67.0116C160.275 67.1358 160.589 67.3261 160.857 67.5715C161.125 67.817 161.342 68.1128 161.495 68.442C161.649 68.7713 161.736 69.1276 161.752 69.4906C161.768 69.8536 161.712 70.2162 161.588 70.5576C161.464 70.899 161.273 71.2126 161.028 71.4806C160.783 71.7485 160.487 71.9654 160.158 72.119C159.828 72.2726 159.472 72.3598 159.109 72.3757C158.746 72.3916 158.383 72.3358 158.042 72.2116C137.36 64.6916 116.926 74.5316 105.988 97.2836C105.763 97.7537 105.41 98.1504 104.969 98.4279C104.528 98.7054 104.017 98.8523 103.496 98.8516Z" fill="#ABBD81"/>
  <path d="M43.274 60.4377C42.8342 60.438 42.4008 60.3334 42.0096 60.1325C41.6184 59.9317 41.2808 59.6404 41.0248 59.2829C40.7688 58.9254 40.6018 58.512 40.5376 58.077C40.4735 57.6419 40.5141 57.1979 40.656 56.7817C45.916 41.3057 43.604 26.3957 33.59 11.2017C33.3901 10.8986 33.2519 10.5591 33.1832 10.2026C33.1145 9.8461 33.1168 9.47956 33.1897 9.12391C33.2627 8.76827 33.4051 8.43048 33.6086 8.12983C33.8121 7.82918 34.0729 7.57157 34.376 7.3717C34.6791 7.17183 35.0185 7.03361 35.375 6.96494C35.7316 6.89627 36.0981 6.89849 36.4537 6.97148C36.8094 7.04447 37.1472 7.18679 37.4478 7.39032C37.7485 7.59385 38.0061 7.85461 38.206 8.1577C49.072 24.6397 51.658 41.5977 45.892 58.5597C45.7072 59.1075 45.3552 59.5834 44.8854 59.9204C44.4157 60.2573 43.852 60.4383 43.274 60.4377Z" fill="#ABBD81"/>
  <path d="M134.11 164.422C132.733 164.428 131.366 164.196 130.068 163.738C124.972 161.926 121.28 156.81 118.786 148.098C117.26 141.716 114.864 137.852 111.634 136.494C108.162 135.036 103.208 136.206 96.9201 139.984C86.9641 145.7 79.1201 147.078 72.8961 144.224C66.7361 141.396 62.7061 134.632 60.5781 123.542C60.4578 122.829 60.6215 122.097 61.034 121.503C61.4466 120.909 62.0753 120.501 62.7854 120.365C63.4956 120.229 64.2308 120.376 64.8335 120.776C65.4362 121.175 65.8586 121.795 66.0101 122.502C67.7541 131.58 70.8461 137.198 75.2041 139.196C79.6221 141.226 85.9881 139.882 94.1201 135.216C102.07 130.442 108.512 129.186 113.782 131.396C118.728 133.476 122.214 138.622 124.14 146.696C126.048 153.354 128.678 157.374 131.926 158.53C134.822 159.554 138.676 158.412 143.388 155.13C143.686 154.922 144.022 154.775 144.377 154.697C144.732 154.62 145.098 154.612 145.456 154.676C145.813 154.74 146.155 154.874 146.46 155.07C146.766 155.266 147.031 155.52 147.238 155.818C147.446 156.116 147.593 156.452 147.67 156.806C147.748 157.161 147.755 157.528 147.691 157.885C147.628 158.243 147.494 158.584 147.298 158.89C147.102 159.196 146.848 159.46 146.55 159.668C142.004 162.83 137.838 164.422 134.11 164.422Z" fill="#F8B26A"/>
  <path d="M93.006 170C96.1574 170 98.712 167.445 98.712 164.294C98.712 161.143 96.1574 158.588 93.006 158.588C89.8547 158.588 87.3 161.143 87.3 164.294C87.3 167.445 89.8547 170 93.006 170Z" fill="#ABBD81"/>
  <path d="M58.0281 15.2139L60.3321 29.5059L74.1621 34.1159L69.5521 19.3619L58.0281 15.2139Z" fill="#F8B26A"/>
  <path d="M145.85 86.6699L141.932 96.0859L145.85 102.346L156.684 94.5079L145.85 86.6699Z" fill="#F8B26A"/>
</svg>
