<svg width="24" height="24" viewBox="0 0 24 24" fill="none" xmlns="http://www.w3.org/2000/svg">
  <g clip-path="url(#clip0_1853_28)">
    <path d="M23.0557 9.00253C23.0598 9.0697 23.0539 9.13712 23.0379 9.20251L21.5576 15.124C21.5213 15.269 21.4377 15.3978 21.3202 15.4901C21.2026 15.5824 21.0576 15.6329 20.9082 15.6337L12.0259 15.6786H3.14019C2.99002 15.6785 2.84418 15.6283 2.72587 15.5358C2.60756 15.4433 2.52358 15.314 2.4873 15.1682L1.00692 9.22431C0.990502 9.15717 0.984541 9.0879 0.989249 9.01895C0.416568 8.83852 0 8.30262 0 7.67109C0 6.89187 0.633869 6.258 1.41308 6.258C2.1923 6.258 2.82617 6.89187 2.82617 7.67109C2.82617 8.10991 2.62511 8.50252 2.31028 8.7619L4.16371 10.6293C4.63213 11.1013 5.28215 11.3719 5.94716 11.3719C6.73346 11.3719 7.48315 10.9985 7.95526 10.3729L11.0012 6.33696C10.8698 6.20601 10.7655 6.05039 10.6944 5.87902C10.6233 5.70765 10.5868 5.52391 10.5869 5.33838C10.5869 4.55916 11.2208 3.92529 12 3.92529C12.7792 3.92529 13.4131 4.55916 13.4131 5.33838C13.4131 5.71628 13.2631 6.05927 13.0206 6.31309C13.0214 6.31417 13.0224 6.31507 13.0232 6.31623L16.0471 10.3633C16.519 10.9949 17.2714 11.372 18.0599 11.372C18.731 11.372 19.3621 11.1107 19.8366 10.6361L21.7017 8.77096C21.3803 8.51167 21.1738 8.11529 21.1738 7.67109C21.1738 6.89187 21.8077 6.258 22.5869 6.258C23.3661 6.258 24 6.89187 24 7.67109C24 8.28576 23.6048 8.80855 23.0557 9.00253ZM21.4131 17.787C21.4131 17.6085 21.3422 17.4374 21.216 17.3112C21.0898 17.185 20.9187 17.1141 20.7402 17.1141H3.33461C3.15615 17.1141 2.98499 17.185 2.8588 17.3112C2.73261 17.4374 2.66171 17.6085 2.66171 17.787V19.4019C2.66171 19.5804 2.73261 19.7515 2.8588 19.8777C2.98499 20.0039 3.15615 20.0748 3.33461 20.0748H20.7402C20.9187 20.0748 21.0898 20.0039 21.216 19.8777C21.3422 19.7515 21.4131 19.5804 21.4131 19.4019V17.787Z" fill="#F59E0B"/>
  </g>
  <defs>
    <clipPath id="clip0_1853_28">
      <rect width="24" height="24" fill="white"/>
    </clipPath>
  </defs>
</svg>
