<svg width="32" height="32" viewBox="0 0 32 32" fill="none" xmlns="http://www.w3.org/2000/svg">
  <path d="M30 16C30 12.287 28.525 8.72602 25.8995 6.10051C23.274 3.475 19.713 2.00001 16 2.00001C12.4747 1.99675 9.07793 3.32359 6.48821 5.71548C3.89848 8.10738 2.30646 11.3882 2.03015 14.9027C1.75385 18.4172 2.81359 21.9065 4.99771 24.6737C7.18182 27.4409 10.3295 29.2823 13.812 29.83V20.046H10.26V16H13.814V12.916C13.814 9.40801 15.904 7.46801 19.102 7.46801C20.634 7.46801 22.236 7.74201 22.236 7.74201V11.188H20.47C18.73 11.188 18.19 12.268 18.19 13.374V16H22.072L21.452 20.046H18.188V29.83C21.481 29.3085 24.4799 27.6292 26.6452 25.0939C28.8105 22.5587 30.0001 19.3341 30 16Z" fill="#1877F2"/>
  <path d="M21.45 20.0461L22.07 16.0001H18.188V13.3741C18.188 12.2681 18.728 11.1881 20.468 11.1881H22.234V7.74006C22.234 7.74006 20.632 7.46606 19.1 7.46606C15.9 7.46606 13.812 9.40606 13.812 12.9141V16.0001H10.26V20.0461H13.814V29.8301C15.2638 30.0582 16.7403 30.0582 18.19 29.8301V20.0461H21.45Z" fill="white"/>
</svg>
