<svg width="72" height="72" viewBox="0 0 72 72" fill="none" xmlns="http://www.w3.org/2000/svg">
  <g clip-path="url(#clip0_3010_3396)">
    <path d="M57.4334 2.00597C57.4256 1.9981 57.4186 1.98994 57.4107 1.98221C56.5391 1.11047 55.2872 0.851582 54.1889 1.20427C54.0733 1.24139 53.9568 1.27627 53.8375 1.29863L42.0753 3.50461C40.3811 3.82243 39.1853 5.4105 39.4428 7.11502C39.7131 8.90433 41.4089 10.0981 43.1725 9.76749L45.5816 9.31566L39.8862 15.0111C36.809 12.8416 33.1462 11.6727 29.3036 11.6727C24.3843 11.6727 19.7595 13.5884 16.2812 17.0668C12.8028 20.5453 10.8872 25.17 10.8872 30.0892C10.8872 35.0085 12.8029 39.6333 16.2813 43.1116C19.7597 46.5901 24.3845 48.5057 29.3037 48.5057C34.2229 48.5057 38.8478 46.59 42.3262 43.1116C45.8047 39.6333 47.7203 35.0084 47.7203 30.0892C47.7203 26.2466 46.5514 22.5838 44.382 19.5066L50.6474 13.2413L50.0788 17.0257C49.8183 18.7602 50.9714 20.4305 52.7029 20.7102C52.8753 20.7381 53.0463 20.7516 53.2152 20.7516C54.7621 20.7516 56.1181 19.6205 56.3548 18.0445L58.3524 4.74802C58.427 4.25086 58.3825 3.74309 58.2228 3.26642C58.063 2.78976 57.7925 2.35778 57.4334 2.00597ZM37.8307 38.6161C35.553 40.8938 32.5248 42.1481 29.3037 42.1481C26.0827 42.1481 23.0545 40.8937 20.7768 38.616C18.4992 36.3384 17.2449 33.3102 17.2449 30.0892C17.2449 26.8682 18.4992 23.84 20.7768 21.5624C23.0545 19.2848 26.0827 18.0305 29.3037 18.0305C32.5248 18.0305 35.553 19.2848 37.8307 21.5624C42.5323 26.2641 42.5323 33.9143 37.8307 38.6161Z" fill="#8AC9FE"/>
    <path d="M44.3824 19.5065L50.6474 13.2415C50.6139 13.0587 50.5126 11.8554 50.4291 10.8199C50.3797 10.2082 49.6365 9.93513 49.2026 10.3691L42.3201 17.3324C41.4069 18.2563 41.2695 19.6863 41.9698 20.7804C43.543 23.2374 44.691 25.7401 44.6882 28.8221C44.6837 33.687 42.7395 38.377 39.3015 41.8189C35.8221 45.3023 31.1944 47.221 26.2718 47.221C24.325 47.221 22.4273 46.9208 20.6263 46.3429C23.1912 47.7161 26.0623 48.4636 29.0476 48.5041C34.0118 48.5714 38.8159 46.6218 42.3264 43.1112C45.8049 39.6327 47.721 35.0083 47.721 30.0892C47.7207 26.2462 46.5508 22.5839 44.3824 19.5065ZM57.4338 2.00599C57.4253 1.99896 57.4183 1.99052 57.4113 1.98208C56.6762 1.24844 55.6734 0.948349 54.7182 1.08307C54.9716 1.41993 55.1553 1.80392 55.2587 2.2126C55.362 2.62128 55.3828 3.04646 55.3199 3.46329L53.3226 16.7588C53.1094 18.1797 51.986 19.2386 50.6337 19.4336C51.1176 20.1026 51.8581 20.5838 52.739 20.7156C52.8989 20.7393 53.0574 20.752 53.2145 20.752C54.7616 20.752 56.118 19.6201 56.3549 18.045L58.3522 4.74804C58.4269 4.25092 58.3825 3.74319 58.2229 3.26652C58.0632 2.78986 57.7928 2.35786 57.4338 2.00599Z" fill="#60B7FF"/>
    <path d="M55.7279 28.8873C52.2495 25.4088 47.6246 23.4932 42.7053 23.4932C37.7861 23.4932 33.1614 25.4089 29.6829 28.8873C26.2044 32.3656 24.2888 36.9905 24.2888 41.9097C24.2888 45.7523 25.4576 49.4151 27.6272 52.4923L24.3885 55.7312L22.1511 53.4938C20.9097 52.2524 18.8969 52.2525 17.6556 53.4938C16.4142 54.7353 16.4142 56.748 17.6556 57.9893L19.893 60.2267L14.5984 65.5212C13.357 66.7626 13.357 68.7754 14.5984 70.0167C14.8933 70.3124 15.2436 70.5468 15.6294 70.7066C16.0151 70.8664 16.4287 70.9484 16.8462 70.9478C17.2637 70.9483 17.6772 70.8663 18.063 70.7065C18.4487 70.5467 18.7991 70.3123 19.0939 70.0167L24.3885 64.7222L26.6258 66.9595C27.2465 67.5802 28.06 67.8906 28.8736 67.8906C29.6871 67.8906 30.5006 67.5802 31.1213 66.9595C32.3628 65.7181 32.3628 63.7053 31.1213 62.464L28.884 60.2267L32.1254 56.9853C35.2869 59.2064 38.9959 60.3176 42.7053 60.3176C47.4214 60.3176 52.1374 58.5224 55.7279 54.9321C62.9085 47.7515 62.9085 36.0679 55.7279 28.8873ZM51.2324 50.4366C46.5306 55.1384 38.8804 55.1383 34.1786 50.4366C31.9011 48.1589 30.6467 45.1307 30.6467 41.9097C30.6467 38.6887 31.9011 35.6605 34.1786 33.3829C36.4563 31.1052 39.4846 29.851 42.7054 29.851C45.9265 29.851 48.9548 31.1053 51.2324 33.3829C55.934 38.0847 55.934 45.7348 51.2324 50.4366Z" fill="#FD8087"/>
    <path d="M55.7283 28.8873C55.3849 28.5435 55.0279 28.2136 54.6581 27.8984C60.8409 35.1261 60.514 46.0443 53.6763 52.8806C50.087 56.4713 45.8478 57.809 41.1321 57.809C37.7064 57.809 34.6686 56.4242 31.7341 54.4628C31.3078 54.1777 30.7401 54.2315 30.3792 54.5958L27.5804 57.4211C27.3818 57.6215 27.2707 57.8925 27.2713 58.1746C27.272 58.4567 27.3844 58.7271 27.5839 58.9266L28.8849 60.2277L32.1264 56.9863C35.2879 59.2066 38.9964 60.3176 42.705 60.3176C47.422 60.3176 52.1377 58.5236 55.7284 54.9329C62.9083 47.7513 62.9083 36.0687 55.7283 28.8873ZM31.1219 62.4649L29.0699 60.4129C30.3112 61.6542 30.3112 63.667 29.0699 64.9083C28.4499 65.5297 27.6363 65.8396 26.8228 65.8396C26.0093 65.8396 25.1958 65.5297 24.5744 64.9083L26.6264 66.9603C27.2464 67.5803 28.0599 67.8916 28.8734 67.8916C29.6869 67.8916 30.5004 67.5803 31.1219 66.9603C32.3633 65.719 32.3633 63.7062 31.1219 62.4649ZM23.0918 63.4261C22.9927 63.3269 22.8751 63.2483 22.7456 63.1946C22.6161 63.1409 22.4773 63.1133 22.3372 63.1133C22.197 63.1132 22.0582 63.1408 21.9287 63.1945C21.7992 63.2481 21.6815 63.3267 21.5824 63.4258L17.0424 67.9659C16.6295 68.3799 16.1101 68.6716 15.5417 68.8087C14.9734 68.9459 14.3781 68.9231 13.8219 68.743C13.9748 69.2238 14.2414 69.6607 14.599 70.0166C15.219 70.638 16.0325 70.948 16.846 70.948C17.6596 70.948 18.4731 70.638 19.0945 70.0166L24.388 64.7231L23.0918 63.4261Z" fill="#FE646F"/>
    <path d="M42.7056 55.0141C46.0629 55.0141 49.4203 53.7361 51.9761 51.1803C57.088 46.0684 57.088 37.7507 51.9761 32.6389C49.4999 30.1626 46.2074 28.7988 42.7054 28.7988C39.2035 28.7988 35.9111 30.1626 33.4347 32.639C30.9585 35.1153 29.5947 38.4077 29.5947 41.9097C29.5947 45.4117 30.9585 48.704 33.4347 51.1804C35.9907 53.7361 39.3482 55.0141 42.7056 55.0141ZM50.4885 34.1264C54.7801 38.418 54.7801 45.4009 50.4885 49.6925C48.3425 51.8384 45.5246 52.9114 42.7054 52.9111C39.8872 52.911 37.0679 51.838 34.9224 49.6925C34.6796 49.4491 34.4482 49.1948 34.2289 48.9301C37.5441 48.0695 40.5843 46.3408 43.0701 43.855C46.144 40.7813 48.0617 36.8602 48.6086 32.6186C49.2881 33.0515 49.9184 33.5571 50.4885 34.1264ZM34.9224 34.1264C36.409 32.6399 38.2466 31.6341 40.2475 31.1797C40.0064 33.6244 38.9553 36.0033 37.0868 37.8718C35.5977 39.3609 33.7565 40.3687 31.7513 40.8217C31.998 38.2927 33.102 35.9469 34.9224 34.1264ZM31.7494 42.9695C34.3197 42.4871 36.685 41.2489 38.5744 39.3595C40.9218 37.0122 42.1867 33.9889 42.3782 30.9106C42.4872 30.9074 42.5959 30.9026 42.7053 30.9026C44.0359 30.9015 45.3557 31.1418 46.6006 31.6118C46.2499 35.6754 44.5002 39.4493 41.5823 42.3673C39.1859 44.7637 36.2117 46.3702 32.9745 47.0632C32.3037 45.8005 31.8866 44.4148 31.7494 42.9695Z" fill="black"/>
    <path d="M56.4718 28.1437C53.9411 25.6129 50.8362 23.8647 47.451 23.0207C46.9929 21.8396 46.4189 20.7069 45.7374 19.639L49.1324 16.244L49.0403 16.857C48.8776 17.9406 49.1001 19.0594 49.7202 19.9628C50.3921 20.9414 51.415 21.5807 52.5825 21.7562C52.7918 21.7876 53.0047 21.8035 53.215 21.8035C55.2894 21.8035 57.0865 20.2545 57.395 18.2008L59.3926 4.90441C59.5927 3.57382 59.1415 2.21693 58.1853 1.2701C58.1752 1.25942 58.165 1.24887 58.1546 1.23846C57.0931 0.177023 55.5557 -0.233602 54.1228 0.129351C53.7885 0.214007 53.4545 0.30021 53.1156 0.363773L41.8067 2.48482C39.5138 2.91485 37.9983 5.13026 38.4283 7.42315C38.806 9.4369 40.5606 10.851 42.5357 10.8742L39.7543 13.6558C36.642 11.6675 33.0477 10.621 29.3039 10.621C24.1037 10.621 19.2147 12.6461 15.5375 16.3232C11.8931 19.9676 9.83491 24.9369 9.83533 30.0909C9.83575 35.2907 11.8607 40.1789 15.5375 43.8557C18.0671 46.3854 21.1714 48.1292 24.555 48.9735C25.0142 50.1563 25.5893 51.2909 26.2719 52.3606L24.3886 54.2438L22.8952 52.7502C21.2455 51.1007 18.5614 51.1008 16.9119 52.7502C15.2623 54.3998 15.2623 57.0839 16.9119 58.7336L18.4053 60.227L13.8547 64.7776C13.0555 65.5766 12.6155 66.6391 12.6155 67.7693C12.6155 68.8995 13.0556 69.9619 13.8547 70.7609C14.6537 71.56 15.7161 72.0001 16.8463 72.0001C17.9765 72.0001 19.039 71.56 19.8381 70.7608L20.2943 70.3045C20.4894 70.1067 20.5984 69.8398 20.5974 69.562C20.5965 69.2842 20.4857 69.018 20.2892 68.8216C20.0927 68.6252 19.8266 68.5145 19.5487 68.5136C19.2709 68.5127 19.0041 68.6218 18.8064 68.8169L18.3503 69.2731C17.5202 70.0989 16.1687 70.0994 15.3423 69.2731C14.9406 68.8714 14.7194 68.3373 14.7194 67.7691C14.7194 67.201 14.9406 66.6669 15.3423 66.2651L20.6369 60.9706C20.7346 60.8729 20.8121 60.757 20.865 60.6293C20.9179 60.5017 20.9451 60.3649 20.9451 60.2267C20.9451 60.0885 20.9179 59.9517 20.865 59.8241C20.8121 59.6965 20.7346 59.5805 20.6369 59.4828L18.3995 57.2455C17.5703 56.4162 17.5703 55.0669 18.3995 54.2375C19.2288 53.4085 20.5781 53.4082 21.4075 54.2375L23.6448 56.4748C23.8421 56.6721 24.1097 56.7829 24.3887 56.7829C24.6677 56.7829 24.9352 56.6721 25.1325 56.4748L28.3713 53.2361C28.5466 53.0608 28.6543 52.8292 28.6755 52.5822C28.6967 52.3352 28.63 52.0887 28.4871 51.8861C26.4289 48.9667 25.3409 45.5171 25.3409 41.9097C25.3409 37.2714 27.1471 32.9109 30.4269 29.6311C33.7067 26.3513 38.0672 24.5451 42.7054 24.5451C47.3438 24.5451 51.7044 26.3513 54.9841 29.6311C61.7545 36.4015 61.7545 47.4177 54.9841 54.1883C51.7099 57.4624 47.3493 59.2655 42.7054 59.2657C39.1047 59.2657 35.6553 58.1795 32.7302 56.1245C32.5276 55.9822 32.2813 55.9159 32.0346 55.9373C31.7879 55.9586 31.5567 56.0663 31.3816 56.2414L28.1402 59.4828C28.0425 59.5805 27.965 59.6965 27.9121 59.8241C27.8592 59.9517 27.832 60.0885 27.832 60.2267C27.832 60.3649 27.8592 60.5017 27.9121 60.6293C27.965 60.757 28.0425 60.8729 28.1402 60.9706L30.3775 63.208C30.5757 63.405 30.7328 63.6394 30.8397 63.8975C30.9466 64.1557 31.0013 64.4325 31.0005 64.7119C31.0005 65.8769 30.0313 66.8388 28.8736 66.8389C28.3054 66.8389 27.7713 66.6177 27.3696 66.2159L25.1322 63.9786C24.9349 63.7813 24.6674 63.6705 24.3884 63.6705C24.1094 63.6705 23.8418 63.7813 23.6446 63.9786L22.3005 65.3227C22.107 65.5207 21.9994 65.7871 22.0011 66.0639C22.0027 66.3408 22.1134 66.6059 22.3092 66.8017C22.5049 66.9974 22.77 67.1081 23.0469 67.1098C23.3237 67.1114 23.5901 67.0038 23.7881 66.8103L24.3885 66.21L25.8819 67.7035C26.6809 68.5026 27.7435 68.9426 28.8736 68.9426C30.0036 68.9426 31.066 68.5025 31.8652 67.7035C32.6644 66.9044 33.1044 65.842 33.1044 64.7118C33.1044 63.5816 32.6642 62.5192 31.8652 61.7201L30.3716 60.2267L32.2585 58.3399C35.3752 60.325 38.968 61.3697 42.7053 61.3697C47.9112 61.3697 52.8002 59.3477 56.4716 55.6761C64.0624 48.0854 64.0624 35.7343 56.4718 28.1437ZM42.7054 22.4413C41.8177 22.4413 40.9395 22.5018 40.0743 22.618C39.6295 21.9743 39.1276 21.372 38.5746 20.8185C36.0983 18.3423 32.8059 16.9785 29.3039 16.9785C28.361 16.9785 27.4203 17.0786 26.5081 17.2758C26.2354 17.3347 25.9973 17.4996 25.8462 17.7342C25.7714 17.8503 25.7202 17.98 25.6955 18.1159C25.6708 18.2519 25.6731 18.3913 25.7023 18.5263C25.7315 18.6614 25.787 18.7893 25.8657 18.9029C25.9444 19.0164 26.0446 19.1134 26.1607 19.1882C26.3953 19.3393 26.6802 19.3911 26.9529 19.3321C27.7255 19.1657 28.5137 19.082 29.304 19.0824C32.2441 19.0824 35.0082 20.2273 37.087 22.3062C37.3296 22.5491 37.5605 22.8033 37.7791 23.068C34.4644 23.9287 31.4249 25.6581 28.9394 28.1435C25.8656 31.2172 23.9472 35.1379 23.4002 39.3793C22.7208 38.9468 22.0906 38.4414 21.521 37.8721C19.442 35.7931 18.2972 33.0291 18.2972 30.0891C18.2972 27.1492 19.4421 24.3852 21.5211 22.3061C21.9749 21.8521 22.4669 21.438 22.9916 21.0684C23.2163 20.9065 23.3681 20.6626 23.4141 20.3895C23.46 20.1164 23.3965 19.8363 23.2372 19.6097C23.0779 19.3832 22.8357 19.2286 22.5632 19.1795C22.2907 19.1304 22.0098 19.1908 21.7814 19.3474C21.1576 19.7866 20.5728 20.2788 20.0335 20.8184C17.5572 23.2948 16.1934 26.5871 16.1934 30.0889C16.1934 33.5909 17.5572 36.8834 20.0335 39.3596C20.9762 40.3043 22.0573 41.0998 23.2396 41.7188C23.239 41.7825 23.2372 41.8459 23.2372 41.9096C23.2372 43.4963 23.4272 45.0554 23.795 46.5629C21.2725 45.7221 18.9603 44.3025 17.0253 42.3675C13.8029 39.1451 12.0029 34.8792 11.941 30.3315C11.8782 25.7131 13.6692 21.2308 16.9034 17.9333C20.1966 14.5758 24.608 12.7243 29.304 12.7243C32.9113 12.7243 36.3611 13.8122 39.2805 15.8705C39.4831 16.0133 39.7297 16.08 39.9767 16.0588C40.2237 16.0375 40.4552 15.9298 40.6305 15.7545L46.2976 10.0874C46.5932 9.79183 46.7148 9.35027 46.5716 8.95751C46.4868 8.72264 46.3211 8.52564 46.1043 8.40174C45.8874 8.27783 45.6336 8.23512 45.3881 8.28124L42.979 8.73307C41.8258 8.94893 40.7125 8.18716 40.4964 7.03474C40.2801 5.88204 41.0421 4.76843 42.1948 4.55215L54.111 2.31284C54.3071 2.27599 54.5013 2.22804 54.6985 2.19654C55.487 2.07068 56.4338 2.33407 56.9211 3.00598C57.2475 3.45612 57.3948 4.04069 57.3122 4.59124C57.312 4.59194 55.3147 17.8869 55.3144 17.8878C55.1427 19.0303 54.0377 19.8458 52.8954 19.6751C52.6094 19.6329 52.335 19.5325 52.0893 19.38C51.8436 19.2276 51.6318 19.0264 51.4669 18.7889C51.1442 18.3272 51.0338 17.7498 51.1175 17.1926L51.6819 13.4357C51.743 13.0293 51.5853 12.6095 51.2469 12.3762C51.0443 12.2359 50.7988 12.1711 50.5533 12.1932C50.3079 12.2152 50.0779 12.3228 49.9036 12.497L43.6382 18.7623C43.2786 19.1219 43.2239 19.6897 43.5173 20.1053C44.0671 20.8854 44.5508 21.7101 44.9632 22.5709C44.2137 22.4849 43.4599 22.4417 42.7054 22.4413Z" fill="black"/>
  </g>
  <defs>
    <clipPath id="clip0_3010_3396">
      <rect width="72" height="72" fill="white"/>
    </clipPath>
  </defs>
</svg>
