<svg width="100" height="100" viewBox="0 0 100 100" fill="none" xmlns="http://www.w3.org/2000/svg">
  <path d="M50 100C77.6142 100 100 77.6142 100 50C100 22.3858 77.6142 0 50 0C22.3858 0 0 22.3858 0 50C0 77.6142 22.3858 100 50 100Z" fill="#F3D49A"/>
  <mask id="mask0_3005_2835" style="mask-type:luminance" maskUnits="userSpaceOnUse" x="0" y="0" width="100" height="100">
    <path d="M50 100C77.6142 100 100 77.6142 100 50C100 22.3858 77.6142 0 50 0C22.3858 0 0 22.3858 0 50C0 77.6142 22.3858 100 50 100Z" fill="white"/>
  </mask>
  <g mask="url(#mask0_3005_2835)">
    <path d="M30.1494 77.1877C31.0444 78.1006 31.9903 78.9622 32.9826 79.7682C33.9431 80.5665 34.9029 81.3665 35.8622 82.1685C35.9309 82.2261 36.0164 82.2725 36.034 82.4016C35.9411 82.5094 35.8231 82.4565 35.7117 82.4323C34.884 82.2395 34.0895 81.9248 33.3541 81.4988C30.3073 79.7905 27.6646 77.6141 25.5253 74.8283C24.0057 72.8488 22.7386 70.7198 21.624 68.5016C20.4765 66.2154 19.4532 63.869 18.5586 61.4726C17.8665 59.6333 17.4504 57.7198 17.1466 55.784C17.0538 55.1922 16.9692 54.5764 17.0157 53.9912C17.1801 51.9541 17.1689 49.904 17.56 47.8809C17.9232 46.0054 18.2446 44.1207 18.6292 42.2489C18.8215 41.3089 19.1865 40.4209 19.5302 39.5328C20.3551 37.4224 21.2505 35.3416 22.1934 33.2813C22.8757 31.8122 23.7443 30.437 24.7776 29.1895C26.2164 27.4165 27.8282 25.7913 29.5893 24.3378C31.1517 23.0541 32.794 21.8865 34.6769 21.0867C37.4357 19.92 40.2605 19.6209 43.1791 20.3436C43.8526 20.5098 44.527 20.6696 45.1948 20.8554C45.6732 20.9882 46.0801 20.9111 46.5083 20.6464C47.5199 20.0211 48.5898 19.4954 49.7028 19.0766C51.3702 18.4449 53.1044 18.3604 54.8526 18.4932C55.8187 18.5666 56.7894 18.6121 57.7424 18.8341C61.2184 19.6432 64.2931 21.2344 67.0138 23.5297C69.075 25.2537 70.888 27.2543 72.4014 29.4747C73.7874 31.5002 74.9058 33.6963 75.7288 36.0086C76.1988 37.3462 76.6948 38.6727 77.1992 39.9973C77.5178 40.8333 77.8049 41.6777 78.0427 42.5397C78.4579 44.0399 79.0189 45.4955 79.4146 46.9984C79.8178 48.5367 80.1448 50.0879 80.2442 51.6801C80.2675 51.9103 80.2774 52.1417 80.2739 52.373C80.181 54.1194 80.3984 55.8518 80.5098 57.5888C80.5461 58.1462 80.5841 58.6961 80.5758 59.2516C80.5544 60.5771 80.599 61.9026 80.5033 63.2273C80.3826 64.9123 80.0937 66.5592 79.4917 68.1449C79.0583 69.2831 78.6372 70.425 78.2284 71.5707C77.6061 73.3059 77.1723 75.0801 77.1063 76.9341C77.0664 78.0823 77.2169 79.2109 77.385 80.3395C77.5476 81.4542 77.6953 82.5688 77.6386 83.7002C77.5924 84.9094 77.2039 86.0806 76.5183 87.0777C76.0465 87.7633 75.5755 88.4562 75.0321 89.0805C74.3624 89.8468 74.1849 90.733 74.1905 91.6953C74.1905 91.8495 74.2109 92.0037 74.2165 92.1598C74.2211 92.4229 74.1352 92.6797 73.9731 92.8871C73.5762 93.4756 73.0883 93.9973 72.5278 94.4328C71.9305 95.0533 71.2022 95.2874 70.3588 95.1471C70.1018 95.0982 69.8358 95.1497 69.6157 95.2911C69.1104 95.6112 68.5558 95.8459 67.9743 95.9859C67.2628 96.1847 66.5326 96.1596 65.8174 96.0788C64.9173 95.9775 64.2912 95.3979 63.7738 94.6947C63.4338 94.2303 63.1914 93.7157 62.9127 93.2196C62.7056 92.8481 62.426 92.7394 62.0284 92.8416C61.6568 92.9345 61.2853 93.0534 60.9137 93.1416C60.1706 93.3163 59.4386 93.2206 58.7289 93.0078C57.7787 92.7227 57.2065 91.9489 57.1396 90.9568C57.1238 90.7116 57.1126 90.4664 57.0801 90.2211C57.0318 89.8672 56.8767 89.7428 56.5172 89.8496C55.9887 90.0188 55.4373 90.1059 54.8824 90.1078C53.4964 90.0772 52.7868 89.0257 53.3032 87.7326C53.3487 87.6184 53.4054 87.5088 53.4583 87.3973C53.7435 86.8186 54.0835 86.2687 54.3724 85.69C54.5843 85.297 54.7237 84.8691 54.7839 84.4267C54.8534 83.7082 54.8444 82.9844 54.757 82.2679C54.6745 81.7347 54.7278 81.1893 54.9121 80.6822C54.9609 80.6132 55.0237 80.5551 55.0963 80.5118C55.169 80.4684 55.2498 80.4408 55.3338 80.4305C56.7224 80.1396 58.074 79.6941 59.3634 79.1022C62.0572 77.8472 64.4965 76.243 66.4509 73.9533C66.9339 73.3876 67.3798 72.7624 68.0245 72.3435C68.2585 72.3314 68.3245 72.5293 68.4257 72.676C68.7546 73.1581 69.1921 73.4442 69.7903 73.3634C70.3597 73.2863 70.6579 72.8897 70.8492 72.3797C71.0852 71.7509 71.0499 71.109 70.9635 70.4643C70.9366 70.2609 70.8762 70.0658 71.0833 69.9209C71.7243 69.5206 72.4302 69.24 73.074 68.8434C74.4162 68.0157 75.6359 67.0673 76.3093 65.5792C76.9484 64.1655 77.1249 62.7182 76.588 61.2264C76.3242 60.4907 76.1719 59.7141 75.6833 59.0639C74.8203 57.9158 73.5143 57.5656 72.2463 58.1749C71.8683 58.3561 71.5812 58.6106 71.453 59.0258C71.2301 59.7467 70.6532 60.2195 70.1907 60.7675C69.9408 61.062 69.5636 61.0824 69.2014 61.01C68.5112 60.8716 67.939 60.54 67.5219 59.9557C66.7342 58.8521 66.3571 57.5851 66.0505 56.2911C65.5926 54.3562 65.2015 52.4074 64.7835 50.4651C64.2373 47.9264 63.04 45.7277 61.3066 43.777C59.8603 42.1514 58.2088 40.8361 56.2646 39.8756C55.4425 39.4678 54.5591 39.2532 53.6887 38.9968C53.3868 38.904 53.0794 38.8315 52.8406 38.7637C52.9716 38.7721 53.1444 38.877 53.3376 38.9142C54.5854 39.4861 55.7505 40.2234 56.8015 41.1064C58.9714 42.9233 60.6332 45.1434 61.8696 47.6784C62.5477 49.0717 62.9462 50.5635 63.3298 52.0554C63.8435 54.0534 64.3274 56.0589 64.9164 58.0384C65.6205 60.4043 67.0816 62.225 68.9023 63.8088C68.9753 63.8648 69.0451 63.925 69.1113 63.989C69.1958 64.0818 69.2822 64.1803 69.219 64.3159C69.167 64.4283 69.0518 64.446 68.9403 64.4543C68.5641 64.4841 68.2056 64.3884 67.8517 64.2843C66.8876 63.9963 66.007 63.4805 65.2842 62.7805C65.2508 62.7507 65.2192 62.7182 65.1913 62.6876L65.1449 62.6393C64.3618 61.9352 63.785 61.075 63.2768 60.1628C62.2485 57.8359 61.6448 55.3873 61.2175 52.8914C60.8375 50.6732 60.257 48.5395 59.0011 46.6241C58.0295 45.1378 56.8646 43.8448 55.5855 42.6298C55.3459 42.4134 55.0914 42.2155 54.8368 42.0176C54.6511 41.8254 54.4012 41.7139 54.1996 41.5402C54.0933 41.4787 53.9907 41.411 53.8921 41.3377C53.7852 41.2802 53.6875 41.2069 53.6023 41.1203C53.6761 41.2022 53.7627 41.2716 53.8587 41.3256C53.9646 41.3906 54.0593 41.4724 54.168 41.5328C54.3807 41.6972 54.6232 41.8226 54.8183 42.013C55.0486 42.2099 55.3013 42.379 55.5187 42.5917C58.0211 44.9762 59.5668 47.9152 60.5124 51.2026C60.884 52.4789 61.0698 53.7943 61.3364 55.091C61.7175 56.9197 62.3883 58.6757 63.3233 60.2929C63.7209 61.0806 64.2652 61.7652 64.8383 62.4293C64.8625 62.4618 64.8848 62.4953 64.9071 62.5287C64.9294 62.5622 64.9572 62.59 64.9823 62.6216C64.9972 62.6355 65.0102 62.6504 65.0241 62.6643C65.0548 62.6913 65.0836 62.7191 65.117 62.747L65.1634 62.787C65.1987 62.813 65.2313 62.8408 65.2647 62.8678C66.175 63.623 67.0928 64.3689 68.0737 65.0321C68.2084 65.125 68.3932 65.2309 68.2901 65.4306C68.1972 65.609 67.9957 65.5811 67.8331 65.5477C67.0458 65.3997 66.2929 65.1064 65.613 64.6828C65.1867 64.4042 64.7854 64.0976 64.3841 63.7883C64.2912 63.6722 64.2067 63.5384 64.0655 63.4641C63.8379 63.3454 63.6389 63.1787 63.4821 62.9755C63.4673 63.3945 63.8351 63.3787 64.0896 63.4966C64.32 63.6332 64.3525 63.832 64.2754 64.067C64.1825 64.328 63.862 64.3707 63.7459 64.5807C63.7627 64.6503 63.7831 64.6736 63.8184 64.6736C64.4965 64.7098 64.686 65.086 64.3219 65.674C64.2073 65.8629 64.0306 66.006 63.8221 66.079C63.0567 66.3642 62.1417 65.8598 61.9643 65.0646C61.8296 64.4441 61.8593 63.806 61.7349 63.1845C61.6752 62.8 61.4737 62.4517 61.1701 62.2083C60.7233 61.8618 60.3276 61.9231 59.9978 62.4015C59.4507 63.1929 59.172 64.0846 59.0485 65.0293C59.0343 65.2294 58.9928 65.4267 58.9249 65.6155C58.7745 65.9666 58.4335 66.0158 58.2013 65.7084C57.9991 65.4322 57.8855 65.1012 57.8753 64.759C57.7907 63.3657 58.2524 62.1451 59.0698 61.0536C59.6718 60.251 60.7948 60.1247 61.7386 60.6951C61.7692 60.7044 61.7729 60.7666 61.8259 60.7434C61.7982 60.7325 61.7743 60.7138 61.7572 60.6895C61.0512 59.6073 60.5877 58.4156 60.1334 57.2191C60.0898 57.1039 60.0591 56.9832 60.0099 56.8699C59.7377 56.2401 59.2826 56.1342 58.7782 56.5856C58.5469 56.7937 58.3955 57.0686 58.193 57.2999C58.0527 57.4606 57.9143 57.6585 57.6607 57.5925C57.382 57.5201 57.3003 57.2758 57.2594 57.025C57.2183 56.747 57.2702 56.4632 57.4071 56.2178C57.7703 55.5276 58.2747 54.9767 59.0745 54.8058C59.3383 54.7501 59.4553 54.6609 59.4005 54.3785C58.7865 51.2528 57.7387 48.3082 55.7082 45.802C53.8848 43.5316 51.5117 41.7647 48.8138 40.6689C48.0011 40.3363 47.1929 39.9898 46.3281 39.8031C45.9649 39.7242 45.6045 39.635 45.232 39.6694C44.775 39.7112 44.3672 39.4836 43.913 39.4725C42.2985 39.4464 40.7993 39.9072 39.3706 40.5816C36.0563 42.1468 33.6412 44.678 31.9598 47.8818C30.6436 50.3898 29.8067 53.0901 29.3821 55.901C29.2043 57.1216 29.1818 58.3598 29.3153 59.586C29.3729 60.1507 29.3877 60.7174 29.1351 61.2645C28.8006 61.989 27.8104 62.1581 27.3181 61.6407C26.8918 61.1939 26.2963 61.362 25.7966 61.5478C25.3218 61.7178 24.8924 61.9948 24.5419 62.3574C24.1914 62.72 23.9291 63.1584 23.7753 63.6388C23.0879 65.6359 23.3508 67.5401 24.4905 69.2976C25.1343 70.2906 25.8254 71.2613 26.7357 72.0425C27.1654 72.3961 27.6553 72.6692 28.182 72.8488C28.2879 72.9018 28.4049 72.925 28.5136 72.9696C28.5573 72.9901 28.5946 73.0222 28.6214 73.0625C28.7375 73.3272 28.6827 73.6087 28.692 73.8827C28.6972 74.1143 28.7508 74.3423 28.8493 74.552C28.9478 74.7617 29.0891 74.9484 29.264 75.1004C29.4389 75.2523 29.6436 75.366 29.8651 75.4341C30.0865 75.5023 30.3197 75.5234 30.5498 75.4962C31.0328 75.4414 31.3635 75.1748 31.5716 74.7317C31.6552 74.5459 31.6784 74.2896 31.971 74.2868C32.6565 74.6816 33.2389 75.2157 33.7935 75.7609C35.4386 77.3689 37.3503 78.5476 39.4468 79.4515C41.4774 80.3311 43.5702 80.9934 45.7698 81.2953C46.029 81.3316 46.2928 81.3251 46.5492 81.3882C47.2059 81.5499 47.4883 82.07 47.4177 82.9887C47.3713 83.1076 47.257 83.0927 47.1623 83.1169C45.5209 83.5721 43.8739 83.4671 42.214 83.2209C40.5912 82.9794 39.0046 82.6357 37.5091 81.9391C36.8793 81.6497 36.2675 81.3224 35.6773 80.9591C33.8548 79.8286 32.1057 78.5978 30.507 77.1617C30.4504 77.1106 30.3854 77.0688 30.3213 77.0252C30.294 76.9937 30.2628 76.9659 30.2284 76.9425L30.22 76.936C30.1999 76.9015 30.1698 76.874 30.1336 76.857L30.1206 76.8468C30.0965 76.7762 29.985 76.8069 29.9748 76.7214L29.9553 76.7409L29.9776 76.7242C29.9648 76.7251 29.9521 76.7234 29.94 76.7191C29.928 76.7148 29.917 76.7081 29.9076 76.6994C29.8983 76.6907 29.8909 76.6801 29.8858 76.6684C29.8807 76.6567 29.8781 76.6441 29.8782 76.6313C29.8538 76.6284 29.8309 76.6179 29.8129 76.6012C29.7949 76.5845 29.7826 76.5625 29.7779 76.5384C29.7553 76.5318 29.7346 76.52 29.7174 76.5038C29.7003 76.4877 29.6873 76.4677 29.6794 76.4455C29.6361 76.4281 29.6009 76.3949 29.5809 76.3526C29.543 76.3295 29.5112 76.2977 29.488 76.2598C29.453 76.2332 29.4217 76.2019 29.3951 76.1669C29.3636 76.1381 29.3329 76.1093 29.3023 76.0786C29.2735 76.0489 29.2428 76.0201 29.2094 75.9922C29.1817 75.9606 29.1505 75.9323 29.1165 75.9077L29.1109 75.9012C29.0869 75.8681 29.057 75.8397 29.0227 75.8176L29.0152 75.8102C28.9942 75.7758 28.9643 75.7476 28.9288 75.7284L28.9214 75.721C28.7161 75.6392 28.6 75.4497 28.4384 75.3141C28.4087 75.2853 28.3799 75.2547 28.3529 75.2212L28.3093 75.1766C28.1922 75.0605 28.0752 74.9453 27.9609 74.8264C27.7361 74.5849 27.5095 74.3443 27.3005 74.0833C27.1927 73.8771 26.993 73.7489 26.8592 73.5669C26.8221 73.5548 26.849 73.5037 26.8137 73.4888C26.8137 73.4888 26.8017 73.5037 26.8072 73.5083C26.832 73.5234 26.8509 73.5463 26.8611 73.5734C27.0042 73.7591 27.2085 73.8976 27.3125 74.1158C27.5262 74.3471 27.7306 74.5868 27.9442 74.8181C28.0742 74.9472 28.2071 75.0754 28.3334 75.2092C28.5516 75.3908 28.7267 75.6186 28.8462 75.8761L28.8582 75.8882C28.873 75.9244 28.9013 75.9534 28.9372 75.969L28.9483 75.9811C28.9654 76.0167 28.9934 76.046 29.0282 76.0647L29.0375 76.0749C29.0576 76.1095 29.086 76.1386 29.1202 76.1594L29.1286 76.1678C29.1497 76.2021 29.1783 76.2313 29.2122 76.2533L29.2196 76.2607C29.2421 76.2945 29.2708 76.3238 29.3041 76.3471L29.3106 76.3536C29.3343 76.387 29.3635 76.4162 29.397 76.44L29.4035 76.4465C29.4271 76.4797 29.456 76.5089 29.489 76.5328L29.4955 76.5394C29.5194 76.5726 29.5486 76.6018 29.5819 76.6257L29.5884 76.6313C29.6123 76.6646 29.6415 76.6937 29.6747 76.7177L29.6803 76.7242C29.7041 76.7574 29.7333 76.7863 29.7667 76.8097L29.7732 76.8162C29.7967 76.8496 29.8259 76.8785 29.8596 76.9016L29.867 76.9081C29.8892 76.9421 29.9183 76.9709 29.9525 76.9927L29.9608 77.001C29.9822 77.035 30.0111 77.0636 30.0454 77.0846L30.0547 77.093C30.0757 77.1336 30.1088 77.1667 30.1494 77.1877Z" fill="#54433C"/>
    <path d="M53.5633 87.3835C53.4472 87.73 53.2661 88.0542 53.2586 88.4378C53.241 89.3101 53.7584 89.9027 54.6334 89.9761C55.0793 90.0157 55.5286 89.9764 55.9608 89.86C56.2283 89.7875 56.4968 89.7234 56.7671 89.6612C57.0374 89.599 57.0913 89.6203 57.147 89.8916C57.2038 90.1629 57.2374 90.4385 57.2473 90.7155C57.2938 92.1088 58.1066 92.9086 59.4869 93.047C60.2374 93.1153 60.994 93.0319 61.7116 92.8018C62.6238 92.5231 62.7028 92.5668 63.1598 93.4093C63.4979 94.0317 63.8184 94.6605 64.3349 95.1677C64.8922 95.713 65.5359 96.0037 66.319 96.0037C66.8724 96.0142 67.4255 95.9738 67.9715 95.883C68.5799 96.3762 68.9775 97.0283 69.3416 97.7045C69.3719 97.7494 69.3904 97.8011 69.3956 97.855C69.4008 97.9088 69.3925 97.9631 69.3714 98.0129C69.3452 98.0483 69.3139 98.0796 69.2785 98.1058C68.1218 99.0042 66.8746 99.7797 65.5573 100.42C63.164 101.561 60.6391 102.404 58.0397 102.928C56.6231 103.214 55.1916 103.422 53.7519 103.549C52.278 103.684 50.7965 103.715 49.3182 103.642C48.0578 103.59 46.8009 103.474 45.5525 103.293C43.2023 102.931 40.9014 102.385 38.7111 101.435C38.5699 101.374 38.4259 101.319 38.2829 101.261C37.9689 101.026 38.0711 100.704 38.1287 100.411C38.333 99.3719 38.7557 98.4161 39.2684 97.4946C40.2373 95.7557 41.6288 94.3837 43.089 93.0712C43.2265 92.9467 43.3677 92.825 43.4949 92.6931C44.1665 92.0122 44.2195 91.6147 43.8219 90.7424C43.3482 89.7086 42.6868 88.8428 41.717 88.226C41.5879 88.1434 41.3928 88.0774 41.4523 87.8489C42.3505 87.3454 43.1624 86.7054 44.0532 86.189C44.7685 85.7728 45.4679 85.3204 46.2659 85.0696C46.4303 85.0176 46.4619 84.8327 46.6151 84.7854C46.9189 84.6535 46.9923 84.921 47.0861 85.0873C47.6741 86.1295 48.5491 86.8355 49.6099 87.3622C50.7747 87.9409 51.9396 87.9325 53.1314 87.4876C53.2716 87.4383 53.3942 87.3129 53.5633 87.3835Z" fill="#DFA397"/>
    <path d="M41.456 87.8506C41.4978 88.0066 41.6483 88.0466 41.7607 88.1153C42.9079 88.8102 43.5971 89.8645 44.0997 91.0674C44.3356 91.6331 44.1926 92.1245 43.7913 92.5536C43.5395 92.823 43.246 93.0534 42.9841 93.3088C41.8081 94.4597 40.581 95.5633 39.7125 96.9919C39.0622 98.0648 38.5049 99.1711 38.2485 100.408C38.1881 100.696 38.1268 100.982 38.2866 101.26C37.0075 100.626 35.7609 99.9402 34.636 99.0485C33.9289 98.5044 33.3128 97.8513 32.8107 97.1136C32.612 96.8199 32.49 96.481 32.4559 96.128C32.3974 95.5159 32.7689 95.1118 33.1321 94.7245C33.9217 93.8884 34.793 93.1286 35.6522 92.3604C36.1668 91.896 36.674 91.4315 37.2147 91.0033C38.1089 90.3023 39.008 89.6112 39.9122 88.93C40.4138 88.5584 40.9405 88.2091 41.456 87.8506Z" fill="#FFE6DC"/>
    <path d="M53.5633 87.3836C52.7431 87.8768 51.8532 88.0217 50.916 87.9C49.7623 87.7495 48.8204 87.143 47.9574 86.424C47.5264 86.0645 47.2217 85.5666 46.9421 85.0715C46.865 84.934 46.8019 84.7928 46.617 84.7873C46.8557 84.386 47.1 83.9875 47.2106 83.5231C47.2468 83.3726 47.3109 83.2332 47.1669 83.1078C47.2103 83.0515 47.2727 83.0129 47.3425 82.9991C48.067 83.2054 48.7786 83.4636 49.5291 83.5565C51.1166 83.7646 52.6651 83.6494 54.1467 82.9917C54.2173 82.9611 54.286 82.9267 54.3575 82.8988C54.822 82.7047 54.9019 82.7474 54.8944 83.2369C54.8879 83.6661 54.939 84.0971 54.861 84.5244C54.8889 84.896 54.7449 85.2174 54.5823 85.5285C54.247 86.1518 53.9024 86.7659 53.5633 87.3836Z" fill="#FFE6DC"/>
    <path d="M69.3714 98.0163C69.0853 97.3493 68.6635 96.7716 68.1916 96.2272C68.0988 96.1232 67.9984 96.0303 67.9715 95.8863C68.602 95.6927 69.2037 95.4156 69.7606 95.0624C69.8207 95.0151 69.8914 94.983 69.9666 94.969C70.0418 94.9549 70.1193 94.9592 70.1925 94.9815C70.8195 95.185 71.4001 95.0456 71.9574 94.7335C72.1432 94.6286 72.329 94.532 72.5222 94.4316C72.3661 94.8534 72.0689 95.1868 71.8014 95.5324C71.1065 96.4288 70.2566 97.1821 69.4522 97.9754C69.4273 97.9928 69.4001 98.0066 69.3714 98.0163Z" fill="#FFE6DC"/>
    <path d="M28.8573 75.8887C28.6251 75.7225 28.4579 75.4949 28.2805 75.2766C28.2517 75.1837 28.2972 75.1577 28.3808 75.1698L28.3854 75.1744C28.419 75.1982 28.4488 75.2271 28.4737 75.2599C28.6362 75.4057 28.8164 75.5385 28.9326 75.7243C28.9061 75.7422 28.8851 75.7669 28.8719 75.796C28.8586 75.825 28.8536 75.8571 28.8573 75.8887Z" fill="#E7E8E7"/>
    <path d="M29.9841 76.7119C30.0178 76.7168 30.0494 76.7312 30.0752 76.7534C30.1011 76.7756 30.12 76.8047 30.1299 76.8373C30.05 76.8308 29.9896 76.8039 29.9841 76.7119Z" fill="#E7E8E7"/>
    <path d="M29.0338 75.8233C29.0566 75.8228 29.0786 75.8313 29.0951 75.8469C29.1117 75.8626 29.1213 75.8841 29.1221 75.9069C29.1003 75.9044 29.0799 75.8949 29.064 75.8798C29.0481 75.8647 29.0375 75.8449 29.0338 75.8233Z" fill="#E7E8E7"/>
    <path d="M28.9484 75.9822C28.9377 75.9826 28.9271 75.9808 28.9172 75.9768C28.9073 75.9729 28.8984 75.9669 28.8909 75.9593C28.8835 75.9517 28.8778 75.9426 28.874 75.9326C28.8703 75.9226 28.8688 75.912 28.8694 75.9014L28.9484 75.9822Z" fill="#E7E8E7"/>
    <path d="M29.1276 75.9131C29.1509 75.913 29.1733 75.9216 29.1905 75.9373C29.2077 75.9529 29.2184 75.9744 29.2205 75.9976C29.198 75.9954 29.1768 75.986 29.16 75.9708C29.1433 75.9555 29.1319 75.9353 29.1276 75.9131Z" fill="#E7E8E7"/>
    <path d="M29.0394 76.0777C29.0285 76.0779 29.0178 76.0758 29.0078 76.0716C28.9978 76.0674 28.9887 76.0612 28.9812 76.0533C28.9737 76.0455 28.9679 76.0362 28.9642 76.026C28.9604 76.0158 28.9588 76.005 28.9595 75.9941L29.0394 76.0777Z" fill="#E7E8E7"/>
    <path d="M29.2214 76.002C29.245 76.0019 29.2677 76.0108 29.2849 76.0268C29.3022 76.0428 29.3127 76.0648 29.3143 76.0883C29.2916 76.0858 29.2704 76.076 29.2537 76.0604C29.237 76.0449 29.2257 76.0244 29.2214 76.002Z" fill="#E7E8E7"/>
    <path d="M29.1313 76.1724C29.1203 76.1725 29.1093 76.1704 29.0991 76.1662C29.0889 76.162 29.0796 76.1557 29.0719 76.1478C29.0642 76.1399 29.0581 76.1306 29.0541 76.1203C29.0502 76.1099 29.0483 76.0989 29.0487 76.0879C29.0696 76.0914 29.0889 76.1015 29.1038 76.1167C29.1186 76.1319 29.1283 76.1514 29.1313 76.1724Z" fill="#E7E8E7"/>
    <path d="M29.3153 76.0918C29.3387 76.0932 29.3608 76.1028 29.3778 76.1189C29.3948 76.1351 29.4056 76.1567 29.4082 76.18C29.3853 76.1772 29.3639 76.1671 29.3472 76.1512C29.3305 76.1353 29.3193 76.1145 29.3153 76.0918Z" fill="#E7E8E7"/>
    <path d="M29.2233 76.2661C29.2121 76.2662 29.201 76.2641 29.1907 76.2599C29.1804 76.2556 29.171 76.2492 29.1632 76.2413C29.1554 76.2333 29.1493 76.2238 29.1453 76.2134C29.1412 76.2029 29.1393 76.1918 29.1397 76.1807C29.1609 76.1842 29.1804 76.1944 29.1955 76.2097C29.2105 76.2251 29.2202 76.2448 29.2233 76.2661Z" fill="#E7E8E7"/>
    <path d="M29.41 76.1807C29.434 76.1826 29.4565 76.193 29.4736 76.21C29.4906 76.227 29.501 76.2496 29.5029 76.2736C29.4796 76.2699 29.458 76.2589 29.4413 76.2422C29.4246 76.2255 29.4137 76.204 29.41 76.1807Z" fill="#E7E8E7"/>
    <path d="M29.3153 76.3598C29.304 76.3598 29.2929 76.3576 29.2825 76.3532C29.2721 76.3489 29.2627 76.3425 29.2548 76.3344C29.247 76.3264 29.2408 76.3168 29.2366 76.3064C29.2325 76.2959 29.2305 76.2847 29.2307 76.2734C29.2522 76.2768 29.2721 76.2871 29.2873 76.3026C29.3025 76.3182 29.3123 76.3382 29.3153 76.3598Z" fill="#E7E8E7"/>
    <path d="M29.5038 76.2705C29.5278 76.2726 29.5502 76.2831 29.5672 76.3001C29.5842 76.317 29.5946 76.3395 29.5967 76.3634C29.5734 76.3599 29.5517 76.349 29.535 76.3323C29.5183 76.3155 29.5074 76.2939 29.5038 76.2705Z" fill="#E7E8E7"/>
    <path d="M29.4081 76.4526C29.3968 76.4527 29.3855 76.4506 29.3749 76.4463C29.3644 76.442 29.3548 76.4356 29.3468 76.4276C29.3387 76.4195 29.3324 76.4099 29.3281 76.3994C29.3238 76.3889 29.3216 76.3776 29.3218 76.3662C29.3435 76.3695 29.3636 76.3797 29.3791 76.3952C29.3947 76.4108 29.4048 76.4309 29.4081 76.4526Z" fill="#E7E8E7"/>
    <path d="M29.5986 76.3594C29.6233 76.3607 29.6468 76.3708 29.6648 76.3878C29.6828 76.4048 29.6942 76.4277 29.697 76.4523C29.6726 76.45 29.6496 76.4397 29.6318 76.4229C29.6139 76.406 29.6022 76.3836 29.5986 76.3594Z" fill="#E7E8E7"/>
    <path d="M29.5001 76.5454C29.4888 76.5454 29.4776 76.5431 29.4672 76.5388C29.4568 76.5344 29.4473 76.528 29.4393 76.52C29.4314 76.512 29.4251 76.5025 29.4209 76.492C29.4166 76.4815 29.4145 76.4703 29.4146 76.459C29.4363 76.4623 29.4562 76.4726 29.4716 76.4881C29.487 76.5037 29.497 76.5237 29.5001 76.5454Z" fill="#E7E8E7"/>
    <path d="M29.6942 76.4482C29.7191 76.4492 29.7428 76.4592 29.7609 76.4763C29.7789 76.4933 29.7903 76.5164 29.7927 76.5411C29.7678 76.5403 29.744 76.5305 29.7259 76.5134C29.7078 76.4962 29.6965 76.4731 29.6942 76.4482Z" fill="#E7E8E7"/>
    <path d="M29.593 76.6391C29.5701 76.6391 29.5481 76.63 29.5319 76.6138C29.5157 76.5976 29.5066 76.5756 29.5066 76.5527C29.5284 76.5559 29.5486 76.566 29.5641 76.5816C29.5797 76.5972 29.5898 76.6173 29.593 76.6391Z" fill="#E7E8E7"/>
    <path d="M29.7899 76.5361C29.8149 76.5374 29.8386 76.5474 29.8569 76.5644C29.8752 76.5814 29.887 76.6043 29.8902 76.629C29.8647 76.6295 29.84 76.6202 29.8213 76.6028C29.8026 76.5855 29.7914 76.5616 29.7899 76.5361Z" fill="#E7E8E7"/>
    <path d="M29.6859 76.7309C29.6745 76.731 29.6632 76.7289 29.6527 76.7246C29.6421 76.7203 29.6326 76.7139 29.6245 76.7059C29.6165 76.6979 29.6101 76.6883 29.6058 76.6777C29.6015 76.6672 29.5994 76.6559 29.5995 76.6445C29.6211 76.6481 29.6411 76.6584 29.6566 76.6739C29.672 76.6893 29.6823 76.7093 29.6859 76.7309Z" fill="#E7E8E7"/>
    <path d="M29.8875 76.625C29.9123 76.6263 29.9359 76.6364 29.954 76.6534C29.9722 76.6704 29.9838 76.6932 29.9868 76.7179C29.9741 76.7188 29.9613 76.717 29.9493 76.7128C29.9373 76.7085 29.9262 76.7018 29.9169 76.6931C29.9076 76.6844 29.9002 76.6738 29.8951 76.6621C29.89 76.6504 29.8874 76.6378 29.8875 76.625Z" fill="#E7E8E7"/>
    <path d="M29.7779 76.8228C29.7551 76.8228 29.7333 76.8138 29.7171 76.7978C29.7009 76.7818 29.6917 76.7601 29.6915 76.7373C29.7132 76.7403 29.7333 76.7502 29.7489 76.7656C29.7645 76.781 29.7746 76.8011 29.7779 76.8228Z" fill="#E7E8E7"/>
    <path d="M29.8707 76.9146C29.848 76.9146 29.8262 76.9056 29.81 76.8896C29.7938 76.8736 29.7846 76.8519 29.7844 76.8291C29.806 76.8322 29.8261 76.8422 29.8416 76.8576C29.8572 76.873 29.8674 76.8929 29.8707 76.9146Z" fill="#E7E8E7"/>
    <path d="M30.1429 76.8478C30.1538 76.8471 30.1648 76.8486 30.1751 76.8522C30.1855 76.8558 30.1949 76.8614 30.203 76.8688C30.2111 76.8762 30.2176 76.8851 30.2221 76.8951C30.2266 76.9051 30.2291 76.9159 30.2293 76.9268C30.2085 76.9242 30.189 76.9152 30.1735 76.9011C30.1581 76.8869 30.1474 76.8683 30.1429 76.8478Z" fill="#E7E8E7"/>
    <path d="M30.2377 76.9336C30.2606 76.9335 30.2828 76.9418 30.3 76.9571C30.3171 76.9724 30.328 76.9934 30.3306 77.0163C30.3082 77.0143 30.2871 77.0052 30.2704 76.9903C30.2537 76.9754 30.2422 76.9555 30.2377 76.9336Z" fill="#E7E8E7"/>
    <path d="M30.0565 77.0973C30.0454 77.0975 30.0344 77.0955 30.0241 77.0914C30.0138 77.0873 30.0044 77.0812 29.9965 77.0734C29.9886 77.0656 29.9824 77.0563 29.9782 77.046C29.974 77.0358 29.9719 77.0248 29.972 77.0137C29.9932 77.0168 30.0128 77.0266 30.028 77.0416C30.0432 77.0567 30.0532 77.0762 30.0565 77.0973Z" fill="#E7E8E7"/>
    <path d="M30.1494 77.1872C30.1385 77.1876 30.1276 77.1858 30.1174 77.1818C30.1072 77.1779 30.0979 77.1719 30.0901 77.1642C30.0823 77.1566 30.0761 77.1475 30.0719 77.1374C30.0678 77.1273 30.0657 77.1164 30.0658 77.1055C30.0866 77.1085 30.1059 77.1181 30.1209 77.1328C30.1359 77.1474 30.1459 77.1665 30.1494 77.1872Z" fill="#E7E8E7"/>
    <path d="M29.9636 77.0054C29.9525 77.0055 29.9414 77.0035 29.931 76.9993C29.9206 76.9951 29.9112 76.9889 29.9033 76.981C29.8953 76.9731 29.889 76.9638 29.8847 76.9535C29.8804 76.9431 29.8782 76.9321 29.8782 76.9209C29.8995 76.9241 29.9193 76.9341 29.9346 76.9493C29.95 76.9645 29.9601 76.9841 29.9636 77.0054Z" fill="#E7E8E7"/>
    <path d="M28.94 75.7345C28.9511 75.734 28.9622 75.7357 28.9726 75.7396C28.983 75.7435 28.9925 75.7494 29.0005 75.757C29.0086 75.7646 29.015 75.7738 29.0195 75.784C29.0239 75.7941 29.0263 75.8051 29.0264 75.8162C29.0052 75.8134 28.9854 75.804 28.9699 75.7894C28.9544 75.7747 28.9439 75.7555 28.94 75.7345Z" fill="#E7E8E7"/>
    <path d="M69.2822 98.1095L69.3751 98.0166C69.37 98.0393 69.3586 98.0601 69.3421 98.0765C69.3257 98.093 69.3049 98.1044 69.2822 98.1095Z" fill="#FFE6DC"/>
    <path d="M28.5564 73.0461C28.5318 73.0474 28.5073 73.0429 28.4848 73.0331C28.4012 72.9504 28.2768 73.0173 28.1885 72.9523C27.4997 72.7704 26.8757 72.3991 26.3874 71.8803C25.5068 70.9681 24.6977 69.9872 24.0976 68.8716C23.1845 67.1745 23.0275 65.3826 23.675 63.5508C23.829 63.1044 24.0723 62.6939 24.3899 62.3444C24.7075 61.9948 25.0929 61.7135 25.5226 61.5175C25.8996 61.3378 26.3125 61.246 26.7301 61.249C27.0088 61.249 27.2392 61.2945 27.4463 61.5537C27.8049 62.0042 28.4681 61.9504 28.8564 61.4868C29.0837 61.2102 29.209 60.8639 29.2112 60.5059C29.2239 60.2287 29.218 59.951 29.1936 59.6745C28.966 57.3077 29.2549 55.0031 29.9646 52.7375C30.481 51.0887 31.0059 49.4464 31.8084 47.9072C32.7611 46.0501 34.0437 44.3819 35.5937 42.984C36.3211 42.3169 37.1056 41.7148 37.9383 41.1847C39.17 40.4212 40.5141 39.9335 41.901 39.5582C42.6812 39.3465 43.5117 39.2396 44.2845 39.3948C45.1688 39.5731 46.0829 39.4997 46.9486 39.8174C47.8143 40.1351 48.6792 40.4676 49.5245 40.8392C50.3554 41.2095 51.151 41.6544 51.9015 42.1685C53.7305 43.4123 55.3273 44.8864 56.5609 46.7359C57.7452 48.5119 58.5599 50.4515 59.0977 52.5062C59.2686 53.162 59.4089 53.8252 59.5538 54.4875C59.6309 54.8396 59.6225 54.8415 59.2751 54.8805C58.375 54.9817 57.5102 55.8215 57.3774 56.716C57.3447 56.9152 57.3686 57.1195 57.4461 57.3058C57.5539 57.5557 57.7666 57.604 57.958 57.4136C58.0729 57.289 58.1753 57.1533 58.2636 57.0086C58.4672 56.6985 58.7298 56.4315 59.0364 56.2227C59.1214 56.1554 59.2273 56.1199 59.3357 56.1225C59.4441 56.125 59.5482 56.1654 59.63 56.2367C59.8798 56.4225 60.0805 56.6166 60.1873 56.9408C60.6052 58.2649 61.1839 59.5327 61.9104 60.7158C61.916 60.7976 61.8937 60.8468 61.799 60.8087C61.5613 60.6651 61.3004 60.5639 61.028 60.5096C60.244 60.3536 59.5715 60.5579 59.1033 61.2072C58.3546 62.2457 57.9301 63.4013 57.9998 64.7064C58.0106 64.9985 58.0875 65.2843 58.2245 65.5424C58.3081 65.6957 58.4178 65.8322 58.6212 65.7979C58.8246 65.7635 58.8358 65.6019 58.8599 65.4467C58.9091 65.1272 58.9612 64.8086 59.0113 64.489C59.1414 63.666 59.4981 62.9378 59.9402 62.242C60.2914 61.6847 60.727 61.7386 61.1655 62.0126C61.474 62.1964 61.6996 62.4922 61.7952 62.8384C61.8901 63.2276 61.9492 63.6246 61.9717 64.0246C62.0024 64.3618 62.0256 64.7018 62.0832 65.0343C62.204 65.7254 63.0901 66.2214 63.7497 65.9818C64.0933 65.8564 64.3729 65.4839 64.3804 65.1458C64.3869 64.8327 64.2708 64.7278 63.967 64.7807C63.8323 64.8039 63.6995 64.8364 63.5648 64.8652C63.4988 64.4612 63.4979 64.4584 63.823 64.3218C63.9635 64.2574 64.0897 64.1659 64.1946 64.0524C64.3404 63.9661 64.1147 63.6809 64.4036 63.6698C64.817 63.9633 65.2238 64.2652 65.6437 64.5466C66.2737 64.9609 66.9776 65.2498 67.717 65.3975C67.8985 65.448 68.0892 65.456 68.2743 65.4207C68.2232 65.1978 68.031 65.1421 67.8926 65.0417C67.05 64.45 66.2317 63.8286 65.4514 63.157C65.3362 63.0576 65.235 62.9424 65.1263 62.8347C65.0921 62.8176 65.0644 62.7899 65.0473 62.7557L65.0353 62.7436C65.0005 62.7262 64.9724 62.6978 64.9554 62.6628L64.9424 62.6498C64.9076 62.6337 64.8802 62.6052 64.8653 62.5699L64.8532 62.5569C64.7603 62.4195 64.8151 62.3618 64.9591 62.4009C65.052 62.4278 65.1235 62.5188 65.2062 62.5774L65.2145 62.5848C65.2485 62.6084 65.2797 62.6358 65.3074 62.6665C65.5257 62.8365 65.7421 63.0093 65.9577 63.1765C66.6884 63.7501 67.5502 64.1331 68.4657 64.2912C68.6196 64.3132 68.7747 64.3262 68.9301 64.3302C69.023 64.3348 69.1326 64.3525 69.1586 64.2373C69.1763 64.1565 69.1001 64.1008 69.037 64.0562C68.3988 63.6103 67.9223 62.9963 67.3649 62.4659C66.3106 61.4618 65.626 60.2365 65.117 58.8961C64.4473 57.1312 63.9837 55.3115 63.5611 53.4797C63.2183 51.9935 62.7975 50.5249 62.3154 49.0776C61.851 47.6759 61.1236 46.4052 60.2941 45.192C59.1795 43.5664 57.8994 42.0951 56.3426 40.8763C55.3914 40.1332 54.3492 39.535 53.2772 38.987C53.3506 38.7436 53.5169 38.8634 53.6599 38.8885C54.8564 39.1253 56.0077 39.5504 57.0709 40.1481C58.48 40.96 59.7786 41.9195 60.8793 43.1299C61.509 43.8068 62.0983 44.5202 62.6443 45.2663C63.8862 47.0052 64.633 48.9439 65.0288 51.0255C65.4133 53.0543 65.8648 55.0681 66.3701 57.0708C66.5936 57.97 66.9528 58.8298 67.4355 59.6207C67.7896 60.2276 68.3687 60.6705 69.0472 60.8533C69.6733 61.0261 70.1238 60.8533 70.448 60.2821C70.5048 60.1735 70.5817 60.0767 70.6746 59.9969C71.0348 59.6995 71.285 59.2901 71.3852 58.8339C71.4377 58.6245 71.5653 58.4416 71.7438 58.3202C72.2921 57.8947 72.9801 57.6903 73.6718 57.7474C74.3635 57.8045 75.0087 58.1189 75.4798 58.6286C75.9325 59.0951 76.2561 59.6713 76.4189 60.3006C76.5536 60.8385 76.7775 61.3475 76.9001 61.8918C77.1686 63.0827 76.9781 64.2206 76.5471 65.3288C76.1542 66.3431 75.4928 67.1671 74.6568 67.8563C73.9932 68.4094 73.2697 68.8864 72.4999 69.2785C72.0448 69.5051 71.5952 69.7429 71.1437 69.9751C70.9282 70.1015 70.7722 69.9696 70.5957 69.8646C69.5432 69.2209 68.619 69.5739 68.2558 70.7508C68.1329 71.1333 68.0917 71.5375 68.135 71.937C68.1536 72.1051 68.1917 72.2816 67.9929 72.381C66.6348 73.9555 65.287 75.5476 63.5825 76.7654C61.6717 78.1309 59.6356 79.2734 57.3737 79.9627C56.8293 80.129 56.2999 80.3389 55.7425 80.4624C55.5057 80.5135 55.2409 80.4318 55.0319 80.6111C54.8475 80.7766 54.6185 80.8842 54.3733 80.9204C52.6663 81.2654 50.9381 81.4954 49.2003 81.6087C48.2834 81.6616 47.3935 81.5706 46.4953 81.4592C45.5961 81.435 44.723 81.2381 43.8544 81.0365C41.2365 80.4345 38.7345 79.4088 36.4474 77.9999C35.5247 77.4399 34.6732 76.7702 33.9115 76.0056C33.7465 75.8435 33.5722 75.6912 33.3894 75.5495C32.9019 75.171 32.4367 74.7647 31.9961 74.3326C31.7787 74.2239 31.8187 74.0344 31.8465 73.8505C31.9212 73.3732 31.8397 72.8845 31.6143 72.4571C31.3486 71.9416 30.9427 71.6063 30.3463 71.5924C29.75 71.5784 29.3376 71.91 29.0607 72.4209C28.9948 72.5435 28.9474 72.6745 28.8805 72.7925C28.8137 72.9105 28.7681 73.1018 28.5564 73.0461Z" fill="#FFE6DC"/>
    <path d="M46.4925 81.4682C47.074 81.4682 47.6583 81.3939 48.2333 81.5388C48.2633 81.5485 48.2951 81.5507 48.3262 81.5453C48.9578 81.3856 49.6108 81.5203 50.2453 81.406C50.6066 81.341 50.9735 81.327 51.3377 81.2815C52.5814 81.1411 53.8148 80.9205 55.0301 80.6211C54.9093 81.2017 54.7997 81.7701 54.8991 82.386C55.0214 83.0963 55.0088 83.8233 54.8619 84.529C54.8619 84.0831 54.8619 83.6363 54.8536 83.1904C54.848 82.8393 54.8238 82.8189 54.522 82.9712C53.9275 83.2602 53.3011 83.4784 52.6558 83.6215C52.253 83.7152 51.842 83.769 51.4287 83.7821C50.3235 83.8388 49.2165 83.7091 48.1543 83.3985C47.8645 83.3103 47.5515 83.2629 47.3434 83.0028C47.3357 82.741 47.2973 82.481 47.2291 82.2281C47.0694 81.6122 47.0675 81.6122 46.4925 81.4682Z" fill="#FFCEBA"/>
    <path d="M28.5564 73.046C28.7013 72.9865 28.7291 72.85 28.7858 72.7227C28.8912 72.4519 29.0358 72.1981 29.215 71.9694C29.763 71.3256 30.8749 71.1696 31.5827 72.1468C31.7633 72.3959 31.8903 72.6796 31.9558 72.9801C32.0214 73.2806 32.024 73.5915 31.9636 73.8931C31.9348 74.052 31.9106 74.1904 31.9989 74.3297C31.827 74.3297 31.8233 74.4728 31.7824 74.5824C31.4248 75.5419 30.7077 75.697 30.1457 75.6042C29.2261 75.4472 28.6409 74.8471 28.5573 74.0074C28.5239 73.6888 28.6232 73.3692 28.5564 73.046Z" fill="#DFA397"/>
    <path d="M67.9901 72.3894C68.0324 72.2928 68.0468 72.1864 68.0319 72.082C67.913 71.5414 68.0142 71.0156 68.2037 70.5093C68.618 69.403 69.7596 69.0751 70.6997 69.7941C70.8362 69.8991 70.9523 70.0133 71.1409 69.9799C70.9951 70.0895 71.0202 70.2158 71.061 70.3775C71.273 71.1529 71.193 71.9793 70.8362 72.6997C70.5251 73.3295 69.8813 73.6435 69.2757 73.4726C68.8591 73.3495 68.5038 73.0747 68.2799 72.7025C68.2019 72.5901 68.1879 72.4006 67.9901 72.3894Z" fill="#DFA397"/>
    <path d="M63.2518 60.3724C62.361 58.9108 61.714 57.3139 61.3364 55.6443C61.0577 54.4451 60.8719 53.2292 60.5933 52.0216C60.0023 49.4481 58.9074 47.0171 57.3718 44.8691C56.9787 44.3357 56.5514 43.8284 56.0927 43.3503C55.8624 43.1032 55.6283 42.8571 55.3979 42.6072C55.3886 42.4511 55.4536 42.426 55.5772 42.5069C56.9928 43.6531 58.1103 45.0539 59.107 46.5671C60.2737 48.3385 60.8961 50.3041 61.2435 52.3737C61.5746 54.4097 62.0634 56.4169 62.7056 58.3772C62.9053 58.9772 63.1645 59.5513 63.3874 60.1421C63.4125 60.2628 63.4394 60.378 63.2518 60.3724Z" fill="#FEE5DB"/>
    <path d="M63.2517 60.373C63.3446 60.3266 63.3623 60.2346 63.3799 60.1445C63.5221 60.3777 63.6688 60.609 63.8054 60.8449C64.1769 61.4951 64.6906 62.0441 65.2052 62.5847C65.1202 62.5785 65.0397 62.5438 64.9767 62.4863C64.8838 62.4157 64.8606 62.4863 64.8522 62.5643C64.2076 61.915 63.6484 61.2035 63.2517 60.373Z" fill="#EDD6CD"/>
    <path d="M63.9939 63.5255C63.4672 63.4985 63.4672 63.4985 63.3614 62.9979C63.3428 62.905 63.3261 62.8195 63.3 62.6895C63.6214 62.9124 63.8435 63.1874 64.1026 63.4187C64.1212 63.5097 64.0952 63.5561 63.9939 63.5255Z" fill="#EDD8CE"/>
    <path d="M55.5735 42.5096C55.537 42.5069 55.5006 42.5149 55.4687 42.5328C55.4368 42.5506 55.4109 42.5774 55.3942 42.6099C55.1609 42.447 54.9451 42.2602 54.7505 42.0526C54.7309 41.9597 54.769 41.9161 54.8675 41.9384C55.1316 42.0902 55.3698 42.2831 55.5735 42.5096Z" fill="#DAC6BD"/>
    <path d="M53.6581 38.887C53.5336 38.9343 53.372 38.8331 53.2754 38.9854C53.0283 38.952 52.8369 38.7996 52.6149 38.7012C52.9762 38.7114 53.3302 38.729 53.6581 38.887Z" fill="#C0B5AC"/>
    <path d="M27.3618 74.0676L28.0241 74.793C28.0205 74.8197 28.0083 74.8445 27.9894 74.8636C27.9705 74.8827 27.9458 74.8951 27.9191 74.8989C27.6637 74.6844 27.4872 74.4029 27.2791 74.1484C27.2383 74.0499 27.281 74.0388 27.3618 74.0676Z" fill="#A49F9B"/>
    <path d="M54.8675 41.9366L54.7505 42.0509L54.1188 41.5678C54.0975 41.4852 54.1132 41.4397 54.2117 41.475C54.4402 41.6124 54.6817 41.7416 54.8675 41.9366Z" fill="#C3B3AA"/>
    <path d="M27.9191 74.8969C27.9262 74.8718 27.9396 74.8489 27.958 74.8304C27.9763 74.8119 27.9991 74.7984 28.0241 74.791C28.1637 74.8964 28.2846 75.0245 28.3817 75.17C28.3474 75.2053 28.3139 75.2415 28.2805 75.2768C28.1379 75.1732 28.0155 75.0444 27.9191 74.8969Z" fill="#C3C2C0"/>
    <path d="M27.3618 74.0675L27.2791 74.1483C27.1184 73.9374 26.8704 73.7879 26.8147 73.498H26.81C27.0394 73.6378 27.2293 73.8338 27.3618 74.0675Z" fill="#807570"/>
    <path d="M53.841 41.3865L53.3357 41.0205C53.5912 40.9991 53.7556 41.1598 53.9367 41.2852C53.9349 41.3475 53.8828 41.3586 53.841 41.3865Z" fill="#7C6C65"/>
    <path d="M63.994 63.5258L64.1026 63.4189C64.2266 63.4713 64.3307 63.5617 64.3999 63.6772C64.2429 63.757 64.3599 63.9865 64.1909 64.0599C64.2513 63.8351 64.2243 63.6428 63.994 63.5258Z" fill="#CCBEB5"/>
    <path d="M53.8411 41.3864C53.8726 41.352 53.9042 41.3186 53.934 41.2852C54.0268 41.3474 54.1402 41.378 54.208 41.4784L54.1151 41.5712L53.8411 41.3864Z" fill="#A29189"/>
    <path d="M61.798 60.8155L61.9095 60.7227C61.9441 60.7465 61.9754 60.7749 62.0024 60.8072C62.0238 60.8406 62.0488 60.9001 62.034 60.9214C61.9885 60.9855 61.9309 60.9335 61.8863 60.9084C61.8521 60.8824 61.8223 60.851 61.798 60.8155Z" fill="#9D8A81"/>
    <path d="M28.1885 72.9524C28.2404 72.9354 28.2961 72.9339 28.3488 72.9483C28.4015 72.9627 28.4488 72.9922 28.4848 73.0332C28.4327 73.0475 28.3777 73.0475 28.3256 73.0333C28.2735 73.0191 28.2261 72.9912 28.1885 72.9524Z" fill="#DFA397"/>
    <path d="M64.8643 62.5771L64.9414 62.657C64.9311 62.657 64.9208 62.6549 64.9113 62.6509C64.9017 62.6469 64.8931 62.6409 64.8859 62.6335C64.8787 62.626 64.8731 62.6172 64.8694 62.6075C64.8657 62.5978 64.864 62.5875 64.8643 62.5771Z" fill="#EDD6CD"/>
    <path d="M65.3083 62.6736L65.2155 62.5918C65.2383 62.5916 65.2604 62.5999 65.2775 62.615C65.2946 62.63 65.3056 62.6509 65.3083 62.6736Z" fill="#EDD6CD"/>
    <path d="M64.9544 62.6699L65.0343 62.7507C65.0238 62.7507 65.0133 62.7486 65.0035 62.7446C64.9938 62.7405 64.9849 62.7345 64.9775 62.727C64.9701 62.7195 64.9642 62.7106 64.9603 62.7008C64.9563 62.691 64.9543 62.6805 64.9544 62.6699Z" fill="#EDD6CD"/>
    <path d="M65.0464 62.7627L65.1254 62.8416C65.1149 62.8418 65.1046 62.8398 65.095 62.8359C65.0854 62.832 65.0766 62.8262 65.0692 62.8188C65.0619 62.8114 65.0561 62.8027 65.0521 62.7931C65.0482 62.7834 65.0463 62.7731 65.0464 62.7627Z" fill="#EDD6CD"/>
    <path d="M26.8184 73.4978C26.8045 73.4913 26.7794 73.4829 26.7803 73.4792C26.7868 73.4485 26.7998 73.4569 26.8137 73.5015L26.8184 73.4978Z" fill="#807570"/>
    <path d="M28.4737 75.2603C28.4516 75.2578 28.4309 75.2481 28.4149 75.2326C28.399 75.2172 28.3886 75.1968 28.3854 75.1748C28.4075 75.1773 28.4282 75.187 28.4442 75.2024C28.4601 75.2179 28.4705 75.2383 28.4737 75.2603Z" fill="#C3C2C0"/>
    <path d="M43.0612 65.7311C43.0697 65.9227 43.0331 66.1136 42.9543 66.2884C42.7621 66.6656 42.3738 66.7194 42.084 66.4083C41.9438 66.2426 41.8479 66.0442 41.8053 65.8314C41.7124 65.4599 41.6269 65.0827 41.5173 64.7167C41.3492 64.1374 41.0619 63.5995 40.6739 63.1376C40.2001 62.5803 39.705 62.558 39.0604 63.0521C38.7975 63.2528 38.6507 63.55 38.5198 63.8473C38.1413 64.7263 37.9254 65.6667 37.8825 66.6228C37.8714 66.83 37.9411 67.0873 37.7181 67.2145C37.38 67.4087 37.0967 67.7403 36.6443 67.679C36.5214 67.6658 36.4038 67.6217 36.3025 67.5508C36.1919 67.4681 36.0619 67.3762 36.0879 67.222C36.1139 67.0678 36.2737 67.0845 36.3842 67.0436C36.5282 66.9897 36.6815 66.9628 36.8273 66.9136C36.9945 66.8569 37.1338 66.7882 37.0883 66.5541C37.0512 66.3683 36.9713 66.294 36.7799 66.3089C36.6877 66.3102 36.597 66.2858 36.518 66.2383C36.2997 66.1157 36.2765 65.9262 36.4474 65.7478C36.4839 65.6978 36.5334 65.6586 36.5904 65.6345C36.9899 65.5416 37.0224 65.2248 37.0679 64.896C37.1585 64.1915 37.379 63.51 37.7181 62.8859C37.898 62.544 38.1519 62.2464 38.4612 62.0149C38.7705 61.7833 39.1275 61.6236 39.5063 61.5473C39.7991 61.4713 40.1064 61.4699 40.3999 61.5433C40.6935 61.6166 40.9639 61.7624 41.1866 61.9672C42.1722 62.8441 42.8169 63.9244 43.0091 65.2481C43.0324 65.3958 43.0426 65.55 43.0612 65.7311Z" fill="#54433C"/>
    <path d="M41.7142 69.8923C42.5382 69.8291 43.181 70.3437 43.3426 71.0293C43.4494 71.4807 43.3101 71.8876 43.089 72.2601C42.3923 73.4342 40.8801 73.959 39.6001 73.4909C38.6359 73.1388 38.3925 72.1662 38.8885 71.3887C39.3846 70.6113 40.1472 70.2397 40.9925 69.9954C41.2386 69.9285 41.4932 69.8412 41.7142 69.8923Z" fill="#FFA1AF"/>
    <path d="M61.746 71.2813C61.3633 71.271 60.9815 71.2943 60.6007 71.1977C60.073 71.0648 59.6941 70.7704 59.5947 70.2372C59.5018 69.7198 59.7665 69.3083 60.1669 69.0055C60.7669 68.5577 61.4673 68.3227 62.1844 68.1304C62.7687 67.9735 63.2731 68.0756 63.7171 68.4908C63.8136 68.5671 63.9155 68.6363 64.0218 68.698C64.6386 69.129 64.7324 69.9056 64.2345 70.4629C63.7701 70.9859 63.1607 71.2135 62.4845 71.2803C62.243 71.3008 61.9922 71.2813 61.746 71.2813Z" fill="#FFA1AF"/>
    <path d="M57.0328 70.6778C56.9547 70.8124 56.9069 70.9623 56.8925 71.1172C56.4578 73.3883 55.0273 74.7334 52.8174 75.1514C51.6451 75.3724 50.4496 75.3659 49.3062 74.9656C48.4376 74.6618 47.5673 74.3293 46.8994 73.6466C46.7712 73.5146 46.6606 73.4608 46.5278 73.6326C46.4945 73.6762 46.4526 73.7125 46.4046 73.7392C46.3567 73.7659 46.3038 73.7824 46.2491 73.7877C46.0531 73.8063 45.9222 73.7376 45.8776 73.5332C45.7773 73.1004 46.2157 72.3842 46.6467 72.2978C46.8325 72.2616 47.0341 72.2504 47.1381 72.4492C47.231 72.6201 47.2421 72.8124 47.0656 72.9499C46.8892 73.0874 46.9467 73.1635 47.0889 73.2666C48.5751 74.3479 50.2007 74.8959 52.0669 74.6488C52.7543 74.5727 53.4239 74.3808 54.0473 74.0813C55.1341 73.5351 55.7834 72.6405 56.141 71.5064C56.1958 71.3308 56.22 71.145 56.2776 70.9704C56.3352 70.7957 56.3444 70.675 56.1122 70.5933C55.9153 70.5227 55.8995 70.322 56.0268 70.1288C56.3054 69.708 57.2613 69.5715 57.6635 70.0768C57.8911 70.362 57.7564 70.6676 57.3969 70.7038C57.275 70.7062 57.1531 70.6975 57.0328 70.6778Z" fill="#FA667C"/>
    <path d="M49.7325 67.6697C49.5173 67.6807 49.3019 67.6533 49.0962 67.5889C48.2444 67.2954 48.0001 66.4324 48.5881 65.7478C49.034 65.2276 49.6517 65.0511 50.2834 64.8867C50.7307 64.7598 51.21 64.8135 51.6182 65.0363C52.2684 65.3818 52.4941 66.0915 51.9396 66.7353C51.385 67.379 50.8853 67.6483 49.7325 67.6697Z" fill="#FFCEBA"/>
    <path d="M73.5997 61.0244C73.8394 61.0634 74.0827 61.1507 74.2314 61.396C74.3466 61.5818 74.2676 61.774 74.145 61.9078C73.6694 62.4271 73.6071 63.0968 73.4539 63.7331C73.361 64.1186 73.2997 64.5124 73.2133 64.8998C73.1763 65.0328 73.1288 65.1626 73.0712 65.2881C72.9736 65.5352 72.8092 65.7237 72.5315 65.7191C72.2537 65.7144 72.0438 65.5463 71.936 65.2816C71.8685 65.1436 71.8216 64.9965 71.7967 64.845C71.7038 63.7099 71.9063 62.6416 72.564 61.6923C72.677 61.5118 72.8284 61.3583 73.0074 61.2429C73.1864 61.1275 73.3886 61.0529 73.5997 61.0244Z" fill="#FFCEBA"/>
    <path d="M36.348 58.9558C36.3935 57.9869 36.7929 57.2011 37.6029 56.6577C37.9793 56.4078 38.4338 56.3037 38.8814 56.3647C39.329 56.4257 39.739 56.6478 40.0348 56.9893C40.2206 57.2048 40.3534 57.4454 40.3218 57.7435C40.2884 58.0575 40.1212 58.181 39.8165 58.1104C39.6096 58.0493 39.4124 57.9596 39.2304 57.8439C38.6229 57.5057 38.2643 57.5763 37.8166 58.1049C37.5865 58.3949 37.4081 58.7223 37.2889 59.0728C37.2205 59.2605 37.1414 59.4441 37.0521 59.6227C37.0227 59.6864 36.9736 59.7389 36.912 59.7724C36.8504 59.8059 36.7796 59.8185 36.7102 59.8085C36.5514 59.7899 36.4724 59.6868 36.4214 59.5465C36.3639 59.3551 36.3391 59.1554 36.348 58.9558Z" fill="#55433C"/>
    <path d="M28.2953 67.9634C28.2989 68.012 28.2989 68.0607 28.2953 68.1093C28.2582 68.4316 28.117 68.518 27.8383 68.3619C27.5571 68.2056 27.2989 68.0112 27.071 67.7841C26.6688 67.3819 26.2675 66.9788 25.8635 66.5766C25.6517 66.3666 25.4306 66.2143 25.0943 66.2654C24.8454 66.3044 24.6875 66.0685 24.7404 65.8093C24.8333 65.3393 25.3396 65.0523 25.8551 65.2074C26.5489 65.4229 27.1619 65.842 27.6144 66.4103C27.7603 66.5859 27.8829 66.7819 28.0157 66.9676C28.2204 67.2576 28.3192 67.6092 28.2953 67.9634Z" fill="#FFCEBA"/>
    <path d="M40.1351 72.2284C40.1351 71.9356 40.2154 71.6483 40.3673 71.398C40.4602 71.2429 40.5931 71.1398 40.7872 71.1946C41.0036 71.2559 41.0027 71.4379 40.973 71.607C40.9232 71.8939 40.814 72.1672 40.6525 72.4095C40.5671 72.5424 40.4584 72.6808 40.2865 72.6241C40.1147 72.5675 40.1351 72.3798 40.1351 72.2284Z" fill="#FFFDFD"/>
    <path d="M41.0742 71.7266C41.0893 71.5462 41.1536 71.3733 41.26 71.2269C41.289 71.1818 41.3318 71.1472 41.382 71.1283C41.4322 71.1094 41.4871 71.1072 41.5387 71.1219C41.5905 71.1375 41.6355 71.1701 41.6665 71.2144C41.6976 71.2587 41.7127 71.3122 41.7096 71.3662C41.7161 71.6597 41.5721 71.892 41.391 72.1019C41.3157 72.1892 41.2294 72.1521 41.1588 72.074C41.0882 71.996 41.064 71.8873 41.0742 71.7266Z" fill="#FFFBFB"/>
    <path d="M61.5138 69.8003C61.5305 69.5664 61.5977 69.3388 61.7107 69.1334C61.7248 69.0972 61.7463 69.0645 61.7738 69.0371C61.8013 69.0098 61.8342 68.9885 61.8704 68.9746C61.9066 68.9607 61.9453 68.9545 61.984 68.9564C62.0227 68.9583 62.0606 68.9683 62.0953 68.9857C62.2504 69.0498 62.2588 69.1798 62.216 69.3312C62.1653 69.554 62.087 69.7696 61.9829 69.9731C61.9179 70.0845 61.8454 70.1867 61.6996 70.1589C61.5268 70.118 61.5175 69.9731 61.5138 69.8003Z" fill="#FFF9FA"/>
    <path d="M62.3414 69.4161C62.3414 69.1969 62.4232 69.0445 62.6628 69.0678C62.883 69.0873 62.9127 69.2628 62.9136 69.4393C62.9188 69.5013 62.9163 69.5637 62.9062 69.6251C62.8616 69.8025 62.8291 70.0394 62.6127 70.0376C62.3962 70.0357 62.334 69.8304 62.3405 69.626C62.3195 69.595 62.3083 69.5584 62.3085 69.5209C62.3086 69.4835 62.3201 69.4469 62.3414 69.4161Z" fill="#FFFDFD"/>
    <path d="M62.3414 69.417C62.3414 69.4876 62.3414 69.5582 62.3414 69.6288C62.3232 69.6178 62.308 69.6023 62.2975 69.5837C62.287 69.5652 62.2815 69.5442 62.2815 69.5229C62.2815 69.5016 62.287 69.4806 62.2975 69.4621C62.308 69.4435 62.3232 69.428 62.3414 69.417Z" fill="#FFF9FA"/>
  </g>
</svg>
