<svg width="64" height="64" viewBox="0 0 64 64" fill="none" xmlns="http://www.w3.org/2000/svg">
  <path fill-rule="evenodd" clip-rule="evenodd" d="M22.2919 62.625H7.4436V22.4428L22.2919 16.0957V62.625Z" fill="#909CD1"/>
  <path fill-rule="evenodd" clip-rule="evenodd" d="M22.2918 62.625H19.259V17.3921L22.2918 16.0957V62.625Z" fill="#7986BF"/>
  <path fill-rule="evenodd" clip-rule="evenodd" d="M49.2703 62.625H20.7522V7.47038L35.0113 1.375L49.2703 7.47038V62.625Z" fill="#AEAED6"/>
  <path fill-rule="evenodd" clip-rule="evenodd" d="M35.0113 62.625H20.7522V7.47038L35.0113 1.375V62.625Z" fill="#D1D1F0"/>
  <path fill-rule="evenodd" clip-rule="evenodd" d="M29.0758 40.3113V34.7773L32.1128 34.3082V40.0202L29.0758 40.3113ZM29.0758 31.5913V26.0617L32.1128 25.3123V31.0197L29.0758 31.5913ZM29.0758 22.8757V17.3418L32.1128 16.312V22.024L29.0758 22.8758V22.8757ZM29.0758 14.1601L29.075 8.9772L32.1128 7.67383V13.028L29.0758 14.1601ZM23.6507 40.8277V35.62L26.3458 35.2043V40.5697L23.6507 40.8277ZM23.6507 32.6168V27.3966L26.3468 26.7321V32.1103L23.6507 32.617V32.6168ZM23.6507 24.4017V19.1815L26.3468 18.2683V23.6466L23.6507 24.4017ZM23.6507 16.1785V11.3016L26.3476 10.1456L26.3468 15.1786L23.6507 16.1785ZM15.0533 49.0162V44.3752L17.5797 44.1282V49.0161H15.0533V49.0162ZM15.0533 41.7698V37.2477L17.5797 36.7263V41.4217L15.0533 41.7698ZM15.0533 34.6422V30.1173L17.5797 29.319V34.0198L15.0533 34.6422ZM15.0526 27.5146V23.2771L17.5797 22.2062V26.6151L15.0526 27.5146ZM10.616 49.0161V44.8096L12.8088 44.5955L12.8083 49.0161H10.616ZM10.616 42.3806V38.1581L12.8096 37.7076V42.0803L10.616 42.3807V42.3806ZM10.616 35.7371V31.5145L12.8096 30.8248V35.1976L10.616 35.7371ZM10.616 29.0882V25.1445L12.811 24.22L12.8103 28.3123L10.616 29.0882Z" fill="#F3F3FF"/>
  <path fill-rule="evenodd" clip-rule="evenodd" d="M55.3376 43.2674V62.6266H29.4786V43.2674H25.0678C24.6471 43.2674 24.2919 42.9916 24.1876 42.5841C24.0833 42.1768 24.2624 41.7641 24.6313 41.562L41.2665 32.4475C41.999 32.0461 42.8176 32.0461 43.5501 32.4475L60.1853 41.562C60.5541 41.764 60.7331 42.1766 60.6289 42.5841C60.5246 42.9916 60.1693 43.2674 59.7486 43.2674H55.3378H55.3376Z" fill="#D19458"/>
  <path fill-rule="evenodd" clip-rule="evenodd" d="M53.3641 62.6265H29.4786V43.2672H25.0678C24.6473 43.2672 24.2919 42.9915 24.1876 42.5841C24.0833 42.1766 24.2624 41.764 24.6313 41.562L40.9693 32.6104L57.3073 41.562C57.6761 41.764 57.8551 42.1766 57.7509 42.5841C57.6466 42.9915 57.2913 43.2672 56.8706 43.2672H53.3643V62.6265H53.3641Z" fill="#E6B17C"/>
  <path d="M32.8513 47.9016H39.3029V59.0788H32.8513V47.9016ZM43.8508 43.2676H51.9652V46.8952H43.8508V43.2676Z" fill="#F3F3FF"/>
  <path fill-rule="evenodd" clip-rule="evenodd" d="M41.514 40.8098C42.8359 40.8098 43.914 39.7316 43.914 38.4098C43.914 37.0879 42.8359 36.0098 41.514 36.0098C40.1921 36.0098 39.114 37.0879 39.114 38.4098C39.114 39.7316 40.1921 40.8098 41.514 40.8098Z" fill="#D19458"/>
  <path d="M44.7184 38.7947C44.9246 37.5143 44.0539 36.3091 42.7735 36.1029C41.4931 35.8967 40.2879 36.7674 40.0817 38.0478C39.8754 39.3282 40.7462 40.5334 42.0266 40.7396C43.307 40.9459 44.5122 40.0751 44.7184 38.7947Z" fill="#F3F3FF"/>
  <path d="M43.0043 43.2676H43.8508V46.8952H43.0043V43.2676ZM31.5518 47.9016H32.8512V59.0788H31.5518V47.9016ZM3.34595 59.0788H59.5312V62.625H3.34595V59.0788Z" fill="#D19458"/>
  <path d="M3.34595 61.0615H59.5312V62.6246H3.34595V61.0615Z" fill="#BA8047"/>
  <path fill-rule="evenodd" clip-rule="evenodd" d="M51.2158 46.1449H48.656V44.0174H51.2158V46.1449ZM44.6022 44.0174H47.1561V46.1449H44.6022V44.0174ZM51.9627 42.5177H43.8492C43.4336 42.5177 43.0963 42.8538 43.0963 43.2676V46.8948C43.0963 47.3098 43.4337 47.6453 43.8492 47.6453H51.9627C52.3783 47.6453 52.7156 47.3098 52.7156 46.8948V43.2676C52.7156 42.8538 52.3782 42.5177 51.9627 42.5177ZM42.4097 40.0089C41.5242 40.0089 40.8075 39.2927 40.8075 38.4116C40.8075 37.5304 41.5242 36.8123 42.4097 36.8123C43.2891 36.8123 44.0058 37.5303 44.0058 38.4116C44.0058 39.2928 43.2891 40.0089 42.4097 40.0089ZM45.5057 38.4116C45.5057 36.7027 44.1143 35.3126 42.4097 35.3126C40.7051 35.3126 39.3077 36.7027 39.3077 38.4116C39.3077 40.1204 40.6991 41.5088 42.4097 41.5088C44.1203 41.5088 45.5057 40.1186 45.5057 38.4116ZM59.8955 42.3991C59.9196 42.3238 59.8895 42.2587 59.8232 42.2213L43.1867 33.1073C42.6747 32.8273 42.1386 32.8273 41.6267 33.1073L24.9902 42.2213C24.924 42.2587 24.8938 42.3237 24.9118 42.3991C24.936 42.4749 24.9902 42.5177 25.0685 42.5177H29.4776C29.8932 42.5177 30.2306 42.8538 30.2306 43.2676V58.3277H32.0978V48.6512H31.9171C31.5015 48.6512 31.1642 48.3163 31.1642 47.9013C31.1642 47.4863 31.5016 47.1514 31.9171 47.1514H40.2353C40.651 47.1514 40.9882 47.4876 40.9882 47.9013C40.9882 48.3151 40.6508 48.6512 40.2353 48.6512H40.0546V58.3277H54.5828V43.2676C54.5828 42.8538 54.9202 42.5177 55.3358 42.5177H59.745C59.8232 42.5177 59.8775 42.4749 59.8956 42.3991H59.8955ZM38.5547 48.6513V58.3278H33.5975V48.6513H38.5547ZM58.7751 61.8749H4.09521V59.8276H58.7752L58.7751 61.8749ZM8.19108 22.9382L20.0028 17.8901V58.3278H8.19108V22.9382ZM24.4 40.0012V36.2624L25.5926 36.0788V39.8873L24.4 40.0012ZM31.363 37.0214L29.827 37.8629V35.4204L31.363 35.1826V37.0214ZM34.2601 2.51118V35.4324L32.8627 36.1992V34.3079C32.8627 34.1995 32.839 34.0923 32.7933 33.994C32.7475 33.8956 32.6807 33.8085 32.5977 33.7387C32.4351 33.5959 32.2122 33.5339 31.9953 33.5664L28.9596 34.0357C28.5922 34.0923 28.3271 34.4073 28.3271 34.7778V38.6852L27.0923 39.3592V35.2043C27.0923 34.9851 27.002 34.7767 26.8333 34.6339C26.6647 34.4931 26.4478 34.4292 26.231 34.4629L23.5325 34.8779C23.3562 34.9064 23.1958 34.9966 23.0799 35.1324C22.964 35.2682 22.9002 35.4409 22.9 35.6194V40.8278C22.9002 40.9324 22.9223 41.0358 22.9648 41.1313C23.0073 41.2268 23.0694 41.3124 23.147 41.3826C23.2735 41.4988 23.4361 41.5644 23.6107 41.5741C23.4133 41.9406 23.3596 42.3675 23.4601 42.7714C23.6468 43.5051 24.3093 44.0177 25.0683 44.0177H28.7305V58.3279H21.5025V7.96531L34.2598 2.51118H34.2601ZM48.5173 34.3181L43.9095 31.7918C42.9517 31.2691 41.8616 31.2691 40.9038 31.7918L35.7598 34.6113V2.51118L48.5173 7.96531V34.3181ZM60.54 40.9052L50.0171 35.1403V7.47018C50.0167 7.32381 49.9739 7.1807 49.8936 7.05827C49.8134 6.93583 49.6994 6.83935 49.5653 6.78056L35.3022 0.685557C35.21 0.64561 35.1106 0.625 35.0101 0.625C34.9096 0.625 34.8102 0.64561 34.718 0.685557L20.4547 6.78056C20.1776 6.89856 20.003 7.17018 20.003 7.47018V16.2588L7.14908 21.7533C7.01357 21.8107 6.89793 21.9067 6.81654 22.0293C6.73516 22.1519 6.69161 22.2958 6.69133 22.4429V58.3278H3.34233C2.93271 58.3278 2.59546 58.6639 2.59546 59.0777V62.6254C2.59546 63.0386 2.93271 63.3753 3.34233 63.3753H59.5281C59.9437 63.3753 60.281 63.0386 60.281 62.6254V59.0777C60.281 58.6639 59.9437 58.3278 59.5281 58.3278H56.0827V44.0176H59.745C60.504 44.0176 61.1665 43.5049 61.3532 42.7713C61.4448 42.4141 61.4145 42.0366 61.2672 41.6986C61.1199 41.3606 60.864 41.0814 60.5401 40.9053L60.54 40.9052ZM12.0581 27.7816V25.3493L11.3655 25.6421V28.0273L12.0581 27.7816ZM13.2266 23.5947C13.1226 23.5262 13.0034 23.4843 12.8795 23.4728C12.7555 23.4612 12.6306 23.4803 12.5158 23.5284L10.3233 24.4529C10.1877 24.5105 10.0719 24.6067 9.99053 24.7295C9.90914 24.8524 9.86568 24.9964 9.86558 25.1438V29.0879C9.86558 29.3313 9.98608 29.5596 10.1788 29.6999C10.3113 29.7909 10.462 29.8379 10.6126 29.8379C10.6968 29.8379 10.7812 29.8241 10.8656 29.7952L13.0581 29.0194C13.2044 28.9679 13.3312 28.8722 13.4207 28.7455C13.5103 28.6188 13.5583 28.4675 13.5581 28.3123V24.2201C13.5579 24.0968 13.5276 23.9754 13.4699 23.8664C13.4122 23.7575 13.3287 23.6642 13.2268 23.5948L13.2266 23.5947ZM12.0581 34.6089V31.8467L11.3655 32.0647V34.7799L12.0581 34.6089ZM13.2507 30.2197C13.1558 30.15 13.0458 30.1037 12.9296 30.0845C12.8135 30.0652 12.6944 30.0735 12.5821 30.1088L10.3896 30.7984C10.2373 30.8462 10.1043 30.9414 10.01 31.0702C9.91573 31.1989 9.86507 31.3545 9.86546 31.5141V35.7364C9.86546 35.9677 9.96783 36.1852 10.1546 36.3273C10.2436 36.3971 10.3474 36.4457 10.458 36.4695C10.5685 36.4933 10.6831 36.4917 10.793 36.4647L12.9855 35.9251C13.1486 35.8856 13.2938 35.7923 13.3976 35.6604C13.5014 35.5284 13.5578 35.3653 13.5577 35.1974V30.8244C13.5576 30.7066 13.5297 30.5904 13.4763 30.4854C13.4229 30.3803 13.3456 30.2893 13.2505 30.2197H13.2507ZM12.0581 48.2662V45.4214L11.3655 45.4901V48.2662H12.0581ZM12.7327 43.8487L10.5402 44.0624C10.1607 44.0998 9.86558 44.4238 9.86558 44.8087V49.0161C9.86558 49.4299 10.203 49.7659 10.6126 49.7659H12.8051C13.2207 49.7659 13.558 49.4298 13.558 49.0161V44.5949C13.5579 44.4903 13.5358 44.3869 13.4933 44.2914C13.4508 44.1958 13.3886 44.1102 13.311 44.0402C13.2334 43.9695 13.1418 43.916 13.0422 43.883C12.9426 43.85 12.8371 43.8383 12.7327 43.8487ZM16.8286 40.7678V37.6466L15.8046 37.8573V40.9087L16.8286 40.7678ZM18.0513 36.1437C17.9646 36.0738 17.8634 36.0238 17.7552 35.9975C17.6469 35.9712 17.5341 35.969 17.425 35.9913L14.9012 36.5123C14.7323 36.5474 14.5806 36.6398 14.472 36.7738C14.3633 36.9078 14.3043 37.0753 14.305 37.2478V41.7689C14.305 41.9864 14.3953 42.1924 14.558 42.3352C14.6951 42.4539 14.8705 42.5191 15.0518 42.5188C15.088 42.5188 15.1181 42.5176 15.1542 42.5128L17.678 42.1641C17.8579 42.14 18.023 42.0515 18.1427 41.9149C18.2623 41.7783 18.3283 41.603 18.3285 41.4214V36.7262C18.3283 36.6146 18.3034 36.5045 18.2554 36.4038C18.2075 36.303 18.1378 36.2142 18.0513 36.1437ZM16.8286 48.2663V44.9553L15.8046 45.0553V48.2663H16.8286ZM17.5032 43.3814L14.9795 43.6289C14.7942 43.6467 14.6223 43.7332 14.4974 43.8712C14.3726 44.0093 14.3039 44.1891 14.3048 44.3752V49.0162C14.3048 49.4301 14.6361 49.7661 15.0517 49.7661H17.5755C17.9911 49.7661 18.3283 49.4299 18.3283 49.0162V44.1277C18.3283 43.9163 18.238 43.7139 18.0813 43.5723C18.0035 43.5021 17.9118 43.4489 17.8123 43.416C17.7127 43.3831 17.6074 43.3713 17.5031 43.3813L17.5032 43.3814ZM16.8286 26.0859V23.3381L15.7986 23.7736V26.4509L16.8286 26.0859ZM17.9911 21.5804C17.7802 21.4419 17.5152 21.4172 17.2863 21.5154L14.7565 22.5864C14.6208 22.6439 14.5051 22.7399 14.4237 22.8627C14.3423 22.9854 14.2988 23.1294 14.2987 23.2767V27.5141C14.2987 27.7581 14.4192 27.9869 14.618 28.1273C14.7446 28.2174 14.8963 28.2654 15.0517 28.2647C15.1361 28.2647 15.2203 28.2502 15.3047 28.2207L17.8285 27.3214C17.9747 27.27 18.1014 27.1744 18.191 27.0478C18.2805 26.9212 18.3286 26.77 18.3285 26.6149V22.2058C18.3284 22.0818 18.2976 21.9597 18.2387 21.8506C18.1798 21.7415 18.0947 21.6487 17.9911 21.5806V21.5804ZM16.8286 33.4319V30.3419L15.8046 30.6659V33.6843L16.8286 33.4319ZM18.0212 28.7133C17.9262 28.6438 17.8162 28.5975 17.7001 28.5784C17.5839 28.5592 17.4649 28.5677 17.3526 28.6031L14.8227 29.4018C14.5156 29.4999 14.3047 29.7897 14.3047 30.1168V34.6416C14.3047 34.8728 14.4071 35.0903 14.5878 35.2324C14.7202 35.3361 14.8836 35.3922 15.0517 35.3914C15.112 35.3914 15.1722 35.3848 15.2325 35.3698L17.7562 34.7476C17.9194 34.7079 18.0646 34.6146 18.1684 34.4825C18.2722 34.3504 18.3285 34.1873 18.3285 34.0193V29.3187C18.3285 29.0796 18.214 28.8549 18.0212 28.7133ZM12.0581 41.4249V38.6264L11.3655 38.7686V41.5201L12.0581 41.4249ZM13.2808 37.1261C13.1943 37.0557 13.0932 37.0054 12.9849 36.9788C12.8766 36.9523 12.7637 36.9501 12.6545 36.9724L10.462 37.4224C10.293 37.4575 10.1413 37.5498 10.0327 37.6839C9.92398 37.8179 9.86496 37.9854 9.86558 38.1579V42.3803C9.86558 42.5966 9.95596 42.8026 10.1246 42.9453C10.2587 43.0652 10.4326 43.1311 10.6125 43.1302C10.6486 43.1302 10.6847 43.1278 10.7148 43.1236L12.9073 42.8224C13.0873 42.7986 13.2525 42.7102 13.3721 42.5737C13.4918 42.4372 13.5578 42.2618 13.5578 42.0803V37.7073C13.5577 37.5959 13.5327 37.486 13.4848 37.3855C13.4368 37.2849 13.3673 37.1963 13.2808 37.1261ZM24.4 27.9832V31.7122L25.5986 31.4876V27.6887L24.4 27.9832ZM23.1712 33.1933C23.086 33.1234 23.0174 33.0353 22.9705 32.9354C22.9236 32.8356 22.8996 32.7266 22.9002 32.6163V27.3959C22.9001 27.228 22.9565 27.0648 23.0603 26.9328C23.1641 26.8007 23.3092 26.7073 23.4725 26.6677L26.165 26.0033C26.3878 25.9486 26.6287 25.9984 26.8095 26.1412C26.8992 26.2113 26.9718 26.3008 27.0219 26.4031C27.072 26.5053 27.0982 26.6176 27.0986 26.7314V32.1091C27.0983 32.2843 27.0367 32.4539 26.9245 32.5886C26.8123 32.7232 26.6565 32.8144 26.4842 32.8463L23.7857 33.3528C23.7401 33.362 23.6937 33.3664 23.6472 33.3661C23.4786 33.3661 23.3038 33.3058 23.1713 33.1932L23.1712 33.1933ZM24.4 19.7184V23.4119L25.5986 23.0771V19.3131L24.4 19.7184ZM23.1952 24.9986C23.3251 25.0974 23.4838 25.151 23.647 25.1509C23.7192 25.1509 23.7855 25.1419 23.8517 25.1233L26.5502 24.3679C26.8695 24.2771 27.0983 23.9824 27.0983 23.6457V18.2674C27.0983 18.0259 26.9778 17.7988 26.7791 17.6579C26.6828 17.5885 26.5714 17.5432 26.454 17.5257C26.3366 17.5082 26.2168 17.519 26.1045 17.5573L23.406 18.4704C23.2582 18.5214 23.13 18.6172 23.0393 18.7445C22.9486 18.8718 22.8999 19.0243 22.9 19.1806V24.4009C22.9 24.6358 23.0083 24.8563 23.1951 24.9984L23.1952 24.9986ZM31.3628 30.3973V26.2689L29.8268 26.6484V30.6864L31.3628 30.3973ZM32.5736 24.7209C32.4836 24.6506 32.3788 24.6017 32.2672 24.5779C32.1555 24.5541 32.0399 24.5561 31.9291 24.5836L28.8933 25.3328C28.5621 25.4153 28.3271 25.7159 28.3271 26.0611V31.5904C28.3271 31.8139 28.4235 32.0253 28.5981 32.1681C28.7313 32.2799 28.9 32.341 29.074 32.3403C29.1222 32.3403 29.1643 32.3361 29.2125 32.3277L32.2482 31.7561C32.6036 31.6892 32.8626 31.3797 32.8626 31.0188V25.3117C32.8626 25.0811 32.7542 24.8629 32.5735 24.7208L32.5736 24.7209ZM31.3628 21.4544V17.3573L29.8268 17.8783V21.8857L31.3628 21.4544ZM32.5495 15.7016C32.452 15.6322 32.3396 15.5869 32.2212 15.5694C32.1029 15.5519 31.9822 15.5627 31.8688 15.6009L28.8331 16.6309C28.6854 16.682 28.5573 16.7778 28.4666 16.9051C28.3759 17.0324 28.3271 17.1848 28.3271 17.3411V22.8753C28.3269 22.9909 28.3534 23.105 28.4046 23.2086C28.4558 23.3123 28.5303 23.4027 28.6222 23.4728C28.7521 23.5717 28.9108 23.6252 29.074 23.6252C29.1402 23.6252 29.2125 23.6156 29.2787 23.5969L32.3145 22.7453C32.4722 22.7014 32.6112 22.6069 32.7102 22.4765C32.8092 22.3461 32.8627 22.1868 32.8626 22.0231V16.3112C32.8626 16.0697 32.7421 15.8426 32.5493 15.7017L32.5495 15.7016ZM31.3628 8.81081L29.8208 9.47093L29.8268 13.0796L31.3628 12.5062V8.81081ZM28.6463 14.7752C28.7718 14.8626 28.921 14.9095 29.074 14.9096C29.1625 14.9103 29.2503 14.8943 29.333 14.8626L32.3747 13.7302C32.6638 13.6206 32.8626 13.3404 32.8626 13.0273V7.67318C32.8626 7.5491 32.8318 7.42696 32.773 7.31773C32.7141 7.20851 32.629 7.11562 32.5253 7.04743C32.4213 6.97894 32.302 6.93731 32.1779 6.92627C32.0539 6.91524 31.929 6.93513 31.8146 6.98418L28.7788 8.28756C28.6434 8.34492 28.5278 8.44081 28.4465 8.5633C28.3651 8.68579 28.3215 8.8295 28.3211 8.97656L28.3271 14.1597C28.3271 14.4054 28.4416 14.6354 28.6463 14.7752ZM24.3998 11.7954V15.0998L25.5985 14.6559V11.2823L24.3998 11.7954ZM23.2192 16.7936C23.3447 16.881 23.4939 16.9279 23.6468 16.9279C23.7372 16.9279 23.8276 16.9123 23.9118 16.8809L26.6042 15.8811C26.8993 15.7721 27.0981 15.4914 27.0981 15.1782V10.1451C27.0981 10.0209 27.0673 9.89861 27.0084 9.78926C26.9495 9.67991 26.8644 9.58689 26.7607 9.51856C26.6566 9.45021 26.5373 9.40867 26.4133 9.39763C26.2893 9.3866 26.1645 9.40641 26.05 9.45531L23.3515 10.6112C23.2175 10.6701 23.1035 10.7666 23.0233 10.889C22.9431 11.0114 22.9002 11.1545 22.8997 11.3008V16.1773C22.8997 16.4231 23.0202 16.6532 23.219 16.7934L23.2192 16.7936Z" fill="black"/>
</svg>
