<svg xmlns="http://www.w3.org/2000/svg" viewBox="0 0 626.89 550"><defs><style>.cls-1{fill:#cfcfcf;}.cls-2,.cls-6{fill:none;}.cls-2,.cls-5,.cls-6{stroke:#bababa;stroke-linecap:round;stroke-linejoin:round;}.cls-2,.cls-5{stroke-width:5.32px;}.cls-3{fill:#f2f2f2;}.cls-4{fill:#d2d2d2;}.cls-5{fill:#fff;}.cls-6{stroke-width:3.61px;}.cls-7{fill:#bababa;}</style></defs><g id="Layer_2" data-name="Layer 2"><g id="Object"><path class="cls-1" d="M313.46,433.75a5.21,5.21,0,1,0-5.2-5.21A5.21,5.21,0,0,0,313.46,433.75Z"/><path class="cls-2" d="M162.13,41.57V64.42"/><path class="cls-2" d="M150.65,53h22.91"/><path class="cls-3" d="M422.33,185.73c-44.49,0-89.78-1.81-132.15-13.61-41.57-11.54-79.73-33.92-113.75-59.8C154.16,95.47,133.91,82,105,84a132.36,132.36,0,0,0-77.18,30.14C-9,146.39-3.45,206.08,11.28,247.86c22.11,63.1,89.4,107.06,146.6,135.5,66.07,33,138.68,52.2,211.45,63.2,63.79,9.73,145.75,16.74,201-24.88C621.13,383.36,635.06,296,622.62,237a72.59,72.59,0,0,0-26.1-44.23c-35.67-26.1-88.88-8.66-129-7.81C452.68,185.25,437.53,185.62,422.33,185.73Z"/><path class="cls-1" d="M350.35,10.42a5.21,5.21,0,1,0-5.2-5.21A5.21,5.21,0,0,0,350.35,10.42Z"/><path class="cls-2" d="M79.69,416.05v22.86"/><path class="cls-2" d="M68.26,427.48H91.11"/><path class="cls-3" d="M315.59,550c107.77,0,195.13-5.45,195.13-12.17s-87.36-12.18-195.13-12.18-195.13,5.45-195.13,12.18S207.82,550,315.59,550Z"/><path class="cls-4" d="M472.45,407.44H135.39A15.58,15.58,0,0,1,120,389.36L163.14,128a15.47,15.47,0,0,1,15.31-13H515.51A15.53,15.53,0,0,1,530.82,133l-42.9,261.41a15.52,15.52,0,0,1-15.47,13Z"/><path class="cls-5" d="M476.6,108.09,276.53,18.76a11.68,11.68,0,0,0-15.44,5.91l-63.41,142a11.69,11.69,0,0,0,5.91,15.44l200.07,89.33a11.69,11.69,0,0,0,15.45-5.91l63.4-142A11.68,11.68,0,0,0,476.6,108.09Z"/><path class="cls-6" d="M305.86,135.6A39.33,39.33,0,0,1,376.29,167"/><path class="cls-7" d="M401.54,127.57a5.48,5.48,0,1,0-5.47-5.47A5.47,5.47,0,0,0,401.54,127.57Z"/><path class="cls-7" d="M322.24,92.17a5.48,5.48,0,1,0-5.48-5.47A5.47,5.47,0,0,0,322.24,92.17Z"/><path class="cls-5" d="M471,407.33H132.26a15.57,15.57,0,0,1-15.52-15.57V152.93a15.59,15.59,0,0,1,15.52-16H255.63a15.55,15.55,0,0,1,13.82,8.51l17.6,34.44a15.55,15.55,0,0,0,13.82,8.51H471A15.52,15.52,0,0,1,486.49,204v187.8A15.59,15.59,0,0,1,471,407.33Z"/><path class="cls-5" d="M418.82,196.57a98.93,98.93,0,1,0,69.91,29A98.92,98.92,0,0,0,418.82,196.57Z"/><path class="cls-2" d="M489.2,367.25l26.36,26.37"/><path class="cls-4" d="M512.58,380.81l-8.19,8.57a9.62,9.62,0,0,0,.31,13.6l71.08,67.95a9.61,9.61,0,0,0,13.6-.31l8.2-8.57a9.62,9.62,0,0,0-.31-13.6L526.19,380.5A9.63,9.63,0,0,0,512.58,380.81Z"/><path class="cls-2" d="M565.21,5.21V28.12"/><path class="cls-2" d="M553.73,16.69h22.91"/></g></g></svg>