<svg width="101" height="100" viewBox="0 0 101 100" fill="none" xmlns="http://www.w3.org/2000/svg">
  <path d="M50.5 100C78.1142 100 100.5 77.6142 100.5 50C100.5 22.3858 78.1142 0 50.5 0C22.8858 0 0.5 22.3858 0.5 50C0.5 77.6142 22.8858 100 50.5 100Z" fill="#ECCFD7"/>
  <mask id="mask0_3005_2917" style="mask-type:luminance" maskUnits="userSpaceOnUse" x="0" y="0" width="101" height="100">
    <path d="M50.5 100C78.1142 100 100.5 77.6142 100.5 50C100.5 22.3858 78.1142 0 50.5 0C22.8858 0 0.5 22.3858 0.5 50C0.5 77.6142 22.8858 100 50.5 100Z" fill="white"/>
  </mask>
  <g mask="url(#mask0_3005_2917)">
    <path d="M28.8485 60.3516C28.6135 59.4117 28.3831 58.4701 28.2035 57.5155C27.8613 55.6683 27.6223 53.8035 27.4875 51.9298C27.4156 50.9162 27.3429 49.8944 27.3401 48.8725C27.3401 47.7005 27.4626 46.5377 27.588 45.3711C27.9058 42.4641 28.6255 39.65 29.6565 36.918C30.5697 34.4633 31.9047 32.187 33.6011 30.1916C33.9485 29.7862 34.3042 29.3872 34.6792 28.9579C34.361 28.7224 33.9679 28.611 33.5735 28.6446C33.4256 28.6625 33.2765 28.6689 33.1275 28.6639C32.63 28.6123 32.3729 28.1839 32.5516 27.7158C32.592 27.6112 32.6449 27.5118 32.7092 27.42C33.485 26.3143 34.5355 25.7614 35.901 25.872C36.2558 25.9006 36.2493 25.8997 36.4004 25.5606C37.0483 24.1087 38.0774 22.8595 39.3785 21.9458C39.598 21.7814 39.8405 21.6501 40.0981 21.5561C40.7624 21.3276 41.3208 21.7035 41.3365 22.4029C41.3429 22.6876 41.3015 22.9732 41.283 23.2589C41.2729 23.4045 41.2296 23.55 41.2738 23.6947C41.366 23.715 41.4212 23.6643 41.4867 23.6311C42.9993 22.8696 44.6102 22.3217 46.2735 22.003C46.8358 21.8956 47.4052 21.8291 47.9772 21.8039C49.4616 21.7394 50.9358 21.8731 52.4129 21.9882C54.1083 22.1218 55.7567 22.5005 57.3839 22.9613C59.1789 23.469 60.8697 24.2144 62.3228 25.4242C62.8581 25.8702 63.4054 26.3023 63.9472 26.74C64.0541 26.8266 64.161 26.9123 64.2716 26.9925C64.4936 27.1528 64.4982 27.1537 64.6853 26.9418C64.9447 26.6381 65.2632 26.3904 65.6215 26.2139C66.1411 25.9642 66.5724 26.1051 66.8442 26.6165C67.0936 27.0808 67.1933 27.6109 67.1298 28.1341C67.1106 28.211 67.1201 28.2923 67.1563 28.3628C67.1926 28.4333 67.2533 28.4883 67.327 28.5174C67.6801 28.7032 68.0014 28.9439 68.2788 29.2306C68.4395 29.3873 68.5722 29.5702 68.6714 29.7715C68.8676 30.2045 68.7736 30.6072 68.4041 30.9057C68.3572 30.9444 68.3046 30.9776 68.2438 31.0209C68.3496 31.1286 68.4746 31.2155 68.6124 31.2771C70.8137 32.5035 72.3414 34.3242 73.4038 36.5928C74.3538 38.6309 75.1241 40.7235 75.5654 42.9321C75.8335 44.2881 75.9641 45.6677 75.9552 47.05C75.9427 49.6653 75.6304 52.2706 75.0246 54.8148C74.6356 56.4253 74.0679 57.9873 73.3319 59.4716C73.261 59.6163 73.2001 59.7656 73.1347 59.913C73.0914 60.0715 72.9901 60.1222 72.8288 60.0973C71.9553 59.9563 71.3002 60.3387 70.7013 60.9339C70.212 61.4214 69.8222 61.9798 69.4113 62.5271C69.3385 62.6238 69.2758 62.7694 69.1348 62.7399C68.9763 62.7077 68.9598 62.5455 68.9386 62.411C68.7211 61.0224 68.5009 59.6338 68.1922 58.2646C67.9434 57.1589 67.6725 56.0596 67.4468 54.9475C67.3933 54.6876 67.2948 54.5577 66.9935 54.6093C66.4747 54.7014 66.0425 54.5033 65.686 54.1246C64.8217 53.2032 64.0993 52.1767 63.3621 51.1604C63.2009 50.9393 63.1207 50.8315 62.8858 51.1042C62.6204 51.412 62.2233 51.552 61.827 51.611C61.4004 51.6746 61.0899 51.4534 60.8651 51.0996C60.6872 50.813 60.5785 50.4924 60.4385 50.1874C59.834 48.8744 59.1291 47.6157 58.4417 46.3469C57.6364 44.8579 56.8339 43.368 55.9097 41.9481C55.4748 41.28 55.0168 40.6286 54.6197 39.9338C54.5544 39.8427 54.4997 39.7444 54.4566 39.6408C54.2373 38.9203 53.7425 38.4015 53.2053 37.9113C53.1139 37.8255 53.0289 37.7331 52.951 37.6349C52.599 37.2055 52.5483 37.2055 52.0462 37.4248C51.3625 37.7233 50.8584 38.2421 50.3802 38.7811C48.8654 40.4885 47.2345 42.0706 45.4045 43.4389C45.1496 43.6387 44.8755 43.8128 44.5863 43.9586C43.9782 44.2488 43.3747 44.0323 43.0918 43.4205C42.8891 42.9819 42.8568 42.5101 42.8513 41.9895C42.5568 42.1311 42.2963 42.3344 42.0874 42.5857C41.4544 43.3578 40.6933 44.0056 40.0364 44.7556C39.4199 45.4577 38.8514 46.1977 38.246 46.9081C38.0712 47.1189 37.8795 47.3152 37.6729 47.495C37.1928 47.9014 36.6593 48.0211 36.0779 47.7438C35.8245 47.6222 35.7416 47.6922 35.6559 47.9354C34.836 50.2997 34.1639 52.7126 33.6435 55.1603C33.4086 56.255 33.134 57.3413 33.016 58.459C32.9239 59.2993 32.8576 60.1406 32.8235 60.9855C32.8235 61.085 32.8281 61.1846 32.817 61.2841C32.7838 61.6047 32.6687 61.6591 32.4144 61.4757C32.3839 61.4536 32.3581 61.4269 32.3287 61.4029C31.4247 60.6594 30.3826 60.3894 29.2308 60.5147C29.0714 60.5322 28.9037 60.5764 28.8485 60.3516Z" fill="#54433C"/>
    <path d="M28.8485 60.3517C28.9166 60.4761 29.0189 60.4494 29.135 60.4319C30.1666 60.2688 31.2215 60.5065 32.0836 61.0962C32.278 61.2252 32.4521 61.3855 32.6493 61.5422C32.7415 61.3966 32.7129 61.2445 32.7193 61.1026C32.7894 59.6468 32.8843 58.1937 33.1893 56.7655C33.4362 55.6101 33.7246 54.462 33.978 53.3093C34.4028 51.3743 35.033 49.4983 35.6743 47.6269C35.692 47.5815 35.7123 47.5372 35.7352 47.4942C35.8559 47.4721 35.9194 47.567 36.0014 47.6103C36.5543 47.9033 37.0823 47.8572 37.5679 47.4555C37.9184 47.1547 38.2331 46.8147 38.5059 46.4419C39.5701 45.0395 40.8186 43.8039 42.0257 42.5305C42.2994 42.2381 42.6069 41.9792 42.9416 41.7593C42.9748 42.1748 42.9508 42.5333 43.0264 42.8834C43.0648 43.1043 43.1412 43.3169 43.2521 43.5118C43.5285 43.9559 44.0021 44.1153 44.4804 43.908C44.6616 43.8255 44.8341 43.7252 44.9954 43.6086C45.9278 42.9652 46.807 42.2479 47.6243 41.4635C48.6203 40.4886 49.6449 39.5442 50.5433 38.4716C51.006 37.8942 51.6215 37.4584 52.3198 37.2139C52.6727 37.0959 52.6746 37.0959 52.8929 37.3982C53.1694 37.7833 53.5379 38.0938 53.8669 38.4283C54.0743 38.6244 54.2366 38.8634 54.3423 39.1286C54.5256 39.5923 54.7625 40.033 55.0481 40.4416C56.4948 42.5609 57.7313 44.8064 58.9494 47.063C59.6165 48.3004 60.291 49.5342 60.8301 50.8353C60.8718 50.9393 60.9237 51.0389 60.9849 51.1329C61.08 51.2889 61.2238 51.4095 61.394 51.4761C61.5643 51.5426 61.7517 51.5516 61.9275 51.5014C62.4085 51.3651 62.8811 51.2001 63.0894 50.6915C63.1907 50.7035 63.2165 50.7661 63.2488 50.8159C63.8744 51.7779 64.6014 52.6587 65.3082 53.5645C65.4631 53.7586 65.6295 53.9433 65.8067 54.1174C65.9783 54.3002 66.1968 54.4324 66.4384 54.4996C66.68 54.5669 66.9354 54.5666 67.1768 54.4988C67.4265 54.4389 67.4339 54.4417 67.4892 54.6942C67.8964 56.5278 68.3185 58.3596 68.6981 60.1978C68.8483 60.9147 68.9183 61.6481 69.0279 62.3742C69.0454 62.4912 69.0279 62.6212 69.1551 62.7308C69.3836 62.4148 69.6094 62.1052 69.8314 61.7928C70.1231 61.3744 70.4629 60.9919 70.8441 60.653C71.0588 60.4634 71.2958 60.3006 71.5499 60.1683C71.9355 59.9543 72.388 59.8947 72.8159 60.0016C72.956 60.0375 73.0509 60.0283 73.132 59.9094C73.1276 59.9646 73.1377 60.02 73.1613 60.0701C73.1848 60.1202 73.2211 60.1633 73.2665 60.195C74.2045 60.8999 74.4127 61.8536 74.28 62.9704C74.1521 63.9173 73.927 64.8485 73.6083 65.7494C73.3411 66.54 72.9993 67.2928 72.4731 67.9553C71.9313 68.6371 71.2753 69.1476 70.4211 69.3531C69.9945 69.4535 69.5473 69.4214 69.1394 69.2609C69.0703 69.2342 69.004 69.1992 68.933 69.1752C68.676 69.0831 68.6778 69.0877 68.5313 69.3337C68.0457 70.1542 67.4941 70.9339 66.882 71.6649C66.2509 72.4162 65.5775 73.1309 64.865 73.8054C63.809 74.8005 62.6959 75.7339 61.4354 76.4655C60.3575 77.1063 59.2189 77.639 58.0363 78.0559C57.3913 78.2761 56.7528 78.5166 56.082 78.6502C55.8977 78.687 55.824 78.8188 55.7401 78.9533C54.6142 79.0648 53.4909 79.2067 52.365 79.3099C51.204 79.4177 50.0411 79.5219 48.87 79.45C47.9772 79.3956 47.0806 79.4647 46.185 79.3735C45.8809 79.3431 45.5999 79.1579 45.282 79.2482C44.7605 79.1994 44.2684 79.0326 43.7653 78.8999C42.8912 78.6597 42.0301 78.3746 41.1854 78.0457C40.334 77.7251 39.5425 77.281 38.7722 76.8037C38.2239 76.4646 37.6545 76.1587 37.1541 75.7459C36.7331 75.4003 36.3101 75.0567 35.9093 74.689C35.725 74.5213 35.5094 74.3923 35.3454 74.2053C34.6083 73.3677 33.7965 72.6011 33.1524 71.6806C32.876 71.2844 32.583 70.902 32.3655 70.4661C32.2467 70.2275 32.1453 70.1703 31.9223 70.2256C31.2441 70.3924 30.6259 70.1998 30.0131 69.9382C29.5766 69.7561 29.1769 69.496 28.8337 69.1706C28.5179 68.8725 28.2486 68.5286 28.0348 68.1506C27.5962 67.3582 27.3613 66.5013 27.2056 65.6185C27.1079 65.0813 27.0213 64.5414 27.06 63.995C27.1125 63.2919 27.1862 62.5889 27.4654 61.9292C27.705 61.3643 28.0643 60.9009 28.6227 60.6161C28.7351 60.5581 28.8411 60.5 28.8485 60.3517Z" fill="#FFE6DC"/>
    <path d="M59.3742 103.987C57.7477 104.523 56.0849 104.941 54.3985 105.239C52.8483 105.529 51.2812 105.72 49.7067 105.81C48.5549 105.874 47.4031 105.931 46.243 105.87C45.3133 105.821 44.3827 105.792 43.4548 105.702C42.4406 105.604 41.4335 105.461 40.4335 105.274C40.2888 105.246 40.1322 105.274 39.9995 105.189C40.0317 104.967 40.0317 104.741 39.9995 104.519C39.7479 102.953 39.8908 101.396 39.9995 99.8348C40.1248 98.0749 40.2704 96.3168 40.4648 94.5643C40.7735 91.7807 41.1577 89.0091 42.0414 86.336C42.5325 84.8535 43.2392 83.4713 44.0574 82.1426C44.2095 81.8957 44.426 81.6616 44.3772 81.3299C44.421 81.2946 44.4757 81.2754 44.532 81.2754C44.5883 81.2754 44.6429 81.2946 44.6868 81.3299C44.7765 81.4149 44.8352 81.5275 44.8535 81.6497C45.2617 83.1415 45.8671 84.5374 46.9544 85.6689C47.4491 86.1948 48.001 86.6636 48.6 87.0667C49.7527 87.8287 50.9957 87.896 52.2857 87.4989C54.3396 86.8704 55.7125 85.5639 56.3188 83.4741C56.4671 82.9627 56.5685 82.4347 56.8053 81.951C56.8587 81.8855 56.9518 81.9224 57.0108 81.8699C57.2338 81.8782 57.4613 81.8358 57.676 81.9279C57.4918 82.0846 57.4807 82.2689 57.5341 82.4974C57.7377 83.3575 57.9909 84.2051 58.2925 85.0359C58.9771 86.9248 59.2526 88.8902 59.4396 90.8786C59.7161 93.8198 59.6829 96.7683 59.6377 99.7151C59.6175 101.029 59.5907 102.349 59.4378 103.66C59.429 103.771 59.4077 103.88 59.3742 103.987Z" fill="#AE8766"/>
    <path d="M37.1256 104.451C36.1929 104.187 35.282 103.851 34.4009 103.446C32.3471 102.535 30.4702 101.363 28.9369 99.6935C27.8948 98.5602 27.1189 97.272 26.7144 95.7747C26.4933 94.9528 26.5753 94.1484 26.8508 93.3569C26.9141 93.2077 27.0026 93.0706 27.1125 92.9515C28.0234 91.831 29.0418 90.8024 30.1532 89.8804C32.089 88.2409 34.1143 86.7102 36.2198 85.2954C37.5995 84.36 39.0816 83.5853 40.6371 82.9863C40.6961 83.1706 40.5809 83.3236 40.5192 83.4811C39.5821 85.8824 38.7077 88.3039 38.2239 90.8461C37.9862 92.0946 37.8867 93.3597 37.7697 94.6239C37.6554 95.8494 37.5292 97.073 37.4324 98.3004C37.3891 98.8532 37.3403 99.4171 37.3311 99.9737C37.3172 101.316 37.1947 102.657 37.2389 104.001C37.2472 104.156 37.2675 104.327 37.1256 104.451Z" fill="#AE8766"/>
    <path d="M60.0496 82.7725C60.5186 82.9438 60.949 83.1936 61.3894 83.423C62.9558 84.2403 64.4789 85.1377 65.8942 86.202C67.3853 87.3046 68.7866 88.5238 70.0848 89.8481C70.5603 90.3401 71.0173 90.8496 71.4725 91.3601C71.8678 91.8033 72.1719 92.2972 72.2382 92.9062C72.2446 92.9678 72.2651 93.0271 72.2981 93.0795C72.5229 93.4176 72.4759 93.7604 72.3322 94.1115C71.8993 95.1462 71.3186 96.1127 70.6082 96.9808C69.1192 98.8301 67.2634 100.236 65.228 101.421C64.3173 101.958 63.3699 102.431 62.3928 102.835C62.1837 102.583 62.262 102.282 62.2915 102.012C62.332 101.666 62.3486 101.318 62.3412 100.97C62.3099 99.9874 62.3901 99.007 62.4159 98.0211C62.4665 96.1533 62.3808 94.2948 62.0473 92.4492C61.6833 90.4221 61.499 88.3544 60.9563 86.3559C60.6799 85.323 60.374 84.2974 60.0801 83.2691C60.0358 83.1134 59.9428 82.9503 60.0496 82.7725Z" fill="#AE8766"/>
    <path d="M37.1256 104.451C37.1256 104.165 37.1357 103.879 37.1256 103.593C37.097 102.312 37.1901 101.034 37.227 99.7537C37.246 98.9218 37.3075 98.0914 37.4112 97.2658C37.4988 96.6033 37.5108 95.9298 37.5882 95.2654C37.6656 94.6011 37.7089 93.9579 37.7826 93.3046C37.8563 92.6514 37.9226 92.0239 38.0157 91.3862C38.1818 90.3069 38.4263 89.241 38.7473 88.1972C39.2476 86.5313 39.8162 84.8884 40.4777 83.2787C40.521 83.1727 40.5837 83.0833 40.6325 82.9829C40.8481 82.8907 41.0592 82.7811 41.2775 82.6963C42.1365 82.368 42.9742 81.9864 43.7856 81.5538C43.965 81.4411 44.1642 81.3639 44.3726 81.3262C44.6177 81.3916 44.6195 81.3925 44.4997 81.6026C44.145 82.2153 43.782 82.8235 43.4327 83.4399C42.8403 84.5052 42.3586 85.6285 41.9953 86.792C41.6267 87.9521 41.3918 89.1463 41.166 90.3414C40.9504 91.4618 40.7975 92.5915 40.6629 93.7239C40.5643 94.5725 40.4667 95.423 40.4077 96.2781C40.3404 97.2677 40.2234 98.2527 40.1313 99.2404C40.0926 99.6735 40.0576 100.107 40.0484 100.541C40.0318 101.249 39.9663 101.955 39.9562 102.661C39.9507 103.435 40.0769 104.194 40.1405 104.964C40.1534 105.113 40.1313 105.173 39.9903 105.188C39.0188 105.012 38.0613 104.766 37.1256 104.451Z" fill="#416578"/>
    <path d="M60.0496 82.7722C60.35 83.8098 60.6532 84.8464 60.948 85.8848C61.2446 86.9357 61.4751 88.0042 61.6382 89.084C61.7994 90.1372 61.9883 91.1867 62.1339 92.2426C62.2528 93.1014 62.3965 93.9564 62.4711 94.8226C62.5845 96.1282 62.5568 97.4339 62.5061 98.7368C62.4785 99.4573 62.4518 100.178 62.4573 100.898C62.4628 101.543 62.3449 102.187 62.3928 102.832C61.4165 103.289 60.4079 103.673 59.3752 103.982C59.2692 103.819 59.307 103.638 59.3383 103.474C59.3714 103.24 59.3899 103.005 59.3936 102.769C59.4406 101.988 59.4397 101.202 59.4857 100.425C59.5779 98.8455 59.5042 97.2671 59.5438 95.6887C59.5687 94.6567 59.5069 93.6257 59.4516 92.5974C59.354 90.7656 59.1844 88.9384 58.7928 87.1407C58.5569 86.0571 58.1561 85.0214 57.8189 83.9738C57.6346 83.3933 57.4982 82.8008 57.3582 82.2092C57.2983 81.9577 57.302 81.9568 57.5664 81.9328C57.6042 81.9328 57.641 81.9245 57.6779 81.9199C58.0702 81.9464 58.4551 82.0399 58.8159 82.1963C59.2387 82.3625 59.6508 82.5548 60.0496 82.7722Z" fill="#416578"/>
    <path d="M57.0108 81.8682L56.8606 81.9493C56.508 82.3017 56.2287 82.7204 56.0387 83.1812C55.8823 83.5193 55.6729 83.8304 55.4186 84.1026C54.6087 85.0139 53.796 85.9316 52.6755 86.4734C51.6721 86.959 50.629 87.053 49.5703 86.6236C49.2487 86.4937 48.918 86.3868 48.5982 86.2477C47.8169 85.9086 47.2493 85.3382 46.7554 84.6656C46.1878 83.8935 45.7575 83.0356 45.2258 82.2404C45.0544 81.9852 45.1945 81.6369 45.1226 81.3393C45.3069 81.2775 45.3207 81.0868 45.4175 80.9587C45.716 80.9348 46.01 80.9937 46.3066 81.0066C47.2778 81.0481 48.2333 80.9034 49.1944 80.8122C49.8596 80.7486 50.5286 80.709 51.1966 80.6749C51.9559 80.6362 52.6635 80.3395 53.42 80.2787C54.2226 80.2142 55.0159 80.0557 55.8102 79.9102C56.0323 80.6012 56.4764 81.1688 56.8551 81.7723C56.8724 81.7988 56.8954 81.821 56.9223 81.8376C56.9492 81.8541 56.9794 81.8646 57.0108 81.8682Z" fill="#FFE6DC"/>
    <path d="M55.8101 79.9166C55.7963 80.0207 55.7337 80.0538 55.6332 80.0686C54.7422 80.2068 53.854 80.3551 52.9611 80.4565C52.6663 80.4897 52.3355 80.4703 52.0812 80.6942C52.0411 80.7245 51.9911 80.7386 51.9411 80.7339C51.5541 80.6998 51.1726 80.7808 50.7939 80.826C50.2162 80.8942 49.6339 80.8684 49.0561 80.9485C48.013 81.1002 46.9581 81.1554 45.9049 81.1135C45.7307 81.1203 45.5597 81.0662 45.4211 80.9605C45.5382 80.6113 45.6254 80.2528 45.6819 79.8889C45.7574 79.3729 45.774 79.3757 45.2811 79.2439C45.3787 79.1297 45.5151 79.1591 45.6294 79.1776C46.5268 79.3213 47.4307 79.3268 48.3356 79.3222C48.6562 79.3222 48.9806 79.2891 49.2975 79.3849C49.3948 79.4107 49.497 79.4107 49.5942 79.3849C50.0227 79.2752 50.4613 79.3582 50.8907 79.3112C51.5781 79.2356 52.2728 79.2568 52.9556 79.1158C53.2222 79.0625 53.4928 79.0317 53.7646 79.0237C54.3324 79.0004 54.8977 78.9338 55.4554 78.8247C55.5844 78.7998 55.7069 78.762 55.7392 78.9481C55.7136 79.2727 55.7375 79.5992 55.8101 79.9166Z" fill="#FFCEBA"/>
    <path d="M45.1226 81.3431C45.2006 81.4162 45.2554 81.5107 45.28 81.6148C45.3045 81.7189 45.2979 81.8279 45.2608 81.9282C45.2046 82.0931 45.2608 82.1825 45.3649 82.2848C45.4866 82.4103 45.5857 82.5559 45.658 82.7151C46.0496 83.525 46.5794 84.2465 47.1027 84.9726C47.5754 85.6296 48.2462 86.0433 48.9907 86.3188C49.4072 86.4727 49.8145 86.6615 50.2632 86.7334C51.2353 86.8891 52.1512 86.7334 52.9796 86.2082C53.5969 85.8157 54.1774 85.367 54.6473 84.7929C54.8602 84.534 55.1081 84.3082 55.3384 84.0558C55.707 83.6559 55.9447 83.1786 56.1769 82.6958C56.3299 82.3779 56.5123 82.0848 56.8606 81.9439C56.703 82.4967 56.5593 83.044 56.387 83.5868C56.1449 84.3577 55.7691 85.0801 55.2767 85.7208C55.0164 86.0352 54.7141 86.3124 54.3783 86.5445C53.621 87.1113 52.7505 87.5082 51.8259 87.7083C50.4438 88.016 49.2229 87.7157 48.1329 86.8385C47.7468 86.527 47.3663 86.2073 47.0115 85.8618C46.3271 85.1898 45.7891 84.3836 45.4313 83.4937C45.318 83.2173 45.1871 82.9501 45.0627 82.6801C44.8609 82.2489 44.778 81.7854 44.6942 81.3228C44.835 81.2796 44.9865 81.2868 45.1226 81.3431Z" fill="#D7AD89"/>
    <path d="M44.9816 61.807C44.9988 62.4287 44.8994 63.0481 44.6886 63.6332C44.5732 63.9631 44.3899 64.265 44.1505 64.5196C43.418 65.2743 42.2984 65.3074 41.5456 64.5721C40.9366 63.9778 40.6058 63.2352 40.4971 62.3957C40.4565 62.088 40.415 61.7802 40.3708 61.4743C40.1921 60.2341 40.5892 59.2159 41.6 58.465C42.6108 57.714 43.746 57.9785 44.3541 59.0648C44.6619 59.6177 44.7964 60.224 44.8941 60.8395C44.9532 61.1585 44.9825 61.4824 44.9816 61.807Z" fill="#54433C"/>
    <path d="M60.902 61.6434C60.8891 62.4505 60.7988 63.0375 60.5859 63.6014C60.4519 63.9777 60.2346 64.3188 59.9501 64.5993C59.4203 65.107 58.7523 65.2083 58.0972 64.8757C57.5295 64.5772 57.0919 64.0798 56.868 63.4788C56.6684 63.0013 56.5666 62.4886 56.5687 61.9711C56.5708 61.4536 56.6766 60.9417 56.88 60.4658C57.1942 59.6936 57.7562 59.1823 58.5745 58.9759C59.2664 58.8017 59.8644 59.0376 60.2533 59.6365C60.6919 60.3055 60.9268 61.0398 60.902 61.6434Z" fill="#54433C"/>
    <path d="M40.99 67.9934C41.3586 67.9778 41.7271 67.9326 42.0736 68.1547C42.42 68.3767 42.6688 68.8384 42.5739 69.2327C42.5021 69.5224 42.3614 69.7904 42.1639 70.0141C41.5051 70.7844 40.5975 71.0341 39.6761 71.2506C39.1068 71.3902 38.5122 71.3902 37.9429 71.2506C37.7821 71.2147 37.6319 71.1421 37.5039 71.0385C37.3759 70.9349 37.2736 70.8031 37.205 70.6534C37.1364 70.5036 37.1033 70.3401 37.1084 70.1755C37.1135 70.0109 37.1566 69.8497 37.2343 69.7045C37.4886 69.2134 37.9115 68.9259 38.3649 68.6633C39.1404 68.151 40.0655 67.9141 40.9918 67.9907L40.99 67.9934Z" fill="#FFC4CD"/>
    <path d="M61.945 68.6342C61.4571 68.6719 60.9663 68.6245 60.4947 68.4941C60.3367 68.4572 60.1882 68.3875 60.0588 68.2895C59.4313 67.7828 59.5235 67.1387 60.2431 66.6927C60.796 66.3509 61.4271 66.1822 62.0574 66.0367C62.6009 65.9109 63.1584 65.8564 63.716 65.8745C64.1009 65.8893 64.483 65.9477 64.8548 66.0486C65.357 66.1813 65.6749 66.6144 65.5809 67.029C65.5054 67.3327 65.3366 67.6051 65.0981 67.8076C64.5563 68.2978 63.879 68.4526 63.1907 68.5604C62.7761 68.6277 62.3559 68.6858 61.945 68.6342Z" fill="#FFC4CD"/>
    <path d="M41.2664 53.6188C41.5654 53.6142 41.8627 53.6629 42.1446 53.7626C42.9719 54.0471 43.7074 54.549 44.274 55.2156C44.5504 55.5344 44.7254 55.8993 44.6914 56.3379C44.6884 56.45 44.6627 56.5604 44.6158 56.6623C44.5135 56.8631 44.4186 56.9129 44.1966 56.8622C43.9071 56.7842 43.6427 56.6329 43.429 56.4227C43.2447 56.2559 43.0706 56.0781 42.8854 55.9113C42.6039 55.6474 42.2888 55.4219 41.9483 55.2405C41.3844 54.953 40.8509 54.9899 40.3441 55.3824C39.8911 55.7329 39.4959 56.1524 39.173 56.6254C39.0904 56.7494 39.0002 56.8682 38.903 56.9811C38.8502 57.0517 38.7762 57.1036 38.6918 57.1291C38.6074 57.1547 38.5171 57.1525 38.434 57.123C38.3504 57.0947 38.2786 57.0397 38.2296 56.9663C38.1806 56.893 38.1572 56.8055 38.1631 56.7176C38.1509 56.5564 38.1627 56.3943 38.1981 56.2366C38.5814 54.9586 39.3849 54.0814 40.6749 53.6787C40.8683 53.6312 41.0674 53.611 41.2664 53.6188Z" fill="#54433C"/>
    <path d="M60.8236 53.7666C62.1357 53.7721 63.457 54.9175 63.6376 56.2111C63.6772 56.5005 63.6625 56.7843 63.4893 57.0404C63.2921 57.327 63.035 57.3721 62.7521 57.1722C62.565 57.0256 62.4161 56.8359 62.3181 56.6193C62.1942 56.3617 62.0432 56.118 61.8676 55.8923C61.3331 55.2381 60.6918 55.1082 59.9455 55.509C59.563 55.7205 59.2334 56.016 58.9817 56.3733C58.8444 56.5805 58.6933 56.7782 58.5292 56.9649C58.262 57.2413 57.9617 57.1491 57.8585 56.7806C57.8138 56.5859 57.8138 56.3837 57.8585 56.189C58.0971 54.8428 59.423 53.762 60.8236 53.7666Z" fill="#54433C"/>
    <path d="M51.3412 73.3566C50.089 73.3335 49.0045 72.8958 48.0573 72.0721C47.6325 71.7035 47.228 71.3257 46.923 70.8521C46.7155 70.5268 46.5824 70.1596 46.5333 69.7768C46.518 69.7045 46.518 69.6298 46.5333 69.5575C46.5581 69.4654 46.5839 69.3917 46.6982 69.3898C46.8125 69.388 46.7691 69.482 46.7996 69.5391C47.0631 70.0155 47.3248 70.4854 47.7726 70.8346C48.3411 71.2787 48.8949 71.7395 49.5518 72.0463C50.4456 72.4646 51.3947 72.6351 52.3391 72.3356C53.5038 71.967 54.44 71.2705 54.9016 70.0726L55.2361 69.2056C55.2542 69.159 55.2748 69.1135 55.2978 69.0692C55.4148 68.8416 55.6065 68.7393 55.7687 68.8186C55.9133 68.8886 55.9732 69.0894 55.8967 69.306C55.6498 70.009 55.3863 70.7065 55.0113 71.3534C54.8122 71.6981 54.5462 71.9995 54.229 72.2398C53.8938 72.4964 53.5416 72.73 53.1749 72.9392C52.6158 73.2498 51.9797 73.3946 51.3412 73.3566Z" fill="#FFA1AF"/>
    <path d="M50.183 66.0265C49.939 66.0368 49.6954 65.9973 49.4671 65.9104C48.6839 65.6284 48.5144 64.8139 49.0515 64.1597C49.5123 63.6068 50.1416 63.3562 50.8142 63.1949C51.2915 63.0807 51.7716 63.053 52.2378 63.2585C52.529 63.3875 52.7695 63.558 52.8939 63.8759C53.1003 64.4011 52.8294 64.8572 52.4562 65.1953C51.954 65.6561 51.344 65.8827 50.6723 65.9564C50.5009 65.9758 50.3388 66.0624 50.183 66.0265Z" fill="#FFCEBA"/>
    <path d="M70.5962 64.5799C70.6671 63.8649 70.8477 63.1388 71.2633 62.4874C71.4258 62.2242 71.6167 61.9798 71.8327 61.7585C72.0409 61.5634 72.2941 61.4228 72.5699 61.3494C72.6906 61.3116 72.8205 61.2886 72.9191 61.3909C73.0177 61.4931 73.0011 61.6498 72.9642 61.7779C72.9316 61.8715 72.8806 61.9577 72.8141 62.0313C72.1691 62.8255 71.8217 63.7617 71.5379 64.7273C71.489 64.8936 71.4219 65.054 71.3379 65.2055C71.1712 65.5004 70.9132 65.4903 70.7399 65.1936C70.6468 65.0023 70.5977 64.7926 70.5962 64.5799Z" fill="#FFCEBA"/>
    <path d="M31.4634 64.8901C31.4524 65.0946 31.4773 65.243 31.4054 65.3849C31.2957 65.6005 31.1474 65.6429 30.9603 65.4899C30.7339 65.2952 30.5514 65.0546 30.425 64.7841C30.2998 64.515 30.1489 64.2585 29.9744 64.0184C29.7926 63.783 29.5689 63.5831 29.3147 63.4287C29.2225 63.3716 29.1083 63.2896 29.0069 63.3808C28.8226 63.5476 28.7139 63.4186 28.6153 63.2886C28.5616 63.2267 28.5335 63.1466 28.5365 63.0647C28.5396 62.9828 28.5737 62.905 28.6319 62.8473C28.7182 62.7402 28.8341 62.6609 28.9653 62.6194C29.0964 62.578 29.2369 62.5761 29.369 62.6142C29.9559 62.7796 30.4796 63.1176 30.8719 63.5844C31.0788 63.8151 31.2449 64.0793 31.363 64.3658C31.4373 64.5302 31.4717 64.7098 31.4634 64.8901Z" fill="#FFCEBA"/>
    <path d="M49.5316 96.5941C49.5316 95.8726 49.9214 95.3576 50.5747 95.2009C51.0086 95.0968 51.5633 95.3401 51.7928 95.7215C52.0692 96.1822 52.1521 96.6761 51.9771 97.1838C51.7356 97.8896 51.1579 98.2213 50.3848 97.9366C50.113 97.8404 49.8813 97.6559 49.7267 97.4125C49.572 97.1692 49.5033 96.881 49.5316 96.5941Z" fill="#D7AD89"/>
    <path d="M50.4466 89.7813C50.6419 89.7509 50.8087 89.8422 50.9662 89.9398C51.6112 90.3452 51.7236 91.4648 51.1708 91.9946C51.069 92.1036 50.9373 92.18 50.7922 92.2143C50.6471 92.2485 50.4951 92.2391 50.3553 92.1872C49.9085 92.0443 49.5611 91.7836 49.4754 91.3192C49.3777 90.7995 49.4754 90.3056 49.9269 89.9435C49.9979 89.8825 50.0806 89.8367 50.17 89.8088C50.2593 89.7809 50.3535 89.7716 50.4466 89.7813Z" fill="#D7AD89"/>
    <path d="M43.4502 63.1845C43.4481 63.2207 43.4438 63.2567 43.4373 63.2923C43.4051 63.4324 43.4318 63.6231 43.253 63.6609C43.0973 63.695 42.9766 63.578 42.8725 63.4655C42.7472 63.3264 42.6555 63.1603 42.6047 62.9801C42.5539 62.7998 42.5453 62.6103 42.5795 62.4262C42.583 62.357 42.6094 62.291 42.6544 62.2384C42.6995 62.1858 42.7607 62.1496 42.8285 62.1355C42.8964 62.1214 42.9669 62.1301 43.0292 62.1604C43.0915 62.1906 43.142 62.2407 43.1729 62.3027C43.346 62.5649 43.4421 62.8704 43.4502 63.1845Z" fill="#FEFEFE"/>
    <path d="M58.9393 62.8604C58.939 63.0842 58.8919 63.3055 58.8011 63.51C58.7265 63.6713 58.6583 63.6814 58.5145 63.5736C58.1561 63.3055 58.0354 62.6706 58.2704 62.2901C58.2963 62.2333 58.3375 62.185 58.3895 62.1505C58.4414 62.116 58.502 62.0966 58.5643 62.0947C58.6274 62.0989 58.6878 62.1223 58.7372 62.1619C58.7867 62.2014 58.8228 62.2552 58.8407 62.3159C58.9115 62.4884 58.9451 62.674 58.9393 62.8604Z" fill="#FCFCFB"/>
    <path d="M40.193 70.2779C39.9765 69.9094 40.1138 69.3924 40.439 69.2312C40.603 69.1501 40.7053 69.2036 40.7154 69.3842C40.7293 69.609 40.6058 69.785 40.4823 69.9545C40.4049 70.0623 40.3045 70.1545 40.193 70.2779Z" fill="#FFFCFD"/>
    <path d="M39.4752 69.3923C39.5839 69.4061 39.6687 69.4549 39.6374 69.6051C39.5783 69.8325 39.4669 70.043 39.3121 70.2197C39.2936 70.2448 39.267 70.2628 39.2368 70.2707C39.2066 70.2785 39.1747 70.2758 39.1462 70.263C39.0928 70.2409 39.0836 70.1911 39.0762 70.1432C39.0403 69.8944 39.1333 69.6825 39.2605 69.4835C39.2842 69.4498 39.3169 69.4234 39.3548 69.4073C39.3928 69.3911 39.4345 69.3859 39.4752 69.3923Z" fill="#FFFCFD"/>
    <path d="M62.3449 67.4212C62.2417 67.5216 62.2113 67.6727 62.1283 67.7898C62.1103 67.8217 62.0831 67.8476 62.0503 67.864C62.0174 67.8804 61.9805 67.8867 61.9441 67.8819C61.9002 67.876 61.8602 67.8537 61.832 67.8195C61.8038 67.7854 61.7895 67.7418 61.792 67.6976C61.784 67.435 61.8804 67.1798 62.0602 66.9881C62.0845 66.959 62.1168 66.9376 62.1532 66.9268C62.1896 66.916 62.2284 66.9162 62.2647 66.9273C62.3253 66.9566 62.3929 66.9682 62.4597 66.9607C62.5266 66.9532 62.5899 66.9269 62.6425 66.8849C62.7088 66.8352 62.7899 66.8951 62.8434 66.943C63.0166 67.1005 62.9512 67.588 62.7439 67.705C62.7235 67.7197 62.7002 67.7298 62.6756 67.7346C62.651 67.7394 62.6257 67.7388 62.6013 67.7328C62.577 67.7268 62.5542 67.7157 62.5346 67.7C62.515 67.6844 62.499 67.6647 62.4877 67.6423C62.4389 67.5769 62.4637 67.4673 62.3449 67.4212Z" fill="#FFFEFE"/>
  </g>
</svg>
