<svg width="60" height="60" viewBox="0 0 60 60" fill="none" xmlns="http://www.w3.org/2000/svg">
  <path d="M30.0001 1.87673C16.5259 2.02767 3.60948 11.8881 2.09425 27.242C1.64191 31.8451 6.29894 35.3139 10.5833 33.5701C12.9786 32.5951 15.6739 32.4029 18.2169 33.106C18.7958 33.2654 19.3653 33.4717 19.9232 33.7248C21.4982 32.1779 23.1833 30.5654 25.0794 28.7654L31.1638 34.8498C29.3544 36.7271 27.6341 38.4732 26.0099 40.0928C26.2396 40.6693 26.4224 41.2576 26.5536 41.8529C27.1138 44.349 26.8302 46.9599 25.8107 49.2662C23.9169 53.5529 27.1161 58.374 31.7919 58.0928C38.488 57.6873 45.0646 54.8982 50.1458 49.7279C55.5067 44.2733 58.1743 37.1338 58.1675 29.9999C58.1521 14.2114 45.2708 1.70564 30.0001 1.87673Z" fill="#EFEFEF"/>
  <path d="M43.391 21.7623C42.4814 27.4529 40.2223 33.2019 34.5293 33.7014C31.9132 36.4598 29.2543 39.1773 26.5535 41.8529C26.4223 41.2576 26.2395 40.6693 26.0098 40.0928C27.634 38.4732 29.3543 36.7271 31.1637 34.8498L25.0793 28.7654C23.1832 30.5654 21.498 32.1779 19.923 33.7248C19.3714 33.4741 18.8009 33.2672 18.2168 33.1061C20.5348 30.8162 23.0988 28.3787 26.2371 25.4115C26.727 19.4748 33.0645 17.0396 38.4902 16.3271C38.3145 16.8662 38.2465 17.4475 38.3074 18.0451C40.527 17.717 42.2145 17.7264 42.2145 17.7264C42.116 18.9521 41.9707 20.349 41.7316 21.7787C42.2988 21.8889 42.859 21.8771 43.391 21.7623Z" fill="#AFAFAF"/>
  <path d="M31.6073 55.6373C31.4547 55.6378 31.3079 55.5786 31.1982 55.4724C31.0885 55.3662 31.0246 55.2214 31.0201 55.0688C31.0156 54.9162 31.0708 54.7678 31.174 54.6553C31.2772 54.5428 31.4202 54.475 31.5727 54.4664C32.1916 54.4289 32.8179 54.367 33.4336 54.2824C33.5103 54.2709 33.5885 54.2747 33.6638 54.2936C33.739 54.3125 33.8097 54.3462 33.8718 54.3927C33.9339 54.4392 33.9862 54.4975 34.0256 54.5644C34.065 54.6312 34.0907 54.7052 34.1012 54.782C34.1118 54.8589 34.107 54.9371 34.0871 55.012C34.0672 55.087 34.0327 55.1573 33.9854 55.2188C33.9381 55.2803 33.8791 55.3319 33.8118 55.3704C33.7445 55.4089 33.6702 55.4337 33.5932 55.4433C32.9477 55.5321 32.2915 55.5968 31.643 55.6359C31.6313 55.6371 31.6191 55.6373 31.6073 55.6373ZM35.246 54.5691C35.2105 54.4178 35.2365 54.2586 35.3184 54.1265C35.4002 53.9945 35.5312 53.9003 35.6824 53.8648C46.7822 51.2599 54.5349 41.4605 54.5349 30.0347C54.4681 16.1285 43.182 5.52773 30.083 5.52773C17.4295 5.52773 6.95133 15.0155 5.70984 27.5974C5.69384 27.7518 5.61759 27.8935 5.49765 27.992C5.37772 28.0904 5.22378 28.1375 5.0693 28.1231C4.99272 28.1156 4.91838 28.093 4.85051 28.0568C4.78265 28.0205 4.7226 27.9712 4.67378 27.9117C4.62496 27.8523 4.58834 27.7837 4.566 27.7101C4.54367 27.6365 4.53605 27.5592 4.54359 27.4826C5.9332 13.4004 17.7881 4.41 30.1238 4.33734C43.5347 4.25836 55.6381 15.09 55.7067 30.0345C55.7067 42.007 47.5826 52.2757 35.9503 55.0052C35.8754 55.023 35.7978 55.0258 35.7218 55.0134C35.6458 55.0011 35.573 54.9739 35.5076 54.9334C35.4422 54.8928 35.3854 54.8398 35.3405 54.7773C35.2956 54.7148 35.2635 54.644 35.246 54.5691Z" fill="white"/>
  <path d="M33.7934 32.0936C32.8958 33.0428 32.0168 33.9615 31.1637 34.8498L25.0793 28.7654C25.9536 27.9357 26.8723 27.0686 27.8473 26.1475L33.7934 32.0936Z" fill="#F0C020"/>
  <path d="M17.8034 21.6786C20.1376 21.6786 22.0299 19.7863 22.0299 17.4521C22.0299 15.1178 20.1376 13.2256 17.8034 13.2256C15.4692 13.2256 13.5769 15.1178 13.5769 17.4521C13.5769 19.7863 15.4692 21.6786 17.8034 21.6786Z" fill="#F0C020"/>
  <path d="M30.1161 16.7254C32.4504 16.7254 34.3426 14.8332 34.3426 12.4989C34.3426 10.1647 32.4504 8.27246 30.1161 8.27246C27.7819 8.27246 25.8896 10.1647 25.8896 12.4989C25.8896 14.8332 27.7819 16.7254 30.1161 16.7254Z" fill="#70C3E9"/>
  <path d="M46.7403 17.6285C46.7403 19.7145 45.2544 21.3668 43.3935 21.7629H43.3911C42.8591 21.8777 42.2989 21.8895 41.7318 21.7793C41.9708 20.3496 42.1161 18.9527 42.2146 17.727C42.2146 17.727 40.5271 17.7176 38.3075 18.0457C38.2466 17.448 38.3146 16.8668 38.4903 16.3277C39.0318 14.6566 40.6068 13.4004 42.5146 13.4004C44.8466 13.4004 46.7403 15.2941 46.7403 17.6285Z" fill="#F76230"/>
  <path d="M42.7271 16.0868C42.8886 16.0875 43.0482 16.1215 43.1959 16.1867C43.3436 16.252 43.4763 16.347 43.5856 16.4658C43.6949 16.5846 43.7785 16.7248 43.8312 16.8774C43.8839 17.03 43.9045 17.1919 43.8918 17.3529C43.7764 18.7919 43.6536 20.1384 43.3935 21.7626H43.3911C42.8591 21.8775 42.2989 21.8892 41.7318 21.779C41.9708 20.3493 42.1161 18.9525 42.2146 17.7267C42.2146 17.7267 40.5271 17.7173 38.3075 18.0454C38.2466 17.4478 38.3146 16.8665 38.4903 16.3275C40.1947 16.1029 41.4048 16.0807 42.7271 16.0868Z" fill="#B35032"/>
  <path d="M47.6943 34.2264C50.0285 34.2264 51.9207 32.3341 51.9207 29.9999C51.9207 27.6657 50.0285 25.7734 47.6943 25.7734C45.36 25.7734 43.4678 27.6657 43.4678 29.9999C43.4678 32.3341 45.36 34.2264 47.6943 34.2264Z" fill="#0FC06E"/>
  <path d="M42.5136 46.5975C44.8478 46.5975 46.7401 44.7052 46.7401 42.371C46.7401 40.0368 44.8478 38.1445 42.5136 38.1445C40.1794 38.1445 38.2871 40.0368 38.2871 42.371C38.2871 44.7052 40.1794 46.5975 42.5136 46.5975Z" fill="#878788"/>
  <path d="M40.6698 26.0586C39.4862 29.3914 37.4354 32.0891 33.7933 32.0937L27.8472 26.1477C27.8519 22.3508 30.7136 20.2672 33.8823 19.1211V22.4469H37.4917V26.0586H40.6698Z" fill="#878788"/>
  <path d="M42.2144 17.7266C42.1159 18.9524 41.9706 20.3492 41.7315 21.7789C41.4901 23.218 41.1526 24.6922 40.6698 26.0586H37.4917V22.4469H33.8823V19.1211C35.3776 18.5797 36.9433 18.2492 38.3073 18.0453C40.5269 17.7172 42.2144 17.7266 42.2144 17.7266Z" fill="#F76230"/>
  <path d="M31.1637 34.85C29.3543 36.7273 27.634 38.4734 26.0098 40.093C13.6418 52.4141 6.67622 57.4438 6.67388 57.4438C5.49029 58.4 3.77935 58.3109 2.70357 57.2352C1.62779 56.1594 1.54107 54.4461 2.49732 53.2672C10.07 43.9156 14.3122 39.2352 19.9231 33.725C21.4981 32.1781 23.1833 30.5656 25.0793 28.7656L31.1637 34.85Z" fill="#B84C36"/>
  <path d="M4.59755 55.8064C4.50002 55.6854 4.45455 55.5306 4.47112 55.376C4.48769 55.2215 4.56495 55.0799 4.68591 54.9823C4.94058 54.7776 5.19598 54.5738 5.45208 54.3708C5.57379 54.2742 5.72891 54.2298 5.88332 54.2475C6.03773 54.2652 6.17878 54.3436 6.27544 54.4653C6.3721 54.587 6.41645 54.7421 6.39874 54.8965C6.38103 55.0509 6.3027 55.192 6.18099 55.2886C5.92708 55.4896 5.67403 55.6916 5.42185 55.8947C5.30078 55.9922 5.14597 56.0377 4.99142 56.0211C4.83687 56.0045 4.69521 55.9273 4.59755 55.8064ZM7.19091 53.7368C7.09333 53.6159 7.04777 53.4611 7.06426 53.3066C7.08074 53.1521 7.15791 53.0104 7.2788 52.9128C13.103 48.2098 19.595 42.1763 27.1259 34.4679C27.235 34.3591 27.3826 34.2977 27.5367 34.2969C27.6908 34.2961 27.839 34.356 27.9492 34.4637C28.0594 34.5714 28.1227 34.7182 28.1255 34.8722C28.1283 35.0263 28.0703 35.1752 27.964 35.2868C20.4005 43.0285 13.8755 49.0922 8.01497 53.8247C7.89402 53.9223 7.73927 53.9679 7.58475 53.9514C7.43022 53.9349 7.28856 53.8577 7.19091 53.7368Z" fill="#FFC9C4"/>
  <path d="M5.06379 15.9223C5.06379 15.9223 5.06379 15.9246 5.06145 15.9246C4.98648 16.0603 4.96807 16.2201 5.01019 16.3693C5.05232 16.5185 5.15158 16.645 5.28645 16.7215C5.4215 16.797 5.58089 16.8162 5.73003 16.775C5.87917 16.7337 6.00603 16.6353 6.08309 16.5012V16.4988C6.2427 16.2176 6.14168 15.8592 5.86067 15.6996C5.58879 15.5449 5.21637 15.6504 5.06379 15.9223Z" fill="black"/>
  <path d="M30 1.30982C20.9196 1.34756 11.9259 5.65748 6.32461 13.8899C6.23742 14.0183 6.20474 14.1761 6.23374 14.3285C6.26274 14.481 6.35105 14.6158 6.4793 14.7032C6.73711 14.8815 7.11891 14.8063 7.29258 14.5485C12.6891 6.6442 21.3052 2.51357 30 2.47513C44.9824 2.40881 57.5803 14.4674 57.5803 30.0266C57.5803 37.1837 54.8435 44.1149 49.7262 49.3183C44.9428 54.1862 38.5605 57.0948 31.7566 57.5071C27.5224 57.7635 24.6272 53.3886 26.3473 49.5034C27.6462 46.5592 27.7709 43.1945 26.692 40.2407C29.2704 37.6626 31.6273 35.2333 34.0505 32.6741C39.1542 32.5042 41.2889 27.4344 42.213 22.4268C45.0253 22.6138 47.3266 20.3362 47.3266 17.6284C47.3266 14.9739 45.168 12.8144 42.5149 12.8144C41.4968 12.8125 40.5043 13.1342 39.6809 13.733C38.8574 14.3318 38.2456 15.1768 37.9336 16.146C37.7862 16.5995 37.7084 17.0728 37.7027 17.5497C32.5472 18.4117 27.4369 20.713 27.2672 25.8904C24.8712 28.153 22.1543 30.7229 19.7944 33.0318C16.7477 31.7692 13.3545 31.8072 10.3634 33.0294C6.46031 34.6037 2.26851 31.4486 2.6782 27.3013C2.97426 24.2702 3.77267 21.3094 5.0407 18.5404C5.17828 18.2451 5.04281 17.8987 4.75453 17.7646C4.46648 17.6331 4.10766 17.7693 3.97664 18.0526C2.65461 20.9388 1.82131 24.0246 1.51078 27.1839C1.03547 32.2633 6.10711 36.0067 10.8038 34.1144C13.3934 33.0583 16.2816 32.9889 18.8798 33.9325C13.2677 39.4844 9.06773 44.2208 2.04305 52.8972C0.921561 54.2746 0.972186 56.3333 2.28914 57.6503C3.60586 58.9626 5.64516 59.0153 7.02586 57.9128C7.05398 57.894 9.76101 55.93 14.6993 51.5659C14.7568 51.5151 14.8037 51.4533 14.8374 51.3843C14.871 51.3153 14.8906 51.2403 14.8952 51.1636C14.8998 51.087 14.8892 51.0102 14.864 50.9376C14.8388 50.8651 14.7996 50.7983 14.7485 50.7409C14.5446 50.5065 14.1577 50.4829 13.9256 50.687C13.9233 50.687 13.9233 50.687 13.9209 50.6894C8.80476 55.2114 6.52875 56.7979 6.29437 56.9964C5.83636 57.3635 5.25893 57.5486 4.67285 57.5161C4.08677 57.4837 3.53329 57.236 3.11859 56.8206C2.70143 56.405 2.45344 55.8493 2.42269 55.2612C2.39195 54.6732 2.58064 54.0946 2.95219 53.6378C12.4233 41.9401 16.5431 37.6942 25.0676 29.5839L30.341 34.8573C26.1565 39.186 21.7992 43.4926 17.3918 47.5558C17.3351 47.6078 17.2893 47.6704 17.2569 47.7402C17.2245 47.8099 17.2061 47.8854 17.2029 47.9622C17.1996 48.039 17.2115 48.1158 17.238 48.188C17.2644 48.2602 17.3048 48.3265 17.3569 48.3831C17.5676 48.6104 17.9569 48.6269 18.1866 48.4183C20.6302 46.1645 23.178 43.7242 25.7646 41.1608C26.5535 43.7301 26.3766 46.5381 25.2741 49.0297C23.2474 53.6165 26.5732 58.9354 31.8248 58.679C38.891 58.2496 45.5269 55.2629 50.5631 50.1386C55.8865 44.7231 58.7522 37.4997 58.7522 30.0266C58.7522 14.0057 45.807 1.2442 30 1.30982ZM37.492 21.861H34.4686V19.5386C36.656 18.8059 39.2416 18.4176 41.5748 18.3273C41.3632 20.684 40.9905 23.2154 40.2495 25.4727H38.078V22.4469C38.078 22.1221 37.8169 21.861 37.492 21.861ZM39.0476 16.5081C39.2835 15.7745 39.7464 15.1349 40.3696 14.6815C40.9928 14.2282 41.7439 13.9846 42.5145 13.986C44.5214 13.986 46.1543 15.6201 46.1543 17.6282C46.1543 19.6968 44.4094 21.3393 42.4064 21.2676C42.5735 20.1573 42.6954 19.0229 42.7868 17.9085C42.8255 17.4397 42.6705 17.1339 42.0598 17.1416C41.6428 17.1468 40.4412 17.1787 38.8795 17.3755C38.899 17.0816 38.9555 16.7915 39.0476 16.5081ZM33.2965 19.979V22.4467C33.2965 22.7751 33.5611 23.0326 33.8824 23.0326H36.9059V26.0584C36.9059 26.3776 37.1613 26.6444 37.4918 26.6444H39.8168C38.7098 29.3223 36.9525 31.389 34.0312 31.5029C30.4022 27.8741 31.5989 29.0708 28.4377 25.9084C28.5478 22.9696 30.5679 21.1401 33.2965 19.979ZM27.8351 26.9652L32.9752 32.1055C32.3704 32.7428 31.7638 33.3783 31.1555 34.0122L25.9195 28.7762C26.5345 28.1936 27.1718 27.5917 27.8351 26.9652Z" fill="black"/>
  <path d="M22.6161 17.452C22.6161 14.7984 20.4572 12.6396 17.8036 12.6396C15.15 12.6396 12.9912 14.7984 12.9912 17.452C12.9912 20.1056 15.15 22.2644 17.8036 22.2644C20.4572 22.2644 22.6161 20.1056 22.6161 17.452ZM14.1629 17.452C14.1629 15.4446 15.796 13.8114 17.8034 13.8114C19.8108 13.8114 21.4439 15.4446 21.4439 17.452C21.4439 19.4594 19.8108 21.0925 17.8034 21.0925C15.796 21.0925 14.1629 19.4596 14.1629 17.452ZM34.9285 12.4989C34.9285 9.84535 32.7696 7.68652 30.1161 7.68652C27.4625 7.68652 25.3036 9.84535 25.3036 12.4989C25.3036 15.1525 27.4625 17.3114 30.1161 17.3114C32.7696 17.3114 34.9285 15.1528 34.9285 12.4989ZM26.4755 12.4989C26.4755 10.4915 28.1086 8.8584 30.1161 8.8584C32.1235 8.8584 33.7566 10.4915 33.7566 12.4989C33.7566 14.5064 32.1235 16.1395 30.1161 16.1395C28.1086 16.1395 26.4755 14.5066 26.4755 12.4989ZM52.5066 29.9988C52.5066 27.3452 50.3478 25.1864 47.6942 25.1864C45.0406 25.1864 42.8818 27.3452 42.8818 29.9988C42.8818 32.6524 45.0406 34.8112 47.6942 34.8112C50.3478 34.8112 52.5066 32.6526 52.5066 29.9988ZM44.0536 29.9988C44.0536 27.9914 45.6868 26.3582 47.6942 26.3582C49.7016 26.3582 51.3347 27.9914 51.3347 29.9988C51.3347 32.0062 49.7016 33.6393 47.6942 33.6393C45.6868 33.6393 44.0536 32.0064 44.0536 29.9988ZM45.2028 39.9192C45.3081 40.0339 45.4547 40.102 45.6103 40.1086C45.7658 40.1152 45.9177 40.0598 46.0323 39.9544C46.147 39.8491 46.2152 39.7025 46.2218 39.547C46.2284 39.3914 46.173 39.2396 46.0676 39.1249C45.8567 38.8954 45.4674 38.8788 45.2379 39.0874C45.1232 39.1926 45.0548 39.339 45.0478 39.4945C45.0407 39.65 45.0956 39.8019 45.2004 39.9171C45.2028 39.9168 45.2028 39.9168 45.2028 39.9192Z" fill="black"/>
  <path d="M42.5122 38.7317C42.8518 38.7317 43.1848 38.776 43.5057 38.8676C43.813 38.9543 44.1434 38.7666 44.2302 38.4643C44.3192 38.1528 44.1364 37.8291 43.8268 37.74C43.3989 37.6201 42.9566 37.5593 42.5122 37.5596C39.8591 37.5596 37.7005 39.7182 37.7005 42.3713C37.7005 45.0242 39.8591 47.1828 42.5122 47.1828C45.1677 47.1828 47.3263 45.0242 47.3263 42.3713C47.3263 42.0734 47.2981 41.7734 47.244 41.483C47.2144 41.3306 47.126 41.196 46.9979 41.1083C46.8699 41.0205 46.7124 40.9868 46.5596 41.0143C46.4069 41.0433 46.2719 41.1315 46.1841 41.2598C46.0963 41.388 46.0627 41.5458 46.0909 41.6986C46.133 41.9187 46.1544 42.1461 46.1544 42.3713C46.1495 44.3752 44.5161 46.0088 42.5122 46.0109C40.5106 46.0086 38.8768 44.3752 38.8723 42.3713C38.877 40.3676 40.5106 38.734 42.5122 38.7317ZM16.4497 50.0004C16.6888 49.7848 16.7075 49.4119 16.4919 49.1731C16.2833 48.9411 15.8966 48.9223 15.6645 49.1309C15.4255 49.3489 15.4067 49.7192 15.6223 49.958C15.6737 50.0155 15.7359 50.0622 15.8053 50.0955C15.8748 50.1288 15.9502 50.1479 16.0272 50.1519C16.1041 50.1558 16.1811 50.1445 16.2536 50.1185C16.3261 50.0925 16.3928 50.0524 16.4497 50.0004Z" fill="black"/>
</svg>
