<svg width="64" height="64" viewBox="0 0 64 64" fill="none" xmlns="http://www.w3.org/2000/svg">
  <path d="M25.6495 14.1926C22.2512 18.4661 17.2385 17.8629 15.553 17.5101C15.2467 17.4461 14.9527 17.6769 14.9525 17.9899V25.4801C14.9525 30.5971 19.1392 34.7839 24.2562 34.7839C29.3732 34.7839 33.56 30.5971 33.56 25.4801V17.1926C33.56 17.1441 33.5595 17.0956 33.5585 17.0471C33.5561 16.9197 33.5051 16.798 33.4157 16.707C33.3264 16.6161 33.2056 16.5628 33.0782 16.5581C29.2132 16.4449 27.1767 14.9129 26.3942 14.1459C26.3441 14.0965 26.284 14.0582 26.2181 14.0336C26.1521 14.009 26.0817 13.9985 26.0114 14.0029C25.9411 14.0073 25.8726 14.0265 25.8102 14.0592C25.7479 14.0919 25.6931 14.1374 25.6495 14.1926Z" fill="#F9D0B4"/>
  <path d="M14.3555 18.39C14.5588 18.39 14.7578 18.4072 14.9525 18.4372V17.9902C14.9528 17.6772 15.2468 17.4465 15.553 17.5105C17.2385 17.8632 22.2515 18.4662 25.6495 14.193C25.6931 14.1377 25.7478 14.0922 25.8102 14.0595C25.8725 14.0268 25.941 14.0076 26.0113 14.0032C26.0816 13.9987 26.152 14.0092 26.2179 14.0339C26.2839 14.0585 26.3439 14.0968 26.394 14.1462C27.1765 14.9132 29.213 16.4452 33.078 16.5585C33.3418 16.5662 33.553 16.7837 33.5583 17.0475C33.5593 17.096 33.5598 17.1445 33.5598 17.193V18.4375C34.1516 18.3446 34.757 18.3904 35.3281 18.5714C35.8993 18.7523 36.4206 19.0634 36.851 19.4802V12.493C36.851 9.56996 34.4595 7.17846 31.5365 7.17846C30.545 7.17846 29.6183 7.45871 28.8218 7.93621C27.8913 6.38346 26.1963 5.33496 24.2643 5.33496H21.5353C16.2535 5.33496 11.932 9.65646 11.932 14.9382V19.2412C12.6192 18.6895 13.4743 18.3892 14.3555 18.39Z" fill="#5B5D60"/>
  <path d="M34.157 18.3906C33.9538 18.3906 33.7548 18.4079 33.56 18.4379V25.4811C33.56 25.6909 33.5505 25.8986 33.5365 26.1051C33.739 26.1376 33.9453 26.1594 34.157 26.1594C36.3023 26.1594 38.0413 24.4204 38.0413 22.2751C38.0413 20.1299 36.3023 18.3906 34.157 18.3906ZM14.9525 25.4811V18.4379C14.755 18.4068 14.5554 18.391 14.3555 18.3906C12.2103 18.3906 10.471 20.1299 10.471 22.2751C10.471 24.4204 12.21 26.1594 14.3555 26.1594C14.5673 26.1594 14.7735 26.1379 14.976 26.1051C14.9611 25.8975 14.9533 25.6892 14.9525 25.4811ZM23.3393 40.6059C23.4128 40.6834 23.458 40.7774 23.476 40.8754H25.3068C25.3248 40.7771 25.37 40.6831 25.4435 40.6059L29.0748 36.7884C28.8144 36.315 28.6777 35.7836 28.6775 35.2434V33.6596C27.3212 34.3991 25.8008 34.786 24.256 34.7849C22.8143 34.7853 21.3925 34.4475 20.105 33.7986V35.2434C20.105 35.7944 19.963 36.3234 19.7078 36.7884L23.3393 40.6059Z" fill="#F9D0B4"/>
  <path d="M27.7128 61.2893C27.7128 61.064 27.8023 60.8479 27.9616 60.6886C28.1209 60.5293 28.337 60.4398 28.5623 60.4398H31.0535C30.2923 60.4398 29.6695 59.817 29.6695 59.0558V41.9005L28.3353 43.5158C28.2835 43.5784 28.2189 43.6293 28.1458 43.6649C28.0728 43.7005 27.993 43.7201 27.9117 43.7223C27.8305 43.7245 27.7497 43.7094 27.6748 43.6778C27.5999 43.6462 27.5326 43.599 27.4775 43.5393L26.8255 42.8328C26.2668 43.5695 25.3878 44.0498 24.3918 44.0498C23.3958 44.0498 22.5168 43.5695 21.958 42.8328L21.306 43.5393C21.2509 43.599 21.1836 43.6462 21.1087 43.6778C21.0338 43.7094 20.953 43.7245 20.8718 43.7223C20.7905 43.7201 20.7107 43.7005 20.6377 43.6649C20.5646 43.6293 20.5 43.5784 20.4483 43.5158L16.6843 38.96C16.678 38.9525 16.674 38.9443 16.6685 38.9365L15.759 39.385L8.5335 41.2035C7.77436 41.3946 7.09616 41.8233 6.59792 42.4271C6.09969 43.0309 5.80749 43.7782 5.764 44.5598L4.73525 62.2975C4.72753 62.4361 4.74817 62.5748 4.79589 62.7052C4.84361 62.8355 4.91741 62.9548 5.01279 63.0556C5.10817 63.1565 5.22312 63.2368 5.35061 63.2917C5.47809 63.3467 5.61544 63.375 5.75425 63.375H29.7985C29.2453 63.375 28.7148 63.1553 28.3237 62.7641C27.9325 62.373 27.7128 61.8424 27.7128 61.2893Z" fill="#5290DB"/>
  <path d="M28.3353 43.5155L29.6695 41.9003V40.2823C29.6695 39.521 30.2923 38.8983 31.0535 38.8983H32.1403C32.1948 38.806 32.216 38.6978 32.2002 38.5918C32.1844 38.4857 32.1326 38.3884 32.0535 38.316L30.02 36.4593C29.9295 36.3767 29.8103 36.3329 29.6879 36.3372C29.5655 36.3415 29.4497 36.3936 29.3653 36.4823L25.4435 40.605C25.3507 40.7026 25.2985 40.8317 25.2975 40.9663C25.2965 41.1009 25.3467 41.2309 25.438 41.3298L27.4773 43.5388C27.5323 43.5986 27.5996 43.6459 27.6745 43.6775C27.7494 43.7092 27.8303 43.7244 27.9115 43.7222C27.9928 43.72 28.0727 43.7004 28.1458 43.6648C28.2189 43.6291 28.2835 43.5782 28.3353 43.5155ZM16.7295 38.316L18.763 36.4593C18.8535 36.3767 18.9727 36.3329 19.0951 36.3372C19.2175 36.3415 19.3333 36.3936 19.4178 36.4823L23.3395 40.605C23.532 40.8075 23.5345 41.1245 23.345 41.3298L21.3058 43.539C21.2506 43.5987 21.1834 43.646 21.1085 43.6775C21.0336 43.7091 20.9528 43.7243 20.8715 43.7221C20.7903 43.7198 20.7105 43.7003 20.6374 43.6646C20.5644 43.629 20.4998 43.5782 20.448 43.5155L16.6843 38.9598C16.6077 38.8672 16.5698 38.7487 16.5782 38.6289C16.5866 38.509 16.6408 38.397 16.7295 38.316Z" fill="#73B1EF"/>
  <path d="M21.9575 42.833C22.5162 43.5698 23.3952 44.05 24.3912 44.05C25.3872 44.05 26.2662 43.5698 26.825 42.833L25.4377 41.3302C25.382 41.2698 25.3411 41.1972 25.3183 41.1181C25.2955 41.0391 25.2913 40.9559 25.3062 40.875H23.4755C23.4905 40.9559 23.4864 41.0391 23.4635 41.1182C23.4407 41.1972 23.3998 41.2698 23.344 41.3302L21.9575 42.833Z" fill="#FC657E"/>
  <path d="M25.6938 43.7529C25.2988 43.9412 24.8588 44.0502 24.3915 44.0502C23.9243 44.0502 23.4843 43.9409 23.0893 43.7529L21.4215 60.5617L24.3915 63.3604L27.3615 60.5617L25.6938 43.7529Z" fill="#FC657E"/>
  <path d="M55.9257 38.8984H31.0537C30.2925 38.8984 29.6697 39.5212 29.6697 40.2824V59.0557C29.6697 59.8169 30.2925 60.4397 31.0537 60.4397H55.9257C56.687 60.4397 57.3097 59.8169 57.3097 59.0557V40.2824C57.3097 39.5212 56.6867 38.8984 55.9257 38.8984Z" fill="#EDF4FC"/>
  <path d="M58.417 60.4397H28.5622C28.3369 60.4397 28.1209 60.5292 27.9616 60.6885C27.8022 60.8478 27.7127 61.0639 27.7127 61.2892C27.7127 61.8424 27.9325 62.3729 28.3236 62.764C28.7148 63.1552 29.2453 63.3749 29.7985 63.3749H57.181C57.7342 63.3749 58.2647 63.1552 58.6558 62.764C59.047 62.3729 59.2667 61.8424 59.2667 61.2892C59.2666 61.0639 59.177 60.8479 59.0177 60.6886C58.8584 60.5293 58.6423 60.4398 58.417 60.4397ZM43.8137 47.8984H42.7147C41.7385 47.8984 40.944 48.6929 40.944 49.6692C40.944 50.6454 41.7385 51.4397 42.7147 51.4397H43.8137C44.79 51.4397 45.5842 50.6454 45.5842 49.6692C45.5842 48.6929 44.79 47.8984 43.8137 47.8984Z" fill="#C7D7E5"/>
  <path d="M24.2562 35.4091C18.7815 35.4091 14.3275 30.9551 14.3275 25.4804V17.9964C14.3267 17.8297 14.3634 17.6651 14.4348 17.5145C14.5063 17.364 14.6107 17.2314 14.7402 17.1266C14.8702 17.0209 15.0221 16.9456 15.1849 16.9061C15.3478 16.8667 15.5173 16.8641 15.6812 16.8986C17.49 17.2776 22.0355 17.7336 25.1605 13.8039C25.2589 13.6802 25.3821 13.5782 25.5222 13.5051C25.6624 13.432 25.8163 13.3891 25.974 13.3791C26.1315 13.3693 26.2892 13.3928 26.437 13.448C26.5848 13.5032 26.7193 13.589 26.8317 13.6996C27.4797 14.3349 29.388 15.8246 33.0965 15.9336C33.3845 15.9423 33.6581 16.0615 33.8605 16.2666C34.063 16.4716 34.1786 16.7468 34.1835 17.0349C34.1845 17.0871 34.185 17.1401 34.185 17.1929V25.4804C34.185 30.9549 29.731 35.4091 24.2562 35.4091ZM15.5775 18.1526V25.4804C15.5775 30.2659 19.4707 34.1591 24.2562 34.1591C29.0417 34.1591 32.935 30.2659 32.935 25.4804V17.1789C29.1462 17.0379 27.0285 15.6016 26.0545 14.6861C22.5075 19.0361 17.3242 18.4909 15.5775 18.1526Z" fill="black"/>
  <path d="M36.851 19.9769C36.6852 19.9769 36.5263 19.9111 36.4091 19.7939C36.2918 19.6767 36.226 19.5177 36.226 19.3519V12.4939C36.226 9.90819 34.1222 7.80444 31.5365 7.80444C30.7002 7.80444 29.8727 8.03569 29.143 8.47319C29.0726 8.51549 28.9946 8.54348 28.9133 8.55557C28.8321 8.56766 28.7493 8.5636 28.6696 8.54363C28.59 8.52366 28.515 8.48816 28.4491 8.43918C28.3832 8.3902 28.3276 8.32869 28.2855 8.25819C27.4365 6.84119 25.8955 5.96094 24.264 5.96094H21.5352C16.5845 5.96094 12.557 9.98844 12.557 14.9392V19.1017C12.557 19.2674 12.4912 19.4264 12.3739 19.5436C12.2567 19.6608 12.0978 19.7267 11.932 19.7267C11.7662 19.7267 11.6073 19.6608 11.4901 19.5436C11.3728 19.4264 11.307 19.2674 11.307 19.1017V14.9392C11.307 9.29919 15.8955 4.71094 21.5352 4.71094H24.2642C26.1345 4.71094 27.9097 5.62119 29.0262 7.12044C29.8111 6.74895 30.6684 6.55566 31.5368 6.55444C34.8118 6.55444 37.4762 9.21869 37.4762 12.4939V19.3522C37.4762 19.4343 37.46 19.5155 37.4286 19.5913C37.3971 19.6672 37.3511 19.736 37.293 19.7941C37.235 19.8521 37.166 19.8981 37.0902 19.9295C37.0144 19.9608 36.9331 19.977 36.851 19.9769ZM11.5052 63.7604C11.3395 63.7604 11.1805 63.6946 11.0633 63.5774C10.9461 63.4602 10.8802 63.3012 10.8802 63.1354V48.9742C10.8802 48.8084 10.9461 48.6495 11.0633 48.5322C11.1805 48.415 11.3395 48.3492 11.5052 48.3492C11.671 48.3492 11.83 48.415 11.9472 48.5322C12.0644 48.6495 12.1302 48.8084 12.1302 48.9742V63.1354C12.1302 63.3012 12.0644 63.4602 11.9472 63.5774C11.83 63.6946 11.671 63.7604 11.5052 63.7604Z" fill="black"/>
  <path d="M34.157 26.7844C34.0163 26.7844 33.8725 26.7766 33.718 26.7601C33.5532 26.7427 33.402 26.6606 33.2977 26.5318C33.1935 26.4029 33.1447 26.238 33.162 26.0731C33.1703 25.9914 33.1947 25.912 33.2338 25.8397C33.2729 25.7674 33.3259 25.7036 33.3898 25.6519C33.4537 25.6002 33.5272 25.5616 33.606 25.5384C33.6849 25.5153 33.7676 25.5079 33.8493 25.5169C33.9598 25.5286 34.0605 25.5341 34.1573 25.5341C35.9545 25.5341 37.4168 24.0719 37.4168 22.2749C37.4168 20.4776 35.9545 19.0154 34.1573 19.0154C34.058 19.0154 33.9555 19.0206 33.8528 19.0306C33.7711 19.0387 33.6886 19.0306 33.61 19.0068C33.5314 18.983 33.4583 18.9438 33.3949 18.8917C33.3315 18.8396 33.2789 18.7754 33.2404 18.703C33.2018 18.6305 33.1779 18.5511 33.17 18.4694C33.162 18.3877 33.1702 18.3052 33.1941 18.2267C33.2181 18.1481 33.2572 18.0751 33.3093 18.0117C33.3615 17.9483 33.4256 17.8958 33.498 17.8572C33.5705 17.8185 33.6498 17.7946 33.7315 17.7866C33.873 17.7727 34.0151 17.7657 34.1573 17.7656C36.6438 17.7656 38.6668 19.7886 38.6668 22.2751C38.6665 24.7614 36.6435 26.7844 34.157 26.7844ZM14.3555 26.7844C11.869 26.7844 9.84601 24.7614 9.84601 22.2751C9.84601 19.7886 11.869 17.7656 14.3555 17.7656C14.5128 17.7656 14.6753 17.7746 14.8388 17.7924C14.9204 17.8013 14.9994 17.8262 15.0714 17.8656C15.1434 17.905 15.2069 17.9583 15.2583 18.0223C15.3097 18.0863 15.348 18.1598 15.371 18.2386C15.394 18.3173 15.4013 18.3999 15.3924 18.4815C15.3835 18.5631 15.3586 18.6422 15.3192 18.7141C15.2797 18.7861 15.2265 18.8496 15.1625 18.901C15.0985 18.9524 15.025 18.9907 14.9462 19.0138C14.8674 19.0368 14.7849 19.044 14.7033 19.0351C14.5878 19.0223 14.4717 19.0158 14.3555 19.0156C12.5583 19.0156 11.096 20.4779 11.096 22.2751C11.096 24.0721 12.5583 25.5344 14.3555 25.5344C14.442 25.5344 14.5275 25.5299 14.6118 25.5221C14.9563 25.4886 15.2598 25.7434 15.2915 26.0871C15.3233 26.4309 15.0703 26.7351 14.7265 26.7669C14.6003 26.7784 14.4755 26.7844 14.3555 26.7844ZM24.3915 29.6436C23.1973 29.6436 22.076 29.1561 21.3918 28.3396C21.3391 28.2767 21.2993 28.2041 21.2747 28.1258C21.2501 28.0475 21.2411 27.9651 21.2483 27.8834C21.2629 27.7183 21.3425 27.5658 21.4695 27.4594C21.5965 27.353 21.7607 27.3014 21.9257 27.3159C22.0908 27.3305 22.2433 27.4101 22.3498 27.5371C22.7993 28.0736 23.5628 28.3939 24.3915 28.3939C25.2203 28.3939 25.9838 28.0736 26.4333 27.5371C26.5397 27.4101 26.6922 27.3305 26.8573 27.3159C27.0224 27.3014 27.1865 27.353 27.3135 27.4594C27.4405 27.5658 27.5201 27.7183 27.5347 27.8834C27.5493 28.0485 27.4977 28.2126 27.3913 28.3396C26.707 29.1561 25.5858 29.6436 24.3915 29.6436Z" fill="black"/>
  <path d="M28.5887 23.9541C29.2791 23.9541 29.8387 23.3945 29.8387 22.7041C29.8387 22.0137 29.2791 21.4541 28.5887 21.4541C27.8984 21.4541 27.3387 22.0137 27.3387 22.7041C27.3387 23.3945 27.8984 23.9541 28.5887 23.9541Z" fill="black"/>
  <path d="M20.194 23.9541C20.8844 23.9541 21.444 23.3945 21.444 22.7041C21.444 22.0137 20.8844 21.4541 20.194 21.4541C19.5036 21.4541 18.944 22.0137 18.944 22.7041C18.944 23.3945 19.5036 23.9541 20.194 23.9541Z" fill="black"/>
  <path d="M25.1667 41.4997H23.6457C23.48 41.4997 23.321 41.4339 23.2038 41.3167C23.0866 41.1995 23.0207 41.0405 23.0207 40.8747C23.0207 40.709 23.0866 40.55 23.2038 40.4328C23.321 40.3156 23.48 40.2497 23.6457 40.2497H25.1667C25.3325 40.2497 25.4915 40.3156 25.6087 40.4328C25.7259 40.55 25.7917 40.709 25.7917 40.8747C25.7917 41.0405 25.7259 41.1995 25.6087 41.3167C25.4915 41.4339 25.3325 41.4997 25.1667 41.4997ZM19.7585 37.317C19.6517 37.3169 19.5468 37.2895 19.4536 37.2373C19.3604 37.1852 19.2822 37.1101 19.2263 37.0191C19.1704 36.9281 19.1388 36.8243 19.1344 36.7177C19.13 36.611 19.153 36.505 19.2012 36.4097C19.3839 36.0479 19.4795 35.6483 19.4802 35.243V33.9795C19.4802 33.8137 19.5461 33.6547 19.6633 33.5375C19.7805 33.4203 19.9395 33.3545 20.1052 33.3545C20.271 33.3545 20.43 33.4203 20.5472 33.5375C20.6644 33.6547 20.7302 33.8137 20.7302 33.9795V35.243C20.7302 35.8402 20.5872 36.4385 20.3167 36.9737C20.2646 37.077 20.1848 37.1637 20.0862 37.2243C19.9876 37.2849 19.8742 37.317 19.7585 37.317ZM28.997 37.261C28.8793 37.2611 28.764 37.2279 28.6643 37.1653C28.5646 37.1027 28.4846 37.0133 28.4335 36.9072C28.1838 36.3879 28.0537 35.8192 28.0527 35.243V33.876C28.0527 33.7102 28.1186 33.5512 28.2358 33.434C28.353 33.3168 28.512 33.251 28.6777 33.251C28.8435 33.251 29.0025 33.3168 29.1197 33.434C29.2369 33.5512 29.3027 33.7102 29.3027 33.876V35.243C29.3027 35.6337 29.3892 36.0107 29.5595 36.3642C29.6055 36.4595 29.6266 36.5648 29.6207 36.6705C29.6149 36.7761 29.5823 36.8785 29.5261 36.9681C29.4699 37.0577 29.3919 37.1316 29.2993 37.1828C29.2068 37.234 29.1028 37.2609 28.997 37.261ZM29.7982 63.9997H5.75425C5.30375 63.9997 4.868 63.812 4.5585 63.4847C4.249 63.1575 4.086 62.712 4.111 62.2625L5.13975 44.5232C5.24475 42.6367 6.54725 41.0585 8.38075 40.597L15.5417 38.7945L16.1977 38.4712C16.3464 38.398 16.5181 38.3868 16.6751 38.4401C16.832 38.4934 16.9614 38.6069 17.0346 38.7556C17.1079 38.9043 17.1191 39.076 17.0658 39.2329C17.0124 39.3899 16.8989 39.5192 16.7502 39.5925L16.035 39.945C15.9954 39.9645 15.954 39.9798 15.9112 39.9907L8.686 41.8095C8.05502 41.966 7.49105 42.3211 7.07725 42.8225C6.66345 43.3239 6.42173 43.945 6.38775 44.5942L5.359 62.3335C5.353 62.442 5.39125 62.5462 5.46675 62.626C5.54225 62.7057 5.64425 62.7497 5.75425 62.7497H29.7982C29.964 62.7497 30.123 62.8156 30.2402 62.9328C30.3574 63.05 30.4232 63.209 30.4232 63.3747C30.4232 63.5405 30.3574 63.6995 30.2402 63.8167C30.123 63.9339 29.964 63.9997 29.7982 63.9997Z" fill="black"/>
  <path d="M27.896 44.3481C27.7311 44.3481 27.568 44.314 27.417 44.2479C27.2659 44.1818 27.1302 44.0852 27.0183 43.9641L24.979 41.7546C24.7807 41.5388 24.6716 41.2558 24.6738 40.9627C24.676 40.6696 24.7893 40.3882 24.9908 40.1754L28.9125 36.0526C29.3195 35.6249 30.0053 35.6006 30.4413 35.9984L32.475 37.8556C32.6368 38.0025 32.7506 38.1948 32.8015 38.4074C32.8523 38.6199 32.8379 38.8429 32.76 39.0471C32.7015 39.2022 32.5838 39.3276 32.4328 39.396C32.2818 39.4643 32.1099 39.4699 31.9548 39.4116C31.8176 39.3599 31.7029 39.2616 31.6308 39.1339C31.5587 39.0063 31.5337 38.8573 31.5603 38.7131L29.7123 37.0256L25.9578 40.9724L27.8938 43.0699L29.1343 41.5684C29.2415 41.446 29.3921 41.3702 29.5543 41.3572C29.7164 41.3441 29.8773 41.3947 30.0027 41.4983C30.1282 41.6019 30.2083 41.7503 30.2261 41.912C30.2439 42.0737 30.1979 42.236 30.098 42.3644L28.8173 43.9146C28.7087 44.0461 28.5733 44.1528 28.4201 44.2276C28.2669 44.3024 28.0994 44.3435 27.929 44.3481H27.896ZM20.887 44.3481L20.8538 44.3479C20.6834 44.343 20.516 44.3019 20.3629 44.2271C20.2098 44.1523 20.0744 44.0457 19.9658 43.9144L16.2025 39.3584C16.0236 39.1422 15.9348 38.8655 15.9544 38.5856C15.974 38.3058 16.1007 38.0442 16.308 37.8551V37.8549L18.3415 35.9984C18.7778 35.6001 19.4635 35.6244 19.8705 36.0524L23.7923 40.1751C23.9939 40.388 24.1072 40.6694 24.1094 40.9626C24.1116 41.2557 24.0024 41.5388 23.804 41.7546L21.7648 43.9636C21.6529 44.0849 21.5172 44.1816 21.3661 44.2478C21.2151 44.314 21.0519 44.3481 20.887 44.3481ZM17.261 38.6774L20.8893 43.0694L22.8253 40.9719L19.0708 37.0254L17.261 38.6774Z" fill="black"/>
  <path d="M24.3915 44.6749C23.3142 44.6749 22.293 44.2004 21.5897 43.3726C21.4824 43.2463 21.4296 43.0825 21.4431 42.9172C21.4565 42.752 21.535 42.5989 21.6614 42.4915C21.7877 42.3842 21.9515 42.3314 22.1168 42.3448C22.282 42.3583 22.4351 42.4368 22.5425 42.5631C23.0077 43.1109 23.6817 43.4249 24.3915 43.4249C25.1012 43.4249 25.7752 43.1109 26.2405 42.5631C26.349 42.4408 26.5011 42.3659 26.6642 42.3545C26.8273 42.343 26.9884 42.3958 27.113 42.5017C27.2376 42.6075 27.3157 42.758 27.3307 42.9208C27.3457 43.0836 27.2964 43.2458 27.1932 43.3726C26.4897 44.2004 25.4687 44.6749 24.3915 44.6749Z" fill="black"/>
  <path d="M24.3915 63.9849C24.2321 63.9851 24.0788 63.9242 23.963 63.8147L20.993 61.0159C20.9234 60.9504 20.8698 60.8697 20.8363 60.7802C20.8028 60.6906 20.7903 60.5946 20.7997 60.4994L22.452 43.8477C22.46 43.766 22.484 43.6866 22.5227 43.6142C22.5614 43.5418 22.614 43.4777 22.6776 43.4257C22.7411 43.3737 22.8143 43.3347 22.8929 43.311C22.9715 43.2873 23.054 43.2794 23.1357 43.2877C23.3007 43.3041 23.4523 43.3853 23.5574 43.5134C23.6625 43.6416 23.7123 43.8063 23.696 43.9712L22.0742 60.3172L24.392 62.5012L26.7097 60.3172L25.0925 44.0179C25.0844 43.9363 25.0924 43.8538 25.1162 43.7752C25.14 43.6967 25.179 43.6236 25.231 43.5601C25.283 43.4966 25.3471 43.444 25.4194 43.4053C25.4918 43.3666 25.5711 43.3425 25.6527 43.3344C25.7344 43.3262 25.8169 43.3342 25.8955 43.3579C25.9741 43.3816 26.0473 43.4206 26.1108 43.4726C26.1743 43.5246 26.2269 43.5887 26.2656 43.661C26.3044 43.7334 26.3284 43.8127 26.3365 43.8944L27.984 60.4997C27.9935 60.5948 27.981 60.6909 27.9475 60.7804C27.914 60.87 27.8603 60.9506 27.7907 61.0162L24.82 63.8149C24.7042 63.9244 24.5508 63.9852 24.3915 63.9849ZM55.9257 61.0647C55.76 61.0647 55.601 60.9988 55.4838 60.8816C55.3666 60.7644 55.3007 60.6054 55.3007 60.4397C55.3007 60.2739 55.3666 60.115 55.4838 59.9977C55.601 59.8805 55.76 59.8147 55.9257 59.8147C56.127 59.8144 56.3199 59.7344 56.4621 59.5921C56.6044 59.4498 56.6845 59.2569 56.6847 59.0557V40.2824C56.6845 40.0812 56.6044 39.8883 56.4621 39.746C56.3199 39.6038 56.127 39.5237 55.9257 39.5234H31.0537C30.8525 39.5237 30.6596 39.6038 30.5173 39.746C30.3751 39.8883 30.295 40.0812 30.2947 40.2824V59.0557C30.295 59.2569 30.3751 59.4498 30.5173 59.5921C30.6596 59.7344 30.8525 59.8144 31.0537 59.8147C31.2195 59.8147 31.3785 59.8805 31.4957 59.9977C31.6129 60.115 31.6787 60.2739 31.6787 60.4397C31.6787 60.6054 31.6129 60.7644 31.4957 60.8816C31.3785 60.9988 31.2195 61.0647 31.0537 61.0647C29.946 61.0647 29.0447 60.1634 29.0447 59.0557V40.2824C29.0447 39.1747 29.946 38.2734 31.0537 38.2734H55.9257C57.0335 38.2734 57.9347 39.1747 57.9347 40.2824V59.0557C57.9347 60.1632 57.0335 61.0647 55.9257 61.0647Z" fill="black"/>
  <path d="M57.1807 63.9999H29.7982C28.3035 63.9999 27.0877 62.7839 27.0877 61.2892C27.0882 60.8983 27.2437 60.5235 27.5201 60.2471C27.7965 59.9706 28.1713 59.8152 28.5622 59.8147H58.4167C58.8077 59.8152 59.1824 59.9706 59.4589 60.2471C59.7353 60.5235 59.8908 60.8983 59.8912 61.2892C59.8915 62.7839 58.6755 63.9999 57.1807 63.9999ZM28.5625 61.0647C28.503 61.0648 28.4459 61.0884 28.4038 61.1305C28.3617 61.1726 28.3381 61.2297 28.338 61.2892C28.3385 61.6764 28.4925 62.0477 28.7663 62.3215C29.04 62.5953 29.4113 62.7494 29.7985 62.7499H57.181C57.5683 62.7495 57.9395 62.5954 58.2134 62.3216C58.4872 62.0477 58.6413 61.6765 58.6417 61.2892C58.6416 61.2297 58.6179 61.1727 58.5758 61.1306C58.5338 61.0885 58.4767 61.0648 58.4172 61.0647H28.5625ZM43.8137 52.0647H42.7147C41.3937 52.0647 40.319 50.9899 40.319 49.6692C40.319 48.3482 41.3937 47.2734 42.7147 47.2734H43.8137C45.1347 47.2734 46.2092 48.3482 46.2092 49.6692C46.2092 50.9899 45.1347 52.0647 43.8137 52.0647ZM42.7147 48.5234C42.411 48.5238 42.1197 48.6446 41.9049 48.8594C41.6901 49.0742 41.5693 49.3654 41.569 49.6692C41.5694 49.9729 41.6902 50.2641 41.905 50.4788C42.1198 50.6936 42.411 50.8144 42.7147 50.8147H43.8137C44.1174 50.8143 44.4086 50.6935 44.6233 50.4787C44.838 50.264 44.9588 49.9729 44.9592 49.6692C44.9589 49.3655 44.8381 49.0743 44.6234 48.8595C44.4086 48.6447 44.1175 48.5238 43.8137 48.5234H42.7147Z" fill="black"/>
  <path d="M43.4555 7.08245C42.331 6.87295 41.4447 6.00495 41.231 4.90345C41.2291 4.8917 41.2231 4.88101 41.2141 4.87329C41.205 4.86557 41.1935 4.86133 41.1816 4.86133C41.1697 4.86133 41.1582 4.86557 41.1492 4.87329C41.1401 4.88101 41.1341 4.8917 41.1322 4.90345C40.9185 6.00495 40.0322 6.8732 38.9077 7.08245C38.8959 7.08392 38.8851 7.08965 38.8772 7.09855C38.8694 7.10746 38.865 7.11894 38.865 7.13082C38.865 7.14271 38.8694 7.15418 38.8772 7.16309C38.8851 7.172 38.8959 7.17773 38.9077 7.1792C40.0322 7.3887 40.9185 8.2567 41.1322 9.35845C41.1341 9.37019 41.1401 9.38089 41.1492 9.38861C41.1582 9.39633 41.1697 9.40057 41.1816 9.40057C41.1935 9.40057 41.205 9.39633 41.2141 9.38861C41.2231 9.38089 41.2291 9.37019 41.231 9.35845C41.4447 8.25695 42.331 7.3887 43.4555 7.1792C43.4673 7.17773 43.4781 7.172 43.486 7.16309C43.4939 7.15418 43.4982 7.14271 43.4982 7.13082C43.4982 7.11894 43.4939 7.10746 43.486 7.09855C43.4781 7.08965 43.4673 7.08392 43.4555 7.08245Z" fill="#F5C84C"/>
  <path d="M8.0615 30.1872H8.644V29.6047C8.644 29.3954 8.72715 29.1946 8.87516 29.0466C9.02318 28.8986 9.22393 28.8154 9.43325 28.8154C9.64257 28.8154 9.84332 28.8986 9.99133 29.0466C10.1393 29.1946 10.2225 29.3954 10.2225 29.6047V30.1872H10.8047C11.0141 30.1872 11.2148 30.2703 11.3628 30.4183C11.5108 30.5664 11.594 30.7671 11.594 30.9764C11.594 31.1858 11.5108 31.3865 11.3628 31.5345C11.2148 31.6825 11.0141 31.7657 10.8047 31.7657H10.2225V32.3482C10.2225 32.5575 10.1393 32.7583 9.99133 32.9063C9.84332 33.0543 9.64257 33.1374 9.43325 33.1374C9.22393 33.1374 9.02318 33.0543 8.87516 32.9063C8.72715 32.7583 8.644 32.5575 8.644 32.3482V31.7657H8.0615C7.85217 31.7657 7.65143 31.6825 7.50341 31.5345C7.3554 31.3865 7.27225 31.1858 7.27225 30.9764C7.27225 30.7671 7.3554 30.5664 7.50341 30.4183C7.65143 30.2703 7.85217 30.1872 8.0615 30.1872Z" fill="#70D6F9"/>
  <path d="M5.68873 39.0508C6.155 39.0508 6.53298 38.6728 6.53298 38.2066C6.53298 37.7403 6.155 37.3623 5.68873 37.3623C5.22247 37.3623 4.84448 37.7403 4.84448 38.2066C4.84448 38.6728 5.22247 39.0508 5.68873 39.0508Z" fill="#F5C84C"/>
  <path d="M37.9387 1.6885C38.405 1.6885 38.783 1.31052 38.783 0.84425C38.783 0.377984 38.405 0 37.9387 0C37.4725 0 37.0945 0.377984 37.0945 0.84425C37.0945 1.31052 37.4725 1.6885 37.9387 1.6885Z" fill="#FC657E"/>
  <path d="M55.347 20.083H42.5712C42.2434 20.0839 41.9292 20.2146 41.6974 20.4464C41.4656 20.6782 41.3349 20.9924 41.334 21.3203V25.596C41.3349 25.9239 41.4656 26.238 41.6974 26.4699C41.9292 26.7017 42.2434 26.8323 42.5712 26.8333H55.347C55.6748 26.8323 55.989 26.7017 56.2208 26.4699C56.4527 26.238 56.5833 25.9239 56.5842 25.596V21.3203C56.5833 20.9924 56.4527 20.6782 56.2208 20.4464C55.989 20.2146 55.6748 20.0839 55.347 20.083ZM55.3877 36.1248H42.612C42.2841 36.1238 41.97 35.9932 41.7381 35.7614C41.5063 35.5295 41.3757 35.2154 41.3747 34.8875V30.6118C41.3757 30.2839 41.5063 29.9697 41.7381 29.7379C41.97 29.5061 42.2841 29.3754 42.612 29.3745H55.3877C55.7156 29.3754 56.0298 29.5061 56.2616 29.7379C56.4934 29.9697 56.6241 30.2839 56.625 30.6118V34.8875C56.6241 35.2154 56.4934 35.5295 56.2616 35.7614C56.0298 35.9932 55.7156 36.1238 55.3877 36.1248Z" fill="#EDF4FC"/>
  <path d="M48.125 20.083H42.5715C42.2437 20.0839 41.9295 20.2146 41.6977 20.4464C41.4658 20.6782 41.3352 20.9924 41.3343 21.3203V25.596C41.3352 25.9239 41.4658 26.238 41.6977 26.4699C41.9295 26.7017 42.2437 26.8323 42.5715 26.8333H48.125V20.083Z" fill="#87D147"/>
  <path d="M48.125 36.1252H42.6123C42.2844 36.1243 41.9702 35.9937 41.7384 35.7618C41.5066 35.53 41.3759 35.2159 41.375 34.888V30.6122C41.3759 30.2844 41.5066 29.9702 41.7384 29.7384C41.9702 29.5066 42.2844 29.3759 42.6123 29.375H48.125V36.1252Z" fill="#FC657E"/>
  <path d="M55.347 27.458H42.5712C41.5445 27.458 40.709 26.6228 40.709 25.596V21.3203C40.709 20.2935 41.5442 19.458 42.5712 19.458H55.347C56.3737 19.458 57.2092 20.2935 57.2092 21.3203V25.596C57.2092 26.6228 56.374 27.458 55.347 27.458ZM42.5715 20.708C42.4092 20.7082 42.2536 20.7728 42.1388 20.8876C42.024 21.0023 41.9594 21.1579 41.9592 21.3203V25.596C41.9594 25.7583 42.024 25.9139 42.1388 26.0286C42.2536 26.1434 42.4092 26.2079 42.5715 26.208H55.3472C55.5095 26.2078 55.6651 26.1433 55.7799 26.0286C55.8946 25.9138 55.9592 25.7583 55.9595 25.596V21.3203C55.9593 21.1579 55.8947 21.0023 55.7799 20.8876C55.6652 20.7728 55.5096 20.7082 55.3472 20.708H42.5715ZM55.3877 36.7498H42.612C41.5852 36.7498 40.7497 35.9143 40.7497 34.8875V30.612C40.7497 29.5853 41.585 28.7498 42.612 28.7498H55.3877C56.4145 28.7498 57.25 29.5853 57.25 30.612V34.8875C57.25 35.9143 56.4147 36.7498 55.3877 36.7498ZM42.6122 29.9998C42.4499 30 42.2943 30.0645 42.1795 30.1793C42.0648 30.2941 42.0002 30.4497 42 30.612V34.8875C42.0002 35.0498 42.0648 35.2054 42.1795 35.3202C42.2943 35.435 42.4499 35.4996 42.6122 35.4998H55.388C55.5503 35.4996 55.7059 35.435 55.8207 35.3202C55.9355 35.2054 56 35.0498 56.0002 34.8875V30.612C56 30.4497 55.9355 30.2941 55.8207 30.1793C55.7059 30.0645 55.5503 30 55.388 29.9998H42.6122Z" fill="black"/>
  <path d="M48.125 27.3015C47.9592 27.3015 47.8003 27.2357 47.6831 27.1184C47.5659 27.0012 47.5 26.8423 47.5 26.6765V20.3125C47.5 20.1467 47.5659 19.9878 47.6831 19.8706C47.8003 19.7533 47.9592 19.6875 48.125 19.6875C48.2908 19.6875 48.4497 19.7533 48.5669 19.8706C48.6842 19.9878 48.75 20.1467 48.75 20.3125V26.6765C48.75 26.8423 48.6842 27.0012 48.5669 27.1184C48.4497 27.2357 48.2908 27.3015 48.125 27.3015ZM48.125 36.5518C47.9592 36.5518 47.8003 36.4859 47.6831 36.3687C47.5659 36.2515 47.5 36.0925 47.5 35.9268V29.5728C47.5 29.407 47.5659 29.248 47.6831 29.1308C47.8003 29.0136 47.9592 28.9478 48.125 28.9478C48.2908 28.9478 48.4497 29.0136 48.5669 29.1308C48.6842 29.248 48.75 29.407 48.75 29.5728V35.9268C48.75 36.0925 48.6842 36.2515 48.5669 36.3687C48.4497 36.4859 48.2908 36.5518 48.125 36.5518ZM43.8143 34.4355C43.6907 34.4355 43.5699 34.3988 43.4671 34.3302C43.3644 34.2615 43.2843 34.1639 43.237 34.0497C43.1897 33.9356 43.1773 33.8099 43.2014 33.6887C43.2254 33.5675 43.2849 33.4562 43.3723 33.3688L45.4935 31.2477C45.5514 31.1893 45.6204 31.1428 45.6963 31.1111C45.7722 31.0793 45.8537 31.0629 45.936 31.0627C46.0183 31.0625 46.0998 31.0786 46.1759 31.11C46.252 31.1414 46.3211 31.1875 46.3793 31.2457C46.4375 31.3039 46.4837 31.373 46.5151 31.4491C46.5465 31.5251 46.5626 31.6067 46.5624 31.689C46.5623 31.7713 46.5458 31.8527 46.5141 31.9287C46.4824 32.0046 46.436 32.0735 46.3775 32.1315L44.2563 34.2525C44.1983 34.3106 44.1294 34.3567 44.0535 34.3881C43.9777 34.4195 43.8964 34.4356 43.8143 34.4355Z" fill="black"/>
  <path d="M45.9357 34.4355C45.7757 34.4355 45.616 34.3745 45.4937 34.2525L43.3725 32.1315C43.314 32.0735 43.2676 32.0046 43.2359 31.9286C43.2042 31.8527 43.1877 31.7712 43.1876 31.6889C43.1874 31.6066 43.2035 31.5251 43.2349 31.449C43.2663 31.373 43.3125 31.3038 43.3707 31.2457C43.4289 31.1875 43.498 31.1413 43.5741 31.1099C43.6502 31.0785 43.7317 31.0625 43.814 31.0627C43.8963 31.0628 43.9778 31.0793 44.0537 31.1111C44.1296 31.1428 44.1986 31.1893 44.2565 31.2477L46.3777 33.3687C46.4653 33.456 46.525 33.5674 46.5492 33.6887C46.5734 33.81 46.5611 33.9357 46.5138 34.05C46.4664 34.1643 46.3862 34.2619 46.2833 34.3305C46.1804 34.3992 46.0594 34.4357 45.9357 34.4355ZM44.4847 25.0342C44.319 25.0341 44.16 24.9683 44.0427 24.8512L42.982 23.7905C42.9235 23.7325 42.8771 23.6636 42.8454 23.5876C42.8137 23.5117 42.7972 23.4302 42.7971 23.3479C42.7969 23.2656 42.813 23.1841 42.8444 23.108C42.8758 23.032 42.922 22.9628 42.9802 22.9047C43.0384 22.8465 43.1075 22.8003 43.1836 22.7689C43.2597 22.7375 43.3412 22.7215 43.4235 22.7217C43.5058 22.7218 43.5873 22.7383 43.6632 22.7701C43.7391 22.8018 43.8081 22.8483 43.866 22.9067L44.4847 23.5255L45.6337 22.3765C45.6917 22.318 45.7606 22.2716 45.8365 22.2398C45.9125 22.208 45.9939 22.1916 46.0762 22.1914C46.1585 22.1912 46.2401 22.2073 46.3161 22.2387C46.3922 22.2701 46.4613 22.3162 46.5196 22.3744C46.5778 22.4326 46.6239 22.5017 46.6553 22.5778C46.6868 22.6539 46.7028 22.7354 46.7027 22.8177C46.7025 22.9 46.6861 22.9815 46.6543 23.0574C46.6226 23.1333 46.5762 23.2023 46.5177 23.2602L44.9267 24.8512C44.8095 24.9684 44.6505 25.0342 44.4847 25.0342Z" fill="black"/>
  <path d="M61.3787 37.275C60.6632 37.1417 60.0993 36.5892 59.963 35.8882C59.9618 35.8807 59.958 35.8739 59.9523 35.869C59.9465 35.864 59.9392 35.8613 59.9316 35.8613C59.924 35.8613 59.9167 35.864 59.911 35.869C59.9052 35.8739 59.9014 35.8807 59.9002 35.8882C59.7642 36.5892 59.2003 37.1417 58.4845 37.275C58.477 37.2759 58.4701 37.2796 58.4652 37.2852C58.4602 37.2909 58.4574 37.2982 58.4574 37.3057C58.4574 37.3133 58.4602 37.3205 58.4652 37.3262C58.4701 37.3319 58.477 37.3355 58.4845 37.3365C59.2 37.4697 59.764 38.0222 59.9002 38.7232C59.9014 38.7307 59.9052 38.7375 59.911 38.7425C59.9167 38.7474 59.924 38.7501 59.9316 38.7501C59.9392 38.7501 59.9465 38.7474 59.9523 38.7425C59.958 38.7375 59.9618 38.7307 59.963 38.7232C60.099 38.0222 60.663 37.4697 61.3787 37.3365C61.3862 37.3355 61.3931 37.3319 61.3981 37.3262C61.4031 37.3205 61.4058 37.3133 61.4058 37.3057C61.4058 37.2982 61.4031 37.2909 61.3981 37.2852C61.3931 37.2796 61.3862 37.2759 61.3787 37.275Z" fill="#87D147"/>
</svg>
