<svg width="64" height="64" viewBox="0 0 64 64" fill="none" xmlns="http://www.w3.org/2000/svg">
  <g clip-path="url(#clip0_3009_3276)">
    <path d="M56.6171 56.651H31.5922C31.5922 51.8964 32.3762 46.1724 32.7493 43.7124C32.8718 42.9108 33.3433 42.2019 34.039 41.7845C35.364 40.9906 36.763 40.3612 38.0824 39.8677C40.5204 38.9523 42.6878 38.5007 43.6197 38.3329C43.9402 38.2744 44.2687 38.2744 44.5892 38.3329C45.5211 38.5008 47.6887 38.9523 50.1267 39.8677C51.4462 40.3612 52.8451 40.9906 54.1701 41.7845C54.8658 42.2019 55.3373 42.9108 55.4598 43.7124C55.833 46.1724 56.6171 51.8965 56.6171 56.651Z" fill="#5766CB"/>
    <path d="M40.1594 45.6355C40.1594 45.6355 41.8035 48.6133 44.1044 50.2505C46.4053 48.6133 48.0493 45.6355 48.0493 45.6355V40.6436H40.1594V45.6355Z" fill="#ECF4FF"/>
    <path d="M46.2869 48.1634C45.6752 48.8987 44.9322 49.6617 44.104 50.2514C43.2759 49.6617 42.5328 48.8987 41.9212 48.1634L44.104 46.0644L46.2869 48.1634ZM40.1594 42.2715L44.1045 46.0642L48.0497 42.2715" fill="#D57080"/>
    <path d="M37.686 49.3047C37.686 49.3047 36.5167 53.4895 36.5167 56.6507H31.5922C31.5922 51.8961 32.3762 46.1721 32.7493 43.7121C32.8718 42.9104 33.3433 42.2016 34.039 41.7842C37.9366 43.7893 37.686 49.3047 37.686 49.3047ZM56.6169 56.6507H51.6935C51.6935 53.4895 50.5242 49.3047 50.5242 49.3047C50.5242 49.3047 50.2736 43.7893 54.1701 41.7842C54.8658 42.2016 55.3373 42.9104 55.4598 43.7121C55.833 46.1721 56.6169 51.8962 56.6169 56.6507Z" fill="#ECF4FF"/>
    <path d="M38.3706 56.6506H36.5156C36.5156 53.4894 37.6849 49.3047 37.6849 49.3047C37.6849 49.3047 37.7136 53.4431 38.3706 56.6506Z" fill="#3D4FC3"/>
    <path d="M53.7781 56.651H51.6935C51.6935 53.4898 50.5242 49.305 50.5242 49.305C50.5242 49.305 53.702 50.9546 53.7781 56.651ZM34.039 41.7845C34.7501 41.3582 35.4832 40.9796 36.2131 40.6439C35.6754 41.0955 35.3098 41.854 35.215 42.7109C34.9235 45.362 34.3096 51.5288 34.3096 56.651H31.5922C31.5922 51.8964 32.3762 46.1724 32.7493 43.7124C32.8719 42.9108 33.3433 42.2019 34.039 41.7845ZM50.1267 39.8677L48.0498 45.6359L44.1046 41.8431L40.1594 45.6359L38.0825 39.8677C40.5206 38.9523 42.688 38.5007 43.6199 38.3329C43.9404 38.2744 44.2688 38.2744 44.5894 38.3329C45.5213 38.5007 47.6887 38.9523 50.1267 39.8677Z" fill="#DDEAFB"/>
    <path d="M58.8357 23.4164L37.2109 23.7234L28.3885 23.8489C28.3885 23.8489 23.9577 17.3706 25.3006 11.0388C26.6435 4.70861 34.7973 8.54517 34.7973 8.54517C34.7973 8.54517 39.2327 1.77344 45.0835 1.77344C53.7773 1.77344 57.4368 10.0801 61.3701 7.10702C61.3703 7.10702 66.5285 16.8578 58.8357 23.4164Z" fill="#9D6B6B"/>
    <path d="M37.2109 23.7237L28.3885 23.8492C28.3885 23.8492 23.9577 17.3709 25.3006 11.0391C26.6435 4.70891 34.7973 8.54548 34.7973 8.54548C34.7973 8.54548 32.0013 13.2198 37.0688 16.9505C38.7034 18.1526 38.3889 20.7537 37.2109 23.7237Z" fill="#8B5E5E"/>
    <path d="M47.0996 33.8457V38.8477C47.0996 40.5015 45.7585 41.8426 44.1048 41.8426C42.45 41.8426 41.109 40.5015 41.109 38.8477V33.8457H47.0996Z" fill="#FFDDCE"/>
    <path d="M45.0829 41.6787C44.7683 41.787 44.4378 41.8421 44.105 41.8419C42.4502 41.8419 41.1092 40.5007 41.1092 38.847V33.8449H43.065V38.847C43.0649 40.1592 43.9085 41.2741 45.0829 41.6787ZM31.5917 29.6801C29.4322 29.6801 27.6815 27.9294 27.6815 25.7699C27.6815 25.4726 27.7146 25.1832 27.7775 24.905C28.2848 22.6585 31.5918 23.0268 31.5918 25.33H56.6173C56.6173 23.0268 59.9244 22.6585 60.4317 24.905C60.4945 25.1832 60.5277 25.4727 60.5277 25.7699C60.5277 27.9294 58.777 29.6801 56.6175 29.6801" fill="#FFCBBE"/>
    <path d="M41.109 33.8457H47.0996V38.4538H41.109V33.8457Z" fill="#FFCBBE"/>
    <path d="M56.6172 20.7366V27.7473C56.6172 32.7845 52.5341 36.8676 47.4969 36.8676H40.7116C35.6744 36.8676 31.5913 32.7845 31.5913 27.7473V20.7366C34.823 20.7366 37.4437 18.1174 37.4437 14.8857C37.4437 14.8857 37.4905 14.9296 37.5828 15.0097C38.5627 15.8551 44.7401 20.7366 56.6172 20.7366Z" fill="#FFDDCE"/>
    <path d="M46.703 36.8676H40.7116C35.6744 36.8676 31.5913 32.7845 31.5913 27.7473V20.7366C34.823 20.7366 37.4437 18.1174 37.4437 14.8857C37.4437 14.8857 37.4905 14.9296 37.5828 15.0097V27.7472C37.5828 32.7846 41.6658 36.8676 46.703 36.8676Z" fill="#FFCBBE"/>
    <path d="M52.3589 28.7586C53.4901 28.7586 54.4072 28.2009 54.4072 27.5131C54.4072 26.8252 53.4901 26.2676 52.3589 26.2676C51.2277 26.2676 50.3107 26.8252 50.3107 27.5131C50.3107 28.2009 51.2277 28.7586 52.3589 28.7586Z" fill="#EAAFA5"/>
    <path d="M35.85 28.7586C36.9812 28.7586 37.8983 28.2009 37.8983 27.5131C37.8983 26.8252 36.9812 26.2676 35.85 26.2676C34.7188 26.2676 33.8018 26.8252 33.8018 27.5131C33.8018 28.2009 34.7188 28.7586 35.85 28.7586Z" fill="#EAAFA5"/>
    <path d="M17.1156 1.77344C26.0505 1.77344 33.2938 9.01668 33.2938 17.9516V33.3071C33.2938 37.6467 30.5303 41.5046 26.4215 42.9011L17.1156 46.0639L7.80973 42.9011C3.70092 41.5047 0.9375 37.6467 0.9375 33.3071V17.9514C0.937625 9.01655 8.18074 1.77344 17.1156 1.77344Z" fill="#E4936B"/>
    <path d="M13.1732 42.9011L17.1156 46.0636L7.81048 42.9011C3.70167 41.5049 0.9375 37.6462 0.9375 33.3074V17.9516C0.9375 9.01668 8.18061 1.77344 17.1156 1.77344C13.3306 1.77344 10.2619 9.01655 10.2619 17.9516V33.3076C10.2619 37.6462 11.433 41.5049 13.1732 42.9011Z" fill="#E27D47"/>
    <path d="M29.6289 56.651H4.604C4.604 51.8964 5.38802 46.1724 5.76115 43.7124C5.88365 42.9108 6.35516 42.2019 7.05079 41.7845C8.37581 40.9906 9.77483 40.3612 11.0942 39.8677C13.5323 38.9523 15.6997 38.5007 16.6317 38.3329C16.9522 38.2744 17.2807 38.2744 17.6012 38.3329C18.5331 38.5008 20.7006 38.9523 23.1387 39.8677C24.4582 40.3612 25.8571 40.9906 27.1821 41.7845C27.8777 42.2019 28.3492 42.9108 28.4718 43.7124C28.8449 46.1724 29.6289 51.8965 29.6289 56.651Z" fill="#5766CB"/>
    <path d="M13.1711 45.6355C13.1711 45.6355 14.8152 48.6133 17.1161 50.2505C19.417 48.6133 21.061 45.6355 21.061 45.6355V40.6436H13.171L13.1711 45.6355Z" fill="#ECF4FF"/>
    <path d="M19.2988 48.1634C18.687 48.8987 17.944 49.6617 17.1159 50.2514C16.2878 49.6617 15.5446 48.8987 14.933 48.1634L17.1159 46.0644L19.2988 48.1634ZM13.1713 42.2715L17.1164 46.0642L21.0615 42.2715" fill="#D57080"/>
    <path d="M10.6978 49.3047C10.6978 49.3047 9.52858 53.4895 9.52858 56.6507H4.604C4.604 51.8961 5.38802 46.1721 5.76115 43.7121C5.88365 42.9104 6.35516 42.2016 7.05079 41.7842C10.9485 43.7893 10.6978 49.3047 10.6978 49.3047ZM29.6288 56.6507H24.7053C24.7053 53.4895 23.5361 49.3047 23.5361 49.3047C23.5361 49.3047 23.2854 43.7893 27.182 41.7842C27.8776 42.2016 28.3491 42.9104 28.4716 43.7121C28.8449 46.1721 29.6288 51.8962 29.6288 56.6507Z" fill="#ECF4FF"/>
    <path d="M11.3823 56.6506H9.52734C9.52734 53.4894 10.6966 49.3047 10.6966 49.3047C10.6966 49.3047 10.7253 53.4431 11.3823 56.6506Z" fill="#3D4FC3"/>
    <path d="M26.79 56.651H24.7053C24.7053 53.4898 23.5361 49.305 23.5361 49.305C23.5361 49.305 26.7138 50.9546 26.79 56.651ZM7.05079 41.7845C7.76193 41.3582 8.49506 40.9796 9.22495 40.6439C8.68719 41.0955 8.32169 41.854 8.22681 42.7109C7.93531 45.362 7.32142 51.5288 7.32142 56.651H4.604C4.604 51.8964 5.38802 46.1724 5.76115 43.7124C5.88377 42.9108 6.35516 42.2019 7.05079 41.7845ZM23.1385 39.8677L21.0616 45.6359L17.1164 41.8431L13.1713 45.6359L11.0944 39.8677C13.5324 38.9523 15.6998 38.5007 16.6318 38.3329C16.9523 38.2744 17.2808 38.2744 17.6013 38.3329C18.5331 38.5007 20.7005 38.9523 23.1385 39.8677Z" fill="#DDEAFB"/>
    <path d="M20.1115 33.8457V38.8477C20.1115 40.5015 18.7703 41.8426 17.1166 41.8426C15.4619 41.8426 14.1208 40.5015 14.1208 38.8477V33.8457H20.1115Z" fill="#FFDDCE"/>
    <path d="M18.0946 41.6795C17.7799 41.7877 17.4495 41.8428 17.1167 41.8426C15.462 41.8426 14.121 40.5015 14.121 38.8477V33.8457H16.0767V38.8477C16.0767 40.16 16.9203 41.2747 18.0946 41.6795Z" fill="#FFCBBE"/>
    <path d="M14.1208 33.8457H20.1115V38.4538H14.1208V33.8457Z" fill="#FFCBBE"/>
    <path d="M29.6284 20.8756V27.7487C29.6284 32.785 25.5456 36.8687 20.5085 36.8687H13.7229C8.68659 36.8687 4.60303 32.7859 4.60303 27.7487V20.954C6.15593 20.9088 8.29283 20.644 10.5946 20.1762C15.3118 19.2173 20.7267 17.4048 23.2457 14.8857C23.2457 14.8857 25.7376 19.9778 29.6284 20.8756Z" fill="#FFDDCE"/>
    <path d="M19.7145 36.8683H13.7229C8.68659 36.8683 4.60303 32.7855 4.60303 27.7483V20.9535C6.15593 20.9084 8.29283 20.6435 10.5946 20.1758V27.7483C10.5945 32.7846 14.6773 36.8683 19.7145 36.8683Z" fill="#FFCBBE"/>
    <path d="M24.487 29.6424C25.6182 29.6424 26.5352 29.0847 26.5352 28.3969C26.5352 27.709 25.6182 27.1514 24.487 27.1514C23.3558 27.1514 22.4387 27.709 22.4387 28.3969C22.4387 29.0847 23.3558 29.6424 24.487 29.6424Z" fill="#EAAFA5"/>
    <path d="M9.74564 29.6424C10.8769 29.6424 11.7939 29.0847 11.7939 28.3969C11.7939 27.709 10.8769 27.1514 9.74564 27.1514C8.61442 27.1514 7.69739 27.709 7.69739 28.3969C7.69739 29.0847 8.61442 29.6424 9.74564 29.6424Z" fill="#EAAFA5"/>
    <path d="M4.83789 56.5996H57.6328V62.2267H4.83789V56.5996Z" fill="#8B5E5E"/>
    <path d="M59.0841 57.9663H3.38675C2.62412 57.9663 2.00598 57.348 2.00598 56.5855V54.83C2.00598 54.0674 2.62424 53.4492 3.38675 53.4492H59.084C59.8466 53.4492 60.4648 54.0675 60.4648 54.83V56.5855C60.4649 57.348 59.8466 57.9663 59.0841 57.9663Z" fill="#9D6B6B"/>
    <path d="M38.2373 25.5426C38.8905 25.5426 39.422 24.6614 39.422 23.5784C39.422 22.4954 38.8905 21.6143 38.2373 21.6143C37.5839 21.6143 37.0524 22.4954 37.0524 23.5784C37.0524 24.6614 37.584 25.5426 38.2373 25.5426ZM49.9719 25.5426C50.6252 25.5426 51.1567 24.6614 51.1567 23.5784C51.1567 22.4954 50.6252 21.6143 49.9719 21.6143C49.3186 21.6143 48.7871 22.4954 48.7871 23.5784C48.7871 24.6614 49.3186 25.5426 49.9719 25.5426ZM44.1046 31.9129C44.989 31.9129 45.8204 31.5685 46.4456 30.9433C46.5327 30.8562 46.6017 30.7529 46.6489 30.6391C46.696 30.5253 46.7202 30.4034 46.7202 30.2803C46.7202 30.1572 46.6959 30.0353 46.6488 29.9215C46.6017 29.8078 46.5326 29.7044 46.4455 29.6174C46.2697 29.4416 46.0313 29.3428 45.7826 29.3428C45.534 29.3428 45.2956 29.4416 45.1197 29.6174C44.9868 29.7511 44.8286 29.8571 44.6543 29.9293C44.4801 30.0014 44.2933 30.0383 44.1047 30.0378C43.9161 30.0383 43.7293 30.0014 43.555 29.9292C43.3808 29.857 43.2226 29.751 43.0896 29.6173C43.0029 29.5287 42.8994 29.4582 42.7853 29.4099C42.6712 29.3615 42.5486 29.3363 42.4246 29.3356C42.3007 29.335 42.1778 29.3589 42.0632 29.4061C41.9485 29.4532 41.8444 29.5226 41.7567 29.6103C41.6691 29.6979 41.5997 29.8021 41.5526 29.9168C41.5054 30.0314 41.4815 30.1543 41.4822 30.2782C41.4829 30.4022 41.5081 30.5248 41.5565 30.6389C41.6048 30.753 41.6754 30.8564 41.7639 30.9432C42.3889 31.5685 43.2202 31.9129 44.1046 31.9129Z" fill="black"/>
    <path d="M57.143 30.589C59.5697 30.326 61.4652 28.2657 61.4652 25.7703C61.4652 25.4091 61.4252 25.0486 61.3461 24.6989C61.2051 24.074 60.8922 23.5518 60.4656 23.1683C63.1406 20.3887 64.3328 16.8011 63.9204 12.7081C63.5776 9.30744 62.2543 6.7749 62.1982 6.66878C62.1347 6.54874 62.0459 6.44393 61.9378 6.36161C61.8298 6.27929 61.7052 6.22142 61.5726 6.19201C61.44 6.1626 61.3026 6.16235 61.1699 6.19127C61.0372 6.22019 60.9124 6.2776 60.8041 6.35952C59.5284 7.32454 58.347 6.6994 55.7587 4.92963C55.6571 4.86013 55.5428 4.81133 55.4223 4.78602C55.3018 4.76071 55.1775 4.75937 55.0565 4.78209C54.9355 4.80482 54.8202 4.85115 54.7171 4.91845C54.614 4.98574 54.5252 5.07269 54.4557 5.17432C54.3862 5.27595 54.3374 5.39027 54.3121 5.51075C54.2867 5.63124 54.2854 5.75553 54.3081 5.87654C54.3309 5.99754 54.3772 6.11288 54.4445 6.21598C54.5118 6.31907 54.5987 6.40791 54.7004 6.4774C56.7239 7.86105 58.8065 9.28569 60.9373 8.42918C61.3177 9.36969 61.8621 10.9843 62.0548 12.8962C62.445 16.7679 61.2505 19.9841 58.5039 22.4616C58.1802 22.4693 57.8598 22.528 57.5544 22.6355V20.7371C57.5544 20.4885 57.4556 20.25 57.2798 20.0742C57.104 19.8984 56.8655 19.7996 56.6169 19.7996C50.1223 19.7996 45.4305 18.2783 42.638 17.0021C39.6134 15.6197 38.1017 14.2184 38.0885 14.2061C37.9555 14.08 37.7884 13.9955 37.6079 13.9634C37.4275 13.9312 37.2415 13.9526 37.0731 14.025C36.9047 14.0974 36.7612 14.2176 36.6604 14.3708C36.5596 14.5239 36.506 14.7032 36.5061 14.8865C36.5061 16.6112 35.6293 18.1535 34.2315 19.036V17.9521C34.2315 14.4449 33.1705 11.1811 31.3535 8.46368C32.9959 8.74569 34.3807 9.38482 34.399 9.39345C34.6035 9.48965 34.8358 9.50876 35.0532 9.44725C35.2707 9.38574 35.4586 9.24775 35.5823 9.05869C35.6238 8.99519 39.8009 2.71109 45.0832 2.71109C47.3194 2.71109 49.401 3.28673 51.6343 4.52262C51.8516 4.63894 52.1059 4.66505 52.3422 4.59532C52.5786 4.52558 52.778 4.36561 52.8973 4.14999C53.0166 3.93438 53.0462 3.68046 52.9798 3.44316C52.9133 3.20586 52.7561 3.00426 52.5422 2.88197C50.0197 1.48607 47.6495 0.835938 45.0831 0.835938C39.8496 0.835938 35.7894 5.62189 34.4668 7.39241C33.4818 7.01628 31.6404 6.4324 29.7887 6.45977C26.655 3.00735 22.1342 0.836188 17.1156 0.836188C7.678 0.836188 0 8.51418 0 17.9518V33.3077C0 37.1274 1.93378 40.6137 5.10795 42.6346C4.97569 42.9333 4.88356 43.2481 4.83395 43.571C4.5542 45.4151 4.07094 48.9121 3.82306 52.5112H3.38693C2.10853 52.5112 1.06864 53.5513 1.06864 54.8295V56.585C1.06864 57.8634 2.10866 58.9033 3.38693 58.9033H3.90106V62.2266C3.90106 62.4753 3.99983 62.7137 4.17565 62.8896C4.35147 63.0654 4.58993 63.1642 4.83858 63.1642H11.2387C11.4873 63.1642 11.7258 63.0654 11.9016 62.8896C12.0774 62.7137 12.1762 62.4753 12.1762 62.2266C12.1762 61.978 12.0774 61.7395 11.9016 61.5637C11.7258 61.3879 11.4873 61.2891 11.2387 61.2891H5.77609V58.9035H56.6956V61.2892H14.9037C14.6551 61.2892 14.4166 61.388 14.2408 61.5638C14.065 61.7397 13.9662 61.9781 13.9662 62.2268C13.9662 62.4754 14.065 62.7139 14.2408 62.8897C14.4166 63.0655 14.6551 63.1643 14.9037 63.1643H57.6332C57.8818 63.1643 58.1203 63.0655 58.2961 62.8897C58.4719 62.7139 58.5707 62.4754 58.5707 62.2268V58.9035H59.0842C60.3626 58.9035 61.4026 57.8634 61.4026 56.5852V54.8296C61.4026 53.5513 60.3626 52.5114 59.0842 52.5114H57.398C57.1503 48.9127 56.667 45.4154 56.3869 43.5694C56.2205 42.4856 55.5885 41.5419 54.6522 40.9798C53.4113 40.2365 51.9992 39.567 50.456 38.9902C49.6603 38.6926 48.8535 38.4255 48.0375 38.1891V37.7911C52.3588 37.5611 55.9627 34.5898 57.143 30.589ZM57.5548 25.3303C57.5548 24.4847 58.2905 24.3599 58.4379 24.3434C58.5854 24.3269 59.3307 24.2867 59.5171 25.1119C59.5656 25.3263 59.5901 25.5478 59.5901 25.7702C59.5901 27.0965 58.7168 28.2224 57.5151 28.604C57.5392 28.3215 57.5541 28.0365 57.5541 27.7479V25.3303H57.5548ZM38.1568 16.6334C40.5945 18.3321 46.3308 21.4659 55.6791 21.6644V27.7477C55.6791 32.2598 52.0089 35.9306 47.4975 35.9306H40.712C38.1777 35.9306 35.7771 34.744 34.2313 32.7428V21.1396C36.1946 20.3172 37.6278 18.6503 38.1568 16.6334ZM49.5875 49.3473C49.5907 49.4182 49.602 49.4884 49.6212 49.5567C49.6255 49.5722 49.982 50.8586 50.2934 52.5112H37.9162C38.2276 50.8586 38.5842 49.5722 38.5885 49.5567C38.6075 49.4884 38.6188 49.4181 38.6221 49.3473C38.6249 49.2852 38.6861 47.8068 38.2312 46.0601C37.7728 44.3 36.9482 42.8813 35.8158 41.8764C36.3764 41.5941 36.9475 41.3332 37.528 41.0944L39.2774 45.9531C39.2944 46.0003 39.316 46.0446 39.3397 46.0876L39.3381 46.0885C39.3674 46.1415 40.0679 47.4025 41.2004 48.7624C41.9745 49.6932 42.7685 50.451 43.5603 51.0146C43.7231 51.1305 43.9134 51.1883 44.1041 51.1883C44.2947 51.1883 44.4851 51.1305 44.6478 51.0146C45.4396 50.451 46.2336 49.6932 47.0074 48.7628C48.1403 47.4024 48.8409 46.1415 48.87 46.0885L48.8693 46.088C48.8931 46.0448 48.9149 46.0003 48.932 45.953L50.6815 41.0942C51.2621 41.3331 51.8333 41.594 52.3939 41.8764C51.2616 42.8813 50.437 44.2999 49.9785 46.06C49.5235 47.8068 49.5846 49.2852 49.5875 49.3473ZM11.2424 46.0601C10.784 44.3001 9.95953 42.8816 8.82714 41.8767C9.3878 41.5943 9.95901 41.3334 10.5395 41.0944L12.2891 45.9533C12.3061 46.0004 12.3277 46.0448 12.3514 46.0879L12.3499 46.0888C12.3792 46.1418 13.0797 47.4028 14.2121 48.7627C14.9862 49.6933 15.7802 50.4511 16.572 51.0148C16.7348 51.1307 16.9253 51.1886 17.1158 51.1886C17.3063 51.1886 17.4968 51.1307 17.6595 51.0148C18.4513 50.4511 19.2453 49.6933 20.0191 48.7631C21.1518 47.4027 21.8525 46.1418 21.8816 46.0888L21.8807 46.0883C21.9046 46.045 21.9263 46.0005 21.9433 45.9533L23.6927 41.0946C24.2733 41.3333 24.8444 41.5942 25.405 41.8766C24.2726 42.8815 23.448 44.3001 22.9896 46.0603C22.5347 47.8069 22.5959 49.2853 22.5987 49.3474C22.602 49.4182 22.6132 49.4886 22.6324 49.5568C22.6366 49.5723 22.9932 50.8587 23.3046 52.5114H10.9275C11.2389 50.8587 11.5956 49.5723 11.5998 49.5568C11.6189 49.4885 11.6301 49.4183 11.6334 49.3474C11.6362 49.2852 11.6974 47.8068 11.2424 46.0601ZM13.3845 40.0859C13.7047 41.0483 14.3867 41.8466 15.2691 42.3182L13.5635 43.9579L12.2952 40.4353C12.6552 40.3124 13.0187 40.1962 13.3845 40.0859ZM15.0585 37.8059H19.1742V38.8474C19.1742 39.982 18.251 40.9052 17.1164 40.9052C15.9817 40.9052 15.0586 39.982 15.0586 38.8474L15.0585 37.8059ZM17.1159 44.7635L16.2734 43.9536L17.1164 43.1432L17.9589 43.9532L17.1159 44.7635ZM14.9206 45.2541L15.7631 46.064L15.0319 46.7672C14.7981 46.4492 14.5745 46.1238 14.3616 45.7915L14.9206 45.2541ZM17.1159 47.3645L18.0014 48.2159C17.7055 48.5304 17.4098 48.8137 17.1159 49.0628C16.8221 48.8137 16.5264 48.5306 16.2304 48.2159L17.1159 47.3645ZM19.1998 46.7672L18.4685 46.064L19.3116 45.2536L19.8704 45.7909C19.6575 46.1234 19.4338 46.449 19.1998 46.7672ZM18.9637 42.3181C19.8462 41.8464 20.5281 41.0482 20.8483 40.0858C21.2146 40.1962 21.5781 40.3124 21.9376 40.4352L20.6693 43.9577L18.9637 42.3181ZM20.5086 35.9309H13.7228C9.21102 35.9309 5.54046 32.2602 5.54046 27.7485V21.8451C8.12988 21.6644 11.5493 21.0361 14.5526 20.1756C17.2028 19.4163 20.6622 18.1658 22.9947 16.3503C23.927 17.8687 25.9163 20.5887 28.6909 21.576V27.7486C28.6909 32.2602 25.0204 35.9309 20.5086 35.9309ZM25.2114 52.5112C24.922 50.8915 24.5763 49.5627 24.4703 49.1688C24.4673 48.8448 24.4846 47.7345 24.8166 46.486C25.2488 44.8611 26.0164 43.6655 27.1018 42.9218C27.3374 43.1819 27.4914 43.5053 27.5447 43.8521C27.8166 45.6445 28.2841 49.0233 28.5308 52.5112H25.2114ZM30.4105 52.5112C30.1615 48.9108 29.6781 45.4143 29.3982 43.5691C29.3486 43.2466 29.2565 42.9321 29.1243 42.6338C31.7402 40.9676 33.513 38.3063 34.0553 35.2836C35.7432 36.7712 37.899 37.6673 40.1717 37.7904V38.189C39.3561 38.425 38.5497 38.6921 37.7543 38.9897C36.2069 39.568 34.7947 40.2377 33.5566 40.9801C32.6213 41.5417 31.9891 42.4853 31.8225 43.5709C31.5429 45.4144 31.0595 48.9108 30.8106 52.5111H30.4105V52.5112ZM44.1041 44.7635L43.2616 43.9536L44.1046 43.1431L44.9471 43.9531L44.1041 44.7635ZM41.9088 45.2542L42.7513 46.0641L42.02 46.7673C41.7862 46.4493 41.5627 46.1239 41.3498 45.7916L41.9088 45.2542ZM44.1041 47.3645L44.9895 48.2159C44.6934 48.5304 44.3978 48.8137 44.1041 49.0628C43.8103 48.8137 43.5147 48.5306 43.2187 48.2159L44.1041 47.3645ZM46.188 46.7673L45.4567 46.0641L46.2997 45.2537L46.8586 45.7911C46.6456 46.1236 46.4219 46.4491 46.188 46.7673ZM40.5518 43.9579L39.2834 40.4353C39.6443 40.3124 40.0075 40.1959 40.3726 40.0859C40.6929 41.0483 41.3748 41.8466 42.2573 42.3182L40.5518 43.9579ZM33.676 43.8539C33.7304 43.5001 33.887 43.1788 34.1192 42.9218C35.2044 43.6655 35.9723 44.8611 36.4043 46.486C36.7366 47.7357 36.7537 48.8469 36.7507 49.1687C36.6447 49.5623 36.2988 50.8912 36.0094 52.5112H32.69C32.9369 49.0233 33.4044 45.6446 33.676 43.8539ZM47.6574 43.9579L45.9517 42.3182C46.8342 41.8466 47.5162 41.0483 47.8364 40.0859C48.202 40.1962 48.5655 40.3124 48.9256 40.4353L47.6574 43.9579ZM46.1623 38.8474C46.1623 39.9819 45.2396 40.9048 44.1051 40.9052H44.1038C42.9694 40.9048 42.0467 39.9819 42.0467 38.8474V37.8058H46.1623V38.8474ZM1.87503 33.3077V17.9518C1.87503 9.54807 8.71189 2.71122 17.1156 2.71122C25.5194 2.71122 32.3563 9.54807 32.3563 17.9518V33.3077C32.3563 36.5495 30.6795 39.5038 27.9396 41.1643C27.8505 41.0987 27.7585 41.0372 27.6639 40.9799C26.4263 40.2378 25.014 39.5682 23.4677 38.9902C22.6721 38.6924 21.8653 38.4253 21.0492 38.1891V37.791C26.3444 37.5091 30.566 33.1128 30.566 27.7485V20.8754C30.566 20.6634 30.4941 20.4576 30.3621 20.2917C30.2301 20.1258 30.0458 20.0095 29.8392 19.9619C26.4367 19.1768 24.1104 14.5195 24.0878 14.4735C24.0222 14.3395 23.9255 14.2231 23.8058 14.1339C23.6862 14.0447 23.547 13.9854 23.3998 13.9609C23.2526 13.9364 23.1016 13.9473 22.9595 13.9929C22.8174 14.0384 22.6882 14.1172 22.5827 14.2228C19.0159 17.7896 8.96414 19.8907 4.57595 20.0169C4.33205 20.0239 4.1005 20.1257 3.93046 20.3006C3.76042 20.4756 3.6653 20.71 3.66531 20.954V27.7486C3.66531 33.1133 7.88762 37.51 13.1835 37.7913V38.1891C12.3677 38.4254 11.5612 38.6925 10.7657 38.9899C9.22139 39.5672 7.8095 40.2367 6.56785 40.9803C6.47248 41.0376 6.3811 41.0998 6.29222 41.1648C3.55193 39.5047 1.87503 36.5504 1.87503 33.3077ZM6.68748 43.8539C6.74079 43.5065 6.89482 43.1825 7.13049 42.9218C8.21588 43.6655 8.98351 44.8611 9.41565 46.486C9.74803 47.7357 9.76515 48.8469 9.76215 49.1687C9.65615 49.5623 9.3104 50.8912 9.02089 52.5112H5.70246C5.94822 49.0246 6.41573 45.6453 6.68748 43.8539ZM59.5274 54.8295V56.585C59.5273 56.7026 59.4805 56.8153 59.3974 56.8984C59.3143 56.9815 59.2016 57.0282 59.084 57.0283H3.3868C3.26928 57.0282 3.15662 56.9814 3.07352 56.8983C2.99042 56.8152 2.94368 56.7026 2.94355 56.585V54.8295C2.94368 54.712 2.99042 54.5993 3.07352 54.5162C3.15662 54.4331 3.26928 54.3864 3.3868 54.3863H59.084C59.2016 54.3864 59.3143 54.4331 59.3974 54.5162C59.4805 54.5993 59.5273 54.712 59.5274 54.8295ZM55.5185 52.5112H52.1999C51.9106 50.8915 51.5648 49.5627 51.4587 49.1688C51.4558 48.8448 51.4731 47.7345 51.8051 46.486C52.2373 44.861 53.005 43.6653 54.0903 42.9218C54.3258 43.1819 54.4798 43.5054 54.5331 43.8521C54.8052 45.6454 55.2727 49.0251 55.5185 52.5112Z" fill="black"/>
    <path d="M11.446 22.6113C11.4049 22.6113 10.0278 22.6217 9.96946 22.6222C9.57946 22.6222 9.26233 22.9395 9.26233 23.3293C9.26233 23.7192 9.57958 24.0365 9.96946 24.0365H10.2933C10.2614 24.2196 10.2454 24.4052 10.2456 24.5911C10.2456 25.6828 10.7841 26.5709 11.446 26.5709C12.1079 26.5709 12.6464 25.6828 12.6464 24.5911C12.6463 23.4995 12.1079 22.6113 11.446 22.6113ZM24.2621 22.6222C24.1972 22.6217 22.7364 22.6113 22.6954 22.6113C22.0335 22.6113 21.495 23.4995 21.495 24.5911C21.495 25.6828 22.0335 26.5709 22.6954 26.5709C23.3573 26.5709 23.8958 25.6828 23.8958 24.5911C23.8958 24.4029 23.8798 24.2166 23.8481 24.0365H24.2621C24.4496 24.0363 24.6293 23.9617 24.7619 23.8291C24.8945 23.6966 24.9691 23.5168 24.9693 23.3293C24.9691 23.1419 24.8945 22.9621 24.7619 22.8296C24.6293 22.697 24.4495 22.6224 24.2621 22.6222ZM18.048 29.6692C17.5341 30.1832 16.6977 30.1833 16.1834 29.6692C16.0073 29.4947 15.7693 29.397 15.5214 29.3975C15.2734 29.3981 15.0358 29.4968 14.8605 29.6721C14.6852 29.8475 14.5865 30.0851 14.5859 30.333C14.5854 30.581 14.6831 30.819 14.8577 30.9951C15.4802 31.6176 16.2979 31.9288 17.1157 31.9288C17.9335 31.9288 18.7512 31.6176 19.3737 30.9951C19.5483 30.819 19.646 30.581 19.6455 30.333C19.6449 30.0851 19.5462 29.8475 19.3709 29.6721C19.1956 29.4968 18.958 29.3981 18.71 29.3975C18.4621 29.397 18.2241 29.4947 18.048 29.6692Z" fill="black"/>
  </g>
  <defs>
    <clipPath id="clip0_3009_3276">
      <rect width="64" height="64" fill="white"/>
    </clipPath>
  </defs>
</svg>
